<?xml version="1.0" encoding="UTF-8"?><svg id="a" xmlns="http://www.w3.org/2000/svg" viewBox="0 0 484.44 469.68"><path d="M397.42,462.54c-11,9.95-12.38,9.46-22.62-1.23-22.41-23.34-45.08-46.41-67.68-69.56-2.01-2.07-4.42-3.77-8.04-6.79-8.4,10.26-16.53,20.08-24.53,30.01-8.11,10.09-15.89,20.44-24.17,30.39-8.85,10.62-13.48,11.87-26.01,6.48-11.34-4.87-22.18-10.86-33.5-15.79-18.31-7.98-36.82-15.45-55.19-23.28-4.87-2.07-9.5-4.66-14.2-7.09-7.96-4.15-9.04-10.24-4.61-17.59,3.03-5.04,6.39-9.86,9.48-14.86,18.83-30.54,37.65-61.08,56.4-91.66,1.21-1.95,1.78-4.25,1.31-3.09-24.99-26.62-48.7-51.93-72.46-77.14-3.62-3.85-7.89-7.11-11.43-11-7.87-8.68-7.58-12.42,1.44-20.46,2.62-2.35,5.59-4.32,8.42-6.39,23.68-17.44,47.21-35.07,71.15-52.14,8.06-5.76,16.99-10.43,25.82-15,11.39-5.9,21.63-3.39,30.47,5.61,7,7.13,13.92,14.35,20.97,21.46,4.04,4.08,8.23,8.02,13.42,13.06,9.33-14.03,17.65-26.77,26.2-39.34,8.97-13.16,12.32-14.62,26.03-7.49,37.54,19.53,74.96,39.36,111.99,59.83,17.63,9.73,19.26,17.08,8.25,34.2-13.35,20.78-27.81,40.84-41.73,61.24-3.62,5.29-7.07,10.69-11.39,17.23,9.06,9.63,17.86,18.9,26.58,28.29,18.01,19.38,36,38.81,53.9,58.3,3.17,3.45,5.97,7.26,8.74,11.07,5.63,7.72,5.52,14.92-1.57,22.03" fill="#000" stroke-width="0"/><path d="M323.77,448.52c-17.09,0-27.61-10.99-34.59-18.26-16.48-17.17-33.12-34.2-49.77-51.23-.76.94-1.52,1.88-2.28,2.82-3.07,3.83-6.13,7.73-9.18,11.64-4.91,6.26-9.98,12.74-15.3,19.14-5.28,6.35-17.63,21.17-39.24,21.17-9.59,0-17.95-3.07-24.16-5.75-6.53-2.8-12.7-5.83-18.66-8.76-5.2-2.56-10.12-4.97-14.95-7.07-10.5-4.57-21.05-8.97-31.62-13.38-7.79-3.25-15.59-6.5-23.35-9.81-4.98-2.12-9.49-4.49-13.46-6.59l-2.91-1.53c-14.91-7.77-20.74-19.02-23-27.1-2.29-8.14-3.17-20.93,5.67-35.58,1.85-3.08,3.84-6.14,5.83-9.19,1.3-1.98,2.59-3.96,3.84-5.97,15.08-24.44,30.15-48.89,45.19-73.38l-2.41-2.57c-18.2-19.4-35.87-38.23-53.58-57.01-1.19-1.26-2.46-2.37-3.7-3.5-2.34-2.13-5.26-4.78-8.15-7.96C9.91,154.18-.86,142.32.05,125.03c.91-17.37,13.14-28.28,17.74-32.39,3.3-2.96,6.55-5.27,9.15-7.13l1.74-1.25,18.01-13.3c17.4-12.87,35.38-26.18,53.41-39.04,10.19-7.28,21.01-12.88,29.7-17.38,8.68-4.5,17.7-6.79,26.79-6.79,10.61,0,26.39,3.19,41.35,18.4,2.15,2.19,4.3,4.39,6.43,6.59,1.57-2.33,3.13-4.65,4.7-6.96,5.71-8.38,17.56-25.78,40.37-25.78,10.46,0,19.18,3.78,27.03,7.87,43.62,22.7,79.43,41.83,112.7,60.2,6.9,3.82,25.26,13.96,30.43,34.42,4.6,18.21-3.3,33.75-10.69,45.25-9.34,14.53-19.19,28.72-28.72,42.44-3.52,5.07-7.05,10.14-10.54,15.22,3.09,3.3,6.18,6.59,9.25,9.9,18.04,19.41,36.06,38.88,54.01,58.42,4.48,4.87,8.12,9.87,11.05,13.89,15.04,20.63,13.17,45.6-4.78,63.61-7.88,7.93-15.72,15.99-23.56,24.04-9,9.25-17.99,18.49-27.11,27.61-11.42,11.45-23.09,22.15-31.98,30.2-6.81,6.15-17.07,15.44-32.76,15.44h0Z" fill="#000" stroke-width="0"/><path d="M121.64,225.21c-24.99-26.62-48.7-51.93-72.46-77.14-3.62-3.85-7.89-7.11-11.43-11-7.87-8.68-7.58-12.42,1.44-20.46,2.62-2.35,5.59-4.32,8.42-6.39,23.68-17.44,47.21-35.07,71.15-52.14,8.06-5.76,16.99-10.43,25.82-15,11.39-5.9,21.63-3.39,30.47,5.61,7,7.13,13.92,14.35,20.97,21.46,4.04,4.08,8.23,8.02,13.42,13.06,9.33-14.03,17.65-26.77,26.2-39.34,8.97-13.16,12.32-14.62,26.03-7.49,37.54,19.53,74.96,39.36,111.99,59.83,17.63,9.73,19.26,17.08,8.25,34.2-13.35,20.78-27.81,40.84-41.73,61.24-3.62,5.29-7.07,10.69-11.39,17.23,9.06,9.63,17.86,18.9,26.58,28.29,18.01,19.38,36,38.81,53.9,58.3,3.17,3.45,5.97,7.26,8.74,11.07,5.63,7.72,5.52,14.92-1.57,22.03-16.99,17.1-33.61,34.58-50.64,51.64-9.97,9.99-20.34,19.6-30.81,29.08-11,9.95-12.38,9.46-22.62-1.23-22.41-23.34-45.08-46.41-67.68-69.56-2.01-2.07-4.42-3.77-8.04-6.79-8.4,10.26-16.53,20.08-24.53,30.01-8.11,10.09-15.89,20.44-24.17,30.39-8.85,10.62-13.48,11.87-26.01,6.48-11.34-4.87-22.18-10.86-33.5-15.79-18.31-7.98-36.82-15.45-55.19-23.28-4.87-2.07-9.5-4.66-14.2-7.09-7.96-4.15-9.04-10.24-4.61-17.59,3.03-5.04,6.39-9.86,9.48-14.86,18.83-30.54,37.65-61.08,56.4-91.66,1.21-1.95,1.78-4.25,1.31-3.09Z" fill="#fff" stroke-width="0"/></svg>