<?xml version="1.0" encoding="UTF-8"?><svg id="a" xmlns="http://www.w3.org/2000/svg" viewBox="0 0 279.08 309.12"><ellipse cx="130.38" cy="282.61" rx="85.08" ry="24.98" transform="translate(-20.47 10.38) rotate(-4.23)" fill="#84ce88" stroke-width="0"/><path d="M198.88,38.63c-.72-.38-1.22-.34-1.96.23-.62.47-1.17,1.05-1.74,1.57.57-.52,1.12-1.1,1.74-1.57.74-.56,1.24-.61,1.96-.23Z" fill="none" stroke-width="0"/><path d="M195.77,69.98c.11,0,.23-.02.34-.02h0c-.11,0-.23.02-.34.02Z" fill="none" stroke-width="0"/><path d="M128.7,30.28c-1.11.26-2.21.57-3.29.97-.12.05-.24.1-.36.17.12-.07.24-.12.36-.17,1.08-.4,2.18-.72,3.29-.97Z" fill="none" stroke-width="0"/><path d="M179.44,70.17c-.18.22-.35.45-.51.69-.05.08-.11.16-.12.25.02-.09.07-.18.12-.25.16-.24.33-.47.51-.69Z" fill="none" stroke-width="0"/><path d="M178.92,71.43c.12,0,.27.01.43,0,2.16-.2,4.33-.39,6.49-.6-2.16.2-4.33.4-6.49.6-.15.01-.31,0-.43,0Z" fill="none" stroke-width="0"/><path d="M159.13,97.23c-1.58-1.29-2.99-2.75-4.29-4.33,1.3,1.58,2.72,3.04,4.29,4.33Z" fill="none" stroke-width="0"/><path d="M137.44,29.13c-1.79.03-3.58.19-5.37.49-1.13.19-2.26.4-3.37.66,1.11-.26,2.24-.46,3.37-.66,1.79-.31,3.58-.46,5.37-.49Z" fill="none" stroke-width="0"/><path d="M169.18,102.01c.87.14,1.74.22,2.59.23-.86-.02-1.72-.09-2.59-.23-3.07-.49-5.81-1.74-8.34-3.49-.59-.41-1.16-.84-1.71-1.29.55.45,1.12.88,1.71,1.29,2.53,1.75,5.28,3,8.34,3.49Z" fill="none" stroke-width="0"/><path d="M191.42,88.3c-1.58,2.94-3.49,5.65-5.89,7.99-.93.91-1.91,1.73-2.95,2.47,1.04-.74,2.03-1.56,2.95-2.47,2.4-2.34,4.3-5.05,5.89-7.99Z" fill="none" stroke-width="0"/><path d="M196.14,61.32c-.55.28-1.09.55-1.64.82-2.22,1.09-4.44,2.18-6.66,3.27,2.22-1.09,4.44-2.17,6.66-3.27.55-.27,1.09-.54,1.64-.82Z" fill="none" stroke-width="0"/><path d="M199.96,39.48c-.22-.25-.46-.48-.75-.66.29.19.54.41.75.66Z" fill="none" stroke-width="0"/><path d="M191.17,108.99c-.42.06-.82.22-1.2.51-.15.11-.26.3-.35.47.09-.17.2-.35.35-.47.38-.29.78-.45,1.2-.51Z" fill="none" stroke-width="0"/><path d="M191.47,115.58c.64-.6,1.23-1.26,1.74-1.99.14-.2.26-.41.36-.63-.1.21-.22.42-.36.63-.51.73-1.09,1.39-1.74,1.99Z" fill="none" stroke-width="0"/><path d="M183.66,109.98c-.09-.54-.04-1.11.14-1.7-.18.59-.22,1.16-.14,1.7Z" fill="none" stroke-width="0"/><path d="M193.4,109.79c-.23-.3-.55-.53-.96-.66-.21-.07-.43-.12-.64-.14.21.02.43.07.64.14.4.13.72.36.96.66Z" fill="none" stroke-width="0"/><path d="M186.24,104.69c.39-.3.82-.56,1.28-.79.51-.26,1.04-.46,1.56-.62-.53.16-1.05.36-1.56.62-.46.23-.89.5-1.28.79Z" fill="none" stroke-width="0"/><path d="M203.06,51.89c-.05-.94-.13-1.87-.23-2.81-.1-.94-.23-1.88-.4-2.82.17.93.3,1.87.4,2.82.1.94.18,1.87.23,2.81Z" fill="none" stroke-width="0"/><path d="M195.09,101.88c.08-.32.16-.65.24-.97.6-2.47,1.2-4.93,1.79-7.4-.59,2.47-1.19,4.93-1.79,7.4-.08.32-.16.64-.24.97Z" fill="none" stroke-width="0"/><path d="M74.29,99.58c-.83-1.33-1.61-2.7-2.35-4.1-.96-1.82-1.84-3.66-2.66-5.52.82,1.86,1.7,3.7,2.66,5.52.74,1.4,1.52,2.76,2.35,4.1Z" fill="none" stroke-width="0"/><path d="M159.36,104.13c.06.3.08.61.06.91.02-.3,0-.61-.06-.91Z" fill="none" stroke-width="0"/><path d="M155.97,110.39c1-.83,1.94-1.73,2.68-2.82.52-.76.84-1.61.78-2.52.06.91-.26,1.76-.78,2.52-.74,1.09-1.67,1.99-2.68,2.82Z" fill="none" stroke-width="0"/><path d="M154.42,111.45c.19-.05.37-.13.53-.26.35-.26.69-.53,1.02-.81-.33.28-.68.54-1.02.81-.16.12-.34.21-.53.26Z" fill="none" stroke-width="0"/><path d="M158.59,102.28c.34.5.65,1.16.78,1.86-.13-.7-.43-1.36-.78-1.86Z" fill="none" stroke-width="0"/><path d="M151.65,120.57c1.3-.03,2.6.04,3.91.12-1.3-.08-2.61-.15-3.91-.12h0Z" fill="none" stroke-width="0"/><path d="M146.3,107.05c-.79-.69-1.55-1.42-2.28-2.18-.23-.24-.46-.49-.7-.72.24.24.47.48.7.72.73.76,1.49,1.49,2.28,2.18Z" fill="none" stroke-width="0"/><path d="M148.03,112.58c-.96-.02-1.88-.14-2.78-.33.9.19,1.82.31,2.78.33.29.05.58.06.88.01-.3.04-.59.03-.88-.01Z" fill="none" stroke-width="0"/><path d="M143.83,111.87c-.4-.12-.8-.26-1.2-.42.4.15.79.29,1.2.42Z" fill="none" stroke-width="0"/><path d="M146.67,107.36c.76.64,1.56,1.25,2.4,1.8-.84-.55-1.63-1.16-2.4-1.8Z" fill="none" stroke-width="0"/><path d="M110.27,121.17c-1.34.21-2.7.31-4.09.3,1.39.01,2.75-.09,4.09-.3Z" fill="none" stroke-width="0"/><path d="M137.33,72.24c.04.16.08.32.1.48-.02-.16-.06-.32-.1-.48h0Z" fill="none" stroke-width="0"/><path d="M106.04,76.1c.34-.19.69-.38,1.04-.57-.34.19-.69.38-1.04.57-.34.19-.52.45-.58.81.06-.36.25-.62.58-.81Z" fill="none" stroke-width="0"/><path d="M137.43,79.77c-.1,1.87-.26,3.74-.5,5.61-.12.95-.26,1.9-.42,2.85.16-.94.3-1.89.42-2.85.23-1.87.4-3.74.5-5.61Z" fill="none" stroke-width="0"/><path d="M133.47,60.68c-.53.31-1.05.62-1.59.92-8.26,4.65-16.53,9.28-24.8,13.93,8.27-4.64,16.54-9.28,24.8-13.93.53-.3,1.06-.61,1.59-.92Z" fill="none" stroke-width="0"/><path d="M130.05,106.54c-.62,1.04-1.3,2.06-2.02,3.05-.86,1.17-1.77,2.28-2.75,3.32.98-1.04,1.9-2.15,2.75-3.32.72-.99,1.4-2.01,2.02-3.05Z" fill="none" stroke-width="0"/><path d="M125.28,112.91c-1.64,1.74-3.46,3.28-5.5,4.59-1.2.77-2.43,1.42-3.68,1.97,1.25-.54,2.48-1.2,3.68-1.97,2.04-1.31,3.87-2.85,5.5-4.59Z" fill="none" stroke-width="0"/><path d="M135.97,91.04c-.4,1.87-.9,3.72-1.48,5.55-1.12,3.49-2.56,6.83-4.43,9.95,1.87-3.12,3.31-6.46,4.43-9.95.59-1.83,1.08-3.68,1.48-5.55Z" fill="none" stroke-width="0"/><path d="M135.28,56.9c.24,1.07.39,1.92.4,2.38-.2.14-.41.31-.64.45.23-.14.45-.31.64-.45,0-.47-.15-1.31-.4-2.38Z" fill="none" stroke-width="0"/><path d="M73.23,110.5c-.2-.16-.37-.33-.53-.52.16.19.33.36.53.52,1.03.84,1.95,1.79,2.75,2.84-.8-1.05-1.72-2-2.75-2.84Z" fill="none" stroke-width="0"/><path d="M75.46,136.66c-.71-.17-1.42-.36-2.12-.56.7.2,1.41.39,2.12.56Z" fill="none" stroke-width="0"/><path d="M187.08,113.67c.33.12.66.18.98.16-.32.02-.65-.04-.98-.16Z" fill="none" stroke-width="0"/><path d="M194.71,103.38c.08-.33.16-.63.24-.94-.08.31-.16.62-.24.94h0Z" fill="none" stroke-width="0"/><path d="M203.06,51.89c.05.94.08,1.88.09,2.81,0-.94-.04-1.88-.09-2.81Z" fill="none" stroke-width="0"/><path d="M61.76,117c.8-.54,1.65-.92,2.55-1.14-.91.22-1.76.6-2.55,1.14Z" fill="none" stroke-width="0"/><path d="M199.96,39.48c.22.25.4.53.57.83-.17-.3-.35-.57-.57-.83Z" fill="none" stroke-width="0"/><path d="M66.44,115.66c-.25,0-.49,0-.73,0,.24-.01.48-.01.73,0h0Z" fill="none" stroke-width="0"/><path d="M68.83,115.81c.39.08.78.2,1.14.36-.36-.17-.74-.28-1.14-.36Z" fill="none" stroke-width="0"/><path d="M64.31,115.86c.45-.11.92-.18,1.4-.2-.48.03-.95.09-1.4.2Z" fill="none" stroke-width="0"/><path d="M176.81,101.58c.82-.24,1.64-.54,2.44-.91-.8.37-1.62.67-2.44.91Z" fill="none" stroke-width="0"/><path d="M112.25,120.77c1.31-.32,2.59-.75,3.85-1.3-1.25.54-2.54.98-3.85,1.3Z" fill="none" stroke-width="0"/><path d="M137.51,73.67c0-.31-.02-.63-.07-.95.05.32.06.63.07.95Z" fill="none" stroke-width="0"/><path d="M135.28,56.9c-.12-.54-.27-1.13-.43-1.76.17.63.31,1.23.43,1.76Z" fill="none" stroke-width="0"/><path d="M63.37,121.43c.11.38.24.76.39,1.12-.15-.36-.27-.73-.39-1.12Z" fill="none" stroke-width="0"/><path d="M146.81,30.28c.08.04.17.11.28.18-.11-.07-.19-.14-.28-.18Z" fill="none" stroke-width="0"/><path d="M124.64,31.64h0c.15-.07.28-.15.4-.21-.12.07-.26.14-.4.21Z" fill="none" stroke-width="0"/><path d="M174.31,102.1c.84-.11,1.67-.28,2.49-.52-.82.24-1.65.41-2.49.52Z" fill="none" stroke-width="0"/><path d="M137.45,29.13c.88-.01,1.76,0,2.64.05-.88-.04-1.76-.06-2.64-.05Z" fill="none" stroke-width="0"/><path d="M61.17,117.43c.19-.15.39-.3.59-.43-.2.13-.39.28-.59.43-1.19.96-2.1,2.11-2.71,3.45.62-1.34,1.52-2.5,2.71-3.45Z" fill="none" stroke-width="0"/><path d="M65.32,117.92c-.09-.05-.17-.07-.26-.08.08.01.17.04.26.08-.03.1-.03.19-.08.24-.26.28-.38.54-.39.78,0-.24.13-.49.39-.78.05-.05.05-.15.08-.24Z" fill="none" stroke-width="0"/><path d="M69.86,127.52c-.19-.02-.38-.04-.57-.07-.15-.02-.3-.05-.45-.08.15.03.3.06.45.08.19.03.38.05.57.07Z" fill="none" stroke-width="0"/><path d="M65.58,120.04c-.44-.35-.73-.69-.73-1.08,0,.38.29.72.73,1.08.03.02.06.05.09.07,1.62,1.23,3.52,1.28,5.42,1.31h0c-1.91-.02-3.8-.08-5.42-1.31-.03-.02-.06-.05-.09-.07Z" fill="none" stroke-width="0"/><path d="M72.46,127.38c-.61.14-1.24.2-1.87.19.64.01,1.26-.05,1.87-.19Z" fill="none" stroke-width="0"/><path d="M57.67,123.48c-.11.8-.09,1.6.04,2.4-.13-.8-.15-1.6-.04-2.4Z" fill="none" stroke-width="0"/><path d="M78.16,118.07c.15.85.18,1.72.1,2.63-.09,1.02-.33,1.95-.73,2.77.4-.83.64-1.75.73-2.77.08-.9.04-1.78-.1-2.63Z" fill="none" stroke-width="0"/><path d="M58.46,128.02c.07.09.16.18.26.26.54.43,1.07.88,1.6,1.32-.53-.44-1.06-.89-1.6-1.32-.1-.08-.18-.16-.26-.26Z" fill="none" stroke-width="0"/><path d="M71.31,117.18c-.21-.26-.45-.5-.75-.69-.19-.12-.39-.22-.6-.32.21.09.4.2.6.32.3.18.54.43.75.69Z" fill="none" stroke-width="0"/><path d="M64.59,132.57c.91.51,1.85.97,2.81,1.4.22.1.44.18.66.28-.22-.09-.44-.18-.66-.28-.96-.42-1.9-.89-2.81-1.4Z" fill="none" stroke-width="0"/><path d="M58.39,63.83c.08,2.58.36,5.14.76,7.69.17,1.08.36,2.16.57,3.24-.21-1.07-.4-2.15-.57-3.24-.4-2.55-.69-5.11-.76-7.69Z" fill="none" stroke-width="0"/><path d="M67.97,100.15c-.9-2.06-1.75-4.14-2.55-6.24.8,2.1,1.66,4.18,2.55,6.24Z" fill="none" stroke-width="0"/><path d="M142.56,103.49c-.49-.38-1.05-.74-1.63-.93-.04-.01-.08-.02-.12-.03.04.01.08.02.12.03.58.2,1.13.55,1.63.93Z" fill="none" stroke-width="0"/><path d="M72.69,109.97c-.16-.19-.3-.41-.42-.64.12.24.26.45.42.64Z" fill="none" stroke-width="0"/><path d="M78.16,118.07c-.09-.5-.22-.98-.38-1.46.16.48.29.96.38,1.46Z" fill="none" stroke-width="0"/><path d="M72.27,109.33c-1.52-3.03-2.95-6.08-4.3-9.18,1.34,3.1,2.78,6.15,4.3,9.18Z" fill="none" stroke-width="0"/><path d="M58.7,57.29c.18-1.31.45-2.6.84-3.88-.39,1.28-.66,2.57-.84,3.88Z" fill="none" stroke-width="0"/><path d="M61.23,81.16c.29,1.06.59,2.11.9,3.16.98,3.24,2.08,6.44,3.28,9.59-1.21-3.15-2.31-6.34-3.28-9.59-.32-1.05-.62-2.11-.9-3.16Z" fill="none" stroke-width="0"/><path d="M76.54,124.98c.4-.46.73-.96,1-1.51-.26.55-.6,1.06-1,1.51Z" fill="none" stroke-width="0"/><path d="M149.07,109.16c.26.17.52.36.77.55-.24-.2-.5-.38-.77-.55Z" fill="none" stroke-width="0"/><path d="M202.51,179.64c-.11,1.65-.27,3.29-.48,4.93.21-1.64.37-3.28.48-4.93Z" fill="none" stroke-width="0"/><path d="M202.5,166.83c.18,2.48.25,4.97.22,7.46.03-2.49-.05-4.98-.22-7.46Z" fill="none" stroke-width="0"/><path d="M190.86,138.35c.37-1.26.73-2.52,1.04-3.81-.31,1.29-.66,2.55-1.04,3.81Z" fill="none" stroke-width="0"/><path d="M199.52,196.07c-.31.94-.64,1.87-.97,2.8.33-.93.66-1.86.97-2.8Z" fill="none" stroke-width="0"/><path d="M202.5,166.83c-.18-2.48-.46-4.95-.83-7.42-.81-5.33-2.05-10.54-3.84-15.62,1.79,5.08,3.03,10.3,3.84,15.62.37,2.47.65,4.94.83,7.42Z" fill="none" stroke-width="0"/><path d="M193,133.24c-.14-.25-.24-.57-.64-.69h0c.41.12.5.44.64.69Z" fill="none" stroke-width="0"/><path d="M197.81,200.87c.09-.2.17-.4.24-.6.16-.47.32-.93.49-1.4-.17.47-.33.93-.49,1.4-.07.21-.15.41-.24.6Z" fill="none" stroke-width="0"/><path d="M199.52,196.07c.15-.47.3-.94.44-1.41.72-2.49,1.28-5.01,1.7-7.55-.42,2.54-.98,5.05-1.7,7.55-.14.47-.28.94-.44,1.41Z" fill="none" stroke-width="0"/><path d="M130.08,180.06c1.35.28,2.71.5,4.07.66-1.37-.16-2.73-.37-4.07-.66Z" fill="none" stroke-width="0"/><path d="M83.11,185.89c-.11-.3-.22-.6-.32-.9.1.3.21.6.32.9Z" fill="none" stroke-width="0"/><path d="M83.93,188.04c-.12-.3-.24-.61-.36-.91.12.31.24.61.36.91Z" fill="none" stroke-width="0"/><path d="M82.35,183.69c-.09-.29-.19-.57-.28-.86.09.29.18.57.28.86Z" fill="none" stroke-width="0"/><path d="M84.8,190.14c-.13-.3-.26-.6-.39-.91.13.3.26.61.39.91Z" fill="none" stroke-width="0"/><path d="M80.27,175.77c-.35-1.77-.64-3.54-.86-5.32.22,1.78.5,3.55.86,5.32Z" fill="none" stroke-width="0"/><path d="M81.64,181.37c-.07-.24-.14-.49-.21-.73.07.24.14.49.21.73Z" fill="none" stroke-width="0"/><path d="M109.64,170.04c.29.24.58.47.88.71-.29-.23-.59-.47-.88-.71Z" fill="none" stroke-width="0"/><path d="M88.16,143.9c-.45.02-.9.04-1.34.05.45,0,.89-.03,1.34-.05,0,0,0,0,0,0Z" fill="none" stroke-width="0"/><path d="M177.72,233.99c.08-.02.16-.04.24-.06.98-.3,1.96-.6,2.94-.9-.98.3-1.96.6-2.94.9-.08.02-.16.04-.24.06Z" fill="none" stroke-width="0"/><path d="M207.55,216.41c-.39.44-.78.86-1.18,1.28.4-.42.79-.85,1.18-1.28Z" fill="none" stroke-width="0"/><path d="M174.12,228.79h0c.62-.33,1.24-.65,1.86-.98-.62.33-1.25.65-1.86.98Z" fill="none" stroke-width="0"/><path d="M197.36,225.37c-.35.24-.72.48-1.08.72.36-.24.72-.48,1.08-.72Z" fill="none" stroke-width="0"/><path d="M185.17,222.22c-1.16.82-2.34,1.61-3.55,2.37,0,0,0,0,0,0,1.2-.75,2.39-1.54,3.55-2.36Z" fill="none" stroke-width="0"/><path d="M201.14,222.55c-.93.75-1.89,1.48-2.87,2.18,2.73-1.94,5.25-4.1,7.56-6.48-1.48,1.52-3.04,2.96-4.69,4.3Z" fill="none" stroke-width="0"/><path d="M188.96,230.1c1.67-.75,3.31-1.58,4.91-2.5,0,0,0,0,0,0,0,0,0,0,0,0-1.59.93-3.23,1.76-4.91,2.5Z" fill="none" stroke-width="0"/><path d="M141.04,180.99c5.12-.18,10-1.17,14.66-2.9-4.66,1.73-9.54,2.72-14.66,2.9-1.49.05-2.97.03-4.43-.05,1.47.09,2.94.11,4.43.05Z" fill="none" stroke-width="0"/><path d="M85.74,192.2c-.14-.29-.27-.58-.41-.88.13.29.27.59.41.88Z" fill="none" stroke-width="0"/><path d="M130.08,180.06c-2.15-.45-4.27-1.07-6.37-1.84-.6-.22-1.19-.48-1.78-.73.59.25,1.17.5,1.78.73,2.09.78,4.22,1.39,6.36,1.84Z" fill="none" stroke-width="0"/><path d="M209.7,213.82c-.33.43-.67.85-1.01,1.26.34-.42.68-.83,1.01-1.26Z" fill="none" stroke-width="0"/><path d="M81.12,144.4c.04-.15.09-.29.17-.52-.07.23-.13.37-.17.52-1.09,4.14-1.79,8.34-2.07,12.61-.06.9-.1,1.8-.13,2.7.03-.9.07-1.8.13-2.7.28-4.27.97-8.47,2.07-12.61Z" fill="none" stroke-width="0"/><path d="M184.55,152.98c-.69,1.18-1.41,2.36-2.18,3.5-.88,1.31-1.81,2.56-2.77,3.78.96-1.22,1.89-2.47,2.77-3.78.77-1.15,1.49-2.32,2.18-3.5Z" fill="none" stroke-width="0"/><path d="M211.56,211.29c-.18.26-.36.52-.55.77.18-.26.37-.51.55-.77Z" fill="none" stroke-width="0"/><path d="M96.33,208.31c1.28,1.47,2.62,2.89,4.02,4.25-1.4-1.36-2.74-2.78-4.02-4.25Z" fill="none" stroke-width="0"/><path d="M131.47,230.31s.01,0,.02,0c.46.12.93.22,1.39.28-.47-.07-.93-.16-1.39-.28,0,0-.01,0-.02,0Z" fill="none" stroke-width="0"/><path d="M213.22,206.35c.07.25.15.49.23.75-.08-.26-.16-.5-.23-.75-.96-3.3-1.81-6.63-2.57-9.98.76,3.35,1.61,6.68,2.57,9.98Z" fill="none" stroke-width="0"/><path d="M95.74,237.39c1.93.49,3.89.86,5.88,1.15.7.1,1.4.14,2.14.21-.74-.07-1.44-.11-2.14-.21-1.98-.29-3.94-.66-5.88-1.15Z" fill="none" stroke-width="0"/><path d="M127.2,229.01c-.68-.23-1.36-.47-2.04-.72.67.25,1.35.49,2.04.72Z" fill="none" stroke-width="0"/><path d="M129.3,229.68c-.56-.17-1.11-.35-1.67-.53.55.18,1.11.36,1.67.53Z" fill="none" stroke-width="0"/><path d="M125.15,228.28c-.69-.26-1.37-.52-2.05-.8.68.28,1.36.55,2.05.8Z" fill="none" stroke-width="0"/><path d="M121.09,226.62c-.6-.27-1.2-.54-1.8-.83.59.28,1.19.56,1.8.83Z" fill="none" stroke-width="0"/><path d="M123.09,227.48c-.63-.26-1.25-.52-1.87-.8.62.27,1.24.54,1.87.8Z" fill="none" stroke-width="0"/><path d="M119.15,225.73c-.6-.29-1.2-.59-1.8-.9.59.31,1.19.6,1.8.9Z" fill="none" stroke-width="0"/><path d="M82.41,217.75c.94.73,1.89,1.43,2.85,2.12,1,.71,2.01,1.4,3.03,2.08.37.24.74.47,1.11.7-.37-.24-.75-.46-1.11-.7-1.02-.67-2.03-1.37-3.03-2.08-.96-.69-1.91-1.4-2.85-2.12-.94-.73-1.86-1.47-2.76-2.24.22.19.45.36.67.54.69.57,1.38,1.14,2.09,1.69Z" fill="none" stroke-width="0"/><path d="M81,230.11c-1.38-.95-2.74-1.94-4.08-2.95,2.18,1.65,4.42,3.22,6.71,4.71-.57-.37-1.14-.75-1.7-1.13-.31-.21-.62-.42-.93-.63Z" fill="none" stroke-width="0"/><path d="M86.75,194.22c-.14-.26-.27-.53-.4-.8.13.27.26.54.4.8Z" fill="none" stroke-width="0"/><path d="M93.8,236.85c-.75-.23-1.5-.49-2.24-.77.74.28,1.49.54,2.24.77Z" fill="none" stroke-width="0"/><path d="M71.76,208.16c-.05.43-.08.62-.1.82-.15,1.21-.3,2.43-.45,3.64.15-1.21.3-2.43.45-3.64.02-.2.05-.39.1-.82Z" fill="none" stroke-width="0"/><path d="M71.65,222.95c.32.29.64.58.97.85,1.32,1.08,2.67,2.13,4.03,3.16-1.36-1.03-2.7-2.08-4.03-3.16-.33-.27-.65-.56-.97-.85Z" fill="none" stroke-width="0"/><path d="M86.09,233.43s0,0,0,0c.74.45,1.5.87,2.28,1.26-.77-.39-1.53-.81-2.28-1.26,0,0,0,0,0,0Z" fill="none" stroke-width="0"/><path d="M91.98,202.79c-.24-.34-.48-.68-.72-1.02.24.34.47.68.72,1.02Z" fill="none" stroke-width="0"/><path d="M93.31,204.6c-.26-.34-.52-.69-.77-1.04.26.35.51.7.77,1.04Z" fill="none" stroke-width="0"/><path d="M117.32,224.81c-3.68-1.9-7.16-4.12-10.43-6.61,3.27,2.49,6.75,4.7,10.43,6.61Z" fill="none" stroke-width="0"/><path d="M90.71,200.94c-.22-.33-.45-.67-.66-1.01.22.34.44.67.66,1.01Z" fill="none" stroke-width="0"/><path d="M94.68,206.35c-.29-.35-.57-.71-.85-1.07.28.36.56.72.85,1.07Z" fill="none" stroke-width="0"/><path d="M89.48,199.03c-.2-.33-.41-.65-.6-.98.2.33.4.65.6.98Z" fill="none" stroke-width="0"/><path d="M88.26,196.98c-.18-.31-.36-.62-.53-.93.17.31.35.62.53.93Z" fill="none" stroke-width="0"/><path d="M96.11,208.07c-.33-.38-.64-.76-.96-1.15.32.38.64.77.96,1.15Z" fill="none" stroke-width="0"/><path d="M101.74,213.87c-.44-.4-.87-.81-1.29-1.22.42.41.86.82,1.29,1.22Z" fill="none" stroke-width="0"/><path d="M104.96,216.68c-.44-.36-.88-.73-1.31-1.1.43.37.87.74,1.31,1.1Z" fill="none" stroke-width="0"/><path d="M103.3,215.28c-.43-.37-.86-.75-1.28-1.14.42.38.85.76,1.28,1.14Z" fill="none" stroke-width="0"/><path d="M106.67,218.04c-.47-.36-.93-.73-1.39-1.1.46.37.92.74,1.39,1.1Z" fill="none" stroke-width="0"/><path d="M187.73,212.44c3.32-2.97,6.35-6.27,9.07-9.91.39-.53.75-1.07,1.02-1.66.09-.2.17-.4.24-.6.16-.47.32-.93.49-1.4.33-.93.66-1.86.97-2.8.15-.47.3-.94.44-1.41.72-2.49,1.28-5.01,1.7-7.55.14-.85.27-1.69.38-2.54.21-1.64.37-3.28.48-4.93.06-.92.11-1.84.15-2.77.03-.86.05-1.72.06-2.58.03-2.49-.05-4.98-.22-7.46s-.46-4.95-.83-7.42c-.81-5.33-2.05-10.54-3.84-15.62-1.29-3.66-2.86-7.19-4.83-10.54-.14-.25-.23-.57-.64-.69-.08.34-.16.68-.24,1.01-.08.33-.15.65-.23.98-.31,1.29-.66,2.55-1.04,3.81-1.53,5.13-3.61,10.01-6.31,14.63-.69,1.18-1.41,2.36-2.18,3.5-.88,1.31-1.81,2.56-2.77,3.78-2.37,3.02-4.97,5.8-7.86,8.28-2.43,2.09-5.06,3.98-7.9,5.65-2.64,1.55-5.35,2.86-8.15,3.89-4.66,1.73-9.54,2.72-14.66,2.9-1.49.05-2.97.03-4.43-.05-.82-.05-1.64-.13-2.45-.22-1.37-.16-2.73-.37-4.07-.66-2.15-.45-4.27-1.07-6.36-1.84-.6-.22-1.19-.48-1.78-.73-4.17-1.74-7.97-4-11.43-6.75-.29-.23-.59-.47-.88-.71-2.34-1.95-4.51-4.12-6.53-6.51-4.69-5.56-8.12-11.84-10.51-18.7-.13-.37-.27-.73-.41-1.12h0c-1.36.06-2.69.14-4.01.19,0,0,0,0,0,0-.94,4.97-1.43,10.09-1.43,15.33,0,28.43,14.43,53.49,36.37,68.25,0,0,0,0,0,0,.68.28,1.36.54,2.05.8,0,0,0,0,.01,0,.67.25,1.35.49,2.04.72.14.05.29.09.43.14.55.18,1.11.36,1.67.53.72.22,1.44.43,2.17.62,0,0,.01,0,.02,0,.46.12.93.22,1.39.28.47.07.94.11,1.41.12,3.33.12,6.65.06,9.95-.2,3.3-.26,6.58-.72,9.85-1.4,1.01-.21,2.01-.44,3.01-.69s1.98-.51,2.96-.8c3.92-1.14,7.72-2.59,11.39-4.36,1.84-.89,3.64-1.85,5.42-2.9,3.91-2.31,7.53-4.95,10.85-7.92ZM170.39,214.19c-.98.99-1.94,2-2.93,2.99-.58.58-1.18,1.13-1.78,1.68-.64.58-.72.55-1.31-.07-1.3-1.35-2.61-2.69-3.92-4.02-.12-.12-.26-.22-.47-.39-.49.59-.96,1.16-1.42,1.74-.47.58-.92,1.18-1.4,1.76-.51.61-.78.69-1.5.37-.66-.28-1.28-.63-1.94-.91-1.06-.46-2.13-.89-3.19-1.35-.28-.12-.55-.27-.82-.41-.46-.24-.52-.59-.27-1.02.17-.29.37-.57.55-.86,1.09-1.77,2.18-3.53,3.26-5.3.07-.11.1-.25.08-.18-1.45-1.54-2.82-3-4.19-4.46-.21-.22-.46-.41-.66-.64-.46-.5-.44-.72.08-1.18.15-.14.32-.25.49-.37,1.37-1.01,2.73-2.03,4.12-3.02.47-.33.98-.6,1.49-.87.66-.34,1.25-.2,1.76.32.41.41.81.83,1.21,1.24.23.24.48.46.78.76.54-.81,1.02-1.55,1.52-2.28.52-.76.71-.85,1.51-.43,2.17,1.13,4.34,2.28,6.48,3.46,1.02.56,1.11.99.48,1.98-.77,1.2-1.61,2.36-2.41,3.54-.21.31-.41.62-.66,1,.52.56,1.03,1.09,1.54,1.64,1.04,1.12,2.08,2.25,3.12,3.37.18.2.35.42.51.64.33.45.32.86-.09,1.27Z" fill="#a4ffad" stroke-width="0"/><path d="M62.33,57.24c-.02-2.33,0-4.66.25-6.99.04-.39.07-.78.1-1.19s.06-.85.1-1.33c0,0-8.16,26.06,14.91,62.11,17.4,27.18-10.3,24.12-10.3,24.12.22.1.44.18.66.28,1.73.73,3.48,1.35,5.27,1.86.7.2,1.41.39,2.12.56,1.65.39,3.33.7,5.03.92.85.11,1.69.2,2.54.26,1.69.12,3.39.13,5.09.05.85-.04,1.7-.11,2.54-.19,3.27-.34,6.46-1.06,9.62-1.95,4.64-1.32,9.13-3.07,13.56-4.97,2.32-1,4.65-1.98,6.99-2.93,2.34-.95,4.7-1.87,7.08-2.72,7.68-2.76,15.58-4.37,23.75-4.56h0c1.3-.03,2.6.04,3.91.12.43.03.87.05,1.3.08.73.04,1.46.11,2.19.18.73.07,1.46.13,2.19.14,2.87.07,5.73.08,8.59-.02,1.43-.05,2.86-.12,4.29-.22,1.43-.1,2.86-.24,4.28-.41,1.16-.14,2.31-.31,3.45-.54,1.14-.23,2.27-.51,3.38-.87.89-.29,1.75-.62,2.59-1.01.84-.4,1.64-.86,2.4-1.4.44-.32.85-.67,1.25-1.04.64-.6,1.23-1.26,1.74-1.99.14-.2.26-.41.36-.63.3-.64.39-1.33.28-2.07-.07-.43-.22-.8-.45-1.1-.23-.3-.55-.53-.96-.66-.21-.07-.43-.12-.64-.14-.21-.02-.43-.02-.63,0-.42.06-.82.22-1.2.51-.15.11-.26.3-.35.47-.27.52-.53,1.06-.78,1.59-.12.26-.21.53-.21.79,0,.26.07.52.28.77.07.08.06.21.09.32-.15.12-.31.21-.46.28s-.32.1-.48.11c-.32.02-.65-.04-.98-.16-1.15-.41-2.09-1.11-2.78-2.12-.34-.5-.56-1.02-.65-1.57-.09-.54-.04-1.11.14-1.7.46-1.5,1.28-2.7,2.45-3.59.39-.3.82-.56,1.28-.79.51-.26,1.04-.46,1.56-.62,1.58-.47,3.21-.49,4.89-.04.22.06.44.09.74.15.08-.33.16-.63.24-.94.05-.19.09-.38.14-.56.08-.32.16-.65.24-.97.6-2.47,1.2-4.93,1.79-7.4,1.76-7.41,3.39-14.84,4.63-22.36.3-1.79.56-3.59.78-5.4.21-1.8.38-3.61.48-5.43.1-1.88.16-3.75.15-5.63,0-.94-.04-1.88-.09-2.81-.05-.94-.13-1.87-.23-2.81-.1-.94-.23-1.88-.4-2.82-.17-.93-.37-1.86-.63-2.77-.31-1.1-.7-2.18-1.27-3.19-.17-.3-.35-.57-.57-.83-.22-.25-.46-.48-.75-.66-.11-.07-.22-.14-.32-.19-.72-.38-1.22-.34-1.96.23-.62.47-1.17,1.05-1.74,1.57.49,2.26,1.03,4.44,1.42,6.65.38,2.18.66,4.38.88,6.58.16,1.68.28,3.36.31,5.06,0,.57,0,1.14-.01,1.71-.54.32-1.09.61-1.64.89-.55.28-1.09.55-1.64.82-2.22,1.09-4.44,2.18-6.66,3.27-2.14,1.05-4.28,2.11-6.42,3.15-.27.13-.52.28-.75.44-.47.33-.87.72-1.23,1.17-.18.22-.35.45-.51.69-.05.08-.11.16-.12.25-.02.09,0,.2.12.31.12,0,.27.01.43,0,2.16-.2,4.33-.39,6.49-.6,1.73-.16,3.46-.35,5.19-.5,1.58-.13,3.16-.24,4.74-.34.11,0,.23-.02.34-.02h0c.31-.02.62.03.93.04,0,.23.02.39,0,.54-.28,1.55-.53,3.12-.87,4.66-.5,2.29-1.13,4.53-1.92,6.72-.2.55-.4,1.09-.62,1.63-.43,1.08-.9,2.14-1.41,3.19-.26.52-.52,1.05-.8,1.56-1.58,2.94-3.49,5.65-5.89,7.99-.93.91-1.91,1.73-2.95,2.47s-2.15,1.38-3.34,1.92c-.8.37-1.62.67-2.44.91-.82.24-1.65.41-2.49.52s-1.69.16-2.54.14c-.86-.02-1.72-.09-2.59-.23-3.07-.49-5.81-1.74-8.34-3.49-.59-.41-1.16-.84-1.71-1.29-1.58-1.29-2.99-2.75-4.29-4.33-.06-.08-.13-.15-.19-.22-2.54-3.12-4.54-6.55-6.18-10.22-.87-1.96-1.64-3.94-2.3-5.94-.66-2-1.22-4.03-1.68-6.08-.92-4.1-1.45-8.29-1.66-12.55-.22-4.63-.04-9.24.65-13.84.64-4.27,1.66-8.44,3.19-12.49.14-.37.28-.73.41-1.1-.11-.07-.19-.14-.28-.18-.02,0-.03-.02-.05-.03-1.31-.3-2.6-.7-3.93-.85-.91-.1-1.83-.18-2.74-.22-.88-.04-1.76-.06-2.64-.05h0c-1.79.03-3.58.19-5.37.49-1.13.19-2.26.4-3.37.66-1.11.26-2.21.57-3.29.97-.12.05-.24.1-.36.17s-.26.14-.4.21c2.07,3.19,3.85,6.47,5.41,9.87.52,1.13,1.01,2.27,1.48,3.43,1.17,2.88,2.49,7.03,3.32,10.2.17.63.31,1.23.43,1.76.24,1.07.39,1.92.4,2.38-.2.14-.41.31-.64.45-.53.31-1.05.63-1.57.94-.53.31-1.05.62-1.59.92-8.26,4.65-16.53,9.28-24.8,13.93-.34.19-.69.38-1.04.57-.34.19-.52.45-.58.81-.02.12-.03.25-.03.39.31-.02.54-.01.77-.05,2.06-.34,4.13-.7,6.19-1.05,3.51-.59,7.01-1.17,10.52-1.75,3.7-.61,7.4-1.23,11.11-1.81,1.08-.17,2.16-.41,3.31-.4h0c.04.16.07.32.1.48.05.32.06.63.07.95,0,.16,0,.31,0,.47.04,1.88,0,3.76-.09,5.63-.1,1.87-.26,3.74-.5,5.61-.12.95-.26,1.9-.42,2.85-.16.94-.34,1.88-.54,2.82-.4,1.87-.9,3.72-1.48,5.55-1.12,3.49-2.56,6.83-4.43,9.95-.62,1.04-1.3,2.06-2.02,3.05-.86,1.17-1.77,2.28-2.75,3.32-1.64,1.74-3.46,3.28-5.5,4.59-1.2.77-2.43,1.42-3.68,1.97-1.25.54-2.54.98-3.85,1.3-.65.16-1.32.29-1.98.4-1.34.21-2.7.31-4.09.3-.69,0-1.4-.04-2.1-.1-.79-.07-1.58-.18-2.35-.32-.39-.07-.77-.15-1.16-.24-1.92-.44-3.78-1.08-5.6-1.89-4.49-2.01-8.39-4.87-11.9-8.3-3.4-3.33-6.29-7.03-8.78-11.03-.83-1.33-1.61-2.7-2.35-4.1-.96-1.82-1.84-3.66-2.66-5.52-.52-1.19-1.03-2.39-1.49-3.6-.59-1.55-1.14-3.1-1.63-4.67-2.48-7.85-3.74-16.01-3.83-24.45ZM152.63,109.81c.05-.23.11-.47.2-.68.13-.28.24-.57.33-.86.09-.29.17-.59.23-.88.13-.59.23-1.2.35-1.8.07-.38.17-.77.27-1.15.11-.38.23-.75.36-1.12.22-.64.61-1.19,1.15-1.63.11-.09.23-.17.35-.24s.23-.12.35-.16c.71-.25,1.45-.06,2.05.57.11.11.22.26.32.41.34.5.65,1.16.78,1.86.06.3.08.61.06.91.06.91-.26,1.76-.78,2.52-.74,1.09-1.68,1.99-2.68,2.82-.33.28-.68.54-1.02.81-.16.12-.34.21-.53.26-.19.05-.39.06-.59.03-.92-.11-1.39-.76-1.2-1.67ZM137.59,103.72c.09-.15.2-.29.32-.43.52-.59,1.13-.87,1.79-.92.36-.02.74.03,1.12.15.04.01.08.02.12.03.58.2,1.13.55,1.63.93.26.2.51.43.75.66s.47.48.7.72c.73.76,1.49,1.49,2.28,2.18.12.1.24.2.36.31.76.64,1.56,1.25,2.4,1.8.26.17.52.36.77.55.09.07.19.14.27.23.21.2.35.41.44.62.26.64,0,1.31-.74,1.73-.29.17-.59.26-.89.3-.3.04-.59.03-.88-.01-.96-.02-1.88-.14-2.78-.33-.48-.1-.96-.23-1.43-.37-.4-.12-.8-.26-1.2-.42-.72-.28-1.43-.59-2.13-.95-1.23-.63-2.19-1.53-2.84-2.76-.42-.79-.59-1.63-.54-2.51.03-.55.19-1.06.47-1.51Z" fill="#a4ffad" stroke-width="0"/><path d="M146.93,167.13c2.35-.54,4.69-1.08,6.99-1.83,2.68-.88,5.24-1.98,7.52-3.69,1.08-.81,1.99-1.8,2.98-2.7.79-.72,1.01-1.57.89-2.56-.3-2.59-2.77-4.72-5.63-3.96-2.17.57-3.98,1.69-5.46,3.37-.33.38-.66.78-.76,1.29,1.57,1.9,1.82,4.42.55,6.05-.08-.16-.13-.23-.14-.3-.21-1.48-1.03-2.53-2.31-3.25-1.01-.57-2.07-.79-3.19-.47-1.72.49-3.01,1.57-3.83,3.14-.75,1.43-.4,3.24.7,4.39.49.51,1,.67,1.7.51Z" fill="#fa5057" stroke-width="0"/><path d="M54.68,122.76c.28-1.3.65-2.46,1.22-3.56.55-1.06,1.22-2.03,2.03-2.9.84-.9,1.8-1.66,2.86-2.28,1.05-.61,2.21-.94,3.46-1.33-.19-.15-.26-.24-.36-.27-.57-.15-1.14-.32-1.73-.41-2.02-.28-4-.25-5.89.74-1.63.85-2.61,2.11-2.91,3.92-.34,2.03.05,3.93.94,5.75.06.12.2.19.36.34Z" fill="#79b37e" stroke-width="0"/><path d="M79.58,236.81c-.14.19-.29.37-.43.57-1.6,2.22-3.62,3.95-6.01,5.27-1.7.94-3.47,1.72-5.33,2.26-1.13.33-2.3.6-3.46.77-3.14.48-6.22.11-9.23-.86-1.8-.58-3.59-1.19-5.38-1.83-.67-.24-1.32-.53-1.93-.9-1.88-1.12-2.15-3.38-.62-4.93.22-.23.47-.42.68-.65.79-.85,1.18-1.87,1.17-3.02-.02-1.87-1.28-3.54-3.1-4.04-1.93-.53-3.71.18-4.77,1.76-1.02,1.52-.88,3.65.31,5.08.23.27.5.51.72.79.76.99.93,2.07.39,3.23-.13.29-.27.57-.42.85-.78,1.47-2.18,2.05-3.8,1.56-.26-.08-.52-.2-.79-.27-2.17-.56-4.08-.1-5.66,1.49-1.52,1.53-1.95,3.41-1.42,5.47.62,2.41,2.69,4.05,5.16,4.18,2.53.14,4.76-1.3,5.66-3.66.16-.4.25-.83.41-1.23.49-1.22,1.39-1.88,2.7-1.99.72-.06,1.42.07,2.1.28,2,.62,3.99,1.23,5.99,1.86,3.78,1.18,7.65,1.54,11.59,1.39,3.72-.15,7.13-1.25,10.22-3.34,1.28-.87,2.46-1.86,3.57-2.93,1.62-1.57,3.09-3.28,4.53-5.01.1-.12.16-.26.27-.46-.97-.66-1.93-1.25-2.92-1.85-.14.1-.18.12-.2.15Z" fill="#79b37e" stroke-width="0"/><path d="M56.86,106.08c1.76-.24,3.56-.4,5.39-.18,1.85.23,3.61.76,5.54,1.37-.06-.27-.07-.35-.1-.42-.14-.32-.29-.65-.44-.97-2.72-5.8-5.14-11.72-7.12-17.81-2.44-7.54-4.29-15.2-4.72-23.15-.18-3.37-.03-6.72.62-10.03.44-2.26,1.17-4.43,2.33-6.43,1.15-1.99,2.63-3.64,4.6-4.85.2-.12.38-.27.52-.37.42-1.8.81-3.51,1.21-5.23-.53-.38-1.11-.36-1.64-.42-1.98-.24-3.86.08-5.54,1.23-.49.33-.98.67-1.43,1.05-2.63,2.19-4.6,4.87-6.02,7.97-1.96,4.32-2.78,8.88-2.85,13.59-.03,1.93.09,3.87.2,5.8.22,3.99.81,7.94,1.54,11.86,1.07,5.75,2.5,11.42,4.21,17.01.92,3.02,1.89,6.03,3.07,8.96.14.35.19.78.62,1.03Z" fill="#79b37e" stroke-width="0"/><path d="M105.12,220.67c-1.79-1.36-3.53-2.81-5.19-4.32-1.63-1.49-3.21-3.06-4.7-4.69-1.49-1.63-2.92-3.33-4.26-5.09-1.34-1.76-2.61-3.58-3.78-5.45-1.18-1.87-2.27-3.8-3.28-5.77-1.02-2-1.95-4.06-2.79-6.15-.82-2.05-1.55-4.14-2.18-6.26-.63-2.12-1.12-4.28-1.62-6.43-.5-2.16-.79-4.35-1.04-6.55-.25-2.2-.42-4.41-.41-6.62.02-2.25.05-4.51.17-6.75.12-2.21.38-4.41.79-6.59.41-2.16.85-4.32,1.28-6.51-.49-.31-1.03-.24-1.51-.37-.53-.14-1.08-.23-1.62-.34-.5-.11-1-.22-1.5-.34-.54-.13-1.07-.27-1.6-.42-.49-.14-.99-.29-1.47-.44-.53-.17-1.05-.34-1.58-.51-.49-.17-.97-.34-1.45-.53-.52-.2-1.03-.4-1.54-.62-.47-.2-.94-.41-1.41-.63-.5-.24-1-.48-1.49-.73-.46-.23-.91-.48-1.36-.73-.48-.27-.95-.57-1.43-.83-.43-.24-.79-.62-1.29-.72-.64,1.53-1.46,5.13-1.44,6.25,2.21,2.18,4.04,4.46,5.55,6.91.56.91,1.09,1.84,1.41,2.86.09.29.12.59.22,1.06-.27-.19-.41-.25-.5-.36-.83-.86-1.79-1.55-2.82-2.15-2.09-1.21-4.21-2.34-6.53-3.05-.23-.07-.45-.15-.66-.25-1.79-.88-3.69-1.11-5.65-1.04-2.69.09-5.1.95-7.24,2.58-1.39,1.06-2.61,2.3-3.7,3.66-1.72,2.14-3.08,4.49-4.28,6.95-1.59,3.27-2.97,6.63-4.26,10.03-.62,1.62-1.19,3.27-1.72,4.92-.29.9-.43,1.85-.67,2.76-.52,1.96-2.19,2.95-4.17,2.53-.69-.15-1.4-.26-2.11-.26-1.83-.02-3.64.19-5.3,1.02-3.03,1.51-5.34,3.78-6.86,6.81-1.04,2.09-1.53,4.31-1.23,6.66.18,1.37.83,2.93,1.68,3.88.16-.09.33-.18.49-.28,1.7-1.1,3.61-1.57,5.58-1.85.54-.08,1.1-.04,1.66-.01.4.02.77.17,1.06.47.2.21.32.45.09.77-.6-.28-1.05.07-1.46.44-1.19,1.06-2.23,2.24-2.84,3.74-.15.36-.31.73-.52,1.06-1,1.53-1.46,3.24-1.55,5.04-.12,2.53.64,4.75,2.47,6.56.48.48,1.03.69,1.7.67,1.06-.04,2-.44,2.88-.99,1.32-.83,2.42-1.91,3.38-3.13,1.86-2.36,3.14-5.02,3.91-7.92.44-1.66.61-3.34.4-5.05-.07-.63-.09-1.26-.15-1.89-.08-.86-.12-1.74-.27-2.59-.27-1.44-.67-2.85-1.35-4.15-.34-.65-.73-1.22-1.65-1.19.44-.61.95-.67,1.53-.52.66.18,1.24.52,1.77.94,2.19,1.74,4.02,3.79,5.35,6.27.4.74.65,1.53.74,2.36.2,1.74.19,3.47-.09,5.2-.45,2.76-1.37,5.35-2.63,7.83-.15.3-.28.62-.45.99.31.09.53.2.75.22,1.79.16,3.36-.37,4.67-1.59.96-.9,1.68-1.99,2.25-3.17,1.31-2.7,2.09-5.55,2.35-8.52.21-2.33.14-4.67-.62-6.92-.72-2.1-1.55-4.14-3.31-5.65-.76-.66-1.11-1.57-.97-2.56.21-1.4.51-2.79.81-4.18.14-.65.41-1.28.59-1.92.94-3.27,2.01-6.49,3.32-9.63,1.14-2.74,2.41-5.42,4-7.93.7-1.1,1.46-2.16,2.38-3.1.78-.8,1.65-1.48,2.67-1.94,3.39-1.52,7.04-.05,8.4,3.4.14.37.27.75.34,1.13.28,1.43.55,2.87.59,4.34.02.83.1,1.66.23,2.48.36,2.3.85,4.58,1.46,6.83,3.13,11.67,8.86,21.94,16.93,30.9,10.83,12.02,24.14,20.1,39.66,24.6.37.11.75.18,1.13.27-1.86-1.2-3.79-2.25-5.63-3.43-1.87-1.19-3.7-2.43-5.46-3.77Z" fill="#79b37e" stroke-width="0"/><path d="M194.66,120.95q-.9.57-.97,1.4c-.14,1.57-.25,3.15-.44,4.72-.07.55.03.98.35,1.43,1.6,2.27,2.96,4.67,4.16,7.16,3.56,7.39,5.72,15.21,6.95,23.3.67,4.42,1.02,8.87,1.06,13.34.03,4.27-.15,8.53-.75,12.77-.16,1.11-.31,2.21-.46,3.32.3-.36.48-.75.64-1.14,1.31-3.31,2.24-6.74,2.98-10.22.71-3.33,1.11-6.7,1.25-10.1.11-2.72.07-5.45-.15-8.17-.32-3.83-.93-7.6-1.86-11.32-2.34-9.35-6.45-17.87-12.11-25.66-.18-.25-.39-.49-.64-.81Z" fill="#79af7e" stroke-width="0"/><path d="M247.58,52.51c2.26.92,4.02,2.46,5.44,4.42.22.31.34.72.76.87,1.68-.79,3.35-1.61,5.04-2.37,1.69-.75,3.4-1.45,5.12-2.17-.64-1.38-1.59-2.25-3.07-2.6-1.12-.26-2.25-.42-3.39-.53-2.4-.24-4.8-.45-7.21-.31-1.18.07-2.37.1-3.55.21-.94.09-1.87.27-2.8.44-.3.06-.61.18-.87.35-.16.1-.23.34-.38.57.49.23.93.2,1.36.24,1.23.11,2.41.41,3.55.87Z" fill="#79af7e" stroke-width="0"/><path d="M268.87,58.87c-.43-.31-.95-.39-1.47-.24-.53.15-1.07.3-1.59.48-3.21,1.14-6.27,2.61-9.31,4.13-.2.1-.38.25-.56.38.03.26.05.45.08.65.58,3.42.32,6.77-.8,10.05-.74,2.15-1.78,4.15-3.33,5.83-2.48,2.68-5.49,4.29-9.23,4.01-3.43-.25-6.07-1.87-7.65-5.01-2.28-4.51-.44-9.56,3.04-12.03.72-.51,1.49-.91,2.34-1.11,1.14-.27,2.27-.31,3.32.36,1.43.91,2.35,2.95,2.09,4.62-.08.48-.25.93-.63,1.24-.19.16-.46.23-.69.34-.5-.97-.68-1.06-1.59-.86-.19.04-.38.12-.58.13-.51.04-.88.32-1.21.67-.45.47-.73,1.03-.91,1.64-.46,1.63.5,3.38,2.12,3.82.53.15,1.08.2,1.64.1,1.05-.17,1.93-.67,2.74-1.33.77-.64,1.36-1.43,1.84-2.31,1.69-3.08,2.12-6.35,1.37-9.76-.37-1.71-1.1-3.29-2.21-4.68-.79-.98-1.77-1.7-2.98-2.05-1.15-.34-2.33-.42-3.52-.24-2.11.32-3.88,1.3-5.4,2.75-1.1,1.04-2.02,2.23-2.73,3.56-3.41,6.34-3.82,12.88-1.02,19.52,1.28,3.02,3.36,5.43,6.48,6.78.07.03.15.06.22.1,1.34.71,1.98,1.94,1.76,3.44-.05.35-.15.7-.25,1.04-.73,2.42-1.43,4.84-2.5,7.15-.98,2.11-1.81,4.29-2.73,6.44-1.67,3.88-3.27,7.8-5.18,11.57-.75,1.48-1.54,2.94-2.36,4.38-.77,1.34-1.72,2.56-2.81,3.65-1.23,1.24-2.69,2.08-4.42,2.35-1.32.21-2.66.37-4,.46-2.41.16-4.82.05-7.23-.05-.35-.02-.69,0-1.05,0,.18.8,1.22,3.17,1.76,4.05.46,0,.93.05,1.4,0,1.84-.21,3.69-.43,5.53-.69,1.92-.27,3.8-.67,5.64-1.31,2.42-.83,4.46-2.2,6.1-4.15.86-1.03,1.66-2.12,2.4-3.23,1.61-2.4,3-4.92,4.27-7.52,2.15-4.4,4.07-8.91,5.93-13.44,1.06-2.6,2.17-5.17,3.03-7.84.19-.6.45-1.18.75-1.73.99-1.83,3.04-2.27,4.56-1.35.59.36,1.23.55,1.91.53.55-.02,1.11-.05,1.65-.13,1.34-.19,2.58-.71,3.81-1.27,2.55-1.16,4.58-2.93,6.11-5.27,1.57-2.42,2.56-5.07,3-7.92.03-.18-.01-.37-.02-.58-.18,0-.31-.01-.41.03-.94.38-1.92.4-2.91.36-1.74-.07-3.48-.09-5.21-.14-.14,0-.33.04-.42-.28.18-.31.48-.62.78-.92,1.05-1.02,2.12-2.01,3.16-3.05.91-.91,1.98-1.54,3.2-1.96,1.95-.66,3.81-1.54,5.56-2.63.73-.46,1.42-1,2.11-1.52.48-.36.7-.83.63-1.44-.15-1.45-.27-2.91-.43-4.36-.21-1.95-1.53-3.14-2.99-4.2Z" fill="#79af7e" stroke-width="0"/><path d="M206.95,226.57c-.08-.2-.25-.35-.38-.51-1.98,1.51-3.89,2.96-5.93,4.51.37.69.69,1.32,1.04,1.93,1.28,2.24,2.42,4.53,3.13,7.02.66,2.29.38,4.46-.82,6.51-.65,1.1-1.45,2.07-2.33,2.98-1.35,1.4-2.84,2.63-4.45,3.72-1.61,1.08-3.29,2.04-5.01,2.93-4.5,2.32-9.13,4.34-13.84,6.17-.29.11-.58.25-.88.35-2.34.79-4.19-.93-4.14-2.85,0-.36.03-.71,0-1.07-.18-3.68-3.76-6.09-7.16-4.85-2.1.77-3.61,2.9-3.48,5.27.12,2.26,1.68,4.24,3.9,4.82.96.25,1.93.41,2.68,1.15.13.13.35.17.54.24,2.09.84,2.68,3.84.4,5.36-.3.2-.61.37-.9.57-2.35,1.66-3.31,4.63-2.42,7.35.72,2.2,2.85,4.49,6.22,4.44,4.5-.06,7.39-4.31,6.16-8.4-.22-.72-.53-1.35-1.13-1.89-1.48-1.34-1.25-3.58.41-4.69.29-.2.63-.33.95-.48,5.47-2.38,10.91-4.82,16.27-7.43,2.24-1.09,4.45-2.23,6.55-3.57,1.53-.98,3.03-2.01,4.48-3.1,1.95-1.46,3.48-3.32,4.8-5.36.93-1.44,1.25-2.96.84-4.64-.16-.65-.27-1.32-.47-1.96-1.09-3.47-2.17-6.94-3.33-10.38-.48-1.42-1.14-2.78-1.73-4.15Z" fill="#79af7e" stroke-width="0"/><path d="M188.41,226.05c-3.01-.15-5.37-.89-6.79-1.47,0,0,0,0,0,0-1.24.77-2.5,1.51-3.78,2.22-.62.34-1.24.68-1.86,1-.62.33-1.25.65-1.86.98h0c.38,1.36,2.06,4.72,2.72,5.44.28-.07.58-.15.88-.24.08-.02.16-.04.24-.06.98-.3,1.96-.6,2.94-.9.98-.3,1.96-.61,2.93-.94,1.74-.59,3.46-1.25,5.13-2,1.67-.75,3.31-1.58,4.91-2.5,0,0,0,0,0,0,.83-.48,1.63-.98,2.42-1.5.36-.24.72-.47,1.08-.72.31-.21.61-.43.91-.65.98-.7,1.94-1.42,2.87-2.18-1.05.7-6.16,3.82-12.73,3.51Z" fill="#694eaf" stroke-width="0"/><path d="M81.94,230.74c-.48-.44-4.76-4.64-3.04-15.86v-.02c-.65-.56-1.29-1.11-1.92-1.69-.87-.8-1.71-1.64-2.58-2.45-.85-.79-1.57-1.73-2.64-2.57-.05.43-.08.62-.1.82-.15,1.21-.3,2.43-.45,3.64-.15,1.21-.3,2.43-.47,3.64-.19,1.41-.47,2.8-.72,4.2-.1.53-.09,1,.38,1.39.43.36.84.73,1.25,1.1.32.29.64.58.97.85,1.32,1.08,2.67,2.13,4.03,3.16.09.07.19.14.28.21,1.34,1.01,2.7,1.99,4.08,2.95.31.21.62.42.93.63Z" fill="#554295" stroke-width="0"/><path d="M210.65,196.37c-.25-1.12-.5-2.24-.73-3.36-.03-.17.02-.41-.33-.4-.61,1.26-1.2,2.54-1.86,3.8-.34.65-.68,1.29-1.04,1.93-.35.64-.72,1.27-1.09,1.9-.73,1.22-1.5,2.42-2.3,3.59-.83,1.21-1.69,2.39-2.58,3.54-.87,1.12-1.78,2.22-2.71,3.29-.94,1.07-1.9,2.12-2.9,3.13-1.03,1.04-2.08,2.05-3.17,3.03-1.06.95-2.15,1.87-3.26,2.76-1.14.91-2.31,1.79-3.5,2.64-1.16.82-2.34,1.61-3.55,2.36,1.42.58,3.78,1.33,6.79,1.47,6.57.32,11.68-2.81,12.73-3.51,1.65-1.34,3.21-2.78,4.69-4.3.18-.18.36-.37.54-.55.4-.42.79-.85,1.18-1.28.39-.44.76-.88,1.14-1.33.34-.41.68-.83,1.01-1.26.45-.57.89-1.16,1.31-1.75.18-.26.37-.51.55-.77.57-.82,1.12-1.65,1.65-2.52.16-.27.31-.55.49-.87-.09-.29-.17-.55-.25-.81s-.16-.5-.23-.75c-.96-3.3-1.81-6.63-2.57-9.98Z" fill="#8c65dc" stroke-width="0"/><path d="M100.72,228.79c-1.08-.49-2.15-1-3.2-1.53-1.06-.53-2.11-1.08-3.15-1.65-1.04-.57-2.07-1.16-3.08-1.77-.64-.38-1.26-.79-1.89-1.19-.37-.24-.75-.46-1.11-.7-1.02-.67-2.03-1.37-3.03-2.08-.96-.69-1.91-1.4-2.85-2.12-.71-.55-1.4-1.12-2.09-1.69-.22-.18-.45-.36-.67-.54-.25-.21-.5-.44-.75-.66v.02c-1.71,11.22,2.56,15.43,3.04,15.86.56.38,1.13.76,1.7,1.13.81.53,1.63,1.06,2.46,1.56,0,0,0,0,0,0,.74.45,1.5.87,2.28,1.26s1.56.75,2.37,1.08c.27.11.54.21.81.31.74.28,1.49.54,2.24.77.64.2,1.29.38,1.94.55,1.93.49,3.89.86,5.88,1.15.7.1,1.4.14,2.14.21.62-1.25,1.23-2.44,1.81-3.64.57-1.19,1.28-2.32,1.8-3.6-1.18-.46-2.28-.88-3.37-1.32-1.1-.45-2.19-.91-3.26-1.4Z" fill="#785abf" stroke-width="0"/><path d="M137.66,107.75c.65,1.23,1.61,2.14,2.84,2.76.7.36,1.41.67,2.13.95.4.15.79.29,1.2.42.47.14.94.27,1.43.37.9.19,1.82.31,2.78.33.29.05.58.06.88.01.3-.04.6-.14.89-.3.74-.42,1-1.09.74-1.73-.09-.21-.23-.42-.44-.62-.08-.08-.18-.15-.27-.23-.24-.2-.5-.38-.77-.55-.84-.55-1.63-1.16-2.4-1.8-.12-.1-.24-.2-.36-.31-.79-.69-1.55-1.42-2.28-2.18-.23-.24-.46-.49-.7-.72-.24-.24-.49-.46-.75-.66-.5-.38-1.05-.74-1.63-.93-.04-.01-.08-.02-.12-.03-.38-.12-.76-.17-1.12-.15-.66.04-1.27.33-1.79.92-.12.14-.23.28-.32.43-.28.45-.44.96-.47,1.51-.05.89.13,1.73.54,2.51Z" fill="#000" stroke-width="0"/><path d="M153.83,111.48c.2.02.4.01.59-.03.19-.05.36-.13.53-.26.35-.26.69-.53,1.02-.81,1-.83,1.94-1.73,2.68-2.82.52-.76.84-1.61.78-2.52.02-.3,0-.61-.06-.91-.13-.7-.43-1.36-.78-1.86-.11-.15-.21-.29-.32-.41-.6-.63-1.34-.83-2.05-.57-.12.04-.24.1-.35.16s-.23.15-.35.24c-.53.43-.92.99-1.15,1.63-.13.37-.25.74-.36,1.12-.11.38-.2.76-.27,1.15-.12.6-.21,1.2-.35,1.8-.07.3-.14.59-.23.88-.09.29-.2.58-.33.86-.1.21-.15.45-.2.68-.19.9.28,1.56,1.2,1.67Z" fill="#000" stroke-width="0"/><path d="M68.61,19.31c1.24.82,2.83.61,3.88-.52.13-.14.25-.3.37-.46.98-1.4,2.18-2.61,3.49-3.69,3.98-3.28,8.44-5.66,13.43-7.02,1.26-.34,2.54-.57,3.84-.7,2.08-.2,4.09.18,6.07.79,1.58.49,3.15,1.02,4.62,1.81.21.11.42.22.65.29,2.02.7,4.06-.75,4.04-2.85-.01-.93-.41-1.77-1.17-2.36-.34-.26-.73-.47-1.11-.67-2.11-1.09-4.36-1.85-6.65-2.43-1.1-.28-2.24-.47-3.38-.59-2.54-.26-5.04,0-7.52.61-6.2,1.52-11.72,4.41-16.65,8.44-1.44,1.18-2.74,2.51-3.88,3.98-.41.53-.79,1.09-1.06,1.7-.6,1.35-.13,2.88,1.05,3.67Z" fill="#000" stroke-width="0"/><path d="M154.18,14.94c.56-.08,1.06-.32,1.49-.67,1.73-1.41,3.65-2.5,5.64-3.46,1.68-.81,3.44-1.4,5.28-1.71,2.54-.42,5.05-.39,7.44.67.86.38,1.67.89,2.5,1.33.35.19.68.42,1.04.55,1.14.41,2.2.21,3.08-.62.84-.79,1.12-1.78.84-2.92-.25-.99-.92-1.64-1.73-2.16-3.16-2.03-6.58-3.22-10.43-3.15-1.35-.04-2.72.13-4.08.39-4.71.9-8.86,3.04-12.69,5.86-.32.23-.62.5-.88.79-.26.29-.5.62-.67.97-.49,1.06-.38,2.09.33,3.02.71.93,1.68,1.28,2.83,1.12Z" fill="#000" stroke-width="0"/><path d="M277.98,62.75c-.18-1.54-.53-3.05-1.36-4.38-1.23-1.97-2.78-3.64-4.81-4.82-.37-.22-.78-.39-1.17-.57-.24-.11-.5-.2-.72-.29-.21-1.68-.33-2-1.28-3.44-.2-.3-.41-.58-.62-.87-1.18-1.55-2.69-2.67-4.56-3.25-.71-.22-1.44-.46-2.17-.57-1.48-.23-2.97-.4-4.46-.57-3.99-.43-7.97-.27-11.95.16-1.09.12-2.2.34-3.24.68-2.74.9-4.46,2.75-4.94,5.65-.12.74-.19,1.48-.29,2.27-.14.08-.3.19-.48.28-3.07,1.49-5.43,3.78-7.3,6.59-2.81,4.22-4.12,8.93-4.45,13.95-.19,2.95.2,5.84.96,8.68,1.39,5.14,4.11,9.37,8.56,12.41.06.04.1.12.18.23-.03.15-.05.35-.11.53-.26.75-.5,1.5-.81,2.23-2.29,5.42-4.56,10.85-6.92,16.24-.96,2.21-2.1,4.34-3.2,6.48-.58,1.13-1.31,2.16-2.16,3.11-.52.58-1.12.96-1.92,1.07-2.28.33-4.56.45-6.86.36-1.3-.05-2.61-.12-3.91-.19-.59-.04-1.18-.13-1.77-.18-.63-.05-1.25-.07-1.84-.1-.95-1.45-1.83-2.86-2.77-4.23-.93-1.36-1.92-2.69-2.83-3.98.02-.14.01-.18.03-.21,1.15-2.28,1.48-4.65.79-7.13-.09-.33-.02-.62.07-.92.26-.91.55-1.82.77-2.74,1.4-5.8,2.84-11.58,4.17-17.4,1.66-7.28,3.13-14.6,3.98-22.03.31-2.71.52-5.43.59-8.16.07-2.73.04-5.45-.23-8.17-.27-2.68-.65-5.33-1.42-7.92-.49-1.67-1.12-3.29-2.06-4.77-1.15-1.83-2.72-3.17-4.74-3.96-1.4-.54-2.83-.71-4.3-.35-.89.22-1.72.57-2.5,1.05-.3.18-.6.37-.96.6-.19-.4-.37-.74-.52-1.1-.87-2.04-1.85-4.02-2.98-5.93-1.75-2.98-3.79-5.73-6.28-8.14-2.17-2.11-4.59-3.87-7.38-5.08-3.7-1.61-7.53-2.05-11.47-1.07-2.81.7-5.29,2.05-7.54,3.85-2.43,1.95-4.41,4.3-6.11,6.89-.24.36-.47.72-.75,1.14-1.66-.2-3.21-.79-4.83-1.09-1.6-.3-3.21-.42-4.83-.44-1.66-.02-3.32-.06-4.98.04-1.65.1-3.31.3-4.94.58-1.59.27-3.18.64-4.73,1.08-1.59.45-3.13,1.06-4.75,1.62-.13-.13-.29-.3-.44-.47-.6-.68-1.19-1.38-1.8-2.05-3.15-3.43-6.67-6.41-10.73-8.71-3.72-2.11-7.67-3.5-11.94-3.96-4.02-.43-7.88.16-11.62,1.63-4.29,1.68-7.81,4.43-10.8,7.9-2.61,3.01-4.63,6.39-6.24,10.03-.17.39-.37.77-.54,1.15-1.39-.18-2.71-.38-4.03-.51-1.33-.12-2.66.07-4.02.23.13-1.98.65-3.7,2.09-5.1-.56-.19-1.01-.09-1.45.11-1.28.58-2.37,1.41-3.29,2.48-.99,1.16-1.02,2.61-1.14,4.01-.41.29-.76.6-1.27.73-.19-.29-.38-.54-.54-.81-.87-1.52-1.5-3.14-1.89-4.84-.34-1.5-.65-3.01-.96-4.52-.54-2.68-.88-5.38-1.11-8.1-.01-.17-.07-.33-.1-.5-.26.32-.38.64-.46.98-.59,2.67-1.01,5.36-1.2,8.08-.06.86-.1,1.74,0,2.6.37,3.02,1.38,5.83,2.96,8.43.18.3.37.6.56.91-.29.41-.59.75-1.14,1.05-.17-.22-.32-.46-.51-.66-1.88-1.95-4.06-3.51-6.45-4.78-1.82-.96-3.71-1.75-5.64-2.46-1.2-.43-2.43-.7-3.68-.86-3.42-.43-6.85-.54-10.3-.45-.78.02-1.55.12-2.32.32.29.14.59.22.89.27.97.19,1.95.34,2.91.55,2.85.64,5.68,1.37,8.42,2.4,1.07.4,2.14.81,3.22,1.2,2.37.88,4.68,1.9,6.81,3.29,1.66,1.09,3.16,2.36,4.49,3.92-.21.32-.39.62-.59.9-.81,1.17-1.54,2.39-2.16,3.68-2.12,4.44-3.24,9.14-3.62,14.03-.19,2.49-.17,4.97-.02,7.46.19,3.4.53,6.78,1.06,10.13,1.01,6.33,2.39,12.57,4.2,18.72,1.36,4.62,2.76,9.23,4.66,13.68.03.06,0,.15,0,.24-.01.02-.02.07-.05.09-.11.12-.21.23-.33.34-2.31,2.13-3.35,4.83-3.57,7.9-.18,2.49.29,4.88,1.28,7.17,1.09,2.53,2.6,4.79,4.45,6.82.26.29.52.58.73.8-.74,2.86-1.45,5.61-2.17,8.36-.02.07-.09.12-.14.18-.03.02-.07.05-.1.05-.28-.02-.55-.04-.83-.06-4.8-.27-9.16.93-12.99,3.87-1.7,1.31-3.21,2.81-4.56,4.48-1.95,2.41-3.55,5.04-4.9,7.82-2.56,5.27-4.75,10.68-6.54,16.26-.07.22-.14.44-.22.68-.25.01-.44.04-.63.03-1.19-.05-2.37.06-3.54.25-1.49.24-2.96.54-4.32,1.2-5.5,2.67-9.3,6.86-11.2,12.7-.95,2.92-1.1,5.89-.32,8.88.54,2.05,1.54,3.89,2.71,5.64.46.69.97,1.34,1.46,2.02-.07.51-.15,1.02-.21,1.52-.61,4.91.8,9.13,4.3,12.64,1.28,1.29,2.83,1.97,4.63,2.15,2.28.22,4.39-.29,6.39-1.36,1.37-.73,2.58-1.68,3.7-2.74.22-.21.47-.39.71-.6,1.03.56,2.08.93,3.17,1.09,4.02.57,7.51-.55,10.39-3.42,1.5-1.49,2.62-3.26,3.5-5.18,1.1-2.38,1.86-4.87,2.33-7.44.51-2.82.63-5.66.25-8.5-.5-3.63-1.85-6.94-4.02-9.88-.43-.58-.54-1.1-.35-1.75.3-1.02.58-2.05.88-3.08,1.19-4.1,2.64-8.11,4.52-11.96.76-1.56,1.57-3.11,2.62-4.5.42-.56.94-1.07,1.43-1.57.12-.12.33-.15.59-.26.11.96.22,1.81.31,2.67.32,3.15.85,6.26,1.57,9.34,2.4,10.21,6.73,19.54,12.78,28.08,1.07,1.06,1.24,2.35,1.16,3.8-.13,2.49-.39,4.96-.65,7.44-.14,1.3-.3,2.59-.51,3.88-.37,2.26-.77,4.52-1.18,6.77-.2,1.09.05,2.04.77,2.87.98,1.14,1.97,2.27,3.14,3.22,2.03,1.63,4.09,3.24,6.13,4.86.3.24.61.48.95.75-.13.22-.22.39-.32.54-1.05,1.52-2.41,2.71-4.02,3.62-1.73.98-3.56,1.71-5.49,2.17-.96.23-1.94.35-2.93.37-2.67.06-5.15-.67-7.58-1.67-.07-.03-.12-.1-.21-.19.09-.24.18-.5.27-.75.48-1.23.67-2.51.66-3.83-.09-6.74-6.57-11.58-13.07-9.78-5.36,1.48-8.34,6.84-7.45,11.67.05.3.05.6.07.95-2.85.44-5.28,1.59-7.21,3.66-1.96,2.1-3.06,4.6-3.19,7.47-.25,5.25,2.91,9.93,7.81,11.67,2.42.86,4.88.93,7.34.18,3.09-.94,5.39-2.89,7-5.71.32.05.59.06.85.13.61.17,1.21.36,1.81.56,4.85,1.57,9.82,2.36,14.93,2.18,1.58-.05,3.15-.25,4.7-.57,4.43-.92,8.31-2.94,11.74-5.87,2.05-1.75,3.88-3.72,5.62-5.77.76-.9,1.52-1.81,2.29-2.72.19.04.34.06.48.12,4.22,1.67,8.6,2.62,13.09,3.16,1.06.13,2.12.23,3.19.27,1.47.04,2.59-.6,3.31-1.89.23-.41.43-.84.64-1.27,1.23-2.47,2.47-4.95,3.71-7.42.16-.31.35-.61.55-.94,18.61,5.1,36.97,4.64,55.1-2.17.12.21.22.37.31.55,1.06,2.21,2.15,4.4,3.17,6.63.84,1.84,2.26,2.65,4.45,2.15.08-.02.15-.04.23-.06,6.19-1.53,12.23-3.45,17.93-6.35.3-.15.57-.44,1.01-.3.42.73.87,1.47,1.28,2.23.82,1.53,1.6,3.08,2.12,4.76.28.9.22,1.72-.38,2.46-.58.7-1.15,1.41-1.8,2.04-1.82,1.79-3.97,3.12-6.21,4.31-3.38,1.81-6.86,3.41-10.39,4.9-.36.15-.73.28-1.13.43-2.43-5.74-6.62-8.67-12.88-7.82-4.78.65-8.29,4.31-9.18,8.64-1.16,5.66,1.08,9.84,5.95,12.85-.83,1.31-1.55,2.66-1.95,4.16-.4,1.51-.5,3.04-.37,4.58.14,1.6.61,3.09,1.35,4.51.72,1.39,1.67,2.59,2.83,3.62,4.05,3.58,10.01,4.16,14.68,1.4,2.35-1.39,4.09-3.34,5.16-5.86,1.34-3.12,1.34-6.29.2-9.53.35-.18.65-.35.97-.5,2.26-1.03,4.54-2.04,6.8-3.08,3.98-1.84,7.95-3.69,11.74-5.91,2.22-1.3,4.37-2.7,6.37-4.32,2.46-1.97,4.52-4.3,6.18-6.98.76-1.22,1.32-2.51,1.63-3.92.38-1.74.25-3.45-.1-5.17-.38-1.82-.97-3.58-1.51-5.36-1.42-4.69-2.9-9.36-5.13-13.75-.19-.38-.44-.76-.38-1.26.21-.25.44-.52.67-.79,2.34-2.69,4.44-5.55,6.34-8.57.27-.43.54-.88.84-1.29.84-1.14.99-2.32.54-3.69-.7-2.14-1.3-4.31-1.88-6.48-1.14-4.32-2.12-8.67-2.81-13.09-.37-2.38-.74-4.76-1.14-7.14-.1-.57-.02-1.1.09-1.64.76-3.6,1.2-7.24,1.41-10.92.23-4.04.07-8.06-.37-12.07-.52-4.68-1.5-9.28-2.91-13.78-.09-.29-.14-.6-.22-.95.28-.05.51-.09.74-.12,1.72-.22,3.45-.43,5.17-.66,2.12-.29,4.19-.76,6.22-1.43,3.66-1.21,6.73-3.3,9.17-6.27.98-1.19,1.88-2.44,2.73-3.72,1.99-3,3.69-6.17,5.23-9.42,2.76-5.82,5.19-11.79,7.58-17.76.19-.47.38-.94.57-1.39.19-.01.31-.05.42-.03,1.91.38,3.8.09,5.63-.42,6.14-1.7,10.79-5.28,13.74-10.98,1.75-3.39,2.7-6.99,2.94-10.78.04-.66.07-1.33.11-1.98.43-.28.79-.52,1.15-.75,1.1-.71,2.13-1.5,3.05-2.44,1.4-1.44,2.06-3.18,1.97-5.17-.07-1.62-.2-3.23-.39-4.84ZM243.05,50.83c.26-.17.57-.29.87-.35.93-.17,1.86-.35,2.8-.44,1.18-.11,2.36-.14,3.55-.21,2.41-.15,4.81.07,7.21.31,1.14.11,2.26.27,3.39.53,1.48.35,2.43,1.23,3.07,2.6-1.72.73-3.44,1.42-5.12,2.17-1.69.76-3.35,1.57-5.04,2.37-.42-.15-.54-.56-.76-.87-1.41-1.97-3.17-3.5-5.44-4.42-1.14-.46-2.32-.76-3.55-.87-.42-.04-.86,0-1.36-.24.14-.23.22-.47.38-.57ZM207.4,147.42c.93,3.72,1.54,7.5,1.86,11.32.23,2.72.27,5.45.15,8.17-.14,3.4-.55,6.77-1.25,10.1-.74,3.48-1.66,6.91-2.98,10.22-.16.4-.33.79-.64,1.14.15-1.11.3-2.21.46-3.32.6-4.24.78-8.49.75-12.77-.03-4.47-.38-8.92-1.06-13.34-1.23-8.09-3.38-15.9-6.95-23.3-1.2-2.49-2.57-4.9-4.16-7.16-.32-.45-.41-.87-.35-1.43.19-1.57.3-3.15.44-4.72q.07-.83.97-1.4c.25.32.45.56.64.81,5.66,7.79,9.77,16.31,12.11,25.66ZM67.8,86.36c.46,1.21.97,2.41,1.49,3.6.82,1.86,1.7,3.7,2.66,5.52.74,1.4,1.52,2.76,2.35,4.1,2.48,4,5.38,7.7,8.78,11.03,3.5,3.43,7.4,6.29,11.9,8.3,1.82.81,3.68,1.46,5.6,1.89.38.09.77.17,1.16.24.78.14,1.56.25,2.35.32.71.06,1.41.1,2.1.1,1.39.01,2.75-.09,4.09-.3.67-.1,1.33-.24,1.98-.4,1.31-.32,2.59-.75,3.85-1.3,1.25-.54,2.48-1.2,3.68-1.97,2.04-1.31,3.87-2.85,5.5-4.59.98-1.04,1.9-2.15,2.75-3.32.72-.99,1.4-2.01,2.02-3.05,1.87-3.12,3.31-6.46,4.43-9.95.59-1.83,1.08-3.68,1.48-5.55.2-.93.38-1.87.54-2.82.16-.94.3-1.89.42-2.85.23-1.87.4-3.74.5-5.61.1-1.87.13-3.75.09-5.63,0-.16,0-.31,0-.47,0-.31-.02-.63-.07-.95-.02-.16-.06-.32-.1-.48h0c-1.16,0-2.23.23-3.31.4-3.71.58-7.41,1.2-11.11,1.81-3.51.58-7.01,1.16-10.52,1.75-2.06.35-4.13.7-6.19,1.05-.23.04-.46.03-.77.05,0-.14,0-.27.03-.39.06-.36.25-.62.58-.81.34-.19.69-.38,1.04-.57,8.27-4.64,16.54-9.28,24.8-13.93.53-.3,1.06-.61,1.59-.92.53-.31,1.05-.63,1.57-.94.23-.14.45-.31.64-.45,0-.47-.15-1.31-.4-2.38-.12-.54-.27-1.13-.43-1.76-.83-3.17-2.15-7.31-3.32-10.2-.47-1.16-.96-2.3-1.48-3.43-1.55-3.39-3.34-6.68-5.41-9.87h0c.15-.08.28-.15.4-.21s.24-.12.36-.17c1.08-.4,2.18-.72,3.29-.97,1.11-.26,2.24-.46,3.37-.66,1.79-.31,3.58-.46,5.37-.49h0c.88-.01,1.76,0,2.64.05.91.05,1.83.12,2.74.22,1.33.15,2.62.55,3.93.85.02,0,.04.02.05.03.08.04.17.11.28.18-.14.37-.28.74-.41,1.1-1.53,4.04-2.55,8.22-3.19,12.49-.69,4.59-.87,9.21-.65,13.84.2,4.26.74,8.45,1.66,12.55.46,2.05,1.02,4.08,1.68,6.08.66,2,1.42,3.99,2.3,5.94,1.64,3.66,3.64,7.1,6.18,10.22.06.08.13.15.19.22,1.3,1.58,2.72,3.04,4.29,4.33.55.45,1.12.88,1.71,1.29,2.53,1.75,5.28,3,8.34,3.49.87.14,1.74.22,2.59.23.86.02,1.7-.03,2.54-.14.84-.11,1.67-.28,2.49-.52.82-.24,1.64-.54,2.44-.91,1.18-.54,2.29-1.18,3.34-1.92s2.03-1.56,2.95-2.47c2.4-2.34,4.3-5.05,5.89-7.99.28-.52.55-1.04.8-1.56.51-1.05.98-2.11,1.41-3.19.22-.54.42-1.08.62-1.63.78-2.19,1.41-4.43,1.92-6.72.34-1.54.59-3.1.87-4.66.03-.15,0-.31,0-.54-.31-.02-.62-.06-.93-.04h0c-.11,0-.23.02-.34.02-1.58.1-3.16.21-4.74.34-1.73.15-3.46.34-5.19.5-2.16.2-4.33.4-6.49.6-.15.01-.31,0-.43,0-.11-.11-.13-.22-.12-.31s.07-.18.12-.25c.16-.24.33-.47.51-.69.36-.44.76-.83,1.23-1.17.23-.17.48-.31.75-.44,2.14-1.04,4.28-2.1,6.42-3.15,2.22-1.09,4.44-2.17,6.66-3.27.55-.27,1.09-.54,1.64-.82.55-.28,1.09-.58,1.64-.89.02-.57.02-1.14.01-1.71-.02-1.7-.14-3.38-.31-5.06-.21-2.2-.5-4.4-.88-6.58-.39-2.21-.93-4.39-1.42-6.65.57-.52,1.12-1.1,1.74-1.57.74-.56,1.24-.61,1.96-.23.1.05.21.12.32.19.29.19.54.41.75.66.22.25.4.53.57.83.57,1,.96,2.08,1.27,3.19.26.91.46,1.84.63,2.77.17.93.3,1.87.4,2.82.1.94.18,1.87.23,2.81.05.94.08,1.88.09,2.81.02,1.88-.04,3.75-.15,5.63-.1,1.82-.26,3.63-.48,5.43-.21,1.8-.48,3.6-.78,5.4-1.24,7.52-2.87,14.95-4.63,22.36-.59,2.47-1.19,4.93-1.79,7.4-.08.32-.16.64-.24.97-.05.18-.09.37-.14.56-.08.31-.16.62-.24.94h0c-.3-.06-.52-.09-.74-.15-1.68-.45-3.31-.43-4.89.04-.53.16-1.05.36-1.56.62-.46.23-.89.5-1.28.79-1.17.89-1.99,2.09-2.45,3.59-.18.59-.22,1.16-.14,1.7.09.54.3,1.07.65,1.57.69,1.01,1.63,1.71,2.78,2.12.33.12.66.18.98.16.16-.01.32-.05.48-.11s.31-.15.46-.28c-.03-.11-.02-.24-.09-.32-.21-.25-.29-.51-.28-.77,0-.26.09-.52.21-.79.24-.54.51-1.07.78-1.59.09-.17.2-.35.35-.47.38-.29.78-.45,1.2-.51.21-.03.42-.03.63,0,.21.02.43.07.64.14.4.13.72.36.96.66.23.3.38.67.45,1.1.11.74.02,1.43-.28,2.07-.1.21-.22.42-.36.63-.51.73-1.09,1.39-1.74,1.99-.39.37-.8.72-1.25,1.04-.76.55-1.57,1.01-2.4,1.4-.84.4-1.7.73-2.59,1.01-1.11.36-2.24.65-3.38.87-1.14.23-2.29.4-3.45.54-1.43.17-2.85.3-4.28.41-1.43.1-2.86.17-4.29.22-2.86.09-5.73.08-8.59.02-.73-.02-1.46-.08-2.19-.14-.73-.07-1.46-.14-2.19-.18-.43-.02-.87-.05-1.3-.08-1.3-.08-2.61-.15-3.91-.12h0c-8.17.19-16.07,1.8-23.75,4.56-2.38.85-4.74,1.77-7.08,2.72-2.34.95-4.67,1.94-6.99,2.93-4.43,1.9-8.92,3.65-13.56,4.97-3.16.9-6.35,1.62-9.62,1.95-.85.09-1.7.15-2.54.19-1.7.08-3.39.07-5.09-.05-.85-.06-1.69-.15-2.54-.26-1.7-.23-3.38-.53-5.03-.92-.71-.17-1.42-.36-2.12-.56-1.79-.51-3.55-1.13-5.27-1.86-.22-.09-.44-.18-.66-.28-.96-.42-1.9-.89-2.81-1.4-.91-.51-1.8-1.07-2.65-1.69-.56-.41-1.09-.84-1.63-1.28s-1.06-.89-1.6-1.32c-.1-.08-.18-.16-.26-.26-.22-.28-.35-.6-.46-.94-.12-.4-.22-.8-.28-1.19-.13-.8-.15-1.6-.04-2.4.05-.4.14-.8.26-1.2.14-.49.32-.95.52-1.4.62-1.34,1.52-2.5,2.71-3.45.19-.15.39-.3.59-.43.8-.54,1.65-.92,2.55-1.14.45-.11.92-.18,1.4-.2.24-.01.48-.01.73,0h0c.51.02,1.03.04,1.54.05.29,0,.57.05.85.1.39.08.78.2,1.14.36.21.09.4.2.6.32.3.18.54.43.75.69.37.47.63,1.03.78,1.63.12.49.09,1.02.07,1.53,0,.15-.03.28-.08.39s-.12.22-.2.3c-.17.17-.4.29-.67.37-.04.01-.08.02-.12.02h0c-1.91-.02-3.8-.08-5.42-1.31-.03-.02-.06-.05-.09-.07-.44-.35-.73-.69-.73-1.08,0,0,0-.02,0-.03,0-.24.13-.49.39-.78.05-.05.05-.15.08-.24-.09-.05-.17-.07-.26-.08-.25-.03-.49.08-.73.19-.41.19-.71.5-.91.9-.29.59-.38,1.22-.23,1.85.05.22.12.44.18.66.11.38.24.76.39,1.12.12.28.25.55.39.82.7,1.33,1.7,2.46,3.04,3.36.51.34,1.07.52,1.66.64.15.03.3.06.45.08.19.03.38.05.57.07.24.02.48.04.72.04.64.01,1.26-.05,1.87-.19.61-.14,1.21-.35,1.8-.65.92-.47,1.68-1.05,2.28-1.74.4-.46.73-.96,1-1.51.4-.83.64-1.75.73-2.77.08-.9.04-1.78-.1-2.63-.09-.5-.22-.98-.38-1.46-.3-.88-.72-1.73-1.27-2.54-.17-.25-.35-.48-.53-.72-.8-1.05-1.72-2-2.75-2.84-.2-.16-.37-.33-.53-.52,0,0,0,0-.01-.01-.16-.19-.3-.41-.42-.64-1.52-3.03-2.95-6.08-4.3-9.18-.9-2.06-1.75-4.14-2.55-6.24-1.21-3.15-2.31-6.34-3.28-9.59-.32-1.05-.62-2.11-.9-3.16-.57-2.12-1.08-4.25-1.5-6.4-.21-1.07-.4-2.15-.57-3.24-.4-2.55-.69-5.11-.76-7.69-.03-.86-.03-1.72,0-2.58.04-1.33.13-2.65.31-3.95.18-1.31.45-2.6.84-3.88.56-1.83,1.34-3.55,2.56-5.04.16-.2.38-.35.69-.64-.04.48-.07.91-.1,1.33s-.06.8-.1,1.19c-.25,2.32-.28,4.66-.25,6.99.09,8.45,1.35,16.6,3.83,24.45.5,1.57,1.04,3.13,1.63,4.67ZM144.53,162.22c.82-1.57,2.11-2.65,3.83-3.14,1.12-.32,2.19-.1,3.19.47,1.28.72,2.1,1.77,2.31,3.25.01.07.06.14.14.3,1.27-1.63,1.02-4.16-.55-6.05.1-.51.43-.91.76-1.29,1.47-1.68,3.28-2.8,5.46-3.37,2.86-.76,5.33,1.37,5.63,3.96.11.99-.1,1.84-.89,2.56-.99.9-1.9,1.89-2.98,2.7-2.28,1.7-4.84,2.81-7.52,3.69-2.29.75-4.64,1.29-6.99,1.83-.69.16-1.21,0-1.7-.51-1.09-1.15-1.45-2.96-.7-4.39ZM48.96,79.08c-.73-3.93-1.32-7.87-1.54-11.86-.11-1.93-.23-3.87-.2-5.8.06-4.71.89-9.27,2.85-13.59,1.41-3.1,3.39-5.79,6.02-7.97.45-.38.94-.72,1.43-1.05,1.68-1.15,3.56-1.46,5.54-1.23.53.06,1.11.04,1.64.42-.4,1.72-.79,3.44-1.21,5.23-.14.1-.33.25-.52.37-1.97,1.2-3.46,2.86-4.6,4.85-1.16,2.01-1.88,4.18-2.33,6.43-.65,3.31-.81,6.66-.62,10.03.43,7.95,2.28,15.62,4.72,23.15,1.97,6.1,4.39,12.02,7.12,17.81.15.32.3.64.44.97.03.07.04.15.1.42-1.93-.6-3.69-1.14-5.54-1.37-1.83-.23-3.62-.07-5.39.18-.43-.25-.48-.68-.62-1.03-1.18-2.93-2.15-5.94-3.07-8.96-1.71-5.59-3.14-11.26-4.21-17.01ZM53.38,116.68c.3-1.81,1.28-3.07,2.91-3.92,1.89-.99,3.87-1.02,5.89-.74.58.08,1.15.26,1.73.41.09.02.17.12.36.27-1.25.39-2.42.72-3.46,1.33-1.07.62-2.02,1.38-2.86,2.28-.81.87-1.48,1.85-2.03,2.9-.57,1.09-.94,2.25-1.22,3.56-.16-.15-.3-.22-.36-.34-.89-1.82-1.28-3.72-.94-5.75ZM82.44,238.97c-1.44,1.73-2.91,3.44-4.53,5.01-1.11,1.07-2.29,2.06-3.57,2.93-3.09,2.09-6.5,3.19-10.22,3.34-3.93.16-7.81-.2-11.59-1.39-1.99-.63-3.99-1.24-5.99-1.86-.68-.21-1.38-.34-2.1-.28-1.3.11-2.21.77-2.7,1.99-.16.4-.26.83-.41,1.23-.9,2.36-3.14,3.8-5.66,3.66-2.46-.13-4.54-1.78-5.16-4.18-.53-2.06-.1-3.94,1.42-5.47,1.58-1.59,3.5-2.06,5.66-1.49.27.07.52.19.79.27,1.62.49,3.02-.09,3.8-1.56.15-.28.29-.56.42-.85.53-1.16.36-2.23-.39-3.23-.21-.28-.49-.52-.72-.79-1.19-1.43-1.33-3.56-.31-5.08,1.06-1.58,2.85-2.29,4.77-1.76,1.81.5,3.08,2.17,3.1,4.04,0,1.15-.38,2.17-1.17,3.02-.22.23-.46.43-.68.65-1.53,1.56-1.26,3.81.62,4.93.61.36,1.26.66,1.93.9,1.78.64,3.57,1.25,5.38,1.83,3.01.97,6.09,1.34,9.23.86,1.17-.18,2.33-.45,3.46-.77,1.86-.54,3.63-1.32,5.33-2.26,2.39-1.32,4.41-3.05,6.01-5.27.14-.19.28-.38.43-.57.02-.03.06-.05.2-.15.99.6,1.96,1.19,2.92,1.85-.12.2-.18.34-.27.46ZM105.56,235.11c-.58,1.2-1.19,2.4-1.81,3.64-.74-.07-1.44-.11-2.14-.21-1.98-.29-3.94-.66-5.88-1.15-.65-.17-1.3-.35-1.94-.55-.75-.23-1.5-.49-2.24-.77-.27-.1-.54-.2-.81-.31-.81-.33-1.6-.69-2.37-1.08-.77-.39-1.53-.81-2.28-1.26,0,0,0,0,0,0-.83-.5-1.65-1.03-2.46-1.56-2.3-1.49-4.53-3.06-6.71-4.71-.09-.07-.19-.14-.28-.21-1.36-1.03-2.7-2.08-4.03-3.16-.33-.27-.65-.56-.97-.85-.41-.37-.82-.75-1.25-1.1-.47-.39-.48-.85-.38-1.39.25-1.4.52-2.79.72-4.2.17-1.21.32-2.43.47-3.64.15-1.21.3-2.43.45-3.64.02-.2.05-.39.1-.82,1.07.84,1.79,1.77,2.64,2.57.87.81,1.71,1.65,2.58,2.45.63.57,1.27,1.13,1.92,1.69.25.22.5.44.75.66.91.76,1.83,1.51,2.76,2.24.94.73,1.89,1.43,2.85,2.12,1,.71,2.01,1.4,3.03,2.08.37.24.74.47,1.11.7.63.4,1.25.81,1.89,1.19,1.01.61,2.04,1.2,3.08,1.77,1.04.57,2.09,1.12,3.15,1.65,1.06.53,2.13,1.04,3.2,1.53,1.08.49,2.17.95,3.26,1.4,1.09.45,2.2.86,3.37,1.32-.52,1.28-1.22,2.41-1.8,3.6ZM115.08,227.6c-15.51-4.5-28.82-12.58-39.66-24.6-8.07-8.95-13.79-19.22-16.93-30.9-.6-2.25-1.1-4.53-1.46-6.83-.13-.82-.2-1.65-.23-2.48-.04-1.47-.31-2.91-.59-4.34-.07-.39-.2-.77-.34-1.13-1.36-3.45-5.01-4.92-8.4-3.4-1.02.46-1.89,1.14-2.67,1.94-.92.94-1.68,2-2.38,3.1-1.59,2.51-2.85,5.19-4,7.93-1.31,3.14-2.38,6.36-3.32,9.63-.18.64-.45,1.27-.59,1.92-.3,1.39-.6,2.78-.81,4.18-.15.99.2,1.91.97,2.56,1.76,1.51,2.59,3.55,3.31,5.65.77,2.25.83,4.59.62,6.92-.26,2.98-1.04,5.83-2.35,8.52-.57,1.18-1.29,2.27-2.25,3.17-1.31,1.23-2.88,1.76-4.67,1.59-.22-.02-.44-.12-.75-.22.17-.37.29-.69.45-.99,1.26-2.48,2.18-5.08,2.63-7.83.28-1.73.29-3.46.09-5.2-.1-.83-.35-1.62-.74-2.36-1.33-2.48-3.16-4.53-5.35-6.27-.53-.42-1.11-.76-1.77-.94-.58-.15-1.09-.09-1.53.52.92-.03,1.31.54,1.65,1.19.68,1.31,1.08,2.72,1.35,4.15.16.85.19,1.72.27,2.59.06.63.08,1.26.15,1.89.21,1.71.04,3.39-.4,5.05-.77,2.9-2.05,5.55-3.91,7.92-.96,1.22-2.06,2.3-3.38,3.13-.88.55-1.81.95-2.88.99-.67.02-1.22-.19-1.7-.67-1.83-1.81-2.6-4.03-2.47-6.56.09-1.8.55-3.51,1.55-5.04.21-.33.38-.7.52-1.06.62-1.5,1.65-2.68,2.84-3.74.41-.37.86-.72,1.46-.44.23-.32.11-.56-.09-.77-.28-.3-.65-.45-1.06-.47-.55-.02-1.11-.06-1.66.01-1.97.27-3.88.75-5.58,1.85-.16.1-.33.19-.49.28-.85-.95-1.5-2.5-1.68-3.88-.3-2.35.19-4.57,1.23-6.66,1.51-3.04,3.83-5.3,6.86-6.81,1.66-.83,3.47-1.04,5.3-1.02.7,0,1.42.12,2.11.26,1.98.42,3.66-.57,4.17-2.53.24-.92.38-1.86.67-2.76.53-1.65,1.1-3.3,1.72-4.92,1.29-3.4,2.67-6.76,4.26-10.03,1.2-2.46,2.56-4.82,4.28-6.95,1.1-1.36,2.31-2.6,3.7-3.66,2.14-1.63,4.55-2.49,7.24-2.58,1.96-.06,3.86.16,5.65,1.04.21.1.44.18.66.25,2.32.72,4.44,1.85,6.53,3.05,1.03.6,1.99,1.29,2.82,2.15.1.1.23.17.5.36-.09-.47-.13-.78-.22-1.06-.33-1.02-.85-1.95-1.41-2.86-1.5-2.45-3.34-4.73-5.55-6.91-.03-1.13.79-4.73,1.44-6.25.5.1.86.48,1.29.72.48.27.95.56,1.43.83.45.25.9.49,1.36.73.49.25.99.5,1.49.73.46.22.93.43,1.41.63.51.22,1.02.42,1.54.62.48.18.96.36,1.45.53.52.18,1.05.35,1.58.51.49.15.98.3,1.47.44.53.15,1.07.29,1.6.42.5.12,1,.23,1.5.34.54.12,1.09.2,1.62.34.49.13,1.03.06,1.51.37-.43,2.19-.87,4.35-1.28,6.51-.41,2.18-.67,4.38-.79,6.59-.12,2.25-.15,4.5-.17,6.75-.02,2.21.16,4.42.41,6.62.25,2.2.54,4.39,1.04,6.55.5,2.15.99,4.31,1.62,6.43.63,2.12,1.36,4.21,2.18,6.26.84,2.09,1.77,4.14,2.79,6.15,1,1.97,2.1,3.9,3.28,5.77,1.18,1.87,2.44,3.69,3.78,5.45,1.34,1.76,2.76,3.46,4.26,5.09,1.49,1.63,3.07,3.2,4.7,4.69,1.66,1.51,3.4,2.96,5.19,4.32,1.76,1.34,3.59,2.59,5.46,3.77,1.85,1.18,3.78,2.22,5.63,3.43-.38-.09-.76-.16-1.13-.27ZM171.46,223.27c-3.68,1.77-7.48,3.22-11.39,4.36-.98.29-1.97.55-2.96.8s-2,.48-3.01.69c-3.27.68-6.55,1.14-9.85,1.4-3.3.26-6.62.32-9.95.2-.47-.02-.94-.06-1.41-.12-.47-.07-.93-.16-1.39-.28,0,0-.01,0-.02,0-.73-.2-1.45-.4-2.17-.62-.56-.17-1.11-.35-1.67-.53-.14-.05-.29-.09-.43-.14-.68-.23-1.36-.47-2.04-.72,0,0,0,0-.01,0-.69-.26-1.37-.52-2.05-.8,0,0,0,0,0,0h0c-.63-.26-1.25-.52-1.87-.8-.04-.02-.09-.04-.13-.06-.6-.27-1.2-.54-1.8-.83-.05-.02-.1-.05-.14-.07-.6-.29-1.2-.59-1.8-.9-.01,0-.02-.01-.03-.02-3.68-1.9-7.16-4.12-10.43-6.61-.08-.06-.15-.11-.23-.17-.47-.36-.93-.73-1.39-1.1-.11-.09-.21-.17-.32-.26-.44-.36-.88-.73-1.31-1.1-.11-.1-.23-.2-.34-.29-.43-.37-.86-.75-1.28-1.14-.1-.09-.19-.18-.29-.27-.44-.4-.87-.81-1.29-1.22-.03-.03-.06-.06-.09-.09-1.4-1.36-2.74-2.78-4.02-4.25-.07-.08-.15-.16-.22-.25-.33-.38-.64-.76-.96-1.15-.16-.19-.31-.38-.47-.57-.29-.35-.57-.71-.85-1.07-.18-.23-.36-.46-.53-.69-.26-.34-.52-.69-.77-1.04-.19-.25-.37-.51-.55-.76-.24-.34-.48-.68-.72-1.02-.19-.27-.37-.55-.56-.83-.22-.33-.45-.67-.66-1.01-.19-.3-.38-.6-.56-.9-.2-.33-.41-.65-.6-.98-.21-.35-.41-.71-.62-1.07-.18-.31-.36-.62-.53-.93-.34-.61-.66-1.22-.98-1.83-.14-.26-.27-.53-.4-.8-.2-.41-.41-.81-.6-1.22-.14-.29-.27-.58-.41-.88-.18-.39-.36-.79-.53-1.18-.13-.3-.26-.6-.39-.91-.17-.4-.33-.79-.49-1.19-.12-.3-.24-.61-.36-.91-.16-.41-.31-.82-.46-1.23-.11-.3-.22-.6-.32-.9-.15-.43-.29-.87-.44-1.31-.09-.29-.19-.57-.28-.86-.15-.48-.29-.97-.43-1.46-.07-.24-.14-.48-.21-.73-.2-.73-.4-1.47-.58-2.22-.21-.88-.41-1.76-.59-2.65-.35-1.77-.64-3.54-.86-5.32-.43-3.56-.59-7.14-.48-10.74.03-.9.07-1.8.13-2.7.28-4.27.97-8.47,2.07-12.61.04-.15.09-.29.17-.52,1.91.03,3.72.1,5.53.07.45,0,.9-.03,1.34-.05,1.33-.05,2.65-.13,4.01-.19h0c.15.39.29.75.41,1.12,2.39,6.86,5.82,13.14,10.51,18.7,2.02,2.39,4.2,4.56,6.53,6.51.29.24.58.47.88.71,3.45,2.75,7.25,5.01,11.43,6.75.59.25,1.17.5,1.78.73,2.1.78,4.22,1.39,6.37,1.84,1.35.28,2.71.5,4.07.66.81.09,1.63.17,2.45.22,1.47.09,2.94.11,4.43.05,5.12-.18,10-1.17,14.66-2.9,2.79-1.04,5.51-2.34,8.15-3.89,2.83-1.67,5.46-3.56,7.9-5.65,2.89-2.48,5.49-5.26,7.86-8.28.96-1.22,1.89-2.47,2.77-3.78.77-1.15,1.49-2.32,2.18-3.5,2.7-4.62,4.78-9.5,6.31-14.63.37-1.26.73-2.52,1.04-3.81.08-.32.15-.65.23-.98.08-.33.16-.66.24-1.01h0c.41.12.5.44.64.69,1.96,3.35,3.53,6.88,4.83,10.54,1.79,5.08,3.03,10.3,3.84,15.62.37,2.47.65,4.94.83,7.42.18,2.48.25,4.97.22,7.46-.01.86-.03,1.72-.06,2.58-.04.92-.09,1.85-.15,2.77-.11,1.65-.27,3.29-.48,4.93-.11.85-.24,1.7-.38,2.54-.42,2.54-.98,5.05-1.7,7.55-.14.47-.28.94-.44,1.41-.31.94-.64,1.87-.97,2.8-.17.47-.33.93-.49,1.4-.07.21-.15.41-.24.6-.27.59-.63,1.13-1.02,1.66-2.72,3.64-5.75,6.94-9.07,9.91-3.32,2.97-6.94,5.61-10.85,7.92-1.77,1.05-3.58,2.02-5.42,2.9ZM212.01,241.1c.2.64.31,1.31.47,1.96.41,1.67.09,3.2-.84,4.64-1.32,2.04-2.86,3.89-4.8,5.36-1.45,1.09-2.95,2.12-4.48,3.1-2.1,1.34-4.31,2.48-6.55,3.57-5.36,2.62-10.8,5.05-16.27,7.43-.32.14-.66.28-.95.48-1.66,1.11-1.89,3.35-.41,4.69.6.54.92,1.17,1.13,1.89,1.23,4.09-1.66,8.34-6.16,8.4-3.37.04-5.51-2.25-6.22-4.44-.89-2.73.07-5.7,2.42-7.35.29-.2.61-.37.9-.57,2.28-1.53,1.69-4.52-.4-5.36-.18-.07-.41-.11-.54-.24-.75-.74-1.72-.9-2.68-1.15-2.22-.58-3.78-2.56-3.9-4.82-.13-2.37,1.37-4.5,3.48-5.27,3.4-1.24,6.98,1.17,7.16,4.85.02.35,0,.71,0,1.07-.04,1.92,1.8,3.64,4.14,2.85.3-.1.59-.23.88-.35,4.72-1.83,9.34-3.85,13.84-6.17,1.72-.89,3.4-1.85,5.01-2.93,1.61-1.08,3.1-2.32,4.45-3.72.88-.91,1.69-1.88,2.33-2.98,1.21-2.05,1.48-4.21.82-6.51-.71-2.49-1.85-4.78-3.13-7.02-.35-.61-.67-1.24-1.04-1.93,2.04-1.55,3.95-3.01,5.93-4.51.12.16.29.32.38.51.59,1.38,1.26,2.74,1.73,4.15,1.16,3.44,2.24,6.91,3.33,10.38ZM213.22,206.35c.07.25.15.49.23.75s.16.52.25.81c-.18.32-.33.6-.49.87-.53.86-1.09,1.69-1.65,2.52-.18.26-.36.52-.55.77-.43.6-.87,1.18-1.31,1.75-.33.43-.67.85-1.01,1.26-.37.45-.75.9-1.14,1.33-.38.44-.78.86-1.18,1.28-.18.19-.36.37-.54.55-2.31,2.38-4.82,4.54-7.56,6.48-.3.22-.61.43-.91.65-.36.24-.71.48-1.08.72-.79.52-1.59,1.02-2.42,1.5,0,0,0,0,0,0-1.59.93-3.23,1.76-4.91,2.5-1.68.75-3.39,1.41-5.13,2-.97.33-1.95.64-2.93.94-.98.3-1.96.6-2.94.9-.08.02-.16.04-.24.06-.3.08-.6.16-.88.24-.66-.72-2.34-4.08-2.72-5.44h0c.62-.33,1.24-.65,1.86-.98.62-.33,1.25-.66,1.86-1,1.28-.71,2.54-1.45,3.78-2.22,1.21-.75,2.39-1.54,3.55-2.37,1.19-.85,2.36-1.73,3.5-2.64,1.11-.89,2.2-1.8,3.26-2.76,1.09-.98,2.14-1.99,3.17-3.03,1-1.01,1.97-2.06,2.9-3.13.94-1.07,1.84-2.17,2.71-3.29.89-1.16,1.76-2.34,2.58-3.54.8-1.17,1.57-2.37,2.3-3.59.37-.63.74-1.26,1.09-1.9.35-.64.7-1.28,1.04-1.93.65-1.25,1.25-2.54,1.86-3.8.35-.01.3.24.33.4.23,1.12.48,2.24.73,3.36.76,3.35,1.61,6.68,2.57,9.98ZM271.66,68.88c-.7.52-1.38,1.06-2.11,1.52-1.75,1.09-3.61,1.97-5.56,2.63-1.22.41-2.29,1.04-3.2,1.96-1.03,1.03-2.11,2.03-3.16,3.05-.31.3-.6.61-.78.92.09.31.27.27.42.28,1.74.05,3.48.07,5.21.14,1,.04,1.97.02,2.91-.36.1-.04.23-.02.41-.03,0,.2.05.39.02.58-.44,2.85-1.42,5.5-3,7.92-1.52,2.34-3.56,4.11-6.11,5.27-1.22.56-2.47,1.07-3.81,1.27-.55.08-1.1.12-1.65.13-.69.02-1.32-.18-1.91-.53-1.52-.92-3.57-.47-4.56,1.35-.3.55-.56,1.14-.75,1.73-.86,2.67-1.97,5.25-3.03,7.84-1.85,4.53-3.77,9.04-5.93,13.44-1.27,2.59-2.67,5.12-4.27,7.52-.75,1.11-1.54,2.2-2.4,3.23-1.63,1.95-3.68,3.32-6.1,4.15-1.84.63-3.73,1.04-5.64,1.31-1.84.26-3.68.48-5.53.69-.46.05-.94,0-1.4,0-.55-.89-1.58-3.26-1.76-4.05.36,0,.71-.01,1.05,0,2.41.11,4.82.21,7.23.05,1.34-.09,2.67-.25,4-.46,1.73-.27,3.19-1.11,4.42-2.35,1.09-1.1,2.04-2.31,2.81-3.65.82-1.44,1.61-2.9,2.36-4.38,1.91-3.78,3.51-7.69,5.18-11.57.92-2.14,1.75-4.32,2.73-6.44,1.07-2.31,1.77-4.73,2.5-7.15.1-.34.2-.69.25-1.04.21-1.5-.43-2.73-1.76-3.44-.07-.04-.14-.06-.22-.1-3.11-1.35-5.2-3.75-6.48-6.78-2.81-6.64-2.39-13.18,1.02-19.52.71-1.33,1.64-2.52,2.73-3.56,1.53-1.45,3.3-2.43,5.4-2.75,1.19-.18,2.37-.1,3.52.24,1.21.36,2.19,1.07,2.98,2.05,1.11,1.38,1.83,2.96,2.21,4.68.74,3.41.31,6.68-1.37,9.76-.48.87-1.06,1.67-1.84,2.31-.8.66-1.69,1.16-2.74,1.33-.56.09-1.11.04-1.64-.1-1.62-.45-2.58-2.2-2.12-3.82.18-.62.46-1.18.91-1.64.33-.35.7-.63,1.21-.67.19-.01.38-.09.58-.13.91-.2,1.09-.1,1.59.86.23-.11.5-.18.69-.34.38-.31.55-.76.63-1.24.27-1.67-.66-3.71-2.09-4.62-1.05-.67-2.18-.63-3.32-.36-.85.2-1.63.61-2.34,1.11-3.48,2.47-5.32,7.53-3.04,12.03,1.59,3.14,4.22,4.76,7.65,5.01,3.74.28,6.75-1.33,9.23-4.01,1.55-1.68,2.59-3.68,3.33-5.83,1.12-3.28,1.38-6.63.8-10.05-.03-.19-.05-.39-.08-.65.19-.13.36-.28.56-.38,3.04-1.51,6.1-2.99,9.31-4.13.52-.18,1.05-.33,1.59-.48.53-.15,1.04-.07,1.47.24,1.46,1.06,2.78,2.25,2.99,4.2.16,1.45.27,2.91.43,4.36.06.61-.15,1.09-.63,1.44Z" fill="#000" stroke-width="0"/><path d="M212.4,39.01c.66.54,1.46.76,2.31.77.57,0,1.09-.15,1.57-.45.54-.33,1.08-.66,1.59-1.03,4.04-2.83,8.09-5.65,12.1-8.52,1.31-.94,2.56-1.98,3.76-3.06,1.25-1.13,1.33-2.02.49-3.47-.04-.07-.08-.14-.12-.2-.77-1.2-1.54-2.39-2.3-3.59-.81-1.28-1.85-2.36-3.01-3.32-1.39-1.16-2.58-1.11-3.89.12-.23.22-.45.45-.65.69-.54.63-1.09,1.25-1.61,1.9-3.83,4.82-7.45,9.8-10.91,14.9-.31.46-.64.9-.97,1.34-.63.83-.63,1.68.08,2.46.48.52,1.01,1,1.56,1.45Z" fill="#000" stroke-width="0"/><path d="M231.2,41.35c-.18-1.56-1.36-2.34-2.86-1.95-.42.11-.83.25-1.24.38-3.01.93-5.83,2.41-8.88,3.23-.48.13-.87.44-1.06.88-.37.82-.75,1.66-.99,2.52-.29,1.04.27,1.97,1.27,2.37.22.09.45.14.68.19,2.32.47,4.68.67,7.04.87,1.18.1,2.36-.08,3.52-.34,1.48-.34,2.1-.99,2.28-2.48.15-1.25.22-2.51.33-3.77-.02,0-.04,0-.06,0,0-.63.06-1.27-.01-1.89Z" fill="#000" stroke-width="0"/><path d="M18.52,46.63c.19.05.39.08.58.11,4.37.67,8.73,1.35,13.1,2,.57.08,1.19.04,1.76-.05.88-.14,1.46-.88,1.42-1.77-.04-.86-.35-1.62-1.04-2.17-.59-.46-1.21-.89-1.82-1.33-2.74-2-5.49-4-8.23-6-.77-.56-1.54-1.1-2.27-1.62-.86-.53-1.29-.43-1.78.4-.08.14-.14.28-.21.43-.42.98-.86,1.95-1.24,2.95-.51,1.33-.95,2.68-1.06,4.11-.05.67-.04,1.34-.02,2.01.02.49.33.79.79.92Z" fill="#000" stroke-width="0"/><path d="M31.81,52.85c-2.53.43-5.05.88-7.57,1.32-.27.05-.55.08-.81.17-.6.2-.87.68-.75,1.29.03.15.07.31.14.45.62,1.41,1.23,2.82,1.86,4.22.11.25.26.49.44.7.32.38.85.47,1.29.23.14-.08.26-.18.38-.28,1.81-1.52,3.63-3.03,5.42-4.58.56-.49,1.04-1.07,1.44-1.49.58-.96.17-1.89-.77-2.04-.34-.05-.71-.05-1.06,0Z" fill="#000" stroke-width="0"/><path d="M169.98,212.28c-1.04-1.13-2.08-2.25-3.12-3.37-.5-.54-1.01-1.08-1.54-1.64.25-.38.45-.69.66-1,.81-1.18,1.64-2.34,2.41-3.54.64-.99.54-1.42-.48-1.98-2.14-1.18-4.31-2.33-6.48-3.46-.79-.41-.99-.33-1.51.43-.49.73-.98,1.46-1.52,2.28-.3-.29-.54-.52-.78-.76-.41-.41-.81-.83-1.21-1.24-.51-.52-1.1-.67-1.76-.32-.51.26-1.03.54-1.49.87-1.39.99-2.75,2.01-4.12,3.02-.16.12-.34.23-.49.37-.52.47-.54.68-.08,1.18.2.23.45.41.66.64,1.38,1.46,2.75,2.92,4.19,4.46.03-.07,0,.07-.08.18-1.08,1.77-2.17,3.54-3.26,5.3-.18.29-.37.57-.55.86-.26.42-.19.78.27,1.02.27.14.54.29.82.41,1.06.45,2.13.89,3.19,1.35.66.29,1.28.63,1.94.91.72.31.99.24,1.5-.37.48-.58.93-1.17,1.4-1.76.46-.57.93-1.14,1.42-1.74.21.18.35.27.47.39,1.31,1.34,2.62,2.67,3.92,4.02.59.62.67.65,1.31.07.61-.55,1.21-1.1,1.78-1.68.99-.99,1.95-2,2.93-2.99.41-.41.42-.83.09-1.27-.16-.22-.32-.44-.51-.64Z" fill="#000" stroke-width="0"/><path d="M86.73,159.23c0-5.24.5-10.36,1.43-15.33-.45.02-.89.04-1.34.05-1.81.03-3.62-.04-5.53-.07-.07.23-.13.37-.17.52-1.09,4.14-1.79,8.34-2.07,12.61-.06.9-.1,1.8-.13,2.7-.11,3.6.05,7.18.48,10.74.22,1.78.5,3.55.86,5.32.18.88.37,1.77.59,2.65.18.74.37,1.48.58,2.22.07.24.14.49.21.73.14.49.28.98.43,1.46.09.29.18.57.28.86.14.44.29.87.44,1.31.1.3.21.6.32.9.15.41.3.82.46,1.23.12.31.24.61.36.91.16.4.33.8.49,1.19.13.3.26.61.39.91.17.4.35.79.53,1.18.13.29.27.59.41.88.2.41.4.82.6,1.22.13.27.26.54.4.8.32.62.65,1.23.98,1.83.17.31.35.62.53.93.21.36.41.71.62,1.07.2.33.4.65.6.98.19.3.37.6.56.9.22.34.44.67.66,1.01.18.28.37.56.56.83.24.34.47.68.72,1.02.18.26.37.51.55.76.26.35.51.7.77,1.04.18.23.35.46.53.69.28.36.56.72.85,1.07.15.19.31.38.47.57.32.38.64.77.96,1.15.07.08.15.16.22.25,1.28,1.47,2.62,2.89,4.02,4.25.03.03.06.06.09.09.42.41.86.82,1.29,1.22.1.09.19.18.29.27.42.38.85.76,1.28,1.14.11.1.23.2.34.29.43.37.87.74,1.31,1.1.11.09.21.17.32.26.46.37.92.74,1.39,1.1.08.06.15.12.23.17,3.27,2.49,6.75,4.7,10.43,6.61.01,0,.02.01.03.02.59.31,1.19.6,1.8.9.05.02.1.05.14.07.59.28,1.19.56,1.8.83.04.02.09.04.13.06.62.27,1.24.54,1.87.8h0c-21.94-14.76-36.37-39.82-36.37-68.25Z" fill="#8ad290" stroke-width="0"/><path d="M77.7,109.84c-23.07-36.04-14.91-62.11-14.91-62.11-.31.29-.53.44-.69.64-1.22,1.49-2,3.21-2.56,5.04-.39,1.28-.66,2.57-.84,3.88-.18,1.31-.27,2.63-.31,3.95-.02.86-.02,1.72,0,2.58.08,2.58.36,5.14.76,7.69.17,1.08.36,2.16.57,3.24.43,2.15.93,4.28,1.5,6.4.29,1.06.59,2.11.9,3.16.98,3.24,2.08,6.44,3.28,9.59.8,2.1,1.66,4.18,2.55,6.24,1.34,3.1,2.78,6.15,4.3,9.18.12.24.26.45.42.64,0,0,0,0,.01.01.16.19.33.36.53.52,1.03.84,1.95,1.79,2.75,2.84.18.24.36.47.53.72.55.81.97,1.66,1.27,2.54.16.48.29.96.38,1.46.15.85.18,1.72.1,2.63-.09,1.02-.33,1.95-.73,2.77-.26.55-.6,1.06-1,1.51-.6.69-1.36,1.27-2.28,1.74-.59.3-1.19.52-1.8.65-.61.14-1.24.2-1.87.19-.24,0-.48-.02-.72-.04-.19-.02-.38-.04-.57-.07-.15-.02-.3-.05-.45-.08-.59-.12-1.15-.31-1.66-.64-1.34-.9-2.34-2.03-3.04-3.36-.14-.27-.27-.54-.39-.82-.15-.36-.27-.73-.39-1.12-.06-.22-.13-.43-.18-.66-.15-.63-.06-1.26.23-1.85.2-.4.5-.71.91-.9.24-.11.48-.22.73-.19.08.01.17.04.26.08-.03.1-.03.19-.08.24-.26.28-.38.54-.39.78,0,0,0,.02,0,.03,0,.38.29.72.73,1.08.03.02.06.05.09.07,1.62,1.23,3.52,1.28,5.42,1.31h0s.08-.01.12-.02c.27-.08.5-.19.67-.37.08-.09.15-.19.2-.3s.08-.25.08-.39c.02-.51.04-1.04-.07-1.53-.15-.6-.4-1.16-.78-1.63-.21-.26-.45-.5-.75-.69-.19-.12-.39-.23-.6-.32-.36-.17-.74-.28-1.14-.36-.28-.06-.56-.1-.85-.1-.51-.01-1.03-.03-1.54-.05h0c-.25,0-.49,0-.73,0-.48.03-.95.09-1.4.2-.91.22-1.76.6-2.55,1.14-.2.13-.39.28-.59.43-1.19.96-2.1,2.11-2.71,3.45-.21.45-.38.91-.52,1.4-.12.4-.2.8-.26,1.2-.11.8-.09,1.6.04,2.4.07.4.16.8.28,1.19.1.34.23.67.46.94.07.09.16.18.26.26.54.43,1.07.88,1.6,1.32s1.07.87,1.63,1.28c.85.62,1.73,1.18,2.65,1.69.91.51,1.85.97,2.81,1.4,0,0,27.7,3.05,10.3-24.12Z" fill="#8ad290" stroke-width="0"/></svg>