<?xml version="1.0" encoding="UTF-8"?><svg id="a" xmlns="http://www.w3.org/2000/svg" viewBox="0 0 1024 768"><path d="M17.5,128.47c3.89-2.54,7.81-8.64,7.53-12.89-.22-3.34-6.6-8.43-10.64-8.84-4.67-.48-9.52,1.38-14.39,2.54v22.74c.51-.08,1.02-.16,1.54-.22,5.45-.6,11.7-.56,15.96-3.34Z" fill="#a4ffad" stroke-width="0"/><path d="M480.68,738.5c-1.43-3.16-7.59-6.63-10.65-5.92-3.83.9-8.14,5.41-9.63,9.37-2.01,5.32-1.53,11.59-2.12,17.46-.33,3.31-1.13,6.19-2.32,8.59h24.8c4.42-9.51,4.36-19.68-.08-29.5Z" fill="#a4ffad" stroke-width="0"/><path d="M23.91,659.8c2.29-4.78,2.19-12.13.27-17.22-2.79-7.38-10.25-9.58-17.86-8.23-2.1.37-4.2.8-6.32,1.26v27.27c1.94.32,3.86.65,5.77,1.03,6.88,1.36,14.62,3.23,18.13-4.11Z" fill="#a4ffad" stroke-width="0"/><path d="M857.44,0c-5.43,8.56-10.78,17.17-16.32,25.66-5.22,7.99-12.45,10.49-18.53,6.39-7.82-5.27-4.86-11.49-1.24-17.69,2.79-4.78,5.55-9.58,8.33-14.36h-24.06c-2.89,17.25-12.45,30.77-23.77,43.34-16.65,18.49-16.13,50.82,1.09,68.82,3.2,3.35,6.92,6.34,9.49,10.13,4.03,5.94,4.28,12.46-1.11,17.81-5.27,5.25-11.77,4.79-16.62-.03-5.37-5.33-10.34-11.48-13.94-18.13-8.88-16.36-19.8-24.41-32.67-22.57-19.61,2.81-30.43,12.95-33.97,32.49-1.93,10.65-3.31,21.42-4.71,32.16-.4,3.04-1.16,7,.29,9.11,2.87,4.17,6.68,8.89,11.07,10.28,2.1.67,8.13-5.21,9.33-9.08,1.86-6.02.67-12.91,1.57-19.32,1.16-8.22,2.26-16.62,4.98-24.38,2.88-8.2,11.46-10.75,19.19-7.18,7.02,3.24,7.88,9.09,5.68,18.1-3.42,14.01-6.23,28.29-7.63,42.62-1.29,13.25-6.29,20.93-19.44,22.78-6.94.97-14.11.71-21.15.42-12.34-.5-19.57-7.48-23.28-19.1-4.78-14.96-5.56-29.96-.44-44.8,5.36-15.56,1.49-27.92-9.26-40.02-5.68-6.39-9.13-15.31-11.96-23.65-5.56-16.43-14.45-22.38-30.99-17.06-15.71,5.06-29.07,3.11-42.51-6.91-15.03-11.2-22.99-9.71-36.45,3.36-1.98,1.92-4.07,4.51-6.47,5.01-3.61.75-8.61,1.3-11.03-.62-2.41-1.9-2.5-6.92-3.29-10.64-.22-1.04.66-2.35,1.12-3.49,10.08-24.71,8.82-31.46-9.24-49.44h-42.57c-1.32,4.02-2.45,8.11-3.99,12.03-2.29,5.86-7.19,9.54-12.82,7.36-4.04-1.56-7.23-6.39-9.77-10.42-1.46-2.31-.86-5.94-1.18-8.97h-62.92c-3,9.35-5.93,18.73-9.04,28.04-2.53,7.57-7.69,11.33-15.56,8.77-8.05-2.62-9.2-9.48-7.6-16.6,1.54-6.87,4.15-13.49,6.29-20.22h-20.36c-1.76,5.85-2.4,12.44-5.61,17.32-2.59,3.94-9.32,8.91-12.32,7.87-4.18-1.45-7.67-7.69-9.4-12.61-1.25-3.58.83-8.35,1.43-12.59h-20.36c.77,7.61,2.18,15.22,2.08,22.81-.06,4.68-1.38,10.2-4.19,13.65-1.43,1.75-7.46.06-11.3-.68-2-.38-3.65-2.77-5.62-3.03-4.45-.59-11.66-2.16-12.94-.18-2.33,3.61-2.93,10.3-1.15,14.3,7.63,17.14,27.48,21.2,42.82,9.97,5.64-4.13,11.66-8.63,18.2-10.43,12.92-3.57,23.55,2.24,29.03,15.3,7.27,17.32,20,29.54,34.78,40,2.91,2.06,6.58,3.71,10.08,4.15,9,1.14,16.15-7.83,11.68-15.61-3.3-5.73-9.49-9.95-14.87-14.23-4.03-3.21-9.41-4.83-13.14-8.3-5.13-4.78-5.85-11.87-1.3-16.79,2.85-3.09,9.51-5.26,13.49-4.19,20.44,5.49,34.27,19.17,41.43,39.04,4.58,12.71-2.45,28.53-15.89,38.73-11.87,9-28.9,11.04-40.53,1.18-15.55-13.19-34.04-23.77-43.59-43.32-3.02-6.18-7.84-11.03-15.48-8.64-7.82,2.44-10.63,8.69-10.4,16.7.26,9.21,1.5,18.63.06,27.6-3.17,19.79-14.83,33.59-33.06,41.76-14.33,6.42-28.5,13.22-42.95,19.34-5.59,2.37-11.75,4.5-17.66,4.53-3.68.02-9.75-3.5-10.49-6.5-1.01-4.12.69-10.49,3.63-13.62,3.51-3.75,9.38-5.57,14.51-7.41,11.38-4.09,15.97-9.82,15.24-20.18-.96-13.56-9.13-25.13-19.05-26.98-9.45-1.76-16.44,4.42-15.73,14.08.2,2.77,1.02,5.49,1.35,8.26,1.16,9.92-3.34,15.42-13.22,15.96-4.61.25-9.26.3-13.87.01-11.4-.72-21.09,3.32-29.89,10.22-3.15,2.47-6.26,6.32-9.73,6.75-4.94.6-11.29.08-14.96-2.71-2.82-2.14-4.07-8.94-3.14-12.99,2.35-10.28,11.49-13.98,20.38-16.91,7.89-2.59,16.03-4.38,24.06-6.55,8.34-2.26,12.68-7.93,14.52-16.28,4.19-18.99,7.78-21.73,27.03-21.68,8.02.02,16.04-.09,24.05.1,17.67.42,35.55,14.01,29.58,34.51-1.27,4.34,1.37,12.54,4.92,14.99,6.01,4.16,11.26-1.32,15.24-6.5,12.6-16.4,7.67-38.37-11.37-49.09-10.9-6.13-21.92-12.3-26.69-24.59-2.85-7.33-4.68-15.43-5.05-23.28-.52-11.24,4.54-16.39,14.78-21.01,7.14-3.22,13.55-8.09,20.28-12.22h-48.12c1.79,13.89-3.71,20.91-17.37,20.87-15.63-.05-31.28-1.62-46.87-1.06-7.56.27-17.07,1.72-22.06,6.49-10.58,10.12-19.6,22.21-27.71,34.53-8.42,12.8-7.52,27.07-1.61,41.01,1.81,4.26,3.9,8.47,5.12,12.91,1.68,6.1,1.03,12.25-5.36,15.16-6.09,2.78-12.21,1.63-16.72-3.84-6.74-8.17-10.17-17.38-9.48-28.31,1.37-21.8-2.95-26.15-24.76-26.68-3.31-.08-6.88-.47-9.84-1.8-6.02-2.72-10.36-7.26-8.68-14.58,1.57-6.86,6.76-9.44,13.31-8.75,5.76.61,11.54,1.58,17.15,3.01,12.83,3.27,18.01.8,26.03-9.83,6.97-9.23,15.59-17.18,23.01-26.09,3.19-3.84,5.2-8.67,7.75-13.05h-57.37c3.24,2.78,6.85,5.23,9.63,8.42,6.86,7.87,3.36,18.28-6.95,18.84-5.53.3-12.49-1.77-16.65-5.33C34.81,15.66,29.15,7.42,22.79,0H0v17.82c1.29-.77,2.51-1.31,3.61-1.57,7.9-1.84,14.96,4.98,13.26,14.12-.96,5.19-3.49,10.96-7.14,14.6-3.11,3.1-6.38,6.04-9.73,8.91v26.62c7.67-1.48,15.96.04,24.12,3.12,13.37,5.05,23.65,13.19,24.81,29.18.81,11.16,5.46,20.19,15.47,26.01,4.53,2.63,8.95,5.53,13.11,8.72,9.47,7.25,10.58,16.86,2.59,25.68-5.59,6.17-11.6,12.07-18.06,17.29-11.68,9.44-34.36,9.81-46.15.71-2.46-1.89-4.64-6.48-4.13-9.33.59-3.33,3.76-7.94,6.68-8.73,5.37-1.46,11.45-1.13,17.12-.48,9.63,1.1,16.84-1.87,18.17-8.44,1.41-7.02-3.36-12.81-12.79-15.53-13.6-3.92-30.1,1.66-40.93,11.74v47c2.42,1.39,5.19,2.52,8.33,3.32,8.34,2.14,16.89,3.6,25.43,4.69,12.09,1.54,20.8,7.7,25.87,18.57,5.46,11.74,13.71,18.67,26.47,22.33,8.8,2.52,16.92,8.67,24.36,14.49,9.72,7.6,18.86,8.83,29.79,2.77,16.93-9.38,28.63-23.5,37.04-40.41,8.8-17.69,23.05-27.83,41.28-33.21,8.59-2.53,16.03.48,18.76,7.22,2.86,7.07-.71,15.19-9.12,18.88-5.31,2.33-11.14,3.47-16.73,5.17-6.28,1.91-12.13,5.22-11.97,12.36s6.07,10.49,12.53,11.69c22.98,4.27,37.25,19.33,47.97,38.84,5.29,9.62,3.82,18.9-4.99,25.53-5.34,4.02-11.55,7.17-17.79,9.62-23.97,9.41-22.81,43.12-9.03,55.7,2.05,1.87,4.68,3.25,6.28,5.42,2.6,3.52,7.06,8.24,6.23,11.14-1.21,4.19-5.89,9.21-10.05,10.36-12.9,3.57-21.59,11.16-27.71,22.77-3.42,6.48-8.68,10.94-16.61,7.84-7.16-2.8-9.6-10.49-5.89-19.01,1.82-4.17,4.26-8.53,7.58-11.5,12.44-11.1,14.66-24.47,10.19-39.77-4.04-13.83-5.33-27.97,2.43-40.55,4.48-7.27,11.81-12.86,18.28-18.73,3.14-2.84,7.64-4.14,10.85-6.93,5.99-5.21,5.76-12.27-1.04-16.28-12.97-7.64-26.38-14.52-39.66-21.62-5.76-3.08-11.13-.89-13.27,4.21-1.35,3.24,1.16,8.15,2.04,12.29.11.5.85.86,1.31,1.27,18.08,16.25,18.45,22.36.87,39.26-5.46,5.25-12.26,9.21-18.82,13.15-9.23,5.54-18.74,10.63-28.26,15.68-6.96,3.69-14.06,5.73-19.69-2.27-4.57-6.5-2.86-15.6,5.16-21.12,5.44-3.74,12.13-5.69,18.37-8.18,6.82-2.72,14.75-3.85,20.29-8.17,3.6-2.8,6.19-10.78,4.9-15.14-1.8-6.08-8.77-6.92-14.96-4.39-5.42,2.22-10.75,4.65-16.17,6.87-12.59,5.15-22.42,2.3-31.13-8.34-2.89-3.53-6.36-6.82-10.17-9.29-11.07-7.17-20.2-6.04-26.94,5.22-6.92,11.58-11.41,24.61-17.57,36.69-3.72,7.3-7.87,14.64-13.17,20.79-4.19,4.87-10.83,6.53-16.71,1.92-6.08-4.77-4.76-11.07-1.63-16.83,10.02-18.49,20.04-36.99,30.57-55.18,7.03-12.14,6.47-20.01-3.74-29.72-10.08-9.58-22.48-14.84-35.96-14.78-1.46,0-2.93.35-4.41.91v27.29c4.2-6.18,10.1-7.93,15.95-5.26,7.72,3.53,9.82,10.5,4.56,20.57-6.47,12.41-13.21,24.72-20.51,36.66v80.34c3.03-3.62,6.49-6.18,12.3-4.14,8.07,2.83,8.89,9.6,7.74,16.83-1.67,10.46-6.99,18.75-16.59,23.19-1.13.52-2.28,1-3.45,1.46v23.26c7.81-1.53,15.85-1.32,24.3.92,9.23,2.45,19.3,2.2,28.99,2.21,7.64,0,14.47.75,17.45,8.83,2.33,6.31-2.33,14.61-11.17,16.64-7.74,1.78-16.21.57-24.34.19-2.98-.14-5.84-1.92-8.83-2.59-12.01-2.66-19-3.35-26.4-.71v28.44c2.26-2.11,4.25-4.6,6.69-6.49,6.13-4.76,12.93-4.89,18.46.41,5.94,5.71,3.29,12.12-1.39,17.27-3.49,3.84-7.44,7.66-11.94,10.09-3.84,2.08-7.77,4.01-11.82,5.93v24.05c11.53-5.28,22.04-13.51,32.27-21.3,5.64-4.3,9.79-10.97,13.63-17.18,6.32-10.23,13.35-19.3,25.09-23.58,7.19-2.62,13.57-2.2,17.54,5.16,3.82,7.08.24,12.59-5.05,17.06-2.8,2.37-6.21,4.01-9.31,6.03-11.03,7.19-13.26,13.5-8.73,25.96,4.24,11.69,5.53,23.52,1.92,35.52-1.23,4.07-3.13,8.1-5.48,11.64-4.33,6.51-12.71,8.78-18.64,5.08-7.19-4.49-6.48-11.38-4.08-18.12,1.34-3.75,4.73-7.02,5.21-10.76.51-4.01-.12-9.42-2.56-12.09-1.53-1.68-8.06-.63-11,1.29-4.8,3.13-8.69,7.8-12.64,12.12-5.33,5.84-11.48,9.6-18.19,12.09v21.62c7.28-1.96,14.84-1.88,22.87,1.9,15.56,7.33,26.04,18.89,27.68,36.66,1.57,17.07-3.74,38.5-24,42.8-5.33,1.13-11.12,1.78-16.43.92-3.39-.55-6.75-1.27-10.12-2.07v77.89c.39.34.79.67,1.2,1h43.31c-2.29-7.66,1.54-15.86,8.82-18.28,7.16-2.38,15.58,2.58,17.72,10.44.86,3.17,1.63,5.74,2.44,7.83h43.12c-.83-.47-1.67-.94-2.51-1.39-5.72-3.03-12.13-5.01-17.24-8.81-4.23-3.15-8.03-7.83-10.18-12.66-3.15-7.08-.25-13.43,6.17-17.65,6.3-4.14,11.72-2.63,17.6,2.07,16.37,13.06,33.02,25.78,49.7,38.44h46.35c4.05-8.88,7.88-17.29,12.02-25.53,1.44-2.86,4.57-4.95,7.16-7.1,5.46-4.53,11.08-5.06,16.67-.1,5.95,5.29,5.69,11.4,1.83,17.56-2.46,3.92-5.92,7.19-8.36,11.12-.79,1.27-1.48,2.61-2.16,4.05h24.54c5.05-5.57,12.49-6.31,16.59,0h21.3c-.43-7.83,4.09-13.69,11.67-18.89,10.55-7.23,8.92-18.4,5.89-28.74-3.6-12.3-12.27-20.94-21.67-29.44-7.75-7.02-14.8-15.7-19.56-25-7.91-15.45-16.84-20.33-31.62-11.25-8.84,5.43-15.97,14.06-22.8,22.17-1.66,1.97-.44,8.97,1.82,11.03,2.23,2.03,7.93,1.95,11.25.61,4.73-1.9,8.3-7,13.05-8.48,4.42-1.38,11.44-1.63,14.19.98,2.75,2.6,3.47,10.09,1.86,14.15-4.96,12.52-16.71,16.5-28.62,16.81-19.07.5-30.84,8.83-35.42,27.49-.51,2.09-1.47,4.08-2.34,6.07-4.62,10.51-12.24,12.88-21.41,6.33-13.57-9.68-27.11-19.44-40.43-29.47-16.04-12.08-22.6-27.93-18.68-48.16,2.83-14.6,4.8-29.36,7.1-44.06,2.51-16.04,11.92-28.15,25.64-34.3,7.53-3.38,18.49-1.09,27.31,1.09,9.35,2.31,18.03,7.46,26.96,11.46,10.37,4.65,21.32,8.4,30.89,14.37,13.28,8.29,31.44,9.15,41.51-8.23,6.5-11.22,17.32-17.31,30.44-18.79,10.19-1.15,18.97-5.36,25.3-13.67,5.44-7.14,7.52-14.99,2.64-23.38-4.97-8.57-13.39-9.52-19.6-1.82-3.26,4.04-5.3,9.05-8.13,13.47-4.96,7.74-13.09,10.03-19.86,5.82-6.12-3.81-7.34-10.78-2.5-18.85,2.51-4.18,5.93-7.91,9.39-11.39,6.47-6.51,7.71-13.78,4.21-22.09-.12-.29-.24-.57-.35-.86-4.65-12.3-3.4-18.86,4.3-22.58,7.26-3.5,13.12,1.53,20.48,11.14,12.15,15.86,25.81,30.61,39.55,45.14,5.23,5.53,14.11,3.65,18.7-2.49,5.45-7.3,1.21-12.63-3.81-17.82-15.26-15.75-30.84-31.21-45.49-47.52-5.22-5.81-8.49-13.53-12.01-20.7-8.83-17.93-21.18-32.63-37.85-43.62-2.06-1.36-4.66-2.6-5.73-4.59-2.04-3.81-5.03-8.59-4.15-12.08.91-3.62,5.45-7.41,9.27-8.97,8.05-3.29,19.34,1.84,25.96,10.17,8.26,10.4,17.1,20.36,24.9,31.1,4.09,5.63,6.25,12.65,9.76,18.77,4.24,7.4,8.11,15.29,13.68,21.59,11.22,12.7,23.51,24.44,35.29,36.64,5.37,5.56,10.29,11.58,15.9,16.86,6.95,6.55,7.69,13.59,3.48,21.79-7.17,13.98-18.26,22.33-33.88,24.21-12.47,1.5-22.06,6.41-26.9,19.24-3.96,10.48-13.2,15.13-23.57,17.49-3.9.89-7.89,1.36-11.86,1.94-12.98,1.91-20.65,8.29-22.35,18.65-1.74,10.63,5.97,29.6,13.79,33.92,6.86,3.79,13.36.19,13.27-7.65-.04-3.99-1.09-7.96-1.57-11.96-1.24-10.21,4.03-15.35,14.13-13.83,22.14,3.32,22.22,3.35,30.92-17.69,3.96-9.57,10.1-17.01,19.34-21.65,6.45-3.24,12.86-3.29,17.43,3,4.32,5.94,1.13,11.19-3.09,15.77-3.98,4.33-8.34,8.31-12.16,12.77-7.59,8.85-6.85,16.45,2.17,24.02,3.06,2.57,6.71,4.47,9.61,7.19,5.25,4.93,7.41,11.06,3.13,17.5-4.42,6.65-10.84,5.01-16.49,1.91-4-2.19-7.46-5.45-10.94-8.5-6.09-5.32-12.59-9.67-20.89-5.97-9.16,4.08-17.15,10.76-17.11,21.23.03,9.52,1.79,19.89,5.88,28.38,10.39,21.56,10.35,27.76-5.82,45.6-2.04,2.25-4.15,4.44-6.28,6.63h26.51c.35-.51.69-1.03,1.03-1.58,9.23-14.99,30.13-20.05,48.04-14.38,5.7,1.81,11.42,4.7,10.2,11.11-.33,1.71-1.32,3.31-2.59,4.85h25.57c-1.63-2.54-2.75-5.52-3.09-8.67-1.92-17.61,27.91-55.53,45.21-57.6,7.24-.86,12.52,2.13,16.71,7.77,9.67,13.02,15.73,27.24,15.35,43.88-.13,5.81.69,11.6,5.85,14.61h13.2c2.56-1.99,4.16-5.46,4.43-10.16.88-15.71-4.17-29.84-11.9-43.31-5.04-8.79-9.68-17.87-13.66-27.19-5.35-12.53-10.78-15.26-23.81-11.34-23.77,7.15-44.36,18.26-56.31,41.76-4.5,8.84-12.76,13.63-22.59,14.15-15.94.84-31.65-.15-43.75-12.76-2.51-2.62-5.71-5.89-5.96-9.07-.42-5.36-.19-11.96,2.67-15.91,1.49-2.06,9.55-.53,13.97,1.16,4.11,1.57,7.33,5.49,10.93,8.39,11.09,8.9,20.86,7.63,27.52-4.9,14.39-27.06,38.14-39.52,66.66-44.84,12.13-2.26,23-6.75,32.03-15.34,5.37-5.11,11.59-8.11,18.26-3.44,6.91,4.84,7.02,11.91,3.38,19.07-7.19,14.14-4.26,27.16,4.56,39.24,16.98,23.26,23.95,47.15,21.05,74.49h22.76c-1.7-17.3-3.97-34.57-4.97-51.91-.46-7.89,4.48-13.48,13.03-14.01,6.47-.4,12.6,6.16,12.64,14.43.04,7.38-1.1,14.79-1.97,22.16-1.34,11.44,1.75,21.38,11.62,27.4,1.24.76,2.5,1.4,3.75,1.93h18.86c2.62-1.08,5.17-2.58,7.61-4.49,5.51-4.32,9.73-10.28,14.94-15.03,4.49-4.09,9.14-8.44,14.5-11,6.18-2.94,11.48.77,14.85,6.13,3.29,5.23,1.79,10.07-2.81,14.01-3.99,3.42-8,6.86-12.09,10.39h32.38c11.8-6.29,26.23-7.14,35.48,0h80.17c5.64-3.78,8.58-9.64,9.11-18.11.82-13.24,9.17-20,19.68-17.46,12.13,2.94,15.93,14.57,8.77,25.49-2.05,3.12-3.66,6.52-5.32,10.08h24.37c3.55-7.08,10.36-12.28,19.46-13.74,7.66-1.23,15.84-.86,23.51.45,3.28.56,7.66,5.06,8.22,8.34.26,1.52-.33,3.21-1.24,4.95h37.03c14.57-11.43,31.96-18.95,49.72-25.76,5.38-2.06,11.09-1.81,14.49,4.35,3.36,6.09,1.09,11.39-3.89,14.59-3.72,2.39-7.55,4.61-11.52,6.82h18.2v-50.58c-8.37,2.95-16.71,5.96-25.12,8.81-4.05,1.37-8.45,3.84-12.26,3.21-3.88-.64-8.39-3.78-10.43-7.17-1.52-2.52-.55-7.74,1.12-10.74,1.83-3.28,5.36-6.25,8.83-7.84,12.46-5.71,25.22-10.78,37.86-16.08v-26.09c-14.53,7.21-28.86,14.88-43.68,21.41-6.79,2.99-14.86,1.89-19.07-4.83-2.4-3.84-2.59-10.17-1.51-14.85,1.55-6.76,13.01-10.62,22.81-10.51,6.82.08,14.06-.81,20.34-3.25,3.36-1.31,7.4-7.19,6.93-10.37-.48-3.25-5.77-6.44-9.6-8.32-3.75-1.84-8.83-1.08-12.37-3.14-3.52-2.06-8.26-6.32-8.1-9.39.22-4.33,3.47-10.15,7.17-12.34,11.85-7,27.37-1.9,37.09,10.87v-41c-20.85,12.69-43.58,10.26-60.94-6.42-4.01-3.85-8.07-7.69-12.4-11.16-7.78-6.25-15.96-7.23-25.94-4.3-9.8,2.89-20.46,3.15-30.79,3.79-5.74.35-12.65-.27-13.53,6.4-.65,4.92,1.51,12.49,5.12,15.15,4.79,3.52,12.16,3.92,18.53,4.63,2.72.3,5.75-1.92,8.6-3.1,18.13-7.53,29.25-5.57,40.99,7.26,10.74,11.75,13.47,28.55,4.35,43.06-9.17,14.6-20.12,28.16-31.19,41.41-6.72,8.04-16.67,10.54-26.97,8.99-12.48-1.89-24.87-4.42-37.28-6.77-7.35-1.4-12.9-4.98-12.75-13.39.12-6.64,7.85-12.81,16.06-12.24,6.02.42,12.17,1.81,17.85,3.9,16.13,5.93,27.08,3.54,37.67-10.06,5.67-7.29,10.66-15.2,15.25-23.24,3.79-6.64,3.31-13.34-3.7-17.95-5.94-3.91-13.67-1.52-18.02,6.01-2.59,4.48-4.1,9.65-5.74,14.63-2.68,8.15-8.35,10.74-16.42,10.22-7.81-.5-8.58-6.5-9.05-11.89-1.09-12.52-6.75-21.19-17.81-27.34-7.84-4.36-10.45-12.54-10.44-21.52.01-15.53-2.48-19.49-11.17-18.54-8.96.98-18.32,14.88-16.72,24.71,1.69,10.31,8.54,16.82,16.26,22.74,3.42,2.62,7.18,4.96,10.06,8.1,8.71,9.47,6.79,16.79-3.54,24.22-10.19,7.34-19.33,16.22-28.58,24.8-12.41,11.51-26.41,11.06-36.04-1.57-8.13-10.67-3.27-22.8,10.02-24.58,4.25-.57,8.63-.11,12.93-.43,6.8-.5,13.74-2.49,15.15-9.78.84-4.35-.99-10.52-3.86-14-4.6-5.58-11.35-8.66-19.06-5.4-4.82,2.04-9.46,4.55-14.35,6.39-20.43,7.7-39.92,2.16-52.54-15.33-5.65-7.83-6.5-16.7-2.11-25.55,7.07-14.29,17-26.05,31.93-32.27,12.66-5.27,21.43-13.94,27.35-26.27,5.8-12.07,15.43-19.58,28.54-23.11,24.59-6.63,34.99-25.6,27.03-49.95-2.85-8.72-7.76-16.81-12.19-24.93-5.96-10.93-5.93-20.18,2.94-28.82,8.8-8.57,18.6-16.25,28.62-23.37,10.08-7.16,16.49-15.38,15.16-28.58-.42-4.14.66-8.73,2.15-12.7,2.43-6.46,6.83-11.71,14.54-10.21,7.2,1.4,10.58,6.93,11.21,14.14,2.04,23.45-10.78,46.94-31.54,57.8-21.19,11.09-24.3,23.16-11.27,43.76.99,1.57,1.92,3.2,3.08,4.64,10.24,12.81,12.87,25.07.85,39.08-7.73,9.01-2.98,17.25,9.41,19.34,5.99,1.01,12.28,1.41,17.81,3.64,6.62,2.67,9.8,8.59,7.98,15.96-1.71,6.9-7.51,9.3-13.56,8.83-6.56-.51-13.62-1.54-19.36-4.5-24.04-12.36-47.61-8.46-63.21,13.41-12.29,17.23-25.81,31.85-45.31,41.08-12.3,5.83-12.95,16.34-2.96,21.86,2.46,1.36,6.09,2.13,8.71,1.41,15.61-4.3,28.86-12.21,37.74-26.47,4.74-7.61,9.38-15.39,15.01-22.31,10.52-12.93,23.09-16.4,37.9-8.7,17.06,8.87,34.24,5.73,51.52,3.46,9.15-1.2,16.12-9.92,16.86-19.79,1.08-14.44-2.86-27.47-14.85-36.15-11.31-8.2-14.89-18.22-11.5-31.49,2.35-9.2-1.81-16.28-8.2-22.35-2.69-2.55-5.9-4.61-8.23-7.44-5.02-6.1-4.09-15.62,1.54-20.11,6.36-5.07,16.21-4.36,20.27,2.96,9.5,17.13,23.6,23.91,42.69,23.91,6.12,0,14.18,3.3,17.95,7.9,8.13,9.93,14.47,21.46,20.71,32.8,3.33,6.05,2,12.63-4.66,15.96-7.03,3.51-13.37,1.41-17.51-5.41-3.21-5.28-5.08-11.59-9-16.18-5.05-5.93-11.09-11.36-17.67-15.42-2.46-1.52-8.71.28-11.22,2.69-2.05,1.97-2.49,7.73-1.17,10.69,2.19,4.89,5.79,9.54,9.83,13.1,12.08,10.63,16.77,23.82,13.42,39.25-2.87,13.21,1.28,23.05,11.09,31.28,1.66,1.39,3.29,2.81,4.98,4.17,21.52,17.35,33.98,18.14,56.69,3.62v-48.45c-1.46-.4-3.28-.39-4.32-1.28-3.63-3.14-9.81-6.65-9.75-9.91.09-4.34,4.88-8.78,8.18-12.74,1.16-1.39,3.88-1.47,5.89-2.16v-20.5c-9.39,5.46-16.24,4.21-22.05-4.53-11.67-17.59-16.96-35.57-3.56-55.06,3.43-4.99,5.73-10.99,7.56-16.83,3.18-10.17-.26-15.31-10.54-17.16-4.22-.76-8.57-1.08-12.66-2.29-9.04-2.67-12.42-12.33-5.49-18.55,4.74-4.26,12.96-8.59,18.3-7.3,9.99,2.41,19.02,8.87,28.45,13.65v-24.22c-7.82-8.59-16.99-16.33-23.1-26.01-6.9-10.93-15.1-17.09-27.83-18.69-18.88-2.37-30.14-21.04-22.86-38.51,2.01-4.82,8.18-10.38,12.87-10.8,3.94-.36,8.84,5.94,12.62,9.95,1.69,1.8,1.11,5.62,2.59,7.81,2.72,4,5.56,9.28,9.53,10.73,6.08,2.22,10.32-2.31,13.95-7.83,5.03-7.65,11.39-14.44,17.4-21.4,1.04-1.21,3.19-1.45,4.83-2.13v-29.81c-5.21,4.82-10.36,9.72-15.66,14.45-7.12,6.34-14.47,7.6-23.75,3.49-8.29-3.66-17.54-5.7-26.58-6.93-13.7-1.86-27.58-2.4-41.38-3.5-7.69-.61-14.13-3.11-15.02-12.01-.84-8.31,5.5-15.68,14.53-16,6.98-.25,14.09.78,21.02,1.94,15.48,2.59,30.8,6.41,46.36,8.07,6.55.7,13.98-1.83,20.23-4.65,7.2-3.25,13.54-8.45,20.25-12.81v-29.81c-2.03,1.87-4.15,3.65-6.07,5.62-17.81,18.29-39.5,19.68-62.58,14.36-8.69-2-17.23-4.67-25.82-7.12-15.19-4.32-23.54-1.53-33.21,10.91-2.82,3.63-5.51,8.25-9.34,9.97-4.23,1.89-11.13,2.96-14.21.71-2.99-2.19-4.6-9.64-3.39-13.76,8.07-27.45,33.26-41.51,60.64-34.31,11.6,3.05,22.82,7.64,34.46,10.51,18.85,4.64,32.68-1.22,40.15-16.07,6.06-12.04,1.84-22.86-4.16-33.42-1.52-2.67-4.13-5.34-4.21-8.07-.14-4.56-.11-10.6,2.56-13.37,2.73-2.83,8.89-3.76,13.22-3.16,4.2.58,8,4.15,11.98,6.4v-27.95c-30.06,4.06-60.12,8.14-90.18,12.18-2.72.37-5.51.89-8.21.68-9.52-.74-16.38-7.18-16.02-14.69.38-7.98,7.01-13.68,16.77-13.52,31.1.5,62.09.3,92.24-9,1.63-.5,3.6.07,5.4.14V0h-166.56ZM405.72,33.86c-8.03-.02-13.06-5.16-13.16-13.45-.11-9.15,8.07-17.97,16.52-17.79,7.53.15,14.19,6.9,14.14,14.33-.06,8.82-8.46,16.93-17.51,16.91ZM162.9,43.51c10.24,1.18,20.82-.94,31.25-1.06,10.66-.12,15.87,4.26,15.9,12.51.04,8.42-4.95,12.42-15.72,12.54-4.62.05-9.25,0-13.87,0,0,.09,0,.18,0,.28-6.47,0-12.99-.53-19.4.11-11.64,1.17-16.8,7.1-17.37,18.93-.17,3.41.97,7.35-.38,10.12-2.22,4.57-5.27,10.66-9.26,11.9-4.04,1.26-10.32-1.65-14.34-4.54-2.75-1.98-4.05-6.92-4.7-10.76-4.76-28.24,19.88-53.28,47.89-50.04ZM97.08,227.64c-1.88,2.3-5.39,3.25-6.32,3.78-14.27-.3-20.81-10.56-15.46-21.29,6.42-12.87,16.47-22.56,29.68-27.79,3.61-1.43,10.56.64,13.32,3.61,2.28,2.45,2.4,9.72.4,12.89-6.39,10.13-14.03,19.49-21.62,28.79ZM172.47,199.54c-8.79,14.58-18.12,28.82-27.28,43.17-.66,1.04-1.47,2-2.31,2.9-8.36,8.94-17.93,10.66-24.24,4.4-5.45-5.41-4.26-15.11,4.36-22.89,12.72-11.5,21.08-24.54,21.93-42.36.45-9.54,9.64-16.97,17.33-16.17,8.09.84,12.79,7.6,13.7,18.71-1.11,4.11-1.38,8.75-3.49,12.25ZM278.01,711.44c9.75-.02,15.83,6.3,15.76,16.39-.06,9.78-6,16.15-15.03,16.14-8.97-.01-15.78-7.2-15.84-16.74-.07-9.91,5.54-15.77,15.11-15.79ZM928.92,735.87c.21-4.01.52-8.01.78-12.01-.2-.02-.41-.04-.61-.06.7-7.35,1.04-14.75,2.21-22.02,1.24-7.73,6.13-12.29,14.1-11.56,7.78.72,10.94,6.44,10.91,13.63-.06,11.41-.27,22.86-1.22,34.22-.72,8.7-7.97,14.71-15.38,14.06-7.6-.67-11.3-6.23-10.77-16.25ZM1008.59,522.61c-.22,6.74-7.27,12.89-14.61,12.74-10.38-.2-21.45-12.63-20.87-23.43.43-7.91,4.39-11.29,12.84-10.97,11.95.46,23,11.02,22.65,21.65ZM896.89,256.04c1.5-10.41,5.02-20.82,9.38-30.43,3.21-7.1,10.79-8.41,17.53-4.47,6.42,3.75,9.15,9.85,6.3,17.49-.32.87-.6,1.76-.93,2.62-11.03,28.68,4.24,52.24,35.24,54.57,3.6.27,7.46.95,10.63,2.56,7.86,4.01,9.09,13.58,1.27,16.66-21.39,8.42-24.63,27.5-29.56,45.93-2.98,11.14.71,15.64,12.27,15.45,1.54-.02,3.07-.19,4.61-.29,6.91-.6,14.09-1.47,16.32,7.67,2.13,8.75-1.71,15.46-10.87,18.81-15.19,5.56-27.72-.78-39.28-9.82-10.11-7.91-11.29-18.87-8.06-30.32,3.36-11.89,7.6-23.53,11.51-35.26,3.53-10.59-.06-18.77-8.37-25.36-2.17-1.72-4.3-3.7-6.79-4.79-18.1-7.96-23.82-22.87-21.2-41.03ZM955.1,66.56c2.96-1.61,10.43.3,12.66,3.17,6.67,8.62,11.75,18.49,17.93,28.65-3.74,5.31-5.8,11.12-9.72,12.99-3.83,1.83-10.73,1.36-14.22-1.08-10.41-7.31-15.48-18.69-15.35-31.19.05-4.39,4.61-10.32,8.71-12.54ZM790.94,72.48c1.89-5.69,2.65-12.23,6.04-16.78,2.37-3.18,8.5-5.21,12.64-4.77,2.83.3,6.52,5.4,7.4,8.95,3.32,13.43,6.33,27.03,7.89,40.75.43,3.83-3.73,10.53-7.26,11.81-3.58,1.3-10.65-1.1-13.25-4.3-8.1-9.98-12.49-21.88-13.47-35.65ZM672.28,238.6c11.04-8.25,21.43-13.25,35.62-10.27,17.96,3.77,40.46-8.76,46.69-26,2.26-6.24,1.19-13.83,1-20.79-.11-3.95-2.85-8.17-2.03-11.71,1-4.31,3.7-10.02,7.15-11.43,3.36-1.37,9.9.59,12.76,3.42,7.94,7.85,9.46,18.46,8.77,29.96,1.92,14.05-4.53,25.16-14.67,34.83-5.37,5.11-10.45,10.54-15.57,15.91-9.3,9.76-20.26,13.94-33.47,9.82-12.71-3.97-23.61-.31-33.73,7.37-13.49,10.25-28.03,18.85-45.25,19.21-12.51.26-25.18-1.56-37.6-3.56-13.65-2.2-26.8-2.44-40,2.49-11.21,4.18-21.49,1.22-24.37-6.05-3.23-8.17,2.85-18.91,15.06-21.82,9.55-2.28,20-1.61,29.98-1.06,19.87,1.09,39.79,4.86,59.5,3.81,10.35-.55,21.33-7.53,30.17-14.13ZM719.07,295.19c-4.42,3.54-10.19,5.53-15.58,7.66-12.77,5.05-14.73,11.32-6.64,22.5,9.78,13.5,11.25,21.22,3.67,30.97-3.88,4.99-10.15,8.1-13.27,10.48-11.06-.09-16.25-8.18-14.53-17.89.64-3.64,2.54-7.23,2.44-10.81-.21-7.7-4.51-12.85-11.13-16.91-6.55-4.02-15.62-7.47-13.67-17.65,1.92-10.05,11.75-7.85,18.61-10.4,7.09-2.64,13.81-6.34,20.49-9.96,5.91-3.2,11.3-7.46,17.36-10.27,5.65-2.62,11.74-2.46,15.37,3.85,3.91,6.8,2.74,13.72-3.13,18.42ZM736.91,392.37c.06,7.52-7.26,14.35-15.21,14.18-9.56-.21-20.58-10.87-20.84-20.16-.21-7.57,6.77-14.08,15.16-14.14,9.22-.06,20.81,11.11,20.89,20.12ZM580.89,176.65c.15-8.29,5.74-13.33,14.49-13.09,7.72.21,12.01,4.64,11.85,12.23-.17,8-7.44,16.33-13.87,15.87-6.33-.45-12.6-7.99-12.47-15.01ZM645.6,123.21c3.06,2.17,5.68,8.94,4.58,12.45-7.58,24.2-3.9,47.04,5.75,69.67,6.98,16.39-1.1,26.43-18.65,25.12-9.05-.67-18.27,1.44-27.44,1.72-5.4.16-10.94-.27-16.21-1.43-5.67-1.26-10.04-5.61-8.01-11.43,1.47-4.23,5.75-8.24,9.8-10.53,3.11-1.76,7.81-.7,11.8-.89,20.41.26,24.67-5.82,19.8-26.16-2.94-12.26-5.27-24.75-6.67-37.27-1.04-9.37,3.97-17.16,11.97-21.46,3.57-1.92,10.2-1.97,13.28.21ZM512.06,88.91c14.48.5,27.2-4.32,39.1-12.1,2.06-1.34,4.2-2.76,6.51-3.47,7.11-2.18,13.3-.02,16.39,6.6,2.94,6.3.82,12.38-5.4,15.97-4.79,2.76-9.97,4.84-15.03,7.13-6.4,2.89-10.1,8.14-8.62,14.77,1.02,4.56,4.3,10.9,7.92,12.01,4.57,1.4,11.88-.06,15.56-3.21,7.17-6.14,12.4-14.51,18.86-21.55,6.23-6.79,12.41-13.89,19.71-19.35,7.87-5.88,18.78-3.88,22.28,2.46,3.63,6.59.12,14.18-7.87,20.49-7.63,6.03-14.38,13.19-21.57,19.8-11.56,10.63-22.74,21.75-34.91,31.62-8.16,6.62-17.97,4.62-24.05-4.71-5.86-9-10.08-19.08-14.96-28.71-1.53-3.03-2.09-7.55-4.48-8.92-4.32-2.46-10.39-5.13-14.39-3.76-3,1.03-6.42,9.11-5.26,12.56,3.29,9.79,8.52,18.99,13.59,28.08,3.14,5.63,8.53,10.2,10.77,16.08,1.57,4.13,1.27,11.38-1.37,14.1-2.99,3.07-10.7,4.97-14.28,3.18-5.83-2.92-11.71-8.43-14.46-14.31-5.86-12.55-9.73-26.05-14.41-39.17-.83-2.33-.94-5.73-2.57-6.81-4.48-2.95-9.89-7.28-14.4-6.73-6.88.85-9.46,7.89-7.73,14.55,1.37,5.26,4.48,10.1,7.06,14.99,1.72,3.27,4.43,6.1,5.7,9.5,2.3,6.17,2.34,12.29-3.97,16.54-6.16,4.15-11.79,2.48-16.78-2.12-12.11-11.18-22.48-50.23-7.69-68.16,4.61-5.59,12.65-8.31,18.11-11.71,16.78,6.68,29.68,1.06,42.76-3.64,3.14-1.13,6.6-2.1,9.88-1.99ZM431.31,41.58c2.82-2.3,8.84-2.39,12.73-1.14,4.46,1.43,8.09,5.45,12.14,8.25,8.76,6.03,16.13,3.3,18.77-7.1,1.22-4.79,1.63-9.8,2.96-14.55,1.98-7.06,6.52-11.47,14.24-10.23,7.67,1.22,11.42,6.66,10.18,14.04-1.94,11.54-4.06,23.19-7.76,34.24-3.65,10.92-13.66,12.17-24.11,13.24-9.74-2.55-20.19-3.69-28.97-8.16-5.86-2.98-10.34-10.2-13.45-16.52-1.46-2.96.52-9.83,3.26-12.06ZM406.89,147.28c8.93.17,15.4,8.03,15.29,18.61-.1,9.95-6.1,17.61-13.94,17.78-8.74.19-15.74-8.49-15.65-19.41.09-10.26,5.88-17.14,14.3-16.98ZM343,184.01c3.12-5.05,4.63-11.12,6.74-16.78.31-.82.04-1.85.09-2.77.57-10.28,5.47-17.16,12.15-17.07,6.61.08,11.99,7.31,12.58,17,.13,2.16.02,4.34.02,6.51.27,18.94-9.83,32.78-22.55,45.01-5.25,5.05-16.55,3.74-21.19-1.39-4.81-5.32-4.49-12.91,1.21-19.29,3.49-3.91,8.27-6.87,10.96-11.2ZM246.79,250.96c-2.14-2.01-2.42-6.02-2.8-7.05.36-10.7,4.71-14.39,12.67-12.18,4.01,1.11,8.11,3.07,11.32,5.7,8.57,7.04,16.86,14.45,24.88,22.12,3,2.87,6.49,6.69,6.92,10.41.5,4.32-.81,10.77-3.78,13.02-2.86,2.17-10.27,2-13.21-.32-12.54-9.88-24.33-20.76-35.99-31.71ZM82.03,308.22c8.59.34,14.53,8.76,14.49,20.56-.04,11.05-7.38,20.17-16.29,20.21-9.19.04-15.46-7.42-15.34-18.28.14-12.95,7.69-22.85,17.14-22.48ZM48.49,438.04c-9.66.41-16.25-5.17-16.74-12.58-.52-7.84,5.69-14.16,15.68-14.82,5.46-.36,11.02,1.05,16.55,1.17,5.2.12,11.06,1.01,15.44-1.04,4.32-2.02,7.14-7.29,10.62-11.13-4.01-3.33-7.56-8.06-12.17-9.61-4.99-1.68-10.97-.38-16.52-.38l-.07.4c-6.7-.72-13.59-.69-20.05-2.35-7.51-1.93-12.46-6.99-11.07-15.73,1.42-8.89,7.87-12.29,15.53-10.88,17.51,3.22,34.77,7.85,52.23,11.4,11.68,2.37,23.5,4.11,35.33,5.65,8.36,1.09,14.89-2.69,19.99-9.3,1.88-2.44,3.71-5.49,6.28-6.71,3.79-1.79,9.01-4.02,12.17-2.65,3.22,1.39,6.77,7.1,6.46,10.58-.63,7.17-3.33,14.28-5.93,21.12-4.05,10.65-10.1,20.71-12.82,31.65-4.35,17.53,6.05,37.88,21.75,46.5,9.76,5.35,17.21,3.67,24.47-4.89,7.98-9.42,15.85-19,24.67-27.58,4.47-4.35,10.64-7.38,16.55-9.68,6.27-2.44,12.59-.92,15.74,5.79,3.19,6.81,1.49,13.09-5.28,16.71-13.55,7.23-25,16.6-34.51,28.87-7.88,10.16-9.6,20.44-4.94,32.14,1.61,4.03,3.01,8.15,4.81,12.09,2.94,6.46,2.54,12.28-3.47,16.52-6.5,4.59-13.46,2.32-17.36-2.93-4.22-5.68-7.26-13.06-8.4-20.1-2.09-12.99-8.64-20.52-20.34-26.37-9.53-4.76-17.85-12.66-25.45-20.41-4.82-4.91-7.03-12.31-10.97-18.21-7.48-11.19-9.1-21.71.02-33.2,3.7-4.67,7.89-11.47.18-17.1-5.75-4.2-16.55-2.48-20.34,4.68-14.82,28.02-40.95,31.27-68.04,32.41ZM87.59,457.72c3.68-3.9,7.03-10.18,12.02-12.08,6.81-2.59,12.44,1.6,16.01,8.8,5.59,11.25,12.19,21.98,18.29,32.97,1.63,2.94,4.34,6.07,4.21,9.01-.18,4.15-1.41,9.84-4.28,11.85-3.22,2.26-9.17,2.44-13.19,1.17-3.65-1.16-7.01-5.04-9.28-8.52-6.88-10.56-13.26-21.45-19.63-32.33-1.5-2.57-2.19-5.62-4.17-10.87ZM109.06,605.03c-1.17,2.84-3.51,5.25-4.36,8.15-3.52,12.05-7.6,24.05-9.69,36.37-1.8,10.61-1.4,21.63-1.56,32.47-.32,20.82-10.76,34.58-29.46,41.83-13.7,5.31-26.16,11.81-36.41,22.83-7.15,7.69-17.46,3.68-20.17-6.96-2.83-11.13,2.8-22.43,13.64-26.21,7.24-2.53,14.84-3.99,22.15-6.33,17.64-5.64,25.67-15.93,26.88-34.61.44-6.79.07-13.63.07-20.45-4.93-22.64,6.68-40.91,15.66-59.84,3.33-7.02,8.37-10.86,16.33-7.34,6.41,2.83,9.87,12.92,6.92,20.08ZM136.53,578.54c-1.96,2.33-10.17,2.02-13.69-.18-10.64-6.66-20.55-14.56-30.28-22.56-2.79-2.29-3.97-6.55-7.14-12.08,5.32-5.03,9.59-10.61,15.18-13.94,6.2-3.7,12.99-1.37,17.34,4.31,7.31,9.54,14.73,19.18,20.47,29.68,2.03,3.71.89,11.47-1.88,14.76ZM260.89,596.24c-6.01,7.75-15.29,10.77-21.81,5.07-12.19-10.68-26.54-14.47-41.76-17.53-31.93-6.41-50.17-39.92-52.9-58.68-.67-8.72,2.61-14.52,10.44-15.87,8.08-1.39,13.54,2.95,16.05,10.77.95,2.95,1.6,5.99,2.36,9,5.24,20.6,17.9,31.21,38.98,33.81,10.34,1.27,20.66,3.34,30.7,6.09,5.15,1.41,10.18,4.51,14.39,7.92,7.56,6.13,8.45,13.1,3.55,19.42ZM271.19,462.85c8-5,18.81-2.76,22,3.94,3.22,6.75-.77,15.38-9.12,19.68-2.73,1.41-5.53,2.7-8.2,4.21-8.96,5.06-11.52,11.53-9.18,21.71,1.52,6.59,3.46,13.26,3.64,19.94.27,9.87-5.58,16.89-12.99,17.59-7.76.74-13.16-4.65-14.91-15.51-.68-4.23-.46-8.61-.66-12.92.22-.01.45-.02.67-.03-.15-3.39.21-6.9-.54-10.15-3.65-15.89,2.28-27.78,14.65-37.21,4.89-3.73,9.43-8.01,14.62-11.25ZM311.13,324.06c-.46,12.61-2.14,25.36-5,37.65-3.14,13.49-8.67,17.07-22.3,17.88-3.68.22-7.39.03-11.09.03,0,.11,0,.21,0,.32-4.92-.23-9.91,0-14.73-.8-8.61-1.42-15.84-6.43-16.54-15.1-.44-5.48,2.84-12.83,6.94-16.57,2.68-2.43,9.94-.4,14.94.65,2.8.58,5.02,4.28,7.77,4.68,3.95.57,9.17.75,11.95-1.4,2.7-2.09,4.21-7.38,4.05-11.16-.21-4.79-3.28-9.39-3.94-14.24-.78-5.68-1.54-11.92.05-17.19,1.06-3.53,6.04-7.75,9.62-8.12,4.03-.41,10.14,2.01,12.32,5.26,3.44,5.14,6.19,12.05,5.97,18.1ZM305.91,244.86c-8.09-6.56-14.63-15.01-22.54-21.83-6.49-5.59-13.81-10.26-21.04-14.9-5.59-3.59-9.73-7.67-8.8-14.92.92-7.2,6.54-8.98,12.29-10.81,22.87-7.3,39.39-21.13,45.72-45.39.86-3.28,2.36-6.39,3.38-9.64,1.97-6.22,6.15-9.44,12.53-8.25,6.35,1.18,11.28,5.15,10.39,12.11-2.62,20.48-8.94,40.14-26.95,51.62-19.49,12.43-19.07,19.03-2.66,34.33,7.9,7.37,16.39,14.09,24.43,21.3,15.13,13.56,21.02,31.02,19.7,50.89-.3,4.57-2.46,10.19-5.72,13.06-3.4,2.99-10.14,5.56-13.65,4.08-3.94-1.67-6.5-7.83-8.48-12.54-1.22-2.89-.23-6.73-.23-12.27,2.82-15.16-5.81-26.64-18.39-36.84ZM624.53,747.42c-6.66.01-12.2-5.77-12.1-12.63.1-7.31,5.57-12.28,13.43-12.23,7.32.05,12.61,5.22,12.38,12.11-.21,6.29-7.15,12.74-13.71,12.76ZM820.42,684.73c2.17-2.61,8.56-3.48,12.38-2.47,6.73,1.77,12.72,6.24,19.39,8.39,13.04,4.2,26.16,8.78,39.6,10.96,12.96,2.1,20.51,6.48,20.03,15.71-.49,9.33-9.22,15.62-21.92,16.62-4.86-1.63-10.74-2.03-14.39-5.11-13.34-11.25-29.19-15.07-45.52-18.84-5.05-1.16-10.66-6.38-12.89-11.2-1.65-3.58.47-10.61,3.33-14.05ZM791.58,689.91c8.12,10.61,12.88,22.51,12.92,36.78,1.57,18.07-14.49,30.95-28.58,39.3-5.71,3.38-12.53,2.65-16.51-3.37-4.11-6.22-2.1-12.66,2.7-17.84,2.48-2.67,5.93-4.4,8.78-6.75,8.04-6.65,11.62-16.62,7.81-24.77-1.62-3.46-5.53-7.54-8.87-8.01-3.33-.47-8.4,2.32-10.64,5.28-4.24,5.6-7.12,12.27-10.36,18.6-6.57,12.83-26.88,21.82-38.48,16.19-3.34-1.62-7.3-5.8-7.53-9.05-.24-3.38,2.93-9.17,5.92-10.26,17.53-6.38,26.92-20.32,36.56-35.09,12.79-19.61,32.14-19.49,46.29-1ZM768.19,511.05c-5.16,4.32-14.42,2.04-20.23-4.43-4.69-5.22-8.71-14.63-17.54-9.2-8.65,5.31-3.94,13.51-.96,20.74,3.36,8.16,1.74,16.06-3.14,22.96-10.51,14.83-20.58,29.47-38.72,37.23-18.79,8.04-23.62,43.45-9.6,58.55,11.92,12.83,11.81,20.76-.16,33.57-3.14,3.36-6.52,6.84-8.4,10.91-1.3,2.83-1.6,8.07.11,9.89,2.27,2.4,7.8,4.41,10.39,3.21,5.32-2.46,11.23-6.22,14.05-11.1,12.27-21.33,30.79-36.16,49.55-50.84,8.26-6.47,15.76-5.07,21.21,3.34,4.13,6.38,2.1,13.95-6.43,18.52-16.55,8.86-28.66,22.21-39.65,36.99-10.44,14.03-22.68,25.82-41.21,26.97-5.89.36-12.14-1.2-17.88-3.01-11.98-3.77-23.48-9.28-35.62-12.28-22.75-5.63-32.17-30.41-17.13-48.37,5.06-6.04,11.54-11.27,18.25-15.42,21.77-13.46,27.03-34.56,26.06-57.74-.27-6.46-5.54-13.65-10.43-18.59-2.56-2.59-10.2-2.72-13.79-.73-2.5,1.39-4.11,9.32-2.51,12.48,10.07,19.96,1.53,35.96-9.27,51.79-4.02,5.9-9.33,8.47-15.81,4.62-6.31-3.75-5.28-9.49-3.31-15.61,3.01-9.33,7.28-18.81,7.61-28.35.81-22.76-14.67-32.5-34.81-22.14-7.99,4.11-14.87,10.92-21.23,17.51-2.48,2.57-3.37,8.09-2.8,11.94,1.05,7.02,6.42,8.87,12.33,4.89,4.08-2.75,7.47-6.65,11.76-8.92,2.78-1.48,7.69-2.44,9.7-.96,2.66,1.97,4.4,6.46,4.7,10.02.25,3.04-1.44,6.79-3.38,9.39-8.49,11.4-7.63,23.12-4.12,36.23,2.63,9.81,2.22,20.54,2.33,30.87.03,3-2.06,7.31-4.51,8.78-4.9,2.94-11.32,6.77-15.98,5.61-4.1-1.02-8.71-8.07-9.38-12.96-.96-7.08.98-14.73,2.47-21.96,5.09-24.66-14.99-48.44-39.77-45.85-5.34.56-11.36,3.8-15.22,7.67-11.38,11.44-25.54,15.21-40.51,18.6-9.34,2.12-18.08,7-26.98,10.91-2.78,1.22-5.08,4.41-7.81,4.7-5.02.53-11.47,1.38-15-1.17-5.39-3.9-5.58-11.37-1.35-16.75,3.68-4.69,8.43-9.67,13.77-11.68,13.49-5.09,27.47-8.97,41.44-12.62,16.95-4.43,22.05-10.3,21.99-27.7-.06-19.49.84-39.01-7.3-57.63-3.57-8.17.26-17.47,6.67-20.09,8.78-3.58,13.27,1.6,18.24,8.07,3.38,4.4,9.11,9.15,14.06,9.48,4,.27,9.96-5,12.28-9.32,3.49-6.5.86-13.62-4.62-18.53-11.47-10.26-24.76-16.2-40.47-14.63-9.3.93-14.84,7.5-18.68,15.07-3.89,7.69-6.54,16.02-9.69,24.09-6.31,16.15-16.33,18.35-28.67,6.13-12.28-12.16-24.5-24.03-31.06-41.08-2.34-6.09-11.13-9.77-17.19-14.25-4.14-3.06-9.48-4.87-12.83-8.56-6.12-6.74-1.81-16.81,7.17-18.19,13.07-2,42.39,12.83,48.53,24.93,1.33,2.62,1.28,5.97,1.78,8.99.69,4.27.72,8.74,2.07,12.78,2.61,7.82,9.75,9.48,16.12,4.21,16.19-13.38,12.78-38.51-5.83-47.31-10.53-4.98-20.62-11.17-30.23-17.81-11.97-8.26-23.77-11.2-37.07-3.55-9.21,5.3-17.68,3.06-25.68-3.3-16.5-13.11-20.63-29.93-15.65-49.91,2.46-9.85,4.43-19.85,6.24-29.84,1.65-9.11,6.66-14.62,13.47-13.54,8.76,1.39,10.69,7.81,9.51,15.26-1.8,11.29-4.91,22.4-6.24,33.73-.69,5.84.42,12.27,2.27,17.93,1.88,5.74,6.92,9.01,13.28,7.11,6.5-1.94,9.24-7.13,8.53-13.71-.49-4.59-2.1-9.05-2.83-13.63-1.24-7.8-1.72-15.6,4.33-21.93,6.59-6.9,15.17-5.49,18.07,3.51,1.55,4.81,2.21,10.57,1.15,15.43-2.73,12.61,1.76,22.12,11.19,29.39,9.04,6.97,18.64,13.25,28.32,19.31,7.82,4.9,15.52,3.6,18.5-2.97,3.5-7.73-.46-13.1-6.96-16.92-4.79-2.81-9.74-5.34-14.64-7.96-16.87-9.05-22.79-28.42-13.81-45.33.87-1.64,1.84-3.24,2.93-4.74,4.83-6.69,6.41-13.87.85-20.54-5.98-7.17-12.77-3.41-19.19.08-3.79,2.06-7.57,4.17-11.48,5.99-9.01,4.19-18.39.29-21.77-8.9-2.57-7,3.29-17.2,11.71-19.41,5.04-1.33,10.78-.61,15.39-2.67,3.89-1.74,8.81-5.9,9.2-9.44.39-3.55-3.78-8.15-6.9-11.35-1.94-1.98-5.64-2.23-8.57-3.19-17.2-5.67-25.26-21.92-19.4-39.14,5.75-16.89,22.87-29.03,40.42-30.98,17.67-1.97,35.13-5.79,52.68-8.8,15.6-.07,29.29,3.64,41.64,13.55,11.92,9.57,29.54,6.54,38.64-5.67,1.29-1.73,2.61-3.49,3.61-5.4,3.81-7.3,9.68-10.78,17.53-7.96,8.22,2.95,9.86,10.64,7.88,17.75-1.64,5.89-4.93,12.89-9.68,16.07-21.66,14.48-47.08,24.66-72.38,4.62-13.65-10.81-28.91-11.81-45.45-5.84-9.38,3.38-19.75,3.96-29.69,5.78-3.02.55-6.17.64-9.04,1.62-6.46,2.19-12.11,5.64-11.43,13.69.65,7.76,7.03,8.28,12.88,9.4,15.96,3.06,20.06,7.29,19.23,23.8-.7,13.96,3.65,24.84,14.17,33.58,2.13,1.77,3.97,3.9,5.93,5.88,11.41,11.52,11.67,17.61,1.51,30.45-3.26,4.12-7.5,8-9.06,12.74-1.31,3.98-.96,10.59,1.55,13.19,2.6,2.69,9.45,3.88,13.15,2.41,26.24-10.44,33.59-49.37,12.8-68.34-15.76-14.38-24.43-30.81-20.42-52.67,1.76-9.57,9.94-16.76,18.51-15.81,9.86,1.09,15.09,8.81,12.37,18.73-1.31,4.77-3.51,9.29-4.91,14.05-2.15,7.34,1.56,15.55,8,17.67,8.51,2.8,10.58-3.91,13-9.59,1.45-3.4,2.16-7.12,3.46-10.6,2.71-7.25,7.68-11.22,15.67-9.86,7.25,1.23,13.29,8.16,11,15.63-2.51,8.19-7.15,16.32-12.8,22.76-5.72,6.52-9.11,13-9.02,21.53.08,8.38.2,16.77.04,25.15-.14,7.38,3.2,12.36,10.34,12.98,7.39.64,12.64-4.02,13.67-11.13.82-5.64-.31-11.67-1.17-17.44-2.32-15.57,7.4-26.36,23.11-26.58,12.52-.18,25.02-1.72,37.54-2.6,7.67-.54,15.37-1.62,23.01-1.27,10.41.48,18.55,5.37,24.32,14.64,5.03,8.08,10.71,15.83,16.79,23.14,5.01,6.02,8.27,11.81,3.4,19.17-3.47,5.24-13.5,6.51-20.09,1.14-5.54-4.51-9.67-10.92-13.85-16.9-2.98-4.27-4.37-9.74-7.62-13.72-4.27-5.22-10.41-7.07-16.44-2.96-5.68,3.88-6.59,9.74-3.11,15.6,5.68,9.55,11.6,18.97,17.76,28.22,6.03,9.05,15.01,12.34,25.56,12.17,6.47-.1,13.02-.46,19.41.32,14.28,1.75,23.53,11.17,31.65,22.18,4.4,5.96,8.78,12.07,13.99,17.27,11.58,11.55,24.9,17.01,41.02,9.36,2.22-1.05,4.72-2.58,6.93-2.34,4.63.51,10.92.61,13.25,3.53,2.64,3.31,2.64,9.65,2.02,14.44-.47,3.68-3.6,7.06-5.68,10.49-6.93,11.46-6.05,18.65,3.72,28.03,3.12,2.99,6.7,5.49,9.72,8.56,6.36,6.47,6.65,17.77.82,22.64ZM724.15,615.28c-.33,10.94-6.36,17.43-16.13,17.36-10.37-.08-16.76-8.27-16.63-21.32.09-9.32,6.82-16.68,15.2-16.61,9.1.07,17.87,10.35,17.56,20.58ZM413.16,579.43c7.74-9.52,15.91-18.9,25.19-26.82,3.61-3.08,11.88-4.34,15.87-2.25,4.41,2.31,6.35,9.41,9.78,15.11-3.46,6.51-5.17,12.95-9.27,16.81-9.95,9.36-22.12,14.17-36.17,12.27-6.21-.84-9.91-9.56-5.4-15.11ZM875.4,194.5c11.88,10.29,13.43,17.81,6.34,32.02-7.6,15.23-10.56,30.31-6.31,47.51,1.76,7.14-2.07,16.1-4.65,23.79-3.12,9.33-8.17,18-11.37,27.32-6.54,19.08-21.61,30.52-36.29,42.27-6.24,5-13.55,8.63-19.99,13.39-10.52,7.77-10.72,17.17-.18,25.06,10.5,7.86,18.2,17.49,22.21,30.03,3.98,12.45,2.16,19.43-8.53,26.53-7.64,5.07-15.91,9.43-24.41,12.84-7.67,3.08-13.83-.01-16.96-8.15-3.19-8.31,1.21-12.87,7.84-16.37,1.09-.58,2.2-1.31,3.37-1.5,15.15-2.48,16.96-14.3,3.86-23.98-7.94-5.87-15.97-11.62-24.01-17.35-14.05-10.02-13.38-19.98,1.8-27.53,3.3-1.64,6.5-3.54,9.55-5.61,6.73-4.58,9.58-10.79,5.47-18.39-11.83-21.91-6.13-40.45,9.86-57.53,3.09-3.3,5.23-7.65,7.22-11.8,2.57-5.37,3.25-10.99-2.48-14.95-5.97-4.12-13.19-3.52-16.64,1.98-10.12,16.19-19.84,32.79-27.7,50.16-2.42,5.34,1.21,13.76,2.82,20.59,2.78,11.75,1.48,17.8-5.18,20.09-7.71,2.65-16.62-1.94-20.6-11.54-2.56-6.17-3.87-12.87-5.73-19.33.37-.12.75-.25,1.12-.37.15-2.48-.37-5.25.56-7.38,11.87-27.13,21.62-55.73,45.46-75.37,12.68-10.45,26.28-9.71,40.67.51,12.52,8.89,17.65,21.83,12.29,36.71-3.5,9.73-9.84,18.41-14.78,27.63-3.32,6.2-7.43,12.25-9.17,18.9-.88,3.37,1.68,9.7,4.6,11.42,2.76,1.63,9.16.3,11.9-2.1,4.73-4.15,8.53-9.78,11.54-15.42,6.27-11.73,11.51-24.02,17.68-35.82,5.69-10.88,5.13-21.13-.5-31.83-7.92-15.04-6.86-18.3,5.63-29.37,3.26-2.89,6.29-7.12,7.3-11.25,2.12-8.69-5.18-15.65-13.71-12.87-4.93,1.61-9.13,5.73-13.37,9.1-4.78,3.79-8.71,9-13.96,11.78-6.65,3.52-13.76,1.81-17.7-5.03-3.75-6.5-3.31-14.18,3.23-18.34,13.23-8.4,27.01-16.01,41.05-22.96,3.52-1.74,9.43-.98,13.25.79,6.31,2.94,12.27,7.12,17.57,11.71ZM927.72,80.74c2,4.05,2.14,10.63.22,14.66-2.49,5.21-8.35,6.52-14.52,4.29-6.03-2.18-12.34-3.59-20.88-6-4.83,3.34-11.24,6.38-15.71,11.24-4.49,4.88-7.25,11.45-10.39,17.48-11.01,21.18-27.74,37.03-46.58,50.87-5.74,4.22-12.21,6.95-18.34.73-4.77-4.84-3.51-13.77,2.98-19.94,10.3-9.79,21.12-19.03,31.46-28.78,12.16-11.48,14.86-24.63,8.03-40.5-9.54-22.16-7.64-27.39,9.3-44.11,6.3-6.22,11.08-14.01,16.47-21.15,2.04-2.71,3.21-6.75,5.85-8.19,4.47-2.44,10.94-5.76,14.44-4.12,3.48,1.63,6.33,9.1,5.94,13.72-1.11,13.24-10.03,22.19-19.9,30.06-3.38,2.7-7.05,5.08-10.13,8.08-5.09,4.98-5.89,11.21-1.82,16.88,3.98,5.55,9.11,2.6,14.12.48,8.59-3.63,17.2-8.28,26.22-9.54,10.14-1.42,18.71,4.69,23.23,13.85Z" fill="#a4ffad" stroke-width="0"/><path d="M554.47,21.97c16.31,7.16,32.8,14.01,49.57,19.96,6.67,2.37,13.81.44,16.71-7.55,2.83-7.8-2.6-11.79-8.41-14.08-10.55-4.16-21.63-6.99-32.17-11.18-5.4-2.14-10.11-6.03-15.13-9.13h-27.76c3.13,9.4,7.9,17.9,17.2,21.97Z" fill="#a4ffad" stroke-width="0"/><path d="M732.69,14.96c-6.84,1.6-13.96,2.39-20.5,4.78-8.51,3.11-12.04,9.98-9.8,16.4,2.22,6.35,8.77,8.07,18.1,5.37,9.39-2.71,19.28-4.01,28.27-7.63,7.95-3.2,16-7.68,22.09-13.59,5.53-5.36,8.47-13.42,12.55-20.29h-24.06c-5.29,11.48-16.36,12.56-26.66,14.96Z" fill="#a4ffad" stroke-width="0"/><path d="M656.52,22.08c-1.95,1.5-4.07,2.77-6.06,4.21-5.83,4.2-9.43,9.46-5.14,16.5,4.14,6.79,10.35,6.59,17,3.69,17.7-7.72,26.26-26.41,21.17-46.48h-27.76c11.15,7.37,11.4,13.95.8,22.08Z" fill="#a4ffad" stroke-width="0"/><path d="M1024,434.18v-41c-12.01,16.53-12.01,26.07,0,41Z" fill="#a4ffad" stroke-width="0"/><path d="M1024,285.1v-29.81c-9.74,12.12-9.74,19.66,0,29.81Z" fill="#a4ffad" stroke-width="0"/><path d="M207.18,635.73c-17.19.13-31.06-6.75-45.11-15.43-6.68-4.12-14.7.91-17.71,8.56-2.75,6.99.23,14.34,7.61,17.62,3.34,1.49,7.09,2.05,10.62,3.13,10.33,3.15,15.69,10.39,15.72,21.31,0,1.55.56,3.42-.1,4.6-2.45,4.37-4.37,10.23-8.22,12.34-5.57,3.05-10.33-1.41-13.64-6.41-2.05-3.1-3.66-6.75-6.38-9.06-2.54-2.16-7.02-4.72-9.32-3.79-2.97,1.2-6.55,5.78-6.43,8.77.23,5.87,1.3,12.93,4.8,17.18,6.38,7.76,14.51,14.16,22.39,20.52,9.67,7.81,21.52,5.11,26.87-6.29,2.58-5.5,3.91-11.75,4.94-17.8,2.55-15.04,4.46-29.94,17.46-40.74,5.49-4.56,3.03-14.56-3.5-14.51Z" fill="#a4ffad" stroke-width="0"/><path d="M687.85,93.03c8.26.06,15.94-8.37,15.8-17.34-.14-9.35-8.28-17.93-16.74-17.66-8.01.26-16.63,9.36-16.35,17.28.3,8.57,9.17,17.66,17.29,17.72Z" fill="#a4ffad" stroke-width="0"/><path d="M737.39,80.06c7.35.6,17.06-6.25,15.16-11.44-1.93-5.26-7.12-9.32-10.88-13.9-8.87,1.57-15.63,7.8-15.57,14.45.07,7.37,4.72,10.36,11.29,10.89Z" fill="#a4ffad" stroke-width="0"/><path d="M688.17,492.02c-9.35-5.91-18.78-12.14-26.69-19.77-9.8-9.45-20.33-14.89-33.98-16.57-22.53-2.77-40.91-28.16-34.07-47.48,5.13-14.5.82-24.4-9.16-33.96-9.89-9.47-17.06-20.37-16.22-35.04.12-2.04-.38-4.88-1.72-6.1-3.59-3.28-8.06-8.43-11.68-8.05-3.64.38-8.66,6.08-9.62,10.26-4.26,18.51-2.54,35.41,17.27,44.88,1.09.52,2,1.44,2.96,2.22,7.32,5.87,9.53,12.66,5.36,18.37-5.23,7.16-12.21,5.03-18.21,1.67-6.95-3.9-13.78-8.39-19.66-13.74-10.75-9.78-23.46-13.07-37.33-13.74-16.32-.54-26.44,8.99-26.18,23.01.22,11.9-.47,23.93-2.17,35.71-1.94,13.48,1.77,19.21,14.98,21,11.17,1.51,22.32,3.46,33.34,5.86,16.52,3.59,27.78,11.52,31.21,30.5,2.96,16.35,13.87,29.4,27.09,39.92,11.33,9.01,24.27,11.98,37.37,7.01,18.55-7.04,32.48-2.12,45.54,11.78,10.98,11.69,18.08,11.44,30.51,1.52,3.12-2.49,6.24-5.11,8.86-8.1,15.53-17.79,12.06-38.56-7.82-51.12ZM553.97,446.79c-1.8.34-3.64.5-5.46.74-.22.56-.44,1.11-.66,1.67-16.29-6.08-32.79-11.69-48.72-18.61-3.73-1.62-6.52-7.35-8.03-11.78-2.25-6.62-2.26-14.11,4.47-18.33,6.55-4.1,13.2-1.89,18.3,3.61,10.39,11.21,22.78,17.33,38.25,17.21,11.12-.09,16.5,3.9,16.96,11.47.47,7.82-3.93,11.92-15.1,14.02ZM638.91,504.87c-10.96,5.23-22.58,9.05-28.65,11.42-29.55.39-51.24-29.11-43.99-51.54,2.87-8.88,9.19-13.07,17.35-11.49,7.77,1.5,11.84,8.33,10.63,17.86-.31,2.45-1.04,4.91-.96,7.34.33,9.79,9.8,15.31,18.26,10.61,4.57-2.54,8.71-5.87,13.3-8.34,7.53-4.06,16.61-1.93,20.54,4.41,3.85,6.2,1.38,15.99-6.49,19.74ZM669.7,533.75c-8.18-.02-14.41-6.3-14.5-14.62-.09-7.84,5.48-13.54,13.12-13.43,7.82.11,14.52,6.94,14.55,14.84.02,8.18-5.01,13.23-13.17,13.21Z" fill="#a4ffad" stroke-width="0"/><path d="M721.47,453.9c-2.61-1.46-5.91-1.63-8.7-2.84-7.83-3.4-16.4-5.88-23.1-10.88-8.55-6.38-15.67-14.75-23.2-22.48-1.83-1.88-3.69-3.67-5.62-5.34-8.34-7.27-17.74-12.45-29.38-13.46-6.54-.68-12.19,1.93-14.38,7.03-.31.73-.55,1.51-.72,2.34-.93,4.7,1.87,11.32,5.14,15.31,2.72,3.32,8.44,5.28,13.02,5.71,10.77,1.02,18.94,6.31,27,12.89,13.12,10.7,26.58,20.98,40.14,31.12,3.11,2.33,7.04,4.08,10.84,4.83,7.77,1.54,14.25-1.36,17.28-8.91,3.18-7.91-2.49-12.05-8.33-15.32Z" fill="#a4ffad" stroke-width="0"/><path d="M631.48,398.91c11.63,1.01,21.04,6.18,29.38,13.46-8.34-7.27-17.74-12.45-29.38-13.46-6.53-.67-12.18,1.94-14.37,7.04,2.19-5.1,7.84-7.71,14.38-7.03Z" fill="#a4ffad" stroke-width="0"/><path d="M535.55,534.74c-7.42,3.67-14.54,7.95-21.94,11.65-9.3,4.65-10.61,13.67-13.58,24.98,2.73,3.64,5.43,10.19,10.27,12.96,6.13,3.51,10.24-2.89,14.16-7.32,7.02-7.95,13.79-16.24,21.62-23.32,5.05-4.56,7.95-8.79,4.6-15.01-3.42-6.35-9.17-6.88-15.12-3.94Z" fill="#a4ffad" stroke-width="0"/><path d="M646.45,648.32c-7.47,5.82-13.76,13.47-19.41,21.19-1.43,1.95.5,7.99,2.72,10.56,1.88,2.17,6.67,3.34,9.69,2.68,9.04-1.96,19.61-16.77,19.45-25.93-.12-6.97-7.25-12.55-12.45-8.5Z" fill="#a4ffad" stroke-width="0"/></svg>