<?xml version="1.0" encoding="utf-8"?>
<!-- Generator: Adobe Illustrator 28.3.0, SVG Export Plug-In . SVG Version: 6.00 Build 0)  -->
<!DOCTYPE svg PUBLIC "-//W3C//DTD SVG 1.1//EN" "http://www.w3.org/Graphics/SVG/1.1/DTD/svg11.dtd" [
	<!ENTITY ns_extend "http://ns.adobe.com/Extensibility/1.0/">
	<!ENTITY ns_ai "http://ns.adobe.com/AdobeIllustrator/10.0/">
	<!ENTITY ns_graphs "http://ns.adobe.com/Graphs/1.0/">
	<!ENTITY ns_vars "http://ns.adobe.com/Variables/1.0/">
	<!ENTITY ns_imrep "http://ns.adobe.com/ImageReplacement/1.0/">
	<!ENTITY ns_sfw "http://ns.adobe.com/SaveForWeb/1.0/">
	<!ENTITY ns_custom "http://ns.adobe.com/GenericCustomNamespace/1.0/">
	<!ENTITY ns_adobe_xpath "http://ns.adobe.com/XPath/1.0/">
]>
<svg version="1.1" id="Calque_1" xmlns:x="&ns_extend;" xmlns:i="&ns_ai;" xmlns:graph="&ns_graphs;"
	 xmlns="http://www.w3.org/2000/svg" xmlns:xlink="http://www.w3.org/1999/xlink" x="0px" y="0px" viewBox="0 0 231.3 67.1"
	 style="enable-background:new 0 0 231.3 67.1;" xml:space="preserve">
<style type="text/css">
	.st0{fill:#84CE88;}
	.st1{fill:none;}
	.st2{fill:#A4FFAD;}
	.st3{fill:#FA5057;}
	.st4{fill:#79B37E;}
	.st5{fill:#79AF7E;}
	.st6{fill:#694EAF;}
	.st7{fill:#554295;}
	.st8{fill:#8C65DC;}
	.st9{fill:#785ABF;}
	.st10{fill:#8AD290;}
	.st11{fill:#FFFFFF;}
	.st12{fill:#A7FFB0;}
</style>
<metadata>
	<sfw  xmlns="&ns_sfw;">
		<slices></slices>
		<sliceSourceBounds  bottomLeftOrigin="true" height="2634.9" width="2226.1" x="1674.8" y="-2927.8"></sliceSourceBounds>
		<optimizationSettings>
			<targetSettings  fileFormat="PNG24Format" targetSettingsID="0">
				<PNG24Format  filtered="false" interlaced="false" matteColor="#FFFFFF" noMatteColor="false" transparency="true">
					</PNG24Format>
			</targetSettings>
		</optimizationSettings>
	</sfw>
</metadata>
<g>
	<rect width="231.3" height="67.1"/>
	<g>
		<path class="st2" d="M102.5,50l-4.6-5.8V50h-3.4V32h3.4v10.3l4.5-5.7h4.4l-5.9,6.8l6,6.7H102.5z"/>
		<path class="st2" d="M113.9,36.9c0.7-0.4,1.5-0.6,2.4-0.6v3.6h-0.9c-1.1,0-1.9,0.3-2.4,0.8c-0.5,0.5-0.8,1.4-0.8,2.6V50h-3.4V36.5
			h3.4v2.1C112.6,37.9,113.2,37.4,113.9,36.9z"/>
		<path class="st2" d="M118.5,39.6c0.5-1.1,1.3-1.9,2.2-2.4c0.9-0.6,2-0.9,3.1-0.9c1,0,1.9,0.2,2.6,0.6c0.8,0.4,1.4,0.9,1.8,1.5
			v-1.9h3.4V50h-3.4v-2c-0.4,0.6-1,1.2-1.8,1.6c-0.8,0.4-1.7,0.6-2.7,0.6c-1.1,0-2.2-0.3-3.1-0.9c-0.9-0.6-1.7-1.4-2.2-2.5
			c-0.5-1.1-0.8-2.3-0.8-3.7C117.7,41.9,118,40.7,118.5,39.6z M127.8,41.2c-0.3-0.6-0.8-1-1.3-1.4c-0.6-0.3-1.1-0.5-1.8-0.5
			c-0.6,0-1.2,0.2-1.8,0.5c-0.5,0.3-1,0.8-1.3,1.4c-0.3,0.6-0.5,1.3-0.5,2.1s0.2,1.5,0.5,2.1c0.3,0.6,0.8,1.1,1.3,1.4
			c0.5,0.3,1.1,0.5,1.7,0.5c0.6,0,1.2-0.2,1.8-0.5c0.6-0.3,1-0.8,1.3-1.4c0.3-0.6,0.5-1.3,0.5-2.1C128.3,42.5,128.2,41.7,127.8,41.2
			z"/>
		<path class="st2" d="M140.3,36.9c0.8-0.4,1.7-0.6,2.6-0.6c1.2,0,2.2,0.3,3.1,0.9c0.9,0.6,1.7,1.4,2.2,2.4c0.5,1,0.8,2.3,0.8,3.6
			c0,1.4-0.3,2.6-0.8,3.7c-0.5,1.1-1.3,1.9-2.2,2.5c-0.9,0.6-2,0.9-3.1,0.9c-1,0-1.9-0.2-2.6-0.6c-0.8-0.4-1.4-0.9-1.8-1.5v8.4h-3.4
			V36.5h3.4v1.9C139,37.9,139.6,37.4,140.3,36.9z M145.2,41.1c-0.3-0.6-0.8-1-1.3-1.4c-0.5-0.3-1.1-0.5-1.8-0.5
			c-0.6,0-1.2,0.2-1.7,0.5c-0.5,0.3-1,0.8-1.3,1.4c-0.3,0.6-0.5,1.3-0.5,2.1c0,0.8,0.2,1.5,0.5,2.1c0.3,0.6,0.8,1.1,1.3,1.4
			c0.5,0.3,1.1,0.5,1.7,0.5c0.6,0,1.2-0.2,1.8-0.5c0.5-0.3,1-0.8,1.3-1.4c0.3-0.6,0.5-1.3,0.5-2.1C145.7,42.4,145.5,41.7,145.2,41.1
			z"/>
		<path class="st2" d="M154.1,49.4c-1-0.6-1.9-1.4-2.4-2.4c-0.6-1.1-0.9-2.3-0.9-3.7c0-1.4,0.3-2.6,0.9-3.7c0.6-1.1,1.4-1.9,2.5-2.4
			c1.1-0.6,2.2-0.9,3.5-0.9c1.3,0,2.5,0.3,3.5,0.9c1.1,0.6,1.9,1.4,2.5,2.4c0.6,1.1,0.9,2.3,0.9,3.7c0,1.4-0.3,2.6-0.9,3.7
			c-0.6,1.1-1.5,1.9-2.5,2.4c-1.1,0.6-2.3,0.9-3.6,0.9C156.3,50.3,155.2,50,154.1,49.4z M159.4,46.8c0.5-0.3,1-0.8,1.3-1.4
			c0.3-0.6,0.5-1.3,0.5-2.2c0-1.3-0.3-2.3-1-3c-0.7-0.7-1.5-1-2.5-1s-1.8,0.3-2.4,1c-0.7,0.7-1,1.7-1,3c0,1.3,0.3,2.3,1,3
			c0.6,0.7,1.5,1,2.4,1C158.2,47.3,158.8,47.1,159.4,46.8z"/>
		<path class="st2" d="M172.4,36.9c0.8-0.4,1.7-0.6,2.6-0.6c1.2,0,2.2,0.3,3.1,0.9c0.9,0.6,1.7,1.4,2.2,2.4c0.5,1,0.8,2.3,0.8,3.6
			c0,1.4-0.3,2.6-0.8,3.7c-0.5,1.1-1.3,1.9-2.2,2.5c-0.9,0.6-2,0.9-3.1,0.9c-1,0-1.9-0.2-2.6-0.6c-0.8-0.4-1.4-0.9-1.8-1.5v8.4h-3.4
			V36.5h3.4v1.9C171,37.9,171.6,37.4,172.4,36.9z M177.2,41.1c-0.3-0.6-0.8-1-1.3-1.4c-0.5-0.3-1.1-0.5-1.8-0.5
			c-0.6,0-1.2,0.2-1.7,0.5c-0.5,0.3-1,0.8-1.3,1.4c-0.3,0.6-0.5,1.3-0.5,2.1c0,0.8,0.2,1.5,0.5,2.1c0.3,0.6,0.8,1.1,1.3,1.4
			c0.5,0.3,1.1,0.5,1.7,0.5c0.6,0,1.2-0.2,1.8-0.5c0.5-0.3,1-0.8,1.3-1.4c0.3-0.6,0.5-1.3,0.5-2.1C177.7,42.4,177.6,41.7,177.2,41.1
			z"/>
		<path class="st2" d="M187.1,32v18h-3.4V32H187.1z"/>
		<path class="st2" d="M190.4,39.6c0.5-1.1,1.3-1.9,2.2-2.4c0.9-0.6,2-0.9,3.1-0.9c1,0,1.9,0.2,2.6,0.6c0.8,0.4,1.4,0.9,1.8,1.5
			v-1.9h3.4V50h-3.4v-2c-0.4,0.6-1,1.2-1.8,1.6c-0.8,0.4-1.7,0.6-2.7,0.6c-1.1,0-2.2-0.3-3.1-0.9c-0.9-0.6-1.7-1.4-2.2-2.5
			c-0.5-1.1-0.8-2.3-0.8-3.7C189.6,41.9,189.9,40.7,190.4,39.6z M199.7,41.2c-0.3-0.6-0.8-1-1.3-1.4c-0.6-0.3-1.1-0.5-1.8-0.5
			c-0.6,0-1.2,0.2-1.8,0.5c-0.5,0.3-1,0.8-1.3,1.4c-0.3,0.6-0.5,1.3-0.5,2.1s0.2,1.5,0.5,2.1c0.3,0.6,0.8,1.1,1.3,1.4
			c0.5,0.3,1.1,0.5,1.7,0.5c0.6,0,1.2-0.2,1.8-0.5c0.6-0.3,1-0.8,1.3-1.4c0.3-0.6,0.5-1.3,0.5-2.1C200.2,42.5,200.1,41.7,199.7,41.2
			z"/>
		<path class="st2" d="M219.9,36.5l-8.4,19.9h-3.6l2.9-6.7l-5.4-13.2h3.8l3.5,9.4l3.5-9.4H219.9z"/>
		<path class="st11" d="M105.7,18.2l-2.4,7.8h-0.6l-2.5-6.9L97.7,26h-0.6l-2.4-7.8h0.7l2.1,7l2.5-7h0.6l2.5,7l2.1-7H105.7z"/>
		<path class="st11" d="M117.3,18.2l-2.4,7.8h-0.6l-2.5-6.9l-2.5,6.9h-0.6l-2.4-7.8h0.7l2.1,7l2.5-7h0.6l2.5,7l2.1-7H117.3z"/>
		<path class="st11" d="M128.9,18.2l-2.4,7.8h-0.6l-2.5-6.9l-2.5,6.9h-0.6l-2.4-7.8h0.7l2.1,7l2.5-7h0.6l2.5,7l2.1-7H128.9z"/>
		<path class="st11" d="M129.8,25.9c-0.1-0.1-0.2-0.2-0.2-0.4c0-0.2,0.1-0.3,0.2-0.4c0.1-0.1,0.2-0.2,0.4-0.2c0.2,0,0.3,0.1,0.4,0.2
			c0.1,0.1,0.2,0.2,0.2,0.4c0,0.2-0.1,0.3-0.2,0.4c-0.1,0.1-0.2,0.2-0.4,0.2C130,26,129.9,26,129.8,25.9z"/>
		<path class="st11" d="M134.3,18.7c0.6-0.4,1.3-0.6,2.1-0.6c0.7,0,1.4,0.2,1.9,0.5c0.6,0.3,1,0.8,1.3,1.4c0.3,0.6,0.5,1.3,0.5,2.1
			c0,0.8-0.2,1.5-0.5,2.1c-0.3,0.6-0.8,1.1-1.3,1.4c-0.6,0.3-1.2,0.5-1.9,0.5c-0.8,0-1.5-0.2-2.1-0.6c-0.6-0.4-1-0.9-1.2-1.5v2h-0.6
			V15.4h0.6v4.9C133.3,19.6,133.7,19.1,134.3,18.7z M139,20.3c-0.3-0.5-0.6-0.9-1.1-1.2c-0.5-0.3-1-0.4-1.7-0.4
			c-0.6,0-1.1,0.1-1.6,0.4c-0.5,0.3-0.9,0.7-1.1,1.2c-0.3,0.5-0.4,1.1-0.4,1.8c0,0.7,0.1,1.3,0.4,1.8c0.3,0.5,0.7,0.9,1.1,1.2
			c0.5,0.3,1,0.4,1.6,0.4c0.6,0,1.2-0.1,1.7-0.4c0.5-0.3,0.9-0.7,1.1-1.2c0.3-0.5,0.4-1.1,0.4-1.8C139.4,21.4,139.3,20.8,139,20.3z"
			/>
		<path class="st11" d="M149,22.4h-6.7c0,0.7,0.2,1.3,0.5,1.8c0.3,0.5,0.7,0.8,1.1,1.1c0.5,0.2,1,0.4,1.5,0.4c0.8,0,1.4-0.2,1.9-0.6
			c0.5-0.4,0.8-0.9,1-1.5h0.7c-0.2,0.8-0.5,1.4-1.2,1.9c-0.6,0.5-1.4,0.7-2.4,0.7c-0.7,0-1.4-0.2-1.9-0.5c-0.6-0.3-1-0.8-1.3-1.4
			c-0.3-0.6-0.5-1.3-0.5-2.1c0-0.8,0.2-1.5,0.5-2.1c0.3-0.6,0.8-1.1,1.3-1.4c0.6-0.3,1.2-0.5,2-0.5c0.7,0,1.4,0.2,1.9,0.5
			c0.5,0.3,1,0.7,1.3,1.3c0.3,0.5,0.4,1.1,0.4,1.7C149,21.9,149,22.2,149,22.4z M148,20.1c-0.3-0.5-0.6-0.8-1.1-1.1
			c-0.5-0.2-1-0.4-1.5-0.4c-0.5,0-1,0.1-1.5,0.4c-0.5,0.2-0.8,0.6-1.1,1.1c-0.3,0.5-0.4,1.1-0.5,1.7h6.1
			C148.4,21.1,148.3,20.6,148,20.1z"/>
		<path class="st11" d="M156.7,18.9c0.6,0.6,0.9,1.4,0.9,2.5V26h-0.6v-4.5c0-0.9-0.2-1.6-0.7-2.1c-0.5-0.5-1.1-0.7-1.9-0.7
			c-0.8,0-1.5,0.3-2,0.8c-0.5,0.5-0.8,1.3-0.8,2.4V26h-0.6V15.4h0.6v4.5c0.2-0.6,0.6-1,1.1-1.3c0.5-0.3,1.1-0.5,1.8-0.5
			C155.4,18.1,156.1,18.4,156.7,18.9z"/>
		<path class="st11" d="M159.9,20c0.3-0.6,0.8-1.1,1.3-1.4s1.2-0.5,1.9-0.5c0.8,0,1.5,0.2,2.1,0.6c0.6,0.4,1,0.9,1.2,1.5v-2h0.6V26
			h-0.6v-2c-0.2,0.6-0.6,1.1-1.2,1.6c-0.6,0.4-1.3,0.6-2.1,0.6c-0.7,0-1.4-0.2-1.9-0.5c-0.6-0.3-1-0.8-1.3-1.4
			c-0.3-0.6-0.5-1.3-0.5-2.1C159.4,21.3,159.6,20.6,159.9,20z M166.1,20.3c-0.3-0.5-0.7-0.9-1.2-1.2c-0.5-0.3-1-0.4-1.6-0.4
			c-0.6,0-1.2,0.1-1.7,0.4c-0.5,0.3-0.8,0.7-1.1,1.2c-0.3,0.5-0.4,1.1-0.4,1.8c0,0.7,0.1,1.3,0.4,1.8c0.3,0.5,0.6,0.9,1.1,1.2
			c0.5,0.3,1,0.4,1.7,0.4c0.6,0,1.1-0.1,1.6-0.4c0.5-0.3,0.9-0.7,1.2-1.2c0.3-0.5,0.4-1.1,0.4-1.8C166.5,21.4,166.3,20.8,166.1,20.3
			z"/>
		<path class="st11" d="M175.2,18.9c0.6,0.6,0.9,1.4,0.9,2.5V26h-0.6v-4.5c0-0.9-0.2-1.6-0.7-2.1c-0.5-0.5-1.1-0.7-1.9-0.7
			c-0.8,0-1.5,0.3-2,0.8c-0.5,0.5-0.8,1.3-0.8,2.4V26h-0.6v-7.8h0.6v1.6c0.2-0.6,0.6-1,1.1-1.3c0.5-0.3,1.1-0.5,1.8-0.5
			C173.9,18.1,174.6,18.4,175.2,18.9z"/>
		<path class="st11" d="M178.4,20c0.3-0.6,0.8-1.1,1.3-1.4c0.6-0.3,1.2-0.5,2-0.5c1,0,1.8,0.2,2.4,0.7c0.6,0.5,1,1.1,1.2,2h-0.7
			c-0.1-0.7-0.4-1.2-1-1.6c-0.5-0.4-1.2-0.6-1.9-0.6c-0.6,0-1.1,0.1-1.6,0.4c-0.5,0.3-0.8,0.6-1.1,1.2c-0.3,0.5-0.4,1.2-0.4,1.9
			c0,0.8,0.1,1.4,0.4,1.9c0.3,0.5,0.7,0.9,1.1,1.2c0.5,0.3,1,0.4,1.6,0.4c0.8,0,1.4-0.2,1.9-0.6c0.5-0.4,0.8-0.9,1-1.6h0.7
			c-0.2,0.8-0.5,1.5-1.2,2c-0.6,0.5-1.4,0.7-2.4,0.7c-0.7,0-1.4-0.2-2-0.5c-0.6-0.3-1-0.8-1.3-1.4c-0.3-0.6-0.5-1.3-0.5-2.1
			C178,21.3,178.1,20.6,178.4,20z"/>
		<path class="st11" d="M194.2,22.4h-6.7c0,0.7,0.2,1.3,0.5,1.8c0.3,0.5,0.7,0.8,1.1,1.1c0.5,0.2,1,0.4,1.5,0.4
			c0.8,0,1.4-0.2,1.9-0.6c0.5-0.4,0.8-0.9,1-1.5h0.7c-0.2,0.8-0.5,1.4-1.2,1.9c-0.6,0.5-1.4,0.7-2.4,0.7c-0.7,0-1.4-0.2-1.9-0.5
			c-0.6-0.3-1-0.8-1.3-1.4c-0.3-0.6-0.5-1.3-0.5-2.1c0-0.8,0.2-1.5,0.5-2.1c0.3-0.6,0.8-1.1,1.3-1.4c0.6-0.3,1.2-0.5,2-0.5
			c0.7,0,1.4,0.2,1.9,0.5c0.5,0.3,1,0.7,1.3,1.3c0.3,0.5,0.4,1.1,0.4,1.7C194.2,21.9,194.2,22.2,194.2,22.4z M193.2,20.1
			c-0.3-0.5-0.6-0.8-1.1-1.1c-0.5-0.2-1-0.4-1.5-0.4c-0.5,0-1,0.1-1.5,0.4c-0.5,0.2-0.8,0.6-1.1,1.1s-0.4,1.1-0.5,1.7h6.1
			C193.6,21.1,193.5,20.6,193.2,20.1z"/>
		<path class="st11" d="M195.7,25.9c-0.1-0.1-0.2-0.2-0.2-0.4c0-0.2,0.1-0.3,0.2-0.4c0.1-0.1,0.2-0.2,0.4-0.2c0.2,0,0.3,0.1,0.4,0.2
			c0.1,0.1,0.2,0.2,0.2,0.4c0,0.2-0.1,0.3-0.2,0.4c-0.1,0.1-0.2,0.2-0.4,0.2C195.9,26,195.8,26,195.7,25.9z"/>
		<path class="st11" d="M204.1,18.9c0.6,0.6,0.9,1.4,0.9,2.5V26h-0.6v-4.5c0-0.9-0.2-1.6-0.7-2.1c-0.5-0.5-1.1-0.7-1.9-0.7
			c-0.8,0-1.5,0.3-2,0.8c-0.5,0.5-0.8,1.3-0.8,2.4V26h-0.6v-7.8h0.6v1.6c0.2-0.6,0.6-1,1.1-1.3c0.5-0.3,1.1-0.5,1.8-0.5
			C202.7,18.1,203.5,18.4,204.1,18.9z"/>
		<path class="st11" d="M214.2,22.4h-6.7c0,0.7,0.2,1.3,0.5,1.8c0.3,0.5,0.7,0.8,1.1,1.1c0.5,0.2,1,0.4,1.5,0.4
			c0.8,0,1.4-0.2,1.9-0.6c0.5-0.4,0.8-0.9,1-1.5h0.7c-0.2,0.8-0.5,1.4-1.2,1.9c-0.6,0.5-1.4,0.7-2.4,0.7c-0.7,0-1.4-0.2-1.9-0.5
			c-0.6-0.3-1-0.8-1.3-1.4c-0.3-0.6-0.5-1.3-0.5-2.1c0-0.8,0.2-1.5,0.5-2.1c0.3-0.6,0.8-1.1,1.3-1.4c0.6-0.3,1.2-0.5,2-0.5
			c0.7,0,1.4,0.2,1.9,0.5c0.5,0.3,1,0.7,1.3,1.3c0.3,0.5,0.4,1.1,0.4,1.7C214.2,21.9,214.2,22.2,214.2,22.4z M213.2,20.1
			c-0.3-0.5-0.6-0.8-1.1-1.1c-0.5-0.2-1-0.4-1.5-0.4c-0.5,0-1,0.1-1.5,0.4c-0.5,0.2-0.8,0.6-1.1,1.1c-0.3,0.5-0.4,1.1-0.5,1.7h6.1
			C213.6,21.1,213.5,20.6,213.2,20.1z"/>
		<path class="st11" d="M217.1,18.8v5.1c0,0.6,0.1,1,0.3,1.2c0.2,0.2,0.6,0.3,1.1,0.3h0.9V26h-1c-0.7,0-1.2-0.2-1.5-0.5
			c-0.3-0.3-0.5-0.9-0.5-1.6v-5.1h-1.2v-0.6h1.2v-2h0.6v2h2.3v0.6H217.1z"/>
	</g>
	<path class="st11" d="M88.4,14.8l-9.2,36.3h-2.6l9.1-36.3H88.4z"/>
	<path class="st11" d="M71.2,39c0.2,0,0.4,0,0.6,0c0-1.1,0-2.2,0-3.3c0-0.2-0.1-0.3-0.1-0.5c-0.3-1.3-0.4-2.7-0.8-4
		c-1-2.8-2.7-5-5.3-6.4c-3.3-1.7-6.9-2-10.5-1.2c-4,0.9-6.9,3.3-8.4,7.1c-1.4,3.5-1.4,7.1-0.7,10.8c0.6,3.2,2.4,5.7,5.2,7.4
		c3.2,1.9,6.7,2.4,10.4,1.9c3.9-0.5,6.9-2.4,9-5.8c0.5-0.8,0.8-1.6,0.9-2.5c-0.1,0-0.2,0-0.3,0c-2.2,0-4.3,0-6.5,0
		c-0.2,0-0.4,0.2-0.6,0.3c-0.5,0.5-0.9,1.2-1.4,1.6c-1.6,1.2-3.4,1.2-5.3,0.9c-3.1-0.6-4.9-3.1-4.8-6.3c0.2,0,0.4,0,0.6,0
		C59.1,39,65.2,39,71.2,39z M59.3,29c3.2,0.3,5.2,2.5,5.2,5.5c-3.9,0-7.9,0-11.9,0C53.2,30.6,55.6,28.6,59.3,29z"/>
	<path class="st11" d="M40.2,32.7c-0.8-0.6-1.6-1-2.5-1.5c0,0,0,0,0.1,0c0.2-0.1,0.3-0.2,0.5-0.3c1.9-1,3.1-2.6,3.5-4.7
		c0.2-1.1,0.2-2.2,0.1-3.3c-0.3-3-1.8-5.3-4.5-6.7c-2.1-1.1-4.4-1.4-6.7-1.4c-5.5,0-11,0-16.5,0c-0.2,0-0.4,0-0.6,0
		c0,11.9,0,23.6,0,35.4c0.2,0,0.3,0,0.4,0c5.3,0,10.6,0,15.8,0c1.4,0,2.9-0.2,4.3-0.3c2.5-0.3,4.7-1.4,6.3-3.4
		c2-2.4,2.8-5.2,2.4-8.3C42.8,36,41.9,34,40.2,32.7z M20.8,21c0.1,0,0.2-0.1,0.3-0.1c3.1,0,6.2,0,9.4,0.1c0.7,0,1.3,0.2,2,0.3
		c1.4,0.3,2.1,1.2,2.3,2.5c0.1,0.9,0.1,1.8-0.3,2.7c-0.4,0.9-1.1,1.5-2.1,1.7c-0.9,0.2-1.8,0.4-2.7,0.4c-2.9,0.1-5.7,0-8.6,0
		c-0.1,0-0.2,0-0.3,0C20.8,26.1,20.8,23.5,20.8,21z M32.3,43.7c-0.9,0.2-1.8,0.3-2.6,0.3c-2.8,0-5.7,0-8.5,0c-0.1,0-0.2,0-0.4,0
		c0-3.2,0-6.3,0-9.4c0.1,0,0.2,0,0.3,0c3.1,0,6.2,0,9.3,0c1,0,1.9,0.3,2.9,0.6c0.5,0.2,0.9,0.5,1.3,0.9
		C36.7,38.5,35.4,42.9,32.3,43.7z"/>
	<path class="st11" d="M66.2,16.5c-5.1,0-10.2,0-15.3,0c0,1.5,0,2.9,0,4.3c5.1,0,10.2,0,15.3,0C66.2,19.3,66.2,17.9,66.2,16.5z"/>
</g>
</svg>
