<?xml version="1.0" encoding="UTF-8"?><svg id="a" xmlns="http://www.w3.org/2000/svg" viewBox="0 0 507.3 222.22"><path d="M353.44,183.22c5.23.57,9.47-1.38,12.31-5.8,3.67-5.72,7.57-11.35,10.6-17.41,8.64-17.27,15.83-35.17,21.92-53.49,2.38-7.17,4.54-14.43,5.16-22.04.44-5.49-.44-7.11-5.43-9.51-6.76-3.25-13.93-4.12-21.35-4.02-5.08.07-8.4,2.26-10.02,7.01-1.75,5.12-3.56,10.24-5.06,15.44-2.51,8.72-4.74,17.51-7.19,26.25-.54,1.93-1.28,3.85-2.25,5.59-1.02,1.81-2.96,1.69-3.74-.26-.69-1.72-1.14-3.63-1.27-5.49-.43-6.53-.66-13.09-.93-18.8,0-5.5.08-10.17-.03-14.82-.06-2.64-.37-5.28-.67-7.91-1.04-9.12-3.91-12.37-12.8-14.39-4.92-1.12-9.85-2.18-14.81-3.07-4.83-.87-9.69-1.63-14.57-2.17-3.73-.42-6.65,1.22-8.42,4.58-.7,1.32-1.25,2.76-1.67,4.2-1.82,6.33-2.82,12.79-3.06,19.37-.1,2.66.45,5.05,2.5,6.85,2.47,2.17,2.54,4.6,1.44,7.51-6.78,17.92-10.09,36.66-12.66,55.54-.68,4.97-.68,10.06-.7,15.09,0,3.13.56,3.56,3.59,4.42,7.24,2.05,14.63,2.68,22.11,2,4.93-.45,6.29-1.71,7.64-6.44.21-.72.42-1.46.51-2.2.52-4.25.94-8.52,1.52-12.76.46-3.36.88-6.76,1.7-10.04.72-2.87,3.19-3.24,4.98-.86.82,1.08,1.36,2.42,1.81,3.71,1.48,4.29,2.8,8.63,4.3,12.91,1.84,5.23,3.65,10.47,6.94,15.05,1.55,2.16,3.41,3.77,6.01,4.24,3.83.69,7.69,1.3,11.56,1.72Z" fill="#fff" stroke-width="0"/><path d="M201.29,175.8c7.67-.36,14.92-2.29,21.83-5.56,1-.47,1.87-1.19,3.24-2.08-1.2-2.63-1.97-5.36-3.53-7.54-2.8-3.86-5.75-7.72-9.22-10.95-5.07-4.71-10.65-8.87-16.01-13.26-.78-.63-1.6-1.23-2.38-1.86-1.21-.98-1.29-2.11-.31-3.28,1.54-1.84,3.12-3.63,4.68-5.45,7.82-9.11,10.58-19.46,8.26-31.32-3.43-17.53-14.87-29.18-32.46-32.65-7.1-1.4-14.29-1.96-21.46-1.37-11.05.92-22.07,2.18-33.08,3.56-6.24.78-12.5,1.77-18.62,3.2-8,1.87-10.4,5.84-8.92,13.83,1.42,7.7,4.76,14.62,9.39,20.85,1.44,1.94,3.6,3.59,5.79,4.66,2.35,1.15,3.84,2.64,4.75,5.01,1.45,3.76,2.95,7.51,4.55,11.21,6.99,16.2,13.97,32.4,21.07,48.55,1.31,2.97,3.16,5.72,4.85,8.52.83,1.38,2.13,2.03,3.81,2.01,8.03-.08,15.76-1.66,23.27-4.46,1.75-.65,2.39-1.82,2.08-3.5-.41-2.22-.76-4.5-1.54-6.61-1.72-4.6-3.73-9.09-5.55-13.64-.64-1.58-1.8-3.11-1.02-4.97,1.52-1.15,2.99-.58,4.25.26,2.3,1.54,4.7,3.02,6.64,4.96,3.12,3.11,5.85,6.6,8.82,9.86,2.88,3.16,5.77,6.33,8.83,9.31,2.16,2.11,4.88,2.87,7.98,2.73ZM171.09,114.67c-3.21,4.73-7.6,7.67-13.33,8.37-3.57.44-6.73-.65-8.2-4.06-1.78-4.14-3.38-8.42-4.42-12.79-.93-3.92.63-5.84,4.61-6.84,1.95-.49,3.97-.65,4.97-.81,4.87.09,8.5.99,11.8,3.03,2.32,1.43,4.03,3.38,5.11,5.9,1.07,2.51,1,4.93-.54,7.2Z" fill="#fff" stroke-width="0"/><path d="M61.98,192.83c9.98,5.01,20.5,6.91,31.57,4.78,7.86-1.51,15.42-3.92,22.05-8.56,7.79-5.45,11.36-12.98,9.06-22.31-3.85-15.6-12.55-28.45-24.07-39.46-.18-.17-.4-.3-.61-.45-2.4-1.8-5.07-2.67-8.09-2.72-9.91-.16-18.54,3.17-26.11,9.4-1.53,1.27-2.84,2.87-4.03,4.48-2.33,3.13-2.58,6.4-.47,9.85,2.53,4.14,5.78,7.63,9.51,10.68,3.71,3.04,4.49,2.97,8.02-.18,1.21-1.07,2.5-2.17,3.94-2.86,2.58-1.22,4.69-.85,5.91.66,1.43,1.77,1.41,4.49-.27,6.67-.83,1.08-1.85,2.14-3.02,2.81-2.18,1.24-4.48,2.29-6.81,3.22-3.24,1.3-6.41.86-9.49-.72-3.44-1.76-6.3-4.24-8.61-7.26-3.35-4.41-6.53-8.96-9.67-13.53-.99-1.44-1.78-3.07-2.39-4.71-2.39-6.47-.62-11.81,5.42-15.13,3.17-1.74,6.67-3.03,10.16-4,4.6-1.28,9.37-1.98,14.03-3.07,2.53-.59,5-1.5,7.83-2.36-.32-1.45-.41-2.2-.64-2.91-3.41-10.16-8.57-19.3-15.62-27.42-3.18-3.67-6.94-5.12-11.71-4.63-12.2,1.25-23.77,4.78-34.51,10.52-9.99,5.34-14.62,14.27-14.62,25.55,0,7.06,1.87,13.75,4.82,20.08,8.91,19.12,22.13,34.81,38.75,47.68,2.97,2.3,6.3,4.21,9.67,5.9Z" fill="#fff" stroke-width="0"/><path d="M453.1,147.37c-2.01-.77-3.68-1.56-5.44-2.05-4.37-1.2-8.82-2.1-13.16-3.41-5.42-1.64-6.28-4.15-3.41-9.01.32-.54.68-1.06,1.03-1.58,1.53-2.27,3.65-3.02,6.25-2.3,1.7.46,3.38,1,5.05,1.59,6.42,2.27,12.81,4.6,19.23,6.86,1.9.67,3.85,1.22,5.79,1.75,2.15.59,3.88.03,5.32-1.8,4.36-5.54,8.87-10.97,13.2-16.54,1.46-1.88,2.63-4,3.76-6.11,2.32-4.31,2.2-4.98-1.54-8.32-4.84-4.31-10.27-7.77-16.22-10.28-5.92-2.5-11.87-4.99-17.98-6.93-4.89-1.56-10.01-2.53-15.1-3.32-6.33-.98-11.77.9-15.53,6.36-3.35,4.87-6.89,9.66-9.75,14.82-12.39,22.38-24.58,44.87-36.8,67.34-1.44,2.65-2.76,5.39-3.84,8.21-1.47,3.85-.56,6.59,2.99,8.73,2.24,1.36,4.7,2.5,7.2,3.26,9.03,2.76,18.07,5.51,27.21,7.89,4.24,1.1,8.7,1.32,13.05,1.94,2.32.33,4.09-.54,5.65-2.29,4.72-5.31,8.82-11.02,11.84-17.46.62-1.32.97-2.76,1.56-4.5-1.75-.6-3.11-1.22-4.55-1.52-4.92-1.09-9.89-1.96-14.79-3.12-3.66-.87-7.32-1.89-10.85-3.18-2.38-.87-2.68-2.29-1.61-4.53,1.36-2.85,4.65-4.68,7.87-3.85,3.15.81,6.19,2.1,9.25,3.25,1.65.62,3.2,1.51,4.87,2.05,2.75.88,5.15.53,6.93-2.14,3.36-5.03,6.87-9.95,10.21-14.98.88-1.32,1.39-2.9,2.29-4.82Z" fill="#fff" stroke-width="0"/><path d="M210.76,76.96c1.01.52,2,1.07,3.04,1.52,3.94,1.68,7.9,3.28,11.83,4.99,2.43,1.06,4.75,2.34,7.18,3.38,2.68,1.16,3.68.89,5.57-1.39,1.77-2.13,3.44-4.35,5.18-6.51,1.71-2.13,3.46-4.23,5.26-6.43.78.65,1.29,1.01,1.72,1.46,4.84,4.96,9.7,9.9,14.5,14.91,2.19,2.29,2.49,2.39,4.85.26,2.24-2.03,4.47-4.09,6.6-6.23,3.65-3.65,7.21-7.4,10.85-11.06,1.52-1.52,1.54-3.07.34-4.72-.59-.82-1.19-1.63-1.87-2.37-3.84-4.18-7.69-8.34-11.55-12.49-1.87-2.01-3.75-4-5.7-6.06.93-1.4,1.66-2.56,2.44-3.69,2.98-4.37,6.08-8.67,8.94-13.12,2.36-3.67,2.01-5.24-1.77-7.33-7.94-4.38-15.95-8.63-24-12.82-2.94-1.53-3.65-1.22-5.58,1.61-1.83,2.69-3.61,5.42-5.61,8.43-1.11-1.08-2.01-1.92-2.88-2.8-1.51-1.52-2.99-3.07-4.49-4.6-1.9-1.93-4.09-2.47-6.53-1.2-1.89.98-3.8,1.98-5.53,3.22-5.13,3.66-10.17,7.44-15.25,11.17-.61.44-1.24.87-1.8,1.37-1.93,1.72-2,2.53-.31,4.38.76.83,1.67,1.53,2.45,2.36,5.09,5.4,10.17,10.82,15.53,16.53.1-.25-.02.24-.28.66-4.02,6.55-8.05,13.1-12.08,19.64-.66,1.07-1.38,2.1-2.03,3.18-.95,1.57-.72,2.88.99,3.77Z" fill="#fff" stroke-width="0"/><path d="M273.94,168.01c.05-7.18.01-14.36.01-21.54-.75-15.87-1.41-31.72-3.98-47.42-.68-4.2-.79-4.35-5.04-5.38-1.1-.27-2.21-.47-3.33-.64-7.15-1.1-14.32-.88-21.49-.22-2.5.23-5.01.61-7.45,1.17-2.95.67-3.24,1.09-3.49,4.06-.19,2.26-.28,4.53-.31,6.79-.25,17.91,1.07,35.75,2.76,53.56.41,4.25,1.15,8.48,1.81,12.71.32,2.05,1.47,3.37,3.64,3.8,10.64,2.09,21.28,2.32,31.85-.33,4.56-1.14,5-1.82,5.03-6.56Z" fill="#fff" stroke-width="0"/><path d="M223.74,150.16c-.88-10.23-1.65-21.34-1.91-32.72-.74,7.2-3.68,13.78-8.86,19.81-.41.48-.83.96-1.24,1.44,2.27,1.86,4.53,3.77,6.71,5.8,1.91,1.77,3.66,3.7,5.29,5.68Z" fill="none" stroke-width="0"/><path d="M221.74,109.21c0-1.49,0-2.98.02-4.48.04-2.62.14-5,.33-7.27.25-2.94.96-5.13,2.28-6.77-.53-.25-1.05-.5-1.57-.72-2.28-1-4.58-1.95-6.87-2.91-1.03-.43-2.05-.86-3.07-1.29.27.79.52,1.59.76,2.41,3.69,4.92,6.28,10.87,7.62,17.73.22,1.11.38,2.21.5,3.3Z" fill="none" stroke-width="0"/><path d="M278.42,100.3c-.43-.44-.86-.88-1.29-1.33.32,2.02.61,4.03.88,6.05.1.02.2.04.3.06,4.25,1.03,4.36,1.18,5.04,5.38,0,.05.01.1.02.15,1.22-4.1,2.57-8.2,4.12-12.28.01-.04.03-.08.04-.11-.28-.28-.54-.57-.8-.86-1.14,1.08-2.3,2.14-3.46,3.19-2.36,2.13-2.65,2.03-4.85-.26Z" fill="none" stroke-width="0"/><path d="M166.52,101.57c-3.31-2.04-6.93-2.95-11.8-3.03-1,.16-3.02.32-4.97.81-3.98,1-5.54,2.92-4.61,6.84,1.04,4.37,2.64,8.65,4.42,12.79,1.47,3.41,4.63,4.5,8.2,4.06,5.73-.7,10.12-3.64,13.33-8.37,1.54-2.26,1.61-4.68.54-7.2-1.08-2.53-2.79-4.47-5.11-5.9Z" fill="#000" stroke-width="0"/><path d="M502.56,117.85c-1.29-1.15-2.62-2.23-3.99-3.25,1.84-5.21.43-8.92-4.66-13.46-5.44-4.85-11.56-8.72-18.18-11.52-6.77-2.86-12.44-5.2-18.59-7.16-5.78-1.84-11.67-2.87-16.15-3.57-1.43-.22-2.84-.33-4.2-.33-7.59,0-13.91,3.35-18.26,9.69-.64.93-1.29,1.86-1.94,2.79-.61-1.98-2.12-3.16-5.2-4.64-.32-.15-.65-.28-.97-.42.03-.31.07-.61.1-.91.69-8.49-1.78-12.8-9.43-16.48-6.71-3.22-14.11-4.73-23.29-4.73-.41,0-.83,0-1.24,0-8.17.12-14.07,4.31-16.63,11.81l-.81,2.35c-.55,1.61-1.11,3.25-1.67,4.91-1-2.56-2.53-4.34-4.88-5.66,0-.04,0-.08-.01-.11-1.38-12.09-6.51-17.84-18.28-20.5-6.06-1.38-10.73-2.34-15.12-3.13-5.52-1-10.44-1.73-15.04-2.24-.64-.07-1.28-.11-1.91-.11-5.29,0-9.87,2.56-12.77,7.07-1.53-1.66-3.07-3.32-4.6-4.98,2.84-4.14,5.77-8.23,8.48-12.45,2.36-3.67,2.01-5.24-1.77-7.33-1.46-.81-2.94-1.59-4.41-2.39,1.09-2.17,1.83-4.79,1.09-7.73-1.13-4.48-5.12-6.68-6.63-7.51-7.11-3.93-14.78-8.03-24.15-12.9-1.71-.89-3.6-1.71-5.89-1.71-5,0-7.58,3.79-8.83,5.62-.29.42-.57.85-.86,1.27-.4-.41-.8-.82-1.2-1.22-3.26-3.31-6.7-4.01-9.01-4.01-1.98,0-3.95.5-5.84,1.48-1.87.97-4.2,2.18-6.39,3.74-3.86,2.75-7.7,5.6-11.42,8.35l-3.88,2.87-.37.27c-.56.4-1.26.9-1.97,1.54-1,.9-3.67,3.28-3.87,7.09-.2,3.79,2.15,6.38,3.03,7.36.63.69,1.26,1.27,1.77,1.73.26.24.53.47.78.73,3.7,3.93,7.4,7.86,11.2,11.91l.69.73c-3.19,5.2-6.39,10.39-9.59,15.58-.26.43-.54.85-.82,1.27-.43.66-.86,1.32-1.26,1.98-.04.07-.07.14-.11.21-6.67-7.52-15.79-12.67-26.81-14.85-5.84-1.15-11.6-1.74-17.1-1.74-2.12,0-4.25.09-6.32.26-12.25,1.02-24.27,2.45-33.37,3.58-7.48.94-13.64,2-19.35,3.33-11.68,2.73-16.48,10.14-14.28,22.03,1.54,8.33,5.13,16.34,10.67,23.79,2.04,2.74,5.01,5.16,8.37,6.8.97.48,1.07.73,1.24,1.18,1.61,4.2,3.14,7.95,4.66,11.48l1.51,3.5c.2.46.4.94.6,1.4-2.42-2.84-5.05-5.63-7.93-8.38-.53-.5-1.01-.83-1.32-1.04-2.8-2.07-5.94-3.35-9.36-3.84-1.18-2.47-2.47-4.87-3.9-7.21-3.71-9.94-9.05-19-15.95-26.95-4.13-4.76-9.29-7.17-15.33-7.17-.8,0-1.63.04-2.46.13-13.08,1.34-25.58,5.15-37.13,11.32C8,93.79,1.65,104.79,1.65,119.17c0,7.61,1.8,15.16,5.49,23.08,9.03,19.38,22.77,36.3,40.84,50.29,2.99,2.32,6.43,4.42,10.83,6.63,5.93,2.98,11.98,4.9,18.07,5.8,9.53,4.46,19.55,6.07,30.06,4.05,7.86-1.51,15.42-3.92,22.05-8.56,5.8-4.06,9.26-9.27,9.7-15.52,2.13,2.56,5.25,4.02,8.79,4.02h.14c2.58-.03,5.16-.21,7.75-.52.58.94,1.17,1.89,1.74,2.83.4.67.92,1.17,1.54,1.5l-7.77.97,1.21,25.23,12.6,1.52v-.29s1.53.18,1.53.18v-1.19s5.83.26,5.83.26v.12s5.79.26,5.79.26l-.77-20.3-1.41.12-.3-7.87-2.05.17c3.68-.75,7.31-1.8,10.89-3.13,1.75-.65,2.39-1.82,2.08-3.5-.41-2.22-.76-4.5-1.54-6.61-.94-2.52-1.97-5-3-7.48,2.13,2.31,4.33,4.65,6.64,6.91,3.19,3.12,7.42,4.77,12.21,4.77.35,0,.7,0,1.05-.03,1.08-.05,2.16-.13,3.24-.24.61.62,1.21,1.23,1.83,1.84,2.16,2.11,4.88,2.87,7.98,2.73,7.47-.35,14.53-2.19,21.27-5.31,3.76.73,7.45,1.2,11.06,1.46.49,1.57,1.59,2.58,3.43,2.95,10.64,2.09,21.28,2.32,31.85-.33,2.5-.62,3.76-1.12,4.39-2.21,2.52.54,5.07.93,7.63,1.17.33,1.35,1.24,1.75,3.42,2.37,7.24,2.05,14.63,2.68,22.11,2,4.93-.45,6.28-1.71,7.64-6.44.21-.72.42-1.46.51-2.2.09-.72.17-1.43.25-2.15.58.97,1.18,1.94,1.87,2.89,2.84,3.95,6.38,6.33,10.51,7.08,3.59.65,6.73,1.14,9.68,1.51,1.34,1.48,2.91,2.55,4.95,2.92,3.83.69,7.69,1.3,11.56,1.72,1.04.11,2.05.12,3.01.04.97,1.01,2.11,1.95,3.47,2.77,2.86,1.73,5.82,3.07,8.8,3.98,4.98,1.52,10.35,3.16,15.87,4.76,8.89,2.72,17.8,5.42,26.8,7.76,4.24,1.1,8.7,1.32,13.05,1.94,2.32.33,4.09-.54,5.65-2.29,4.72-5.31,8.82-11.02,11.84-17.46.62-1.32.97-2.76,1.56-4.5-1.75-.6-3.11-1.22-4.55-1.52-1.55-.34-3.1-.66-4.66-.98.23-.46.47-.93.69-1.39.63-1.34,1.02-2.59,1.4-3.81.14-.45.29-.93.46-1.43l.5-1.48c1.24-.28,2.35-1.03,3.28-2.43,3.36-5.03,6.87-9.95,10.21-14.98.88-1.32,1.39-2.9,2.29-4.82-2.01-.77-3.68-1.56-5.44-2.05-1.35-.37-2.7-.71-4.06-1.04.79-1.28,1.33-2.52,1.85-3.72.21-.5.44-1.03.7-1.6l2.63-5.61c1.46.46,2.92.87,4.42,1.28.94.26,1.89.41,2.81.46,2.22.79,4.43,1.59,6.65,2.37,1.9.67,3.85,1.22,5.79,1.75,2.15.59,3.88.03,5.32-1.8,4.36-5.54,8.87-10.97,13.2-16.54,1.46-1.88,2.63-4,3.76-6.11,2.32-4.31,2.2-4.98-1.54-8.32ZM287.53,98.23s-.03.07-.04.11c-1.54,4.08-2.9,8.18-4.12,12.28,0-.05-.01-.1-.02-.15-.68-4.2-.79-4.35-5.04-5.38-.1-.02-.2-.04-.3-.06-.26-2.02-.56-4.04-.88-6.05.43.44.86.88,1.29,1.33,2.19,2.29,2.49,2.39,4.85.26,1.16-1.05,2.32-2.12,3.46-3.19.26.29.51.58.8.86ZM237.06,174.9c-2.16-.43-3.31-1.75-3.64-3.8-.66-4.23-1.4-8.45-1.81-12.71-1.7-17.81-3.02-35.65-2.76-53.56.03-2.27.12-4.53.31-6.79.25-2.97.54-3.4,3.49-4.06,2.45-.56,4.95-.94,7.45-1.17,7.16-.66,14.34-.88,21.49.22,1.12.17,2.24.37,3.33.64,4.25,1.03,4.36,1.18,5.04,5.38,2.57,15.7,3.23,31.56,3.98,47.42,0,7.18.04,14.36-.01,21.54-.03,4.73-.47,5.42-5.03,6.56-10.57,2.65-21.21,2.42-31.85.33ZM212.86,85.77c1.02.43,2.05.86,3.07,1.29,2.29.96,4.59,1.91,6.87,2.91.52.22,1.04.47,1.57.72-1.32,1.64-2.03,3.83-2.28,6.77-.19,2.27-.29,4.65-.33,7.27-.02,1.49-.02,2.98-.02,4.48-.13-1.09-.29-2.18-.5-3.3-1.34-6.86-3.93-12.81-7.62-17.73-.24-.81-.49-1.62-.76-2.41ZM212.97,137.24c5.18-6.03,8.12-12.61,8.86-19.81.26,11.38,1.03,22.49,1.91,32.72-1.64-1.98-3.39-3.9-5.29-5.68-2.18-2.03-4.45-3.95-6.71-5.8.41-.48.83-.96,1.24-1.44ZM209.78,73.19c.65-1.08,1.37-2.11,2.03-3.18,4.04-6.54,8.07-13.09,12.08-19.64.26-.42.38-.91.28-.66-5.36-5.7-10.43-11.13-15.53-16.53-.78-.83-1.69-1.52-2.45-2.36-1.69-1.86-1.62-2.66.31-4.38.56-.5,1.2-.93,1.8-1.37,5.07-3.74,10.12-7.51,15.25-11.17,1.73-1.23,3.64-2.24,5.53-3.22,2.44-1.27,4.63-.73,6.53,1.2,1.5,1.53,2.98,3.07,4.49,4.6.87.88,1.76,1.72,2.88,2.8,2-3.01,3.78-5.74,5.61-8.43,1.92-2.82,2.64-3.13,5.58-1.61,8.04,4.19,16.06,8.43,24,12.82,3.78,2.09,4.13,3.66,1.77,7.33-2.86,4.45-5.96,8.75-8.94,13.12-.78,1.13-1.51,2.29-2.44,3.69,1.94,2.06,3.83,4.05,5.7,6.06,3.86,4.15,7.71,8.32,11.55,12.49.68.74,1.28,1.56,1.87,2.37,1.21,1.66,1.18,3.2-.34,4.72-3.64,3.66-7.2,7.41-10.85,11.06-2.14,2.14-4.36,4.2-6.6,6.23-2.36,2.13-2.65,2.03-4.85-.26-4.8-5-9.66-9.94-14.5-14.91-.43-.44-.95-.81-1.72-1.46-1.8,2.2-3.54,4.3-5.26,6.43-1.74,2.16-3.41,4.38-5.18,6.51-1.9,2.28-2.89,2.54-5.57,1.39-2.43-1.04-4.75-2.33-7.18-3.38-3.92-1.71-7.89-3.31-11.83-4.99-1.04-.44-2.04-1-3.04-1.52-1.71-.89-1.94-2.19-.99-3.77ZM13.57,139.25c-2.95-6.33-4.82-13.01-4.82-20.08,0-11.28,4.63-20.21,14.62-25.55,10.74-5.74,22.31-9.27,34.51-10.52,4.77-.49,8.53.97,11.71,4.63,7.05,8.12,12.22,17.25,15.62,27.42.23.71.32,1.46.64,2.91-2.82.87-5.29,1.77-7.83,2.36-4.66,1.09-9.43,1.79-14.03,3.07-3.49.97-6.99,2.26-10.16,4-6.04,3.32-7.82,8.67-5.42,15.13.61,1.64,1.4,3.27,2.39,4.71,3.14,4.57,6.32,9.12,9.67,13.53,2.3,3.02,5.16,5.51,8.61,7.26,3.08,1.58,6.25,2.02,9.49.72,2.33-.93,4.63-1.99,6.81-3.22,1.17-.67,2.19-1.73,3.02-2.81,1.68-2.17,1.71-4.89.27-6.67-1.22-1.51-3.33-1.89-5.91-.66-1.44.68-2.73,1.78-3.94,2.86-3.53,3.14-4.31,3.22-8.02.18-3.73-3.06-6.97-6.54-9.51-10.68-2.11-3.46-1.85-6.72.47-9.85,1.19-1.61,2.5-3.22,4.03-4.48,7.56-6.23,16.2-9.57,26.11-9.4,3.02.05,5.7.92,8.09,2.72.2.15.43.28.61.45,11.53,11.02,20.22,23.86,24.07,39.46,2.3,9.34-1.27,16.86-9.06,22.31-6.63,4.64-14.19,7.05-22.05,8.56-11.07,2.13-21.59.23-31.57-4.78-3.36-1.69-6.7-3.6-9.67-5.9-16.61-12.86-29.84-28.55-38.75-47.68ZM172.71,215.93l-5.77-.26-.71-6.55-5.2.16.06,7.2-5.62-.68-.91-18.95,6.23-.77.1,8.55,5.2-.38-.26-8.1,6.1-.52.77,20.3ZM193.31,173.07c-3.06-2.99-5.94-6.15-8.83-9.31-2.97-3.26-5.7-6.75-8.82-9.86-1.94-1.93-4.34-3.42-6.64-4.96-1.26-.84-2.73-1.41-4.25-.26-.78,1.87.38,3.39,1.02,4.97,1.83,4.56,3.84,9.05,5.55,13.64.78,2.1,1.13,4.38,1.54,6.61.31,1.68-.34,2.84-2.08,3.5-7.51,2.8-15.24,4.38-23.27,4.46-1.68.02-2.98-.63-3.81-2.01-1.69-2.8-3.54-5.55-4.85-8.52-7.11-16.15-14.08-32.35-21.07-48.55-1.6-3.7-3.1-7.45-4.55-11.21-.91-2.37-2.4-3.86-4.75-5.01-2.18-1.07-4.34-2.72-5.79-4.66-4.63-6.23-7.97-13.15-9.39-20.85-1.48-7.99.92-11.96,8.92-13.83,6.12-1.43,12.38-2.42,18.62-3.2,11-1.37,22.02-2.64,33.08-3.56,7.17-.59,14.36-.03,21.46,1.37,17.59,3.47,29.03,15.12,32.46,32.65,2.32,11.86-.44,22.22-8.26,31.32-1.56,1.82-3.14,3.61-4.68,5.45-.98,1.17-.9,2.3.31,3.28.78.63,1.6,1.23,2.38,1.86,5.36,4.39,10.95,8.55,16.01,13.26,3.47,3.23,6.43,7.09,9.22,10.95,1.56,2.17,2.33,4.91,3.53,7.54-1.37.89-2.24,1.61-3.24,2.08-6.91,3.28-14.16,5.21-21.83,5.56-3.1.15-5.82-.62-7.98-2.73ZM335.87,177.26c-3.29-4.58-5.1-9.83-6.94-15.05-1.51-4.28-2.82-8.62-4.3-12.91-.45-1.3-.99-2.63-1.81-3.71-1.8-2.38-4.26-2-4.98.86-.83,3.28-1.24,6.68-1.7,10.04-.58,4.24-1,8.51-1.52,12.76-.09.74-.3,1.48-.51,2.2-1.36,4.73-2.71,5.99-7.64,6.44-7.47.68-14.86.05-22.11-2-3.03-.86-3.6-1.29-3.59-4.42.01-5.03.02-10.12.7-15.09,2.57-18.88,5.88-37.62,12.66-55.54,1.1-2.92,1.03-5.35-1.44-7.51-2.05-1.8-2.6-4.19-2.5-6.85.25-6.58,1.24-13.05,3.06-19.37.42-1.44.97-2.88,1.67-4.2,1.77-3.36,4.68-5,8.42-4.58,4.88.54,9.74,1.3,14.57,2.17,4.96.89,9.89,1.95,14.81,3.07,8.89,2.01,11.75,5.27,12.8,14.39.3,2.63.6,5.27.67,7.91.11,4.66.03,9.32.03,14.82.27,5.72.5,12.27.93,18.8.12,1.85.57,3.76,1.27,5.49.78,1.95,2.73,2.07,3.74.26.98-1.74,1.72-3.66,2.25-5.59,2.44-8.74,4.68-17.54,7.19-26.25,1.5-5.2,3.31-10.32,5.06-15.44,1.62-4.74,4.93-6.93,10.02-7.01,7.42-.1,14.6.77,21.35,4.02,4.99,2.4,5.88,4.02,5.43,9.51-.62,7.61-2.78,14.87-5.16,22.04-6.09,18.32-13.29,36.22-21.92,53.49-3.03,6.05-6.93,11.69-10.6,17.41-2.84,4.42-7.08,6.37-12.31,5.8-3.87-.43-7.73-1.03-11.56-1.72-2.6-.47-4.46-2.08-6.01-4.24ZM440.61,167.17c-1.78,2.67-4.18,3.02-6.93,2.14-1.67-.54-3.22-1.42-4.87-2.05-3.06-1.15-6.09-2.44-9.25-3.25-3.22-.83-6.51.99-7.87,3.85-1.07,2.24-.77,3.66,1.61,4.53,3.53,1.29,7.19,2.31,10.85,3.18,4.9,1.16,9.87,2.03,14.79,3.12,1.44.3,2.8.92,4.55,1.52-.59,1.74-.94,3.18-1.56,4.5-3.03,6.43-7.13,12.15-11.84,17.46-1.56,1.75-3.33,2.62-5.65,2.29-4.36-.62-8.82-.83-13.05-1.94-9.14-2.37-18.18-5.12-27.21-7.89-2.5-.77-4.96-1.91-7.2-3.26-3.55-2.14-4.46-4.88-2.99-8.73,1.07-2.82,2.39-5.56,3.84-8.21,12.22-22.47,24.41-44.97,36.8-67.34,2.86-5.16,6.4-9.94,9.75-14.82,3.75-5.46,9.2-7.35,15.53-6.36,5.08.79,10.2,1.76,15.1,3.32,6.11,1.95,12.06,4.43,17.98,6.93,5.96,2.52,11.39,5.98,16.22,10.28,3.75,3.34,3.86,4.01,1.54,8.32-1.13,2.1-2.3,4.23-3.76,6.11-4.33,5.57-8.84,11-13.2,16.54-1.44,1.83-3.17,2.39-5.32,1.8-1.94-.54-3.89-1.08-5.79-1.75-6.42-2.26-12.81-4.58-19.23-6.86-1.66-.59-3.35-1.12-5.05-1.59-2.6-.71-4.72.04-6.25,2.3-.35.52-.71,1.04-1.03,1.58-2.88,4.86-2.01,7.37,3.41,9.01,4.33,1.31,8.79,2.21,13.16,3.41,1.76.49,3.43,1.28,5.44,2.05-.9,1.92-1.41,3.49-2.29,4.82-3.34,5.03-6.85,9.95-10.21,14.98Z" fill="#000" stroke-width="0"/><path d="M310.55,204.27c-.42-.77-.89-1.45-1.43-2.02l1.04-.65-1.61-2.93c-2.41-4.39-5.95-6.26-11.82-6.26-7.62,0-12.55,3.72-12.55,9.49,0,2.98.95,5.03,2.46,6.5l-4.51,3.53,2.07,2.78c3.29,4.42,7.23,5.3,12.53,5.3.25,0,.48,0,.72-.01,1.24.27,2.67.36,4.4.36,4.96,0,8.62-1.38,8.62-5.65,0-1.92-.47-3.33-1.59-4.42-.06-1.71-.43-3.13-1.04-4.3l2.72-1.71ZM305.34,210.8c0,4.26-3.66,5.65-8.62,5.65s-7.32-.71-9.68-3.87l4.61-3.61c.9,1.68,2.87,2.39,4.55,2.39s3.45-.19,3.45-.94-1.18-1.31-3.65-1.84c-6.15-1.32-8.29-2.67-8.29-6.68s3.64-5.94,9-5.94c5.07,0,7.13,1.55,8.71,4.42l-4.94,3.1c-.55-1.68-1.93-2.68-3.71-2.68-1.69,0-3,.65-3,1.43,0,1.01,1.74,1.13,3.42,1.47,6.08,1.24,8.13,3.04,8.13,7.11Z" fill="#000" stroke-width="0"/><path d="M208.98,192.83c-8.32,0-13.69,5.41-13.69,13.78s4.63,13.62,12.69,13.62c.6,0,1.18-.03,1.74-.08,1,.28,2.12.43,3.37.43,6.24,0,9.78-2.75,9.78-9.2,0-3.6-.58-6.31-1.89-8.16-1.11-6.89-5.12-10.39-12-10.39ZM198.84,206.61c0-6.36,3.81-10.23,10.14-10.23s8.78,3.68,8.78,11.1c0,6.45-3.54,9.2-9.78,9.2s-9.15-3.13-9.15-10.07Z" fill="#000" stroke-width="0"/><path d="M204.98,206.64c0,3.33,1.54,4.94,3.84,4.94,1.97,0,2.94-1.28,2.94-5,0-2.77-.32-5.03-2.58-5.03-2.65,0-4.2,1.81-4.2,5.1Z" fill="#000" stroke-width="0"/><path d="M265.61,197.5l.26-4.15-12.36,1.17v-.63s-13.26,1.15-13.26,1.15l.13,3.38c0,.07.28,7.35.29,12.43,0,5.95,4.88,9.79,12.42,9.79.5,0,.99-.02,1.47-.06,1.08.27,2.31.41,3.64.41,4.66,0,8.42-1.9,8.42-6.04,0-5.05.55-13.78.55-13.78l-1.79.17c.11-2.2.21-3.81.22-3.85ZM244.22,210.85c0-5.21-.29-12.57-.29-12.57l6-.52s-.06,6.9-.06,11.94c0,1.55.9,2.42,2.77,2.42,1.97,0,3.04-.71,3.04-2.26,0-5.04-.06-11.97-.06-11.97l6.46-.61s-.55,8.73-.55,13.78c0,4.14-3.76,6.04-8.42,6.04-5.35,0-8.87-2.22-8.87-6.24Z" fill="#000" stroke-width="0"/><path d="M350.44,207.79l-.69-.05v-.18s-1.59-.06-1.59-.06l.02-2.7h2.51s.68-4.94.68-4.94l-2.08.09,1.06-7.72-23.15,1.01,1.53,25.9,8.47.54v.02s13.65.87,13.65.87l.71-5.58-2.02-.13.9-7.06ZM332.09,215.79l-1.13-19.17,15.3-.67-.68,4.94-8.36.03-.03,2.45,7.45.29-.03,4.45-7.39-.29-.06,2.65,9.29.61-.71,5.58-13.65-.87Z" fill="#000" stroke-width="0"/><polygon points="165.84 196.15 166.09 204.25 160.9 204.64 160.8 196.08 154.57 196.86 155.48 215.81 161.09 216.49 161.03 209.29 166.23 209.13 166.94 215.68 172.71 215.93 171.94 195.63 165.84 196.15" fill="#a7ffb0" stroke-width="0"/><path d="M207.98,216.67c6.24,0,9.78-2.75,9.78-9.2,0-7.42-2.43-11.1-8.78-11.1s-10.14,3.87-10.14,10.23c0,6.94,3.2,10.07,9.15,10.07ZM209.17,201.53c2.26,0,2.58,2.26,2.58,5.03,0,3.73-.97,5-2.94,5-2.29,0-3.84-1.61-3.84-4.94s1.55-5.1,4.2-5.1Z" fill="#a7ffb0" stroke-width="0"/><path d="M253.1,217.09c4.66,0,8.42-1.9,8.42-6.04,0-5.05.55-13.78.55-13.78l-6.46.61s.06,6.93.06,11.97c0,1.55-1.06,2.26-3.04,2.26s-2.77-.87-2.77-2.42c0-5.03.06-11.94.06-11.94l-6,.52s.29,7.36.29,12.57c0,4.02,3.52,6.24,8.87,6.24Z" fill="#a7ffb0" stroke-width="0"/><path d="M297.21,203.69c-1.68-.34-3.42-.46-3.42-1.47,0-.77,1.31-1.42,3-1.43,1.78,0,3.16,1,3.71,2.68l4.94-3.1c-1.58-2.87-3.64-4.42-8.71-4.42-5.36,0-9,2.13-9,5.94,0,4.01,2.14,5.36,8.29,6.68,2.47.53,3.65,1.09,3.65,1.84s-1.81.94-3.45.94-3.65-.71-4.55-2.39l-4.61,3.61c2.36,3.16,4.93,3.87,9.68,3.87s8.62-1.38,8.62-5.65-2.06-5.87-8.13-7.11Z" fill="#a7ffb0" stroke-width="0"/><polygon points="346.45 211.08 337.16 210.47 337.22 207.82 344.61 208.12 344.65 203.66 337.19 203.37 337.23 200.92 345.58 200.89 346.26 195.96 330.96 196.62 332.09 215.79 345.74 216.66 346.45 211.08" fill="#a7ffb0" stroke-width="0"/></svg>