<?xml version="1.0" encoding="utf-8"?>
<!-- Generator: Adobe Illustrator 28.3.0, SVG Export Plug-In . SVG Version: 6.00 Build 0)  -->
<!DOCTYPE svg PUBLIC "-//W3C//DTD SVG 1.1//EN" "http://www.w3.org/Graphics/SVG/1.1/DTD/svg11.dtd" [
	<!ENTITY ns_extend "http://ns.adobe.com/Extensibility/1.0/">
	<!ENTITY ns_ai "http://ns.adobe.com/AdobeIllustrator/10.0/">
	<!ENTITY ns_graphs "http://ns.adobe.com/Graphs/1.0/">
	<!ENTITY ns_vars "http://ns.adobe.com/Variables/1.0/">
	<!ENTITY ns_imrep "http://ns.adobe.com/ImageReplacement/1.0/">
	<!ENTITY ns_sfw "http://ns.adobe.com/SaveForWeb/1.0/">
	<!ENTITY ns_custom "http://ns.adobe.com/GenericCustomNamespace/1.0/">
	<!ENTITY ns_adobe_xpath "http://ns.adobe.com/XPath/1.0/">
]>
<svg version="1.1" id="Calque_1"
	 xmlns="http://www.w3.org/2000/svg" xmlns:xlink="http://www.w3.org/1999/xlink" x="0px" y="0px" viewBox="0 0 464.9 205.7"
	 style="enable-background:new 0 0 464.9 205.7;" xml:space="preserve">
<style type="text/css">
	.st0{fill:#84CE88;}
	.st1{fill:none;}
	.st2{fill:#A4FFAD;}
	.st3{fill:#FA5057;}
	.st4{fill:#79B37E;}
	.st5{fill:#79AF7E;}
	.st6{fill:#694EAF;}
	.st7{fill:#554295;}
	.st8{fill:#8C65DC;}
	.st9{fill:#785ABF;}
	.st10{fill:#8AD290;}
	.st11{fill:#FFFFFF;}
	.st12{fill:#A7FFB0;}
</style>
<metadata>
	<sfw  xmlns="&ns_sfw;">
		<slices></slices>
		<sliceSourceBounds  bottomLeftOrigin="true" height="2634.9" width="2226.1" x="1674.8" y="-2927.8"></sliceSourceBounds>
		<optimizationSettings>
			<targetSettings  fileFormat="PNG24Format" targetSettingsID="0">
				<PNG24Format  filtered="false" interlaced="false" matteColor="#FFFFFF" noMatteColor="false" transparency="true">
					</PNG24Format>
			</targetSettings>
		</optimizationSettings>
	</sfw>
</metadata>
<g>
	<path class="st1" d="M255,93c-0.4-0.4-0.8-0.8-1.2-1.2c0.3,1.8,0.6,3.7,0.8,5.5c0.1,0,0.2,0,0.3,0.1c3.9,0.9,4,1.1,4.6,4.9
		c0,0,0,0.1,0,0.1c1.1-3.7,2.3-7.5,3.8-11.2c0,0,0-0.1,0-0.1c-0.3-0.3-0.5-0.5-0.7-0.8c-1,1-2.1,2-3.2,2.9
		C257.3,95.2,257,95.1,255,93z"/>
	<path class="st1" d="M205.2,138.4c-0.8-9.3-1.5-19.5-1.7-29.8c-0.7,6.6-3.4,12.6-8.1,18.1c-0.4,0.4-0.8,0.9-1.1,1.3
		c2.1,1.7,4.1,3.4,6.1,5.3C202.1,134.9,203.7,136.6,205.2,138.4z"/>
	<path class="st1" d="M203.3,101.1c0-1.4,0-2.7,0-4.1c0-2.4,0.1-4.6,0.3-6.6c0.2-2.7,0.9-4.7,2.1-6.2c-0.5-0.2-1-0.5-1.4-0.7
		c-2.1-0.9-4.2-1.8-6.3-2.7c-0.9-0.4-1.9-0.8-2.8-1.2c0.2,0.7,0.4,1.4,0.7,2.2c3.4,4.5,5.8,9.9,7,16.2
		C203.1,99.1,203.2,100.1,203.3,101.1z"/>
	<g>
		<path class="st11" d="M323.5,168.6c4.8,0.5,8.6-1.3,11.2-5.3c3.3-5.2,6.9-10.4,9.7-15.9c7.9-15.7,14.4-32.1,20-48.8
			c2.2-6.5,4.1-13.2,4.7-20.1c0.4-5-0.4-6.5-5-8.7c-6.2-3-12.7-3.8-19.5-3.7c-4.6,0.1-7.7,2.1-9.1,6.4c-1.6,4.7-3.2,9.3-4.6,14.1
			c-2.3,7.9-4.3,16-6.6,23.9c-0.5,1.8-1.2,3.5-2.1,5.1c-0.9,1.7-2.7,1.5-3.4-0.2c-0.6-1.6-1-3.3-1.2-5c-0.4-6-0.6-11.9-0.8-17.2
			c0-5,0.1-9.3,0-13.5c-0.1-2.4-0.3-4.8-0.6-7.2c-1-8.3-3.6-11.3-11.7-13.1c-4.5-1-9-2-13.5-2.8c-4.4-0.8-8.8-1.5-13.3-2
			c-3.4-0.4-6.1,1.1-7.7,4.2c-0.6,1.2-1.1,2.5-1.5,3.8c-1.7,5.8-2.6,11.7-2.8,17.7c-0.1,2.4,0.4,4.6,2.3,6.2c2.3,2,2.3,4.2,1.3,6.9
			c-6.2,16.3-9.2,33.4-11.5,50.7c-0.6,4.5-0.6,9.2-0.6,13.8c0,2.9,0.5,3.3,3.3,4c6.6,1.9,13.3,2.4,20.2,1.8c4.5-0.4,5.7-1.6,7-5.9
			c0.2-0.7,0.4-1.3,0.5-2c0.5-3.9,0.9-7.8,1.4-11.6c0.4-3.1,0.8-6.2,1.6-9.2c0.7-2.6,2.9-3,4.5-0.8c0.7,1,1.2,2.2,1.6,3.4
			c1.4,3.9,2.6,7.9,3.9,11.8c1.7,4.8,3.3,9.5,6.3,13.7c1.4,2,3.1,3.4,5.5,3.9C316.4,167.7,319.9,168.2,323.5,168.6z"/>
		<path class="st11" d="M184.7,161.8c7-0.3,13.6-2.1,19.9-5.1c0.9-0.4,1.7-1.1,3-1.9c-1.1-2.4-1.8-4.9-3.2-6.9
			c-2.6-3.5-5.2-7-8.4-10c-4.6-4.3-9.7-8.1-14.6-12.1c-0.7-0.6-1.5-1.1-2.2-1.7c-1.1-0.9-1.2-1.9-0.3-3c1.4-1.7,2.8-3.3,4.3-5
			c7.1-8.3,9.6-17.7,7.5-28.6c-3.1-16-13.6-26.6-29.6-29.8c-6.5-1.3-13-1.8-19.6-1.2c-10.1,0.8-20.1,2-30.2,3.2
			c-5.7,0.7-11.4,1.6-17,2.9c-7.3,1.7-9.5,5.3-8.1,12.6c1.3,7,4.3,13.3,8.6,19c1.3,1.8,3.3,3.3,5.3,4.3c2.1,1,3.5,2.4,4.3,4.6
			c1.3,3.4,2.7,6.8,4.1,10.2c6.4,14.8,12.7,29.5,19.2,44.3c1.2,2.7,2.9,5.2,4.4,7.8c0.8,1.3,1.9,1.8,3.5,1.8
			c7.3-0.1,14.4-1.5,21.2-4.1c1.6-0.6,2.2-1.7,1.9-3.2c-0.4-2-0.7-4.1-1.4-6c-1.6-4.2-3.4-8.3-5.1-12.4c-0.6-1.4-1.6-2.8-0.9-4.5
			c1.4-1.1,2.7-0.5,3.9,0.2c2.1,1.4,4.3,2.8,6.1,4.5c2.8,2.8,5.3,6,8,9c2.6,2.9,5.3,5.8,8.1,8.5C179.4,161.3,181.9,162,184.7,161.8z
			 M157.2,106.1c-2.9,4.3-6.9,7-12.2,7.6c-3.3,0.4-6.1-0.6-7.5-3.7c-1.6-3.8-3.1-7.7-4-11.7c-0.9-3.6,0.6-5.3,4.2-6.2
			c1.8-0.4,3.6-0.6,4.5-0.7c4.4,0.1,7.8,0.9,10.8,2.8c2.1,1.3,3.7,3.1,4.7,5.4C158.6,101.8,158.6,104,157.2,106.1z"/>
		<path class="st11" d="M57.7,177.4c9.1,4.6,18.7,6.3,28.8,4.4c7.2-1.4,14.1-3.6,20.1-7.8c7.1-5,10.4-11.8,8.3-20.4
			c-3.5-14.2-11.4-25.9-22-36c-0.2-0.2-0.4-0.3-0.6-0.4c-2.2-1.6-4.6-2.4-7.4-2.5c-9-0.1-16.9,2.9-23.8,8.6
			c-1.4,1.2-2.6,2.6-3.7,4.1c-2.1,2.9-2.4,5.8-0.4,9c2.3,3.8,5.3,7,8.7,9.7c3.4,2.8,4.1,2.7,7.3-0.2c1.1-1,2.3-2,3.6-2.6
			c2.4-1.1,4.3-0.8,5.4,0.6c1.3,1.6,1.3,4.1-0.2,6.1c-0.8,1-1.7,2-2.8,2.6c-2,1.1-4.1,2.1-6.2,2.9c-3,1.2-5.8,0.8-8.7-0.7
			c-3.1-1.6-5.7-3.9-7.8-6.6c-3.1-4-6-8.2-8.8-12.3c-0.9-1.3-1.6-2.8-2.2-4.3c-2.2-5.9-0.6-10.8,4.9-13.8c2.9-1.6,6.1-2.8,9.3-3.7
			c4.2-1.2,8.5-1.8,12.8-2.8c2.3-0.5,4.6-1.4,7.1-2.2c-0.3-1.3-0.4-2-0.6-2.7c-3.1-9.3-7.8-17.6-14.2-25c-2.9-3.3-6.3-4.7-10.7-4.2
			c-11.1,1.1-21.7,4.4-31.5,9.6c-9.1,4.9-13.3,13-13.3,23.3c0,6.4,1.7,12.5,4.4,18.3c8.1,17.4,20.2,31.7,35.3,43.5
			C51.5,174.1,54.6,175.8,57.7,177.4z"/>
		<path class="st11" d="M414.4,135.9c-1.8-0.7-3.4-1.4-5-1.9c-4-1.1-8-1.9-12-3.1c-4.9-1.5-5.7-3.8-3.1-8.2c0.3-0.5,0.6-1,0.9-1.4
			c1.4-2.1,3.3-2.8,5.7-2.1c1.6,0.4,3.1,0.9,4.6,1.4c5.9,2.1,11.7,4.2,17.5,6.3c1.7,0.6,3.5,1.1,5.3,1.6c2,0.5,3.5,0,4.9-1.6
			c4-5.1,8.1-10,12-15.1c1.3-1.7,2.4-3.7,3.4-5.6c2.1-3.9,2-4.5-1.4-7.6c-4.4-3.9-9.4-7.1-14.8-9.4c-5.4-2.3-10.8-4.5-16.4-6.3
			c-4.5-1.4-9.1-2.3-13.8-3c-5.8-0.9-10.7,0.8-14.2,5.8c-3.1,4.4-6.3,8.8-8.9,13.5c-11.3,20.4-22.4,40.9-33.6,61.4
			c-1.3,2.4-2.5,4.9-3.5,7.5c-1.3,3.5-0.5,6,2.7,8c2,1.2,4.3,2.3,6.6,3c8.2,2.5,16.5,5,24.8,7.2c3.9,1,7.9,1.2,11.9,1.8
			c2.1,0.3,3.7-0.5,5.2-2.1c4.3-4.8,8-10.1,10.8-15.9c0.6-1.2,0.9-2.5,1.4-4.1c-1.6-0.6-2.8-1.1-4.1-1.4c-4.5-1-9-1.8-13.5-2.8
			c-3.3-0.8-6.7-1.7-9.9-2.9c-2.2-0.8-2.4-2.1-1.5-4.1c1.2-2.6,4.2-4.3,7.2-3.5c2.9,0.7,5.6,1.9,8.4,3c1.5,0.6,2.9,1.4,4.4,1.9
			c2.5,0.8,4.7,0.5,6.3-1.9c3.1-4.6,6.3-9.1,9.3-13.7C413.1,139.1,413.5,137.7,414.4,135.9z"/>
		<path class="st11" d="M193.3,71.7c0.9,0.5,1.8,1,2.8,1.4c3.6,1.5,7.2,3,10.8,4.5c2.2,1,4.3,2.1,6.5,3.1c2.4,1.1,3.4,0.8,5.1-1.3
			c1.6-1.9,3.1-4,4.7-5.9c1.6-1.9,3.2-3.9,4.8-5.9c0.7,0.6,1.2,0.9,1.6,1.3c4.4,4.5,8.8,9,13.2,13.6c2,2.1,2.3,2.2,4.4,0.2
			c2-1.9,4.1-3.7,6-5.7c3.3-3.3,6.6-6.7,9.9-10.1c1.4-1.4,1.4-2.8,0.3-4.3c-0.5-0.7-1.1-1.5-1.7-2.2c-3.5-3.8-7-7.6-10.5-11.4
			c-1.7-1.8-3.4-3.6-5.2-5.5c0.8-1.3,1.5-2.3,2.2-3.4c2.7-4,5.5-7.9,8.2-12c2.2-3.3,1.8-4.8-1.6-6.7c-7.2-4-14.5-7.9-21.9-11.7
			c-2.7-1.4-3.3-1.1-5.1,1.5c-1.7,2.5-3.3,4.9-5.1,7.7c-1-1-1.8-1.8-2.6-2.6c-1.4-1.4-2.7-2.8-4.1-4.2c-1.7-1.8-3.7-2.2-6-1.1
			c-1.7,0.9-3.5,1.8-5,2.9c-4.7,3.3-9.3,6.8-13.9,10.2c-0.6,0.4-1.1,0.8-1.6,1.2c-1.8,1.6-1.8,2.3-0.3,4c0.7,0.8,1.5,1.4,2.2,2.2
			c4.6,4.9,9.3,9.9,14.2,15.1c0.1-0.2,0,0.2-0.3,0.6c-3.7,6-7.3,11.9-11,17.9c-0.6,1-1.3,1.9-1.9,2.9
			C191.6,69.7,191.8,70.9,193.3,71.7z"/>
		<path class="st11" d="M251,154.7c0-6.5,0-13.1,0-19.6c-0.7-14.5-1.3-28.9-3.6-43.2c-0.6-3.8-0.7-4-4.6-4.9c-1-0.2-2-0.4-3-0.6
			c-6.5-1-13.1-0.8-19.6-0.2c-2.3,0.2-4.6,0.6-6.8,1.1c-2.7,0.6-3,1-3.2,3.7c-0.2,2.1-0.3,4.1-0.3,6.2c-0.2,16.3,1,32.6,2.5,48.8
			c0.4,3.9,1,7.7,1.7,11.6c0.3,1.9,1.3,3.1,3.3,3.5c9.7,1.9,19.4,2.1,29-0.3C250.5,159.7,250.9,159.1,251,154.7z"/>
	</g>
	<g>
		<path d="M153,94.1c-3-1.9-6.3-2.7-10.8-2.8c-0.9,0.1-2.8,0.3-4.5,0.7c-3.6,0.9-5.1,2.7-4.2,6.2c0.9,4,2.4,7.9,4,11.7
			c1.3,3.1,4.2,4.1,7.5,3.7c5.2-0.6,9.2-3.3,12.2-7.6c1.4-2.1,1.5-4.3,0.5-6.6C156.7,97.2,155.1,95.4,153,94.1z"/>
		<g>
			<path d="M459.5,109c-1.2-1-2.4-2-3.6-3c1.7-4.7,0.4-8.1-4.3-12.3c-5-4.4-10.5-8-16.6-10.5c-6.2-2.6-11.3-4.7-17-6.5
				c-5.3-1.7-10.6-2.6-14.7-3.3c-1.3-0.2-2.6-0.3-3.8-0.3c-6.9,0-12.7,3.1-16.7,8.8c-0.6,0.8-1.2,1.7-1.8,2.5
				c-0.6-1.8-1.9-2.9-4.7-4.2c-0.3-0.1-0.6-0.3-0.9-0.4c0-0.3,0.1-0.6,0.1-0.8c0.6-7.7-1.6-11.7-8.6-15c-6.1-2.9-12.9-4.3-21.2-4.3
				c-0.4,0-0.8,0-1.1,0c-7.4,0.1-12.8,3.9-15.2,10.8l-0.7,2.1c-0.5,1.5-1,3-1.5,4.5c-0.9-2.3-2.3-4-4.4-5.2c0,0,0-0.1,0-0.1
				c-1.3-11-5.9-16.3-16.7-18.7c-5.5-1.3-9.8-2.1-13.8-2.9c-5-0.9-9.5-1.6-13.7-2c-0.6-0.1-1.2-0.1-1.7-0.1c-4.8,0-9,2.3-11.6,6.4
				c-1.4-1.5-2.8-3-4.2-4.5c2.6-3.8,5.3-7.5,7.7-11.4c2.2-3.3,1.8-4.8-1.6-6.7c-1.3-0.7-2.7-1.5-4-2.2c1-2,1.7-4.4,1-7
				c-1-4.1-4.7-6.1-6-6.9c-6.5-3.6-13.5-7.3-22-11.8c-1.6-0.8-3.3-1.6-5.4-1.6c-4.6,0-6.9,3.5-8.1,5.1c-0.3,0.4-0.5,0.8-0.8,1.2
				c-0.4-0.4-0.7-0.7-1.1-1.1c-3-3-6.1-3.7-8.2-3.7c-1.8,0-3.6,0.5-5.3,1.4c-1.7,0.9-3.8,2-5.8,3.4c-3.5,2.5-7,5.1-10.4,7.6
				l-3.5,2.6l-0.3,0.2c-0.5,0.4-1.1,0.8-1.8,1.4c-0.9,0.8-3.4,3-3.5,6.5c-0.2,3.5,2,5.8,2.8,6.7c0.6,0.6,1.1,1.2,1.6,1.6
				c0.2,0.2,0.5,0.4,0.7,0.7c3.4,3.6,6.7,7.2,10.2,10.9l0.6,0.7c-2.9,4.7-5.8,9.5-8.8,14.2c-0.2,0.4-0.5,0.8-0.7,1.2
				c-0.4,0.6-0.8,1.2-1.1,1.8c0,0.1-0.1,0.1-0.1,0.2c-6.1-6.9-14.4-11.6-24.5-13.5c-5.3-1.1-10.6-1.6-15.6-1.6
				c-1.9,0-3.9,0.1-5.8,0.2c-11.2,0.9-22.1,2.2-30.4,3.3c-6.8,0.9-12.4,1.8-17.6,3c-10.6,2.5-15,9.2-13,20.1
				c1.4,7.6,4.7,14.9,9.7,21.7c1.9,2.5,4.6,4.7,7.6,6.2c0.9,0.4,1,0.7,1.1,1.1c1.5,3.8,2.9,7.3,4.2,10.5l1.4,3.2
				c0.2,0.4,0.4,0.9,0.6,1.3c-2.2-2.6-4.6-5.1-7.2-7.6c-0.5-0.5-0.9-0.8-1.2-1c-2.6-1.9-5.4-3.1-8.5-3.5c-1.1-2.3-2.3-4.4-3.6-6.6
				c-3.4-9.1-8.3-17.3-14.6-24.6c-3.8-4.3-8.5-6.5-14-6.5c-0.7,0-1.5,0-2.2,0.1c-11.9,1.2-23.3,4.7-33.9,10.3
				c-11,5.9-16.8,15.9-16.8,29c0,6.9,1.6,13.8,5,21c8.2,17.7,20.8,33.1,37.2,45.9c2.7,2.1,5.9,4,9.9,6.1c5.4,2.7,10.9,4.5,16.5,5.3
				c8.7,4.1,17.8,5.5,27.4,3.7c7.2-1.4,14.1-3.6,20.1-7.8c5.3-3.7,8.4-8.5,8.8-14.2c1.9,2.3,4.8,3.7,8,3.7h0.1
				c2.4,0,4.7-0.2,7.1-0.5c0.5,0.9,1.1,1.7,1.6,2.6c0.4,0.6,0.8,1.1,1.4,1.4l-7.1,0.9l1.1,23l11.5,1.4l0-0.3l1.4,0.2l0-1.1l5.3,0.2
				l0,0.1l5.3,0.2l-0.7-18.5l-1.3,0.1l-0.3-7.2l-1.9,0.2c3.4-0.7,6.7-1.6,9.9-2.9c1.6-0.6,2.2-1.7,1.9-3.2c-0.4-2-0.7-4.1-1.4-6
				c-0.9-2.3-1.8-4.6-2.7-6.8c1.9,2.1,3.9,4.2,6.1,6.3c2.9,2.8,6.8,4.3,11.1,4.3c0.3,0,0.6,0,1,0c1,0,2-0.1,3-0.2
				c0.6,0.6,1.1,1.1,1.7,1.7c2,1.9,4.4,2.6,7.3,2.5c6.8-0.3,13.2-2,19.4-4.8c3.4,0.7,6.8,1.1,10.1,1.3c0.4,1.4,1.4,2.4,3.1,2.7
				c9.7,1.9,19.4,2.1,29-0.3c2.3-0.6,3.4-1,4-2c2.3,0.5,4.6,0.8,7,1.1c0.3,1.2,1.1,1.6,3.1,2.2c6.6,1.9,13.3,2.4,20.2,1.8
				c4.5-0.4,5.7-1.6,7-5.9c0.2-0.7,0.4-1.3,0.5-2c0.1-0.7,0.2-1.3,0.2-2c0.5,0.9,1.1,1.8,1.7,2.6c2.6,3.6,5.8,5.8,9.6,6.5
				c3.3,0.6,6.1,1,8.8,1.4c1.2,1.4,2.7,2.3,4.5,2.7c3.5,0.6,7,1.2,10.5,1.6c0.9,0.1,1.9,0.1,2.7,0c0.9,0.9,1.9,1.8,3.2,2.5
				c2.6,1.6,5.3,2.8,8,3.6c4.5,1.4,9.4,2.9,14.5,4.3c8.1,2.5,16.2,4.9,24.4,7.1c3.9,1,7.9,1.2,11.9,1.8c2.1,0.3,3.7-0.5,5.2-2.1
				c4.3-4.8,8-10.1,10.8-15.9c0.6-1.2,0.9-2.5,1.4-4.1c-1.6-0.5-2.8-1.1-4.1-1.4c-1.4-0.3-2.8-0.6-4.2-0.9c0.2-0.4,0.4-0.8,0.6-1.3
				c0.6-1.2,0.9-2.4,1.3-3.5c0.1-0.4,0.3-0.8,0.4-1.3l0.5-1.3c1.1-0.3,2.1-0.9,3-2.2c3.1-4.6,6.3-9.1,9.3-13.7
				c0.8-1.2,1.3-2.6,2.1-4.4c-1.8-0.7-3.4-1.4-5-1.9c-1.2-0.3-2.5-0.6-3.7-1c0.7-1.2,1.2-2.3,1.7-3.4c0.2-0.5,0.4-0.9,0.6-1.5
				l2.4-5.1c1.3,0.4,2.7,0.8,4,1.2c0.8,0.2,1.7,0.3,2.5,0.4c2,0.7,4.1,1.5,6.1,2.2c1.7,0.6,3.5,1.1,5.3,1.6c2,0.5,3.5,0,4.9-1.6
				c4-5.1,8.1-10,12-15.1c1.3-1.7,2.4-3.7,3.4-5.6C463,112.6,462.9,112,459.5,109z M263.4,91.1c0,0,0,0.1,0,0.1
				c-1.4,3.7-2.6,7.5-3.8,11.2c0,0,0-0.1,0-0.1c-0.6-3.8-0.7-4-4.6-4.9c-0.1,0-0.2,0-0.3-0.1c-0.2-1.8-0.5-3.7-0.8-5.5
				c0.4,0.4,0.8,0.8,1.2,1.2c2,2.1,2.3,2.2,4.4,0.2c1.1-1,2.1-1.9,3.2-2.9C262.9,90.6,263.1,90.8,263.4,91.1z M217.3,161
				c-2-0.4-3-1.6-3.3-3.5c-0.6-3.9-1.3-7.7-1.7-11.6c-1.5-16.2-2.8-32.5-2.5-48.8c0-2.1,0.1-4.1,0.3-6.2c0.2-2.7,0.5-3.1,3.2-3.7
				c2.2-0.5,4.5-0.9,6.8-1.1c6.5-0.6,13.1-0.8,19.6,0.2c1,0.2,2,0.3,3,0.6c3.9,0.9,4,1.1,4.6,4.9c2.3,14.3,2.9,28.8,3.6,43.2
				c0,6.5,0,13.1,0,19.6c0,4.3-0.4,4.9-4.6,6C236.7,163.1,227,162.9,217.3,161z M195.3,79.7c0.9,0.4,1.9,0.8,2.8,1.2
				c2.1,0.9,4.2,1.7,6.3,2.7c0.5,0.2,0.9,0.4,1.4,0.7c-1.2,1.5-1.9,3.5-2.1,6.2c-0.2,2.1-0.3,4.2-0.3,6.6c0,1.4,0,2.7,0,4.1
				c-0.1-1-0.3-2-0.5-3c-1.2-6.3-3.6-11.7-7-16.2C195.7,81.2,195.5,80.4,195.3,79.7z M195.4,126.7c4.7-5.5,7.4-11.5,8.1-18.1
				c0.2,10.4,0.9,20.5,1.7,29.8c-1.5-1.8-3.1-3.6-4.8-5.2c-2-1.9-4.1-3.6-6.1-5.3C194.6,127.5,195,127.1,195.4,126.7z M192.4,68.3
				c0.6-1,1.2-1.9,1.9-2.9c3.7-6,7.4-11.9,11-17.9c0.2-0.4,0.3-0.8,0.3-0.6c-4.9-5.2-9.5-10.1-14.2-15.1c-0.7-0.8-1.5-1.4-2.2-2.2
				c-1.5-1.7-1.5-2.4,0.3-4c0.5-0.5,1.1-0.8,1.6-1.2c4.6-3.4,9.2-6.9,13.9-10.2c1.6-1.1,3.3-2,5-2.9c2.2-1.2,4.2-0.7,6,1.1
				c1.4,1.4,2.7,2.8,4.1,4.2c0.8,0.8,1.6,1.6,2.6,2.6c1.8-2.7,3.4-5.2,5.1-7.7c1.8-2.6,2.4-2.9,5.1-1.5c7.3,3.8,14.6,7.7,21.9,11.7
				c3.4,1.9,3.8,3.3,1.6,6.7c-2.6,4.1-5.4,8-8.2,12c-0.7,1-1.4,2.1-2.2,3.4c1.8,1.9,3.5,3.7,5.2,5.5c3.5,3.8,7,7.6,10.5,11.4
				c0.6,0.7,1.2,1.4,1.7,2.2c1.1,1.5,1.1,2.9-0.3,4.3c-3.3,3.3-6.6,6.8-9.9,10.1c-1.9,2-4,3.8-6,5.7c-2.2,1.9-2.4,1.8-4.4-0.2
				c-4.4-4.6-8.8-9.1-13.2-13.6c-0.4-0.4-0.9-0.7-1.6-1.3c-1.6,2-3.2,3.9-4.8,5.9c-1.6,2-3.1,4-4.7,5.9c-1.7,2.1-2.6,2.3-5.1,1.3
				c-2.2-1-4.3-2.1-6.5-3.1c-3.6-1.6-7.2-3-10.8-4.5c-1-0.4-1.9-0.9-2.8-1.4C191.8,70.9,191.6,69.7,192.4,68.3z M13.5,128.5
				c-2.7-5.8-4.4-11.9-4.4-18.3c0-10.3,4.2-18.4,13.3-23.3c9.8-5.2,20.3-8.5,31.5-9.6c4.4-0.4,7.8,0.9,10.7,4.2
				c6.4,7.4,11.1,15.7,14.2,25c0.2,0.6,0.3,1.3,0.6,2.7c-2.6,0.8-4.8,1.6-7.1,2.2c-4.3,1-8.6,1.6-12.8,2.8c-3.2,0.9-6.4,2.1-9.3,3.7
				c-5.5,3-7.1,7.9-4.9,13.8c0.6,1.5,1.3,3,2.2,4.3c2.9,4.2,5.8,8.3,8.8,12.3c2.1,2.8,4.7,5,7.8,6.6c2.8,1.4,5.7,1.8,8.7,0.7
				c2.1-0.9,4.2-1.8,6.2-2.9c1.1-0.6,2-1.6,2.8-2.6c1.5-2,1.6-4.5,0.2-6.1c-1.1-1.4-3-1.7-5.4-0.6c-1.3,0.6-2.5,1.6-3.6,2.6
				c-3.2,2.9-3.9,2.9-7.3,0.2c-3.4-2.8-6.4-6-8.7-9.7c-1.9-3.2-1.7-6.1,0.4-9c1.1-1.5,2.3-2.9,3.7-4.1c6.9-5.7,14.8-8.7,23.8-8.6
				c2.8,0,5.2,0.8,7.4,2.5c0.2,0.1,0.4,0.3,0.6,0.4c10.5,10,18.4,21.8,22,36c2.1,8.5-1.2,15.4-8.3,20.4c-6,4.2-12.9,6.4-20.1,7.8
				c-10.1,1.9-19.7,0.2-28.8-4.4c-3.1-1.5-6.1-3.3-8.8-5.4C33.7,160.3,21.6,145.9,13.5,128.5z M158.6,198.4l-5.3-0.2l-0.6-6
				l-4.7,0.1l0.1,6.6l-5.1-0.6l-0.8-17.3l5.7-0.7l0.1,7.8l4.7-0.4l-0.2-7.4l5.6-0.5L158.6,198.4z M177.4,159.4
				c-2.8-2.7-5.4-5.6-8.1-8.5c-2.7-3-5.2-6.2-8-9c-1.8-1.8-4-3.1-6.1-4.5c-1.1-0.8-2.5-1.3-3.9-0.2c-0.7,1.7,0.3,3.1,0.9,4.5
				c1.7,4.2,3.5,8.3,5.1,12.4c0.7,1.9,1,4,1.4,6c0.3,1.5-0.3,2.6-1.9,3.2c-6.9,2.6-13.9,4-21.2,4.1c-1.5,0-2.7-0.6-3.5-1.8
				c-1.5-2.6-3.2-5.1-4.4-7.8c-6.5-14.7-12.8-29.5-19.2-44.3c-1.5-3.4-2.8-6.8-4.1-10.2c-0.8-2.2-2.2-3.5-4.3-4.6
				c-2-1-4-2.5-5.3-4.3c-4.2-5.7-7.3-12-8.6-19c-1.3-7.3,0.8-10.9,8.1-12.6c5.6-1.3,11.3-2.2,17-2.9c10-1.3,20.1-2.4,30.2-3.2
				c6.5-0.5,13.1,0,19.6,1.2c16,3.2,26.5,13.8,29.6,29.8c2.1,10.8-0.4,20.3-7.5,28.6c-1.4,1.7-2.9,3.3-4.3,5c-0.9,1.1-0.8,2.1,0.3,3
				c0.7,0.6,1.5,1.1,2.2,1.7c4.9,4,10,7.8,14.6,12.1c3.2,2.9,5.9,6.5,8.4,10c1.4,2,2.1,4.5,3.2,6.9c-1.2,0.8-2,1.5-3,1.9
				c-6.3,3-12.9,4.7-19.9,5.1C181.9,162,179.4,161.3,177.4,159.4z M307.4,163.2c-3-4.2-4.7-9-6.3-13.7c-1.4-3.9-2.6-7.9-3.9-11.8
				c-0.4-1.2-0.9-2.4-1.6-3.4c-1.6-2.2-3.9-1.8-4.5,0.8c-0.8,3-1.1,6.1-1.6,9.2c-0.5,3.9-0.9,7.8-1.4,11.6c-0.1,0.7-0.3,1.4-0.5,2
				c-1.2,4.3-2.5,5.5-7,5.9c-6.8,0.6-13.6,0-20.2-1.8c-2.8-0.8-3.3-1.2-3.3-4c0-4.6,0-9.2,0.6-13.8c2.3-17.2,5.4-34.3,11.5-50.7
				c1-2.7,0.9-4.9-1.3-6.9c-1.9-1.6-2.4-3.8-2.3-6.2c0.2-6,1.1-11.9,2.8-17.7c0.4-1.3,0.9-2.6,1.5-3.8c1.6-3.1,4.3-4.6,7.7-4.2
				c4.4,0.5,8.9,1.2,13.3,2c4.5,0.8,9,1.8,13.5,2.8c8.1,1.8,10.7,4.8,11.7,13.1c0.3,2.4,0.6,4.8,0.6,7.2c0.1,4.2,0,8.5,0,13.5
				c0.2,5.2,0.5,11.2,0.8,17.2c0.1,1.7,0.5,3.4,1.2,5c0.7,1.8,2.5,1.9,3.4,0.2c0.9-1.6,1.6-3.3,2.1-5.1c2.2-8,4.3-16,6.6-23.9
				c1.4-4.7,3-9.4,4.6-14.1c1.5-4.3,4.5-6.3,9.1-6.4c6.8-0.1,13.3,0.7,19.5,3.7c4.6,2.2,5.4,3.7,5,8.7c-0.6,6.9-2.5,13.6-4.7,20.1
				c-5.6,16.7-12.1,33-20,48.8c-2.8,5.5-6.3,10.7-9.7,15.9c-2.6,4-6.5,5.8-11.2,5.3c-3.5-0.4-7.1-0.9-10.5-1.6
				C310.5,166.6,308.9,165.1,307.4,163.2z M403,154c-1.6,2.4-3.8,2.8-6.3,1.9c-1.5-0.5-2.9-1.3-4.4-1.9c-2.8-1-5.6-2.2-8.4-3
				c-2.9-0.8-5.9,0.9-7.2,3.5c-1,2-0.7,3.3,1.5,4.1c3.2,1.2,6.6,2.1,9.9,2.9c4.5,1.1,9,1.9,13.5,2.8c1.3,0.3,2.6,0.8,4.1,1.4
				c-0.5,1.6-0.9,2.9-1.4,4.1c-2.8,5.9-6.5,11.1-10.8,15.9c-1.4,1.6-3,2.4-5.2,2.1c-4-0.6-8-0.8-11.9-1.8
				c-8.3-2.2-16.6-4.7-24.8-7.2c-2.3-0.7-4.5-1.7-6.6-3c-3.2-2-4.1-4.4-2.7-8c1-2.6,2.2-5.1,3.5-7.5c11.1-20.5,22.3-41,33.6-61.4
				c2.6-4.7,5.8-9.1,8.9-13.5c3.4-5,8.4-6.7,14.2-5.8c4.6,0.7,9.3,1.6,13.8,3c5.6,1.8,11,4,16.4,6.3c5.4,2.3,10.4,5.5,14.8,9.4
				c3.4,3,3.5,3.7,1.4,7.6c-1,1.9-2.1,3.9-3.4,5.6c-3.9,5.1-8.1,10-12,15.1c-1.3,1.7-2.9,2.2-4.9,1.6c-1.8-0.5-3.5-1-5.3-1.6
				c-5.9-2.1-11.7-4.2-17.5-6.3c-1.5-0.5-3.1-1-4.6-1.4c-2.4-0.6-4.3,0-5.7,2.1c-0.3,0.5-0.6,1-0.9,1.4c-2.6,4.4-1.8,6.7,3.1,8.2
				c4,1.2,8,2,12,3.1c1.6,0.4,3.1,1.2,5,1.9c-0.8,1.7-1.3,3.2-2.1,4.4C409.2,144.9,406,149.4,403,154z"/>
			<path d="M284.3,187.8c-0.4-0.7-0.8-1.3-1.3-1.8l0.9-0.6l-1.5-2.7c-2.2-4-5.4-5.7-10.8-5.7c-7,0-11.4,3.4-11.4,8.7
				c0,2.7,0.9,4.6,2.2,5.9l-4.1,3.2l1.9,2.5c3,4,6.6,4.8,11.4,4.8c0.2,0,0.4,0,0.6,0c1.1,0.3,2.5,0.3,4.1,0.3c4.5,0,7.9-1.3,7.9-5.1
				c0-1.8-0.4-3-1.4-4c-0.1-1.6-0.4-2.9-0.9-3.9L284.3,187.8z M279.6,193.8c0,3.9-3.3,5.1-7.9,5.1c-4.3,0-6.7-0.6-8.8-3.5l4.2-3.3
				c0.8,1.5,2.6,2.2,4.1,2.2c1.5,0,3.2-0.2,3.2-0.9c0-0.7-1.1-1.2-3.3-1.7c-5.6-1.2-7.6-2.4-7.6-6.1c0-3.5,3.3-5.4,8.2-5.4
				c4.6,0,6.5,1.4,7.9,4l-4.5,2.8c-0.5-1.5-1.8-2.4-3.4-2.4c-1.5,0-2.7,0.6-2.7,1.3c0,0.9,1.6,1,3.1,1.3
				C277.7,188.4,279.6,190,279.6,193.8z"/>
			<path d="M191.7,177.4c-7.6,0-12.5,4.9-12.5,12.6c0,7.9,4.2,12.4,11.6,12.4c0.5,0,1.1,0,1.6-0.1c0.9,0.3,1.9,0.4,3.1,0.4
				c5.7,0,8.9-2.5,8.9-8.4c0-3.3-0.5-5.8-1.7-7.4C201.7,180.6,198,177.4,191.7,177.4z M182.5,189.9c0-5.8,3.5-9.3,9.2-9.3
				c5.8,0,8,3.4,8,10.1c0,5.9-3.2,8.4-8.9,8.4C185.4,199.1,182.5,196.3,182.5,189.9z"/>
			<path d="M188.1,190c0,3,1.4,4.5,3.5,4.5c1.8,0,2.7-1.2,2.7-4.6c0-2.5-0.3-4.6-2.4-4.6C189.5,185.3,188.1,187,188.1,190z"/>
			<path d="M243.4,181.6l0.2-3.8l-11.3,1.1l0-0.6l-12.1,1l0.1,3.1c0,0.1,0.3,6.7,0.3,11.3c0,5.4,4.4,8.9,11.3,8.9
				c0.5,0,0.9,0,1.3-0.1c1,0.2,2.1,0.4,3.3,0.4c4.3,0,7.7-1.7,7.7-5.5c0-4.6,0.5-12.6,0.5-12.6l-1.6,0.2
				C243.3,183.1,243.4,181.7,243.4,181.6z M223.9,193.8c0-4.7-0.3-11.5-0.3-11.5l5.5-0.5c0,0-0.1,6.3-0.1,10.9
				c0,1.4,0.8,2.2,2.5,2.2c1.8,0,2.8-0.6,2.8-2.1c0-4.6-0.1-10.9-0.1-10.9l5.9-0.6c0,0-0.5,8-0.5,12.6c0,3.8-3.4,5.5-7.7,5.5
				C227.1,199.5,223.9,197.5,223.9,193.8z"/>
			<path d="M320.7,191l-0.6,0l0-0.2l-1.5-0.1l0-2.5l2.3,0l0.6-4.5l-1.9,0.1l1-7l-21.1,0.9l1.4,23.6l7.7,0.5l0,0l12.4,0.8l0.6-5.1
				l-1.8-0.1L320.7,191z M304,198.3l-1-17.5l14-0.6l-0.6,4.5l-7.6,0l0,2.2l6.8,0.3l0,4.1l-6.7-0.3l-0.1,2.4l8.5,0.6l-0.6,5.1
				L304,198.3z"/>
		</g>
	</g>
	<g>
		<polygon class="st12" points="152.4,180.4 152.6,187.8 147.9,188.1 147.8,180.3 142.1,181 142.9,198.3 148,198.9 148,192.4 
			152.7,192.2 153.4,198.2 158.6,198.4 157.9,179.9 		"/>
		<path class="st12" d="M190.8,199.1c5.7,0,8.9-2.5,8.9-8.4c0-6.8-2.2-10.1-8-10.1c-5.8,0-9.2,3.5-9.2,9.3
			C182.5,196.3,185.4,199.1,190.8,199.1z M191.9,185.3c2.1,0,2.4,2.1,2.4,4.6c0,3.4-0.9,4.6-2.7,4.6c-2.1,0-3.5-1.5-3.5-4.5
			C188.1,187,189.5,185.3,191.9,185.3z"/>
		<path class="st12" d="M232,199.5c4.3,0,7.7-1.7,7.7-5.5c0-4.6,0.5-12.6,0.5-12.6l-5.9,0.6c0,0,0.1,6.3,0.1,10.9
			c0,1.4-1,2.1-2.8,2.1c-1.7,0-2.5-0.8-2.5-2.2c0-4.6,0.1-10.9,0.1-10.9l-5.5,0.5c0,0,0.3,6.7,0.3,11.5
			C223.9,197.5,227.1,199.5,232,199.5z"/>
		<path class="st12" d="M272.2,187.3c-1.5-0.3-3.1-0.4-3.1-1.3c0-0.7,1.2-1.3,2.7-1.3c1.6,0,2.9,0.9,3.4,2.4l4.5-2.8
			c-1.4-2.6-3.3-4-7.9-4c-4.9,0-8.2,1.9-8.2,5.4c0,3.7,2,4.9,7.6,6.1c2.3,0.5,3.3,1,3.3,1.7c0,0.7-1.6,0.9-3.2,0.9
			c-1.5,0-3.3-0.6-4.1-2.2l-4.2,3.3c2.2,2.9,4.5,3.5,8.8,3.5c4.5,0,7.9-1.3,7.9-5.1C279.6,190,277.7,188.4,272.2,187.3z"/>
		<polygon class="st12" points="317.1,194 308.6,193.5 308.7,191 315.4,191.3 315.4,187.2 308.6,187 308.7,184.7 316.3,184.7 
			316.9,180.2 303,180.8 304,198.3 316.4,199.1 		"/>
	</g>
</g>
</svg>
