<?xml version="1.0" encoding="utf-8"?>
<!-- Generator: Adobe Illustrator 28.3.0, SVG Export Plug-In . SVG Version: 6.00 Build 0)  -->
<!DOCTYPE svg PUBLIC "-//W3C//DTD SVG 1.1//EN" "http://www.w3.org/Graphics/SVG/1.1/DTD/svg11.dtd" [
	<!ENTITY ns_extend "http://ns.adobe.com/Extensibility/1.0/">
	<!ENTITY ns_ai "http://ns.adobe.com/AdobeIllustrator/10.0/">
	<!ENTITY ns_graphs "http://ns.adobe.com/Graphs/1.0/">
	<!ENTITY ns_vars "http://ns.adobe.com/Variables/1.0/">
	<!ENTITY ns_imrep "http://ns.adobe.com/ImageReplacement/1.0/">
	<!ENTITY ns_sfw "http://ns.adobe.com/SaveForWeb/1.0/">
	<!ENTITY ns_custom "http://ns.adobe.com/GenericCustomNamespace/1.0/">
	<!ENTITY ns_adobe_xpath "http://ns.adobe.com/XPath/1.0/">
]>
<svg version="1.1" id="Calque_1" xmlns:x="&ns_extend;" xmlns:i="&ns_ai;" xmlns:graph="&ns_graphs;"
	 xmlns="http://www.w3.org/2000/svg" xmlns:xlink="http://www.w3.org/1999/xlink" x="0px" y="0px" viewBox="0 0 19.5 24.7"
	 style="enable-background:new 0 0 19.5 24.7;" xml:space="preserve">
<style type="text/css">
	.st0{fill:#84CE88;}
	.st1{fill:none;}
	.st2{fill:#A4FFAD;}
	.st3{fill:#FA5057;}
	.st4{fill:#79B37E;}
	.st5{fill:#79AF7E;}
	.st6{fill:#694EAF;}
	.st7{fill:#554295;}
	.st8{fill:#8C65DC;}
	.st9{fill:#785ABF;}
	.st10{fill:#8AD290;}
	.st11{fill:#FFFFFF;}
	.st12{fill:#A7FFB0;}
</style>
<metadata>
	<sfw  xmlns="&ns_sfw;">
		<slices></slices>
		<sliceSourceBounds  bottomLeftOrigin="true" height="2634.9" width="2226.1" x="1674.8" y="-2927.8"></sliceSourceBounds>
		<optimizationSettings>
			<targetSettings  fileFormat="PNG24Format" targetSettingsID="0">
				<PNG24Format  filtered="false" interlaced="false" matteColor="#FFFFFF" noMatteColor="false" transparency="true">
					</PNG24Format>
			</targetSettings>
		</optimizationSettings>
	</sfw>
</metadata>
<g>
	<path d="M12.3,0.2c0,1.5,0,2.9,0,4.3c0,1.2,0.8,2.2,2,2.5c0.3,0.1,0.5,0.1,0.8,0.1c1.4,0,2.7,0,4.1,0c0,0,0,0,0.1,0
		c0,0.1,0,0.2,0,0.3c0,4.8,0,9.5,0,14.3c0,1.6-1.1,2.7-2.7,2.7c-4.5,0-9,0-13.6,0c-1.6,0-2.7-1.1-2.7-2.7c0-6.2,0-12.5,0-18.7
		c0-1.6,1.1-2.7,2.7-2.7c3,0,6,0,9.1,0C12.1,0.2,12.2,0.2,12.3,0.2z M7.1,15.8c0.9,0,1.7,0,2.6,0c0.5,0,0.9-0.4,0.9-0.9
		c0-0.6,0-1.2,0-1.8c0-1.2-0.9-2.3-2.1-2.4c-0.7-0.1-1.5-0.1-2.3-0.1c-1.2,0-2.3,0.9-2.4,2.1c-0.1,0.7,0,1.4-0.1,2.1
		c0,0.6,0.3,1,1,1C5.5,15.8,6.3,15.8,7.1,15.8z M9.7,7.1c0-1.4-1.2-2.6-2.6-2.6c-1.4,0-2.6,1.2-2.6,2.6c0,1.4,1.2,2.6,2.6,2.6
		C8.6,9.7,9.7,8.6,9.7,7.1z M9.7,20.1c0.5,0,1.1,0,1.6,0c1.2,0,2.4,0,3.6,0c0.5,0,0.8-0.3,0.9-0.8c0-0.4-0.3-0.8-0.7-0.9
		c-0.1,0-0.2,0-0.3,0c-3.3,0-6.6,0-9.8,0c-0.1,0-0.3,0-0.4,0c-0.4,0-0.6,0.2-0.8,0.6c-0.2,0.6,0.2,1.2,0.9,1.2
		C6.3,20.1,8,20.1,9.7,20.1z M14.1,11.5c0.3,0,0.6,0,0.8,0c0.5,0,0.9-0.4,0.9-0.9c0-0.5-0.4-0.9-0.9-0.9c-0.6,0-1.1,0-1.7,0
		c-0.5,0-0.9,0.4-0.9,0.9c0,0.5,0.4,0.8,0.9,0.9C13.5,11.5,13.8,11.5,14.1,11.5z M14.1,15.8c0.3,0,0.6,0,0.8,0
		c0.5,0,0.9-0.4,0.9-0.9c0-0.5-0.4-0.9-0.9-0.9c-0.6,0-1.1,0-1.7,0c-0.5,0-0.9,0.4-0.9,0.9c0,0.5,0.4,0.8,0.9,0.9
		C13.5,15.8,13.8,15.8,14.1,15.8z"/>
	<path d="M14.1,0.8c1.5,1.5,3.1,3,4.6,4.6c-0.1,0-0.2,0-0.3,0c-1.1,0-2.3,0-3.4,0c-0.6,0-1-0.3-1-1c0-1.1,0-2.3,0-3.4
		C14.1,0.9,14.1,0.9,14.1,0.8C14.1,0.8,14.1,0.8,14.1,0.8z"/>
	<g>
		<path class="st2" d="M7.1,15.8c-0.8,0-1.7,0-2.5,0c-0.6,0-1-0.3-1-1c0-0.7,0-1.4,0.1-2.1c0.2-1.2,1.2-2.1,2.4-2.1
			c0.8,0,1.5,0,2.3,0.1c1.2,0.2,2.1,1.2,2.1,2.4c0,0.6,0,1.2,0,1.8c0,0.5-0.4,0.9-0.9,0.9C8.8,15.8,8,15.8,7.1,15.8z"/>
		<path class="st2" d="M9.7,7.1c0,1.4-1.2,2.6-2.6,2.6c-1.4,0-2.6-1.2-2.6-2.6c0-1.4,1.2-2.6,2.6-2.6C8.6,4.5,9.7,5.7,9.7,7.1z"/>
		<path class="st11" d="M9.7,20.1c-1.7,0-3.4,0-5.1,0c-0.7,0-1.1-0.6-0.9-1.2c0.1-0.3,0.4-0.5,0.8-0.6c0.1,0,0.3,0,0.4,0
			c3.3,0,6.6,0,9.8,0c0.1,0,0.2,0,0.3,0c0.4,0.1,0.7,0.5,0.7,0.9c0,0.4-0.4,0.8-0.9,0.8c-1.2,0-2.4,0-3.6,0
			C10.8,20.1,10.2,20.1,9.7,20.1z"/>
		<path class="st11" d="M14.1,11.5c-0.3,0-0.6,0-0.9,0c-0.5,0-0.9-0.4-0.9-0.9c0-0.5,0.4-0.9,0.9-0.9c0.6,0,1.1,0,1.7,0
			c0.5,0,0.9,0.4,0.9,0.9c0,0.5-0.4,0.9-0.9,0.9C14.6,11.5,14.3,11.5,14.1,11.5z"/>
		<path class="st11" d="M14.1,15.8c-0.3,0-0.6,0-0.9,0c-0.5,0-0.9-0.4-0.9-0.9c0-0.5,0.4-0.9,0.9-0.9c0.6,0,1.1,0,1.7,0
			c0.5,0,0.9,0.4,0.9,0.9c0,0.5-0.4,0.8-0.9,0.9C14.6,15.8,14.3,15.8,14.1,15.8z"/>
	</g>
</g>
</svg>
