<?xml version="1.0" encoding="utf-8"?>
<!-- Generator: Adobe Illustrator 28.3.0, SVG Export Plug-In . SVG Version: 6.00 Build 0)  -->
<!DOCTYPE svg PUBLIC "-//W3C//DTD SVG 1.1//EN" "http://www.w3.org/Graphics/SVG/1.1/DTD/svg11.dtd" [
	<!ENTITY ns_extend "http://ns.adobe.com/Extensibility/1.0/">
	<!ENTITY ns_ai "http://ns.adobe.com/AdobeIllustrator/10.0/">
	<!ENTITY ns_graphs "http://ns.adobe.com/Graphs/1.0/">
	<!ENTITY ns_vars "http://ns.adobe.com/Variables/1.0/">
	<!ENTITY ns_imrep "http://ns.adobe.com/ImageReplacement/1.0/">
	<!ENTITY ns_sfw "http://ns.adobe.com/SaveForWeb/1.0/">
	<!ENTITY ns_custom "http://ns.adobe.com/GenericCustomNamespace/1.0/">
	<!ENTITY ns_adobe_xpath "http://ns.adobe.com/XPath/1.0/">
]>
<svg version="1.1" id="Calque_1" xmlns:x="&ns_extend;" xmlns:i="&ns_ai;" xmlns:graph="&ns_graphs;"
	 xmlns="http://www.w3.org/2000/svg" xmlns:xlink="http://www.w3.org/1999/xlink" x="0px" y="0px" viewBox="0 0 231.3 67.1"
	 style="enable-background:new 0 0 231.3 67.1;" xml:space="preserve">
<style type="text/css">
	.st0{fill:#84CE88;}
	.st1{fill:none;}
	.st2{fill:#A4FFAD;}
	.st3{fill:#FA5057;}
	.st4{fill:#79B37E;}
	.st5{fill:#79AF7E;}
	.st6{fill:#694EAF;}
	.st7{fill:#554295;}
	.st8{fill:#8C65DC;}
	.st9{fill:#785ABF;}
	.st10{fill:#8AD290;}
	.st11{fill:#FFFFFF;}
	.st12{fill:#A7FFB0;}
</style>
<metadata>
	<sfw  xmlns="&ns_sfw;">
		<slices></slices>
		<sliceSourceBounds  bottomLeftOrigin="true" height="2634.9" width="2226.1" x="1674.8" y="-2927.8"></sliceSourceBounds>
		<optimizationSettings>
			<targetSettings  fileFormat="PNG24Format" targetSettingsID="0">
				<PNG24Format  filtered="false" interlaced="false" matteColor="#FFFFFF" noMatteColor="false" transparency="true">
					</PNG24Format>
			</targetSettings>
		</optimizationSettings>
	</sfw>
</metadata>
<g>
	<rect width="231.3" height="67.1"/>
	<g>
		<path class="st11" d="M100.8,15.4l-9.2,36.3h-2.6l9.1-36.3H100.8z"/>
		<g>
			<path class="st11" d="M55.3,50.7c-2.7,0-5.3,0-7.9,0c0-8.5,0-17,0-25.5c2.5,0,5,0,7.6,0c0,1.1,0,2.3,0,3.4c0.5-0.6,1-1.3,1.6-1.8
				c1.4-1.3,3.1-2,5-2.2c1.6-0.2,3.3,0,4.8,0.5c2.6,0.8,4.2,2.7,5,5.3c0.5,1.7,0.7,3.5,0.7,5.3c0,4.9,0,9.9,0,14.8
				c0,0.1,0,0.1,0,0.2c-2.6,0-5.2,0-7.9,0c0-0.2,0-0.4,0-0.5c0-4.2,0-8.4,0-12.7c0-0.9-0.1-1.8-0.2-2.6c-0.5-2.6-2.2-3.5-4.6-3.2
				c-2.2,0.3-3.4,1.6-3.8,4c-0.1,0.9-0.2,1.8-0.2,2.6c0,4,0,8,0,12C55.3,50.3,55.3,50.5,55.3,50.7z"/>
			<path class="st11" d="M42.4,50.7c-2.6,0-5.2,0-7.9,0c0-8.5,0-17,0-25.5c2.6,0,5.2,0,7.9,0C42.4,33.7,42.4,42.1,42.4,50.7z"/>
			<path class="st11" d="M43,17c0,2.5-2,4.6-4.6,4.7c-2.5,0-4.6-2.1-4.6-4.6c0-2.5,2.1-4.6,4.6-4.6C40.9,12.4,43,14.5,43,17z"/>
		</g>
		<g>
			<g>
				<g>
					<path class="st2" d="M113.1,36.7c0.8-1.4,1.8-2.4,3.2-3.2c1.3-0.8,2.8-1.1,4.5-1.1c1.9,0,3.7,0.5,5.1,1.5
						c1.5,1,2.5,2.4,3.1,4.1h-4c-0.4-0.8-1-1.5-1.7-1.9c-0.7-0.4-1.6-0.6-2.5-0.6c-1,0-1.9,0.2-2.7,0.7s-1.4,1.1-1.8,2
						c-0.4,0.9-0.7,1.9-0.7,3c0,1.2,0.2,2.2,0.7,3c0.4,0.9,1.1,1.6,1.8,2s1.7,0.7,2.7,0.7c0.9,0,1.8-0.2,2.5-0.6s1.3-1.1,1.7-1.9h4
						c-0.6,1.8-1.6,3.2-3.1,4.2c-1.5,1-3.2,1.5-5.1,1.5c-1.7,0-3.2-0.4-4.5-1.1c-1.3-0.8-2.4-1.8-3.2-3.2c-0.8-1.3-1.2-2.9-1.2-4.6
						S112.3,38,113.1,36.7z"/>
					<path class="st2" d="M134.5,49.4c-1.1-0.6-1.9-1.4-2.5-2.5c-0.6-1.1-0.9-2.3-0.9-3.8s0.3-2.7,0.9-3.8s1.5-1.9,2.6-2.5
						c1.1-0.6,2.3-0.9,3.6-0.9c1.3,0,2.5,0.3,3.6,0.9c1.1,0.6,1.9,1.4,2.6,2.5s0.9,2.3,0.9,3.8s-0.3,2.7-1,3.8
						c-0.6,1.1-1.5,1.9-2.6,2.5c-1.1,0.6-2.3,0.9-3.7,0.9C136.8,50.3,135.6,50,134.5,49.4z M139.9,46.8c0.6-0.3,1-0.8,1.3-1.4
						c0.3-0.6,0.5-1.4,0.5-2.2c0-1.3-0.3-2.3-1-3c-0.7-0.7-1.5-1.1-2.5-1.1s-1.8,0.4-2.5,1.1c-0.7,0.7-1,1.7-1,3s0.3,2.3,1,3
						c0.7,0.7,1.5,1.1,2.5,1.1C138.7,47.2,139.3,47.1,139.9,46.8z"/>
					<path class="st2" d="M169.2,37.6c1,1,1.6,2.5,1.6,4.4V50h-3.5v-7.7c0-1.1-0.3-1.9-0.8-2.5c-0.5-0.6-1.3-0.9-2.2-0.9
						c-0.9,0-1.7,0.3-2.3,0.9c-0.6,0.6-0.8,1.4-0.8,2.5V50h-3.5v-7.7c0-1.1-0.3-1.9-0.8-2.5c-0.6-0.6-1.3-0.9-2.2-0.9
						c-1,0-1.7,0.3-2.3,0.9c-0.6,0.6-0.8,1.4-0.8,2.5V50h-3.5V36.2h3.5v1.7c0.4-0.6,1-1,1.7-1.4s1.5-0.5,2.3-0.5
						c1.1,0,2.1,0.2,2.9,0.7c0.8,0.5,1.5,1.1,2,2c0.5-0.8,1.1-1.4,2-1.9c0.9-0.5,1.8-0.7,2.8-0.7C166.8,36,168.2,36.5,169.2,37.6z"
						/>
					<path class="st2" d="M178.2,39.1v6.7c0,0.5,0.1,0.8,0.3,1c0.2,0.2,0.6,0.3,1.1,0.3h1.6v3h-2.2c-3,0-4.4-1.4-4.4-4.3v-6.7H173
						v-2.9h1.6v-3.4h3.5v3.4h3.1v2.9H178.2z"/>
					<path class="st2" d="M196.6,44.2h-10.1c0.1,1,0.4,1.8,1,2.3c0.6,0.6,1.4,0.9,2.3,0.9c1.3,0,2.2-0.6,2.8-1.7h3.8
						c-0.4,1.3-1.2,2.4-2.3,3.3c-1.1,0.9-2.5,1.3-4.2,1.3c-1.3,0-2.5-0.3-3.6-0.9c-1.1-0.6-1.9-1.4-2.5-2.5
						c-0.6-1.1-0.9-2.3-0.9-3.8c0-1.4,0.3-2.7,0.9-3.8c0.6-1.1,1.4-1.9,2.4-2.5c1.1-0.6,2.3-0.9,3.6-0.9c1.3,0,2.5,0.3,3.5,0.9
						c1,0.6,1.9,1.4,2.4,2.4c0.6,1,0.9,2.2,0.9,3.6C196.7,43.3,196.7,43.8,196.6,44.2z M193.1,41.8c0-0.9-0.3-1.6-1-2.2
						c-0.6-0.5-1.4-0.8-2.3-0.8c-0.9,0-1.6,0.3-2.2,0.8c-0.6,0.5-1,1.3-1.1,2.2H193.1z"/>
				</g>
			</g>
			<g>
				<path class="st11" d="M120.1,26h-1l-5.8-8.8V26h-1V15.5h1l5.8,8.8v-8.8h1V26z"/>
				<path class="st11" d="M122.5,16c-0.1-0.2-0.2-0.3-0.2-0.6s0.1-0.4,0.2-0.5c0.1-0.1,0.3-0.2,0.5-0.2s0.4,0.1,0.5,0.2
					c0.1,0.1,0.2,0.3,0.2,0.5s-0.1,0.4-0.2,0.6c-0.1,0.2-0.3,0.2-0.5,0.2S122.7,16.2,122.5,16z M123.6,17.8V26h-1v-8.2H123.6z"/>
				<path class="st11" d="M126,19.7c0.3-0.6,0.8-1.1,1.4-1.5c0.6-0.3,1.3-0.5,2.1-0.5c1,0,1.8,0.2,2.5,0.8s1.1,1.2,1.3,2h-1.1
					c-0.1-0.6-0.4-1.1-0.9-1.4c-0.5-0.3-1-0.5-1.7-0.5c-0.5,0-1,0.1-1.5,0.4c-0.4,0.2-0.8,0.6-1,1.1c-0.3,0.5-0.4,1.1-0.4,1.8
					c0,0.7,0.1,1.3,0.4,1.8s0.6,0.9,1,1.1c0.4,0.2,0.9,0.4,1.5,0.4c0.7,0,1.3-0.2,1.7-0.5c0.5-0.3,0.8-0.8,0.9-1.4h1.1
					c-0.2,0.8-0.6,1.5-1.3,2c-0.7,0.5-1.5,0.8-2.5,0.8c-0.8,0-1.5-0.2-2.1-0.5c-0.6-0.3-1.1-0.8-1.4-1.5s-0.5-1.4-0.5-2.2
					C125.5,21,125.7,20.3,126,19.7z"/>
				<path class="st11" d="M136.7,25.6c-0.6-0.3-1.1-0.8-1.5-1.5s-0.5-1.4-0.5-2.2c0-0.9,0.2-1.6,0.5-2.2c0.4-0.6,0.9-1.1,1.5-1.5
					c0.6-0.3,1.3-0.5,2.1-0.5s1.5,0.2,2.1,0.5c0.6,0.3,1.1,0.8,1.5,1.5s0.5,1.4,0.5,2.2c0,0.8-0.2,1.6-0.5,2.2
					c-0.4,0.6-0.9,1.1-1.5,1.5c-0.6,0.3-1.3,0.5-2.1,0.5C138,26.1,137.3,25.9,136.7,25.6z M140.2,24.8c0.5-0.2,0.8-0.6,1.1-1.1
					c0.3-0.5,0.4-1.1,0.4-1.8c0-0.7-0.1-1.3-0.4-1.8c-0.3-0.5-0.7-0.9-1.1-1.1s-1-0.4-1.5-0.4s-1,0.1-1.5,0.4s-0.8,0.6-1.1,1.1
					c-0.3,0.5-0.4,1.1-0.4,1.8c0,0.7,0.1,1.3,0.4,1.8c0.3,0.5,0.6,0.9,1.1,1.1s1,0.4,1.5,0.4S139.8,25.1,140.2,24.8z"/>
				<path class="st11" d="M145.8,14.9V26h-1V14.9H145.8z"/>
				<path class="st11" d="M148.2,19.7c0.3-0.6,0.8-1.1,1.4-1.5c0.6-0.3,1.3-0.5,2-0.5c0.8,0,1.5,0.2,2,0.5c0.6,0.4,1,0.8,1.2,1.4
					v-1.8h1V26h-1v-1.8c-0.3,0.6-0.7,1-1.2,1.4c-0.6,0.4-1.2,0.5-2,0.5c-0.7,0-1.4-0.2-2-0.5c-0.6-0.3-1.1-0.8-1.4-1.5
					c-0.3-0.6-0.5-1.4-0.5-2.2C147.7,21,147.9,20.3,148.2,19.7z M154.5,20.2c-0.3-0.5-0.6-0.9-1.1-1.2c-0.5-0.3-1-0.4-1.5-0.4
					c-0.6,0-1.1,0.1-1.6,0.4s-0.8,0.6-1.1,1.1c-0.3,0.5-0.4,1.1-0.4,1.8c0,0.7,0.1,1.3,0.4,1.8c0.3,0.5,0.6,0.9,1.1,1.2
					s1,0.4,1.6,0.4c0.6,0,1.1-0.1,1.5-0.4c0.5-0.3,0.8-0.7,1.1-1.2c0.3-0.5,0.4-1.1,0.4-1.7S154.8,20.7,154.5,20.2z"/>
				<path class="st11" d="M158.9,25.5c-0.6-0.4-0.9-1-1-1.8h1.1c0.1,0.5,0.3,0.8,0.7,1.1c0.4,0.3,0.9,0.4,1.6,0.4
					c0.6,0,1-0.1,1.3-0.4c0.3-0.3,0.5-0.6,0.5-1c0-0.3-0.1-0.5-0.3-0.7c-0.2-0.2-0.4-0.3-0.7-0.4c-0.3-0.1-0.6-0.2-1.1-0.3
					c-0.6-0.2-1.1-0.3-1.5-0.5c-0.4-0.2-0.7-0.4-1-0.7c-0.3-0.3-0.4-0.7-0.4-1.3c0-0.4,0.1-0.8,0.4-1.1c0.2-0.3,0.6-0.6,1-0.8
					s0.9-0.3,1.5-0.3c0.9,0,1.6,0.2,2.1,0.7c0.5,0.4,0.8,1.1,0.9,1.8h-1c0-0.5-0.2-0.9-0.6-1.2c-0.3-0.3-0.8-0.4-1.4-0.4
					c-0.5,0-1,0.1-1.3,0.4s-0.5,0.6-0.5,0.9c0,0.3,0.1,0.6,0.3,0.8s0.4,0.4,0.7,0.5c0.3,0.1,0.7,0.2,1.2,0.4
					c0.6,0.2,1.1,0.3,1.4,0.5c0.3,0.2,0.6,0.4,0.9,0.7s0.4,0.7,0.4,1.2c0,0.4-0.1,0.8-0.4,1.2c-0.2,0.3-0.6,0.6-1,0.8
					c-0.4,0.2-0.9,0.3-1.5,0.3C160.2,26.1,159.5,25.9,158.9,25.5z"/>
			</g>
		</g>
	</g>
</g>
</svg>
