<?xml version="1.0" encoding="utf-8"?>
<!-- Generator: Adobe Illustrator 28.3.0, SVG Export Plug-In . SVG Version: 6.00 Build 0)  -->
<!DOCTYPE svg PUBLIC "-//W3C//DTD SVG 1.1//EN" "http://www.w3.org/Graphics/SVG/1.1/DTD/svg11.dtd" [
	<!ENTITY ns_extend "http://ns.adobe.com/Extensibility/1.0/">
	<!ENTITY ns_ai "http://ns.adobe.com/AdobeIllustrator/10.0/">
	<!ENTITY ns_graphs "http://ns.adobe.com/Graphs/1.0/">
	<!ENTITY ns_vars "http://ns.adobe.com/Variables/1.0/">
	<!ENTITY ns_imrep "http://ns.adobe.com/ImageReplacement/1.0/">
	<!ENTITY ns_sfw "http://ns.adobe.com/SaveForWeb/1.0/">
	<!ENTITY ns_custom "http://ns.adobe.com/GenericCustomNamespace/1.0/">
	<!ENTITY ns_adobe_xpath "http://ns.adobe.com/XPath/1.0/">
]>
<svg version="1.1" id="Calque_1" xmlns:x="&ns_extend;" xmlns:i="&ns_ai;" xmlns:graph="&ns_graphs;"
	 xmlns="http://www.w3.org/2000/svg" xmlns:xlink="http://www.w3.org/1999/xlink" x="0px" y="0px" viewBox="0 0 231.3 67.1"
	 style="enable-background:new 0 0 231.3 67.1;" xml:space="preserve">
<style type="text/css">
	.st0{fill:#84CE88;}
	.st1{fill:none;}
	.st2{fill:#A4FFAD;}
	.st3{fill:#FA5057;}
	.st4{fill:#79B37E;}
	.st5{fill:#79AF7E;}
	.st6{fill:#694EAF;}
	.st7{fill:#554295;}
	.st8{fill:#8C65DC;}
	.st9{fill:#785ABF;}
	.st10{fill:#8AD290;}
	.st11{fill:#FFFFFF;}
	.st12{fill:#A7FFB0;}
</style>
<metadata>
	<sfw  xmlns="&ns_sfw;">
		<slices></slices>
		<sliceSourceBounds  bottomLeftOrigin="true" height="2634.9" width="2226.1" x="1674.8" y="-2927.8"></sliceSourceBounds>
		<optimizationSettings>
			<targetSettings  fileFormat="PNG24Format" targetSettingsID="0">
				<PNG24Format  filtered="false" interlaced="false" matteColor="#FFFFFF" noMatteColor="false" transparency="true">
					</PNG24Format>
			</targetSettings>
		</optimizationSettings>
	</sfw>
</metadata>
<g>
	<rect width="231.3" height="67.1"/>
	<g>
		<g>
			<path class="st2" d="M84,39.2c0.6,0.3,1.1,0.8,1.5,1.3v-1.6h2.9v11.4c0,1.1-0.2,2-0.6,2.8c-0.4,0.8-1.1,1.5-1.9,2
				c-0.8,0.5-1.9,0.7-3.1,0.7c-1.6,0-2.9-0.4-4-1.1c-1-0.8-1.6-1.8-1.8-3.1h2.8c0.2,0.5,0.5,0.9,1,1.2c0.5,0.3,1.1,0.5,1.8,0.5
				c0.8,0,1.5-0.2,2-0.7c0.5-0.5,0.8-1.3,0.8-2.3v-1.8c-0.4,0.5-0.9,1-1.5,1.3c-0.6,0.4-1.4,0.5-2.2,0.5c-1,0-1.8-0.2-2.6-0.7
				c-0.8-0.5-1.4-1.2-1.9-2.1c-0.5-0.9-0.7-1.9-0.7-3.1c0-1.1,0.2-2.2,0.7-3.1c0.5-0.9,1.1-1.6,1.9-2c0.8-0.5,1.7-0.7,2.6-0.7
				C82.6,38.7,83.3,38.9,84,39.2z M85.1,42.8c-0.3-0.5-0.6-0.9-1.1-1.1s-1-0.4-1.5-0.4s-1,0.1-1.5,0.4c-0.5,0.3-0.8,0.6-1.1,1.1
				c-0.3,0.5-0.4,1.1-0.4,1.8s0.1,1.3,0.4,1.8c0.3,0.5,0.6,0.9,1.1,1.2c0.5,0.3,0.9,0.4,1.5,0.4c0.5,0,1-0.1,1.5-0.4
				c0.5-0.3,0.8-0.6,1.1-1.1c0.3-0.5,0.4-1.1,0.4-1.8S85.3,43.3,85.1,42.8z"/>
			<path class="st2" d="M95.5,39.3c0.6-0.3,1.3-0.5,2-0.5v3h-0.8c-0.9,0-1.6,0.2-2,0.6c-0.5,0.4-0.7,1.2-0.7,2.2v5.7h-2.9V38.9H94
				v1.8C94.4,40.1,94.9,39.6,95.5,39.3z"/>
			<path class="st2" d="M99.6,37.1c-0.3-0.3-0.5-0.7-0.5-1.2c0-0.5,0.2-0.9,0.5-1.2c0.3-0.3,0.8-0.5,1.3-0.5c0.5,0,0.9,0.2,1.3,0.5
				c0.3,0.3,0.5,0.7,0.5,1.2c0,0.5-0.2,0.9-0.5,1.2c-0.3,0.3-0.8,0.5-1.3,0.5C100.4,37.6,100,37.4,99.6,37.1z M102.3,38.9v11.3h-2.9
				V38.9H102.3z"/>
			<path class="st2" d="M114.7,40c0.8,0.9,1.2,2,1.2,3.6v6.7h-2.9V44c0-0.9-0.2-1.6-0.7-2.1c-0.5-0.5-1.1-0.7-1.8-0.7
				c-0.8,0-1.4,0.2-1.9,0.7c-0.5,0.5-0.7,1.2-0.7,2.1v6.3h-2.9V38.9h2.9v1.4c0.4-0.5,0.9-0.9,1.5-1.2c0.6-0.3,1.2-0.4,2-0.4
				C112.8,38.7,113.9,39.2,114.7,40z"/>
			<path class="st2" d="M129.1,45.4h-8.3c0.1,0.8,0.4,1.5,0.9,1.9c0.5,0.5,1.1,0.7,1.9,0.7c1.1,0,1.8-0.5,2.3-1.4h3.1
				c-0.3,1.1-1,2-1.9,2.7s-2.1,1.1-3.4,1.1c-1.1,0-2.1-0.2-2.9-0.7c-0.9-0.5-1.5-1.2-2-2.1c-0.5-0.9-0.7-1.9-0.7-3.1
				c0-1.2,0.2-2.2,0.7-3.1c0.5-0.9,1.1-1.6,2-2c0.9-0.5,1.9-0.7,3-0.7c1.1,0,2,0.2,2.9,0.7c0.9,0.5,1.5,1.1,2,2
				c0.5,0.9,0.7,1.8,0.7,2.9C129.2,44.7,129.2,45.1,129.1,45.4z M126.3,43.5c0-0.7-0.3-1.3-0.8-1.8c-0.5-0.4-1.2-0.7-1.9-0.7
				c-0.7,0-1.3,0.2-1.8,0.6c-0.5,0.4-0.8,1-0.9,1.8H126.3z"/>
			<path class="st2" d="M140,39.3c0.7,0.4,1.2,0.9,1.6,1.7c0.4,0.7,0.6,1.6,0.6,2.6v6.7h-2.9V44c0-0.9-0.2-1.6-0.7-2.1
				c-0.5-0.5-1.1-0.7-1.8-0.7c-0.8,0-1.4,0.2-1.9,0.7c-0.5,0.5-0.7,1.2-0.7,2.1v6.3h-2.9V35.1h2.9v5.2c0.4-0.5,0.9-0.9,1.5-1.2
				c0.6-0.3,1.3-0.4,2-0.4C138.6,38.7,139.3,38.9,140,39.3z"/>
			<path class="st2" d="M146.9,49.7c-0.9-0.5-1.6-1.2-2.1-2.1c-0.5-0.9-0.7-1.9-0.7-3.1c0-1.2,0.3-2.2,0.8-3.1
				c0.5-0.9,1.2-1.6,2.1-2.1c0.9-0.5,1.9-0.7,3-0.7s2.1,0.2,3,0.7c0.9,0.5,1.6,1.2,2.1,2.1c0.5,0.9,0.8,1.9,0.8,3.1
				c0,1.2-0.3,2.2-0.8,3.1c-0.5,0.9-1.2,1.6-2.1,2.1c-0.9,0.5-1.9,0.7-3,0.7C148.8,50.4,147.8,50.2,146.9,49.7z M151.4,47.6
				c0.5-0.3,0.8-0.6,1.1-1.1c0.3-0.5,0.4-1.1,0.4-1.8c0-1.1-0.3-1.9-0.9-2.5c-0.6-0.6-1.3-0.9-2.1-0.9s-1.5,0.3-2.1,0.9
				c-0.6,0.6-0.8,1.4-0.8,2.5s0.3,1.9,0.8,2.5c0.5,0.6,1.2,0.9,2,0.9C150.4,47.9,150.9,47.8,151.4,47.6z"/>
			<path class="st2" d="M168.6,38.9v11.3h-2.9v-1.4c-0.4,0.5-0.9,0.9-1.4,1.2c-0.6,0.3-1.2,0.4-1.9,0.4c-0.9,0-1.7-0.2-2.4-0.6
				c-0.7-0.4-1.2-0.9-1.6-1.7c-0.4-0.7-0.6-1.6-0.6-2.6v-6.7h2.9v6.2c0,0.9,0.2,1.6,0.7,2.1c0.5,0.5,1.1,0.7,1.8,0.7
				c0.8,0,1.4-0.2,1.9-0.7c0.5-0.5,0.7-1.2,0.7-2.1v-6.2H168.6z"/>
			<path class="st2" d="M173.3,49.9c-0.7-0.3-1.3-0.8-1.8-1.4c-0.4-0.6-0.7-1.2-0.7-1.9h2.9c0.1,0.4,0.3,0.8,0.6,1.1
				s0.8,0.4,1.4,0.4c0.5,0,1-0.1,1.3-0.3s0.5-0.5,0.5-0.8c0-0.4-0.2-0.6-0.6-0.8c-0.4-0.2-1-0.4-1.8-0.6c-0.8-0.2-1.5-0.4-2.1-0.6
				c-0.5-0.2-1-0.6-1.4-1c-0.4-0.5-0.6-1.1-0.6-1.8c0-0.6,0.2-1.2,0.5-1.7c0.4-0.5,0.9-0.9,1.6-1.2c0.7-0.3,1.5-0.5,2.4-0.5
				c1.4,0,2.4,0.3,3.2,1s1.2,1.6,1.3,2.7h-2.7c0-0.5-0.2-0.8-0.6-1.1c-0.3-0.3-0.8-0.4-1.3-0.4c-0.5,0-0.9,0.1-1.2,0.3
				c-0.3,0.2-0.4,0.5-0.4,0.8c0,0.4,0.2,0.7,0.6,0.9c0.4,0.2,1,0.4,1.8,0.6c0.8,0.2,1.5,0.4,2,0.6c0.5,0.2,1,0.6,1.4,1
				c0.4,0.5,0.6,1.1,0.6,1.8c0,0.7-0.2,1.2-0.5,1.8c-0.4,0.5-0.9,0.9-1.6,1.2c-0.7,0.3-1.5,0.4-2.4,0.4
				C174.9,50.4,174,50.3,173.3,49.9z"/>
			<path class="st2" d="M193.1,45.4h-8.3c0.1,0.8,0.4,1.5,0.9,1.9c0.5,0.5,1.1,0.7,1.9,0.7c1.1,0,1.8-0.5,2.3-1.4h3.1
				c-0.3,1.1-1,2-1.9,2.7s-2.1,1.1-3.4,1.1c-1.1,0-2.1-0.2-2.9-0.7c-0.9-0.5-1.5-1.2-2-2.1c-0.5-0.9-0.7-1.9-0.7-3.1
				c0-1.2,0.2-2.2,0.7-3.1c0.5-0.9,1.1-1.6,2-2c0.9-0.5,1.9-0.7,3-0.7c1.1,0,2,0.2,2.9,0.7c0.9,0.5,1.5,1.1,2,2
				c0.5,0.9,0.7,1.8,0.7,2.9C193.2,44.7,193.1,45.1,193.1,45.4z M190.2,43.5c0-0.7-0.3-1.3-0.8-1.8c-0.5-0.4-1.2-0.7-1.9-0.7
				c-0.7,0-1.3,0.2-1.8,0.6c-0.5,0.4-0.8,1-0.9,1.8H190.2z"/>
			<path class="st2" d="M195.3,49.9c-0.3-0.3-0.5-0.7-0.5-1.2c0-0.5,0.2-0.9,0.5-1.2c0.3-0.3,0.8-0.5,1.3-0.5c0.5,0,0.9,0.2,1.2,0.5
				c0.3,0.3,0.5,0.7,0.5,1.2c0,0.5-0.2,0.9-0.5,1.2c-0.3,0.3-0.7,0.5-1.2,0.5C196,50.4,195.6,50.2,195.3,49.9z"/>
			<path class="st2" d="M205.8,41.3h-2v9h-2.9v-9h-1.3v-2.4h1.3v-0.6c0-1.4,0.4-2.4,1.2-3.1s2-1,3.6-0.9v2.4c-0.7,0-1.2,0.1-1.5,0.3
				c-0.3,0.2-0.4,0.7-0.4,1.3v0.5h2V41.3z"/>
			<path class="st2" d="M212,39.3c0.6-0.3,1.3-0.5,2-0.5v3h-0.8c-0.9,0-1.6,0.2-2,0.6c-0.5,0.4-0.7,1.2-0.7,2.2v5.7h-2.9V38.9h2.9
				v1.8C210.9,40.1,211.4,39.6,212,39.3z"/>
		</g>
	</g>
	<g>
		<g>
			<path class="st11" d="M44.3,17.5c2.3,1.2,4.1,2.8,5.4,5c1.2,2.1,1.9,4.6,1.9,7.4c0,2.2-0.4,4.4-1.2,6.4c-0.8,2-1.9,3.6-3.4,4.8
				c-1.5,1.2-3.2,1.8-5.3,1.8c-1.4,0-2.6-0.3-3.4-0.9c-0.9-0.6-1.4-1.4-1.7-2.5c-0.8,1.1-1.8,1.9-3.1,2.5c-1.3,0.6-2.6,0.9-4,0.9
				c-2.1,0-3.7-0.6-4.9-1.9c-1.2-1.2-1.8-2.9-1.8-5.1c0-2.1,0.4-4,1.3-5.7c0.8-1.8,2-3.2,3.5-4.3c1.5-1.1,3.2-1.6,5.1-1.6
				c2.4,0,4,0.8,4.8,2.5l0.4-2.1h4.8l-1.9,11.1c-0.1,0.5-0.1,1-0.1,1.4c0,0.7,0.1,1.2,0.4,1.5c0.3,0.3,0.7,0.5,1.4,0.5
				c1,0,1.8-0.5,2.5-1.4s1.2-2.1,1.5-3.5c0.3-1.4,0.5-2.8,0.5-4.2c0-3.3-1-5.9-3-7.7c-2-1.8-4.9-2.7-8.6-2.7c-3.1,0-6,0.8-8.5,2.3
				c-2.5,1.5-4.5,3.6-6,6.2c-1.4,2.6-2.2,5.5-2.2,8.7c0,3.4,1,6,3,7.8c2,1.8,4.9,2.8,8.6,2.8c2.7,0,5-0.5,7-1.4l0.8,3.8
				c-2.6,1.1-5.5,1.6-8.7,1.6c-3.1,0-5.7-0.6-8-1.7s-4.1-2.8-5.3-4.9c-1.3-2.1-1.9-4.6-1.9-7.4c0-4,0.9-7.7,2.8-11
				c1.9-3.3,4.5-5.9,7.8-7.8c3.3-1.9,7.1-2.8,11.2-2.8C39.2,15.7,41.9,16.3,44.3,17.5z M34,37.8c0.8-0.6,1.5-1.3,2-2.3
				c0.5-1,0.7-2,0.7-3.1c0-1.1-0.3-2.1-0.9-2.8c-0.6-0.7-1.5-1.1-2.6-1.1c-1,0-1.9,0.3-2.7,0.9c-0.8,0.6-1.4,1.4-1.8,2.4
				c-0.4,1-0.6,2-0.6,3.1c0,1.1,0.3,2,0.8,2.7c0.5,0.7,1.4,1,2.5,1C32.3,38.7,33.2,38.4,34,37.8z"/>
		</g>
	</g>
	<g>
		<path class="st11" d="M84,18.7c0.6,0.6,0.9,1.5,0.9,2.6v4.8h-1v-4.7c0-0.9-0.2-1.6-0.7-2c-0.4-0.5-1.1-0.7-1.8-0.7
			c-0.8,0-1.4,0.2-1.9,0.8c-0.5,0.5-0.7,1.2-0.7,2.2v4.5h-1v-8.2h1v1.4c0.3-0.5,0.6-0.9,1.1-1.1s1-0.4,1.7-0.4
			C82.6,17.8,83.4,18.1,84,18.7z"/>
		<path class="st11" d="M87.2,16.1C87.1,16,87,15.8,87,15.6s0.1-0.4,0.2-0.5c0.2-0.1,0.3-0.2,0.5-0.2s0.4,0.1,0.5,0.2
			c0.2,0.1,0.2,0.3,0.2,0.5s-0.1,0.4-0.2,0.6c-0.1,0.2-0.3,0.2-0.5,0.2S87.4,16.3,87.2,16.1z M88.3,17.9v8.2h-1v-8.2H88.3z"/>
		<path class="st11" d="M90.7,19.8c0.3-0.6,0.8-1.1,1.4-1.5c0.6-0.3,1.3-0.5,2.1-0.5c1,0,1.8,0.2,2.5,0.8s1.1,1.2,1.3,2h-1.1
			c-0.1-0.6-0.4-1.1-0.9-1.4s-1-0.5-1.7-0.5c-0.6,0-1,0.1-1.5,0.4s-0.8,0.6-1,1.1c-0.3,0.5-0.4,1.1-0.4,1.8c0,0.7,0.1,1.3,0.4,1.8
			c0.3,0.5,0.6,0.9,1,1.1s0.9,0.4,1.5,0.4c0.7,0,1.3-0.2,1.7-0.5s0.8-0.8,0.9-1.4h1.1c-0.2,0.8-0.6,1.5-1.3,2
			c-0.7,0.5-1.5,0.8-2.5,0.8c-0.8,0-1.5-0.2-2.1-0.5c-0.6-0.3-1.1-0.8-1.4-1.5c-0.3-0.6-0.5-1.4-0.5-2.2
			C90.2,21.2,90.4,20.4,90.7,19.8z"/>
		<path class="st11" d="M101.4,25.7c-0.6-0.3-1.1-0.8-1.5-1.5c-0.4-0.6-0.5-1.4-0.5-2.2c0-0.9,0.2-1.6,0.5-2.2
			c0.4-0.6,0.8-1.1,1.5-1.5c0.6-0.3,1.3-0.5,2.1-0.5c0.8,0,1.5,0.2,2.1,0.5c0.6,0.3,1.1,0.8,1.5,1.5c0.4,0.6,0.5,1.4,0.5,2.2
			c0,0.8-0.2,1.6-0.5,2.2s-0.9,1.1-1.5,1.5s-1.3,0.5-2.1,0.5C102.7,26.2,102,26.1,101.4,25.7z M105,24.9c0.5-0.2,0.8-0.6,1.1-1.1
			s0.4-1.1,0.4-1.8c0-0.7-0.1-1.3-0.4-1.8c-0.3-0.5-0.7-0.9-1.1-1.1s-1-0.4-1.5-0.4s-1,0.1-1.5,0.4s-0.8,0.6-1.1,1.1
			c-0.3,0.5-0.4,1.1-0.4,1.8c0,0.7,0.1,1.3,0.4,1.8s0.6,0.9,1.1,1.1c0.5,0.2,1,0.4,1.5,0.4S104.5,25.2,105,24.9z"/>
		<path class="st11" d="M110.5,15v11.1h-1V15H110.5z"/>
		<path class="st11" d="M113,19.8c0.3-0.6,0.8-1.1,1.4-1.5c0.6-0.3,1.3-0.5,2-0.5c0.8,0,1.5,0.2,2,0.5c0.6,0.4,1,0.8,1.2,1.4v-1.8h1
			v8.2h-1v-1.8c-0.3,0.6-0.7,1-1.2,1.4c-0.6,0.4-1.2,0.5-2,0.5c-0.7,0-1.4-0.2-2-0.5c-0.6-0.3-1.1-0.8-1.4-1.5
			c-0.3-0.6-0.5-1.4-0.5-2.2C112.4,21.2,112.6,20.4,113,19.8z M119.2,20.3c-0.3-0.5-0.6-0.9-1.1-1.2c-0.5-0.3-1-0.4-1.5-0.4
			c-0.6,0-1.1,0.1-1.6,0.4s-0.8,0.6-1.1,1.1c-0.3,0.5-0.4,1.1-0.4,1.8c0,0.7,0.1,1.3,0.4,1.8c0.3,0.5,0.6,0.9,1.1,1.2s1,0.4,1.6,0.4
			c0.6,0,1.1-0.1,1.5-0.4c0.5-0.3,0.8-0.7,1.1-1.2c0.3-0.5,0.4-1.1,0.4-1.7S119.5,20.8,119.2,20.3z"/>
		<path class="st11" d="M123.6,25.6c-0.6-0.4-0.9-1-1-1.8h1.1c0,0.5,0.3,0.8,0.7,1.1s0.9,0.4,1.6,0.4c0.6,0,1-0.1,1.3-0.4
			c0.3-0.3,0.5-0.6,0.5-1c0-0.3-0.1-0.5-0.3-0.7c-0.2-0.2-0.4-0.3-0.7-0.4c-0.3-0.1-0.6-0.2-1.1-0.3c-0.6-0.2-1.1-0.3-1.5-0.5
			c-0.4-0.2-0.7-0.4-1-0.7c-0.3-0.3-0.4-0.7-0.4-1.3c0-0.4,0.1-0.8,0.4-1.1c0.2-0.3,0.6-0.6,1-0.8s0.9-0.3,1.5-0.3
			c0.9,0,1.6,0.2,2.1,0.7c0.5,0.4,0.8,1.1,0.9,1.8h-1c0-0.5-0.2-0.9-0.6-1.2s-0.8-0.4-1.4-0.4c-0.5,0-1,0.1-1.3,0.4
			s-0.5,0.6-0.5,0.9c0,0.3,0.1,0.6,0.3,0.8s0.4,0.4,0.7,0.5c0.3,0.1,0.7,0.2,1.2,0.4c0.6,0.2,1.1,0.3,1.4,0.5
			c0.3,0.2,0.6,0.4,0.9,0.7c0.2,0.3,0.4,0.7,0.4,1.2c0,0.4-0.1,0.8-0.4,1.2c-0.2,0.3-0.6,0.6-1,0.8c-0.4,0.2-0.9,0.3-1.5,0.3
			C124.9,26.2,124.2,26,123.6,25.6z"/>
		<path class="st11" d="M140.9,17.2c0.8,0.4,1.4,1,1.9,1.8c0.4,0.8,0.7,1.6,0.7,2.6c0,0.8-0.1,1.5-0.4,2.2s-0.6,1.3-1.1,1.7
			c-0.5,0.4-1,0.7-1.7,0.7c-0.5,0-0.9-0.1-1.1-0.4c-0.3-0.3-0.4-0.6-0.4-1.1c-0.3,0.5-0.7,0.8-1.2,1.1c-0.5,0.3-1,0.4-1.5,0.4
			c-0.8,0-1.4-0.2-1.8-0.7s-0.6-1.1-0.6-1.9c0-0.7,0.2-1.4,0.5-2.1c0.3-0.6,0.7-1.2,1.3-1.6c0.6-0.4,1.2-0.6,1.9-0.6
			c0.5,0,0.9,0.1,1.3,0.3c0.3,0.2,0.6,0.5,0.7,1l0.2-1.1h0.9l-0.8,4.4c0,0.2,0,0.3,0,0.5c0,0.7,0.3,1,0.9,1c0.4,0,0.8-0.2,1.1-0.6
			c0.3-0.4,0.6-0.9,0.7-1.5c0.2-0.6,0.2-1.2,0.2-1.8c0-0.9-0.2-1.6-0.6-2.3c-0.4-0.6-0.9-1.1-1.6-1.5c-0.7-0.3-1.5-0.5-2.5-0.5
			c-1.2,0-2.3,0.3-3.3,0.9c-1,0.6-1.7,1.4-2.3,2.4c-0.5,1-0.8,2.1-0.8,3.3c0,1.4,0.4,2.4,1.2,3.2s2,1.1,3.4,1.1
			c0.9,0,1.7-0.2,2.5-0.5l0.2,0.7c-0.9,0.4-1.8,0.5-2.9,0.5c-1,0-2-0.2-2.8-0.6c-0.8-0.4-1.4-1-1.9-1.7c-0.4-0.8-0.7-1.6-0.7-2.6
			c0-1.4,0.3-2.7,1-3.8c0.6-1.1,1.5-2,2.6-2.7s2.4-1,3.8-1C139.1,16.6,140,16.8,140.9,17.2z M137.6,25c0.4-0.2,0.7-0.6,0.9-1
			c0.2-0.4,0.4-0.9,0.5-1.5c0-0.2,0-0.3,0-0.4c0-0.6-0.2-1-0.5-1.4c-0.3-0.4-0.7-0.5-1.3-0.5c-0.5,0-1,0.2-1.4,0.5
			c-0.4,0.3-0.7,0.7-0.9,1.2c-0.2,0.5-0.3,1-0.3,1.6c0,0.6,0.1,1,0.5,1.4c0.3,0.3,0.7,0.5,1.3,0.5C136.8,25.4,137.2,25.3,137.6,25z"
			/>
	</g>
	<path class="st11" d="M68.8,14.8l-9.2,36.3h-2.6l9.1-36.3H68.8z"/>
</g>
</svg>
