<?xml version="1.0" encoding="utf-8"?>
<!-- Generator: Adobe Illustrator 28.3.0, SVG Export Plug-In . SVG Version: 6.00 Build 0)  -->
<!DOCTYPE svg PUBLIC "-//W3C//DTD SVG 1.1//EN" "http://www.w3.org/Graphics/SVG/1.1/DTD/svg11.dtd" [
	<!ENTITY ns_extend "http://ns.adobe.com/Extensibility/1.0/">
	<!ENTITY ns_ai "http://ns.adobe.com/AdobeIllustrator/10.0/">
	<!ENTITY ns_graphs "http://ns.adobe.com/Graphs/1.0/">
	<!ENTITY ns_vars "http://ns.adobe.com/Variables/1.0/">
	<!ENTITY ns_imrep "http://ns.adobe.com/ImageReplacement/1.0/">
	<!ENTITY ns_sfw "http://ns.adobe.com/SaveForWeb/1.0/">
	<!ENTITY ns_custom "http://ns.adobe.com/GenericCustomNamespace/1.0/">
	<!ENTITY ns_adobe_xpath "http://ns.adobe.com/XPath/1.0/">
]>
<svg version="1.1" id="Calque_1" xmlns:x="&ns_extend;" xmlns:i="&ns_ai;" xmlns:graph="&ns_graphs;"
	 xmlns="http://www.w3.org/2000/svg" xmlns:xlink="http://www.w3.org/1999/xlink" x="0px" y="0px" viewBox="0 0 1920 1080"
	 style="enable-background:new 0 0 1920 1080;" xml:space="preserve">
<style type="text/css">
	.st0{fill:#84CE88;}
	.st1{fill:none;}
	.st2{fill:#A4FFAD;}
	.st3{fill:#FA5057;}
	.st4{fill:#79B37E;}
	.st5{fill:#79AF7E;}
	.st6{fill:#694EAF;}
	.st7{fill:#554295;}
	.st8{fill:#8C65DC;}
	.st9{fill:#785ABF;}
	.st10{fill:#8AD290;}
	.st11{fill:#FFFFFF;}
	.st12{fill:#A7FFB0;}
</style>
<metadata>
	<sfw  xmlns="&ns_sfw;">
		<slices></slices>
		<sliceSourceBounds  bottomLeftOrigin="true" height="2634.9" width="2226.1" x="1674.8" y="-2927.8"></sliceSourceBounds>
		<optimizationSettings>
			<targetSettings  fileFormat="PNG24Format" targetSettingsID="0">
				<PNG24Format  filtered="false" interlaced="false" matteColor="#FFFFFF" noMatteColor="false" transparency="true">
					</PNG24Format>
			</targetSettings>
		</optimizationSettings>
	</sfw>
</metadata>
<path class="st2" d="M13.3,21.5C13,16.9,6.5,10.5,0,7v38.5C7.1,40.2,13.9,29.2,13.3,21.5z"/>
<path class="st2" d="M11.2,1072.8c4.4-9.2,4.3-23.4,0.5-33.3c-2.4-6.3-6.5-10.6-11.7-13.3v53.8h5.2
	C7.5,1078.4,9.6,1076.1,11.2,1072.8z"/>
<path class="st2" d="M446,33.3c-2.5,8.4,2.7,24.2,9.6,28.9c11.7,8,21.9-2.6,29.6-12.6c11.8-15.3,15.7-33.1,12.4-49.7h-53
	C448.6,9.5,449.6,20.7,446,33.3z"/>
<path class="st2" d="M1024.2,25.8c2,8.8,8.4,21,15.4,23.2c8.9,2.7,23.1-0.1,30.2-6.2c13.9-11.9,24.1-28,36.7-41.6
	c0.4-0.4,0.7-0.8,1.1-1.2h-71.7C1026.6,5.9,1021.7,14.9,1024.2,25.8z"/>
<path class="st2" d="M1836.8,898.1c-7.8-7.4-15.7-14.9-24.1-21.6c-15.1-12.1-31-14-50.4-8.3c-19.1,5.6-39.8,6.1-59.9,7.3
	c-11.2,0.7-24.6-0.5-26.3,12.4c-1.3,9.5,2.9,24.1,10,29.3c9.3,6.8,23.6,7.6,36,8.9c5.3,0.6,11.2-3.7,16.7-6
	c35.3-14.5,56.9-10.8,79.7,14c20.9,22.7,26.2,55.2,8.5,83.2c-13.8,21.9-29.7,42.5-46.2,62.6h49.5c0-0.2,0.1-0.4,0.1-0.6
	c3-13.1,25.3-20.5,44.3-20.3c13.3,0.2,27.3-1.6,39.5-6.3c1.9-0.7,3.9-2.2,5.7-4.1v-25.6c-3.4-2.5-7.5-4.7-10.9-6.4
	c-7.3-3.5-17.2-2.1-24-6.1c-6.8-4-16.1-12.2-15.8-18.1c0.4-8.4,6.7-19.6,13.9-23.8c11.3-6.6,24.3-7.6,36.8-4v-40.3
	C1890.4,930.1,1860.9,921.1,1836.8,898.1z"/>
<path class="st2" d="M728.4,0h-24.1c3.2,1.3,6.6,2.3,9.9,2.7C719.4,3.4,724.3,2.3,728.4,0z"/>
<path class="st2" d="M33.8,131.7c18.7,2.1,32.7-3.6,35.3-16.3c2.7-13.6-6.5-24.7-24.9-30c-14-4-29.6-2.9-44.2,2v45.5
	c0.2-0.1,0.3-0.1,0.5-0.2C11,129.8,22.8,130.5,33.8,131.7z"/>
<path class="st2" d="M1179.8,1033.1c42.3-26,52.5-66.8,50.7-111.5c-0.5-12.5-10.8-26.4-20.3-35.9c-5-5-19.8-5.2-26.8-1.4
	c-4.9,2.7-8,18-4.9,24.1c19.6,38.6,3,69.5-18,100c-7.8,11.4-18.1,16.4-30.7,8.9c-12.3-7.2-10.3-18.3-6.4-30.2
	c5.9-18,14.1-36.3,14.8-54.8c1.6-44-28.5-62.8-67.7-42.8c-15.5,7.9-28.9,21.1-41.3,33.8c-4.8,5-6.6,15.6-5.4,23.1
	c2,13.6,12.5,17.1,24,9.4c7.9-5.3,14.5-12.8,22.9-17.2c5.4-2.9,15-4.7,18.8-1.9c5.2,3.8,8.6,12.5,9.1,19.4
	c0.5,5.9-2.8,13.1-6.6,18.1c-16.5,22-14.8,44.7-8,70c3.1,11.4,4,23.5,4.3,35.7h45.7c2.3-5.9,5.7-11.7,10.3-17.1
	C1154.2,1051.2,1166.8,1041.1,1179.8,1033.1z"/>
<path class="st2" d="M1647.9,1052.1c11.7,0.8,23.6,3.5,34.7,7.5c31.4,11.4,52.6,6.8,73.2-19.4c11-14.1,20.7-29.4,29.6-44.9
	c7.4-12.8,6.4-25.8-7.2-34.7c-11.5-7.6-26.6-2.9-35,11.6c-5,8.7-8,18.6-11.2,28.3c-5.2,15.7-16.2,20.7-31.9,19.8
	c-15.2-1-16.7-12.6-17.6-23c-2.1-24.2-13.1-40.9-34.6-52.8c-15.2-8.4-20.3-24.2-20.3-41.6c0-30-4.8-37.6-21.7-35.8
	c-17.4,1.9-35.6,28.7-32.5,47.7c3.3,19.9,16.6,32.5,31.6,43.9c6.6,5.1,14,9.6,19.6,15.6c16.9,18.3,13.2,32.4-6.9,46.8
	c-19.8,14.2-37.6,31.3-55.6,47.9c-5,4.6-10.2,8.3-15.4,10.9h70.1c-0.2-1.3-0.2-2.7-0.2-4.2C1616.9,1062.9,1631.9,1051,1647.9,1052.1
	z"/>
<path class="st2" d="M43.2,275.1c-12.7-12-27.3-20.5-43.2-24.9v43.1c11.4,7.3,13.7,20,4.6,37.4c-1.5,2.9-3,5.8-4.6,8.6v83.4
	c16.5-30.2,33.1-60.4,50.4-90.1C64.1,309,63,293.8,43.2,275.1z"/>
<path class="st2" d="M1821.8,99.6c-16.9-3.9-33.5-9-50.2-13.7c-29.5-8.3-45.8-2.9-64.6,21.1c-5.5,7-10.7,15.9-18.2,19.2
	c-8.2,3.7-21.6,5.7-27.6,1.4c-5.8-4.2-9-18.6-6.6-26.6c15.7-53,64.6-80.2,117.9-66.3c22.6,5.9,44.4,14.8,67,20.3
	c36.6,9,63.5-2.4,78-31c0.9-1.8,1.7-3.6,2.4-5.3V0h-46.5c-3.6,6-6.9,11.1-11.6,13.4c-7.4,3.5-20.9,2.6-27.6-2.1
	c-4.8-3.3-9-7.1-12.6-11.3h-151.6c-0.3,0.3-0.6,0.6-0.9,0.9c-8.7,9.4-14.1,22.1-20.2,33.8c-21.4,40.9-53.9,71.5-90.6,98.3
	c-11.2,8.2-23.7,13.4-35.6,1.4c-9.3-9.4-6.8-26.6,5.8-38.5c20-18.9,41.1-36.8,61.2-55.6c13.1-12.3,20.6-25.6,22.3-40.2H1567
	c-2.5,6.6-8,13.7-12.9,15.4c-7,2.5-20.7-2.1-25.8-8.3c-1.9-2.3-3.7-4.7-5.4-7.1h-47.8c3.3,5.3,7,10.4,11.4,14.9
	c6.2,6.5,13.5,12.3,18.4,19.6c7.8,11.5,8.3,24.1-2.1,34.4c-10.2,10.1-22.9,9.2-32.3,0c-10.4-10.3-20.1-22.2-27.1-35
	c-8.2-15-17.3-26.3-27.2-33.8h-67.9c-18.6,10.1-29.7,27.4-34.4,52.9c-3.8,20.6-6.4,41.4-9.2,62.1c-0.8,5.9-2.3,13.5,0.6,17.6
	c5.6,8.1,13,17.2,21.5,19.9c4.1,1.3,15.8-10.1,18.1-17.5c3.6-11.6,1.3-24.9,3.1-37.3c2.3-15.9,4.4-32.1,9.7-47.1
	c5.6-15.8,22.3-20.8,37.3-13.9c13.6,6.3,15.3,17.6,11,35c-6.6,27.1-12.1,54.7-14.8,82.3c-2.5,25.6-12.2,40.4-37.8,44
	c-13.5,1.9-27.4,1.4-41.1,0.8c-24-1-38-14.5-45.2-36.9c-9.3-28.9-10.8-57.9-0.9-86.5c10.1-29.2,3.3-52.6-16.3-75.4h-68.5
	c-2.5,2.8-5.4,5.5-8.7,8.1c-14.8,11.6-27.9,25.5-41.9,38.2c-22.5,20.5-44.2,42-67.9,61.1c-15.9,12.8-34.9,8.9-46.7-9.1
	c-11.4-17.4-19.6-36.8-29.1-55.5c-3-5.8-4.1-14.6-8.7-17.2c-8.4-4.8-20.2-9.9-28-7.3c-5.8,2-12.5,17.6-10.2,24.3
	c6.4,18.9,16.6,36.7,26.4,54.2c6.1,10.9,16.6,19.7,20.9,31.1c3.1,8,2.5,22-2.7,27.2c-5.8,5.9-20.8,9.6-27.8,6.1
	c-11.3-5.6-22.8-16.3-28.1-27.6c-11.4-24.3-18.9-50.3-28-75.7c-1.6-4.5-1.8-11.1-5-13.1c-8.7-5.7-19.2-14.1-28-13
	c-13.4,1.6-18.4,15.2-15,28.1c2.7,10.2,8.7,19.5,13.7,29c3.3,6.3,8.6,11.8,11.1,18.3c4.5,11.9,4.5,23.7-7.7,31.9
	c-12,8-22.9,4.8-32.6-4.1c-23.5-21.6-43.7-97-14.9-131.7c1-1.2,2.1-2.4,3.3-3.5h-40.4c-5.3,14.3-15.7,28.1-29.8,38.7
	C732.6,56.1,699.5,60,676.9,41c-16.5-14-34.8-26.4-51-41h-82.8c0.3,8.8,0.2,17.6-1.2,26.2c-6.2,38.2-28.8,64.9-64.3,80.7
	c-27.9,12.4-55.4,25.5-83.5,37.4c-10.9,4.6-22.8,8.7-34.3,8.7c-7.1,0-19-6.8-20.4-12.5c-2-8,1.3-20.3,7.1-26.3
	c6.8-7.2,18.2-10.8,28.2-14.3c22.1-7.9,31.1-19,29.6-39c-1.9-26.2-17.7-48.5-37-52.1c-18.4-3.4-32,8.5-30.6,27.2
	c0.4,5.4,2,10.6,2.6,16c2.3,19.2-6.5,29.8-25.7,30.8c-9,0.5-18,0.6-27,0c-22.2-1.4-41,6.4-58.1,19.7c-6.1,4.8-12.2,12.2-18.9,13
	c-9.6,1.2-21.9,0.2-29.1-5.2c-5.5-4.1-7.9-17.3-6.1-25.1c4.6-19.9,22.3-27,39.6-32.7c15.3-5,31.2-8.5,46.8-12.7
	c16.2-4.4,24.7-15.3,28.2-31.5c0.7-3,1.3-5.8,2-8.3h-56c-2.9,4.1-6.2,7.3-9.9,8.5c-7.7,2.4-19.6-3-27.5-8.5h-44.4
	c2.9,6.5,5.9,13.1,7.8,19.9c3.3,11.8,2,23.7-10.4,29.3c-11.8,5.4-23.7,3.2-32.5-7.4C107.9,29.3,101.6,15.6,100,0H56.7
	c1.6,4.9,2.7,10.2,3.2,16.1c1.6,21.6,10.6,39,30.1,50.2c8.8,5.1,17.4,10.7,25.5,16.8c18.4,14,20.6,32.6,5,49.6
	c-10.9,11.9-22.6,23.3-35.1,33.4C64,183.3,23.8,185,0,170.6v39c10,2,20.2,3.5,30.3,4.8c23.5,3,40.4,14.9,50.3,35.9
	c10.6,22.7,26.6,36.1,51.5,43.1c17.1,4.9,32.9,16.8,47.4,28c18.9,14.7,36.7,17.1,57.9,5.4c32.9-18.1,55.7-45.4,72-78.1
	c17.1-34.2,44.8-53.8,80.2-64.2c16.7-4.9,31.2,0.9,36.5,14c5.6,13.7-1.4,29.3-17.7,36.5c-10.3,4.5-21.7,6.7-32.5,10
	c-12.2,3.7-23.6,10.1-23.3,23.9s11.8,20.3,24.4,22.6c44.7,8.2,72.4,37.3,93.3,75c10.3,18.6,7.4,36.5-9.7,49.3
	c-10.4,7.8-22.5,13.8-34.6,18.6c-46.6,18.2-44.3,83.3-17.5,107.6c4,3.6,9.1,6.3,12.2,10.5c5.1,6.8,13.7,15.9,12.1,21.5
	c-2.3,8.1-11.5,17.8-19.5,20c-25.1,6.9-42,21.6-53.9,44c-6.6,12.5-16.9,21.1-32.3,15.1c-13.9-5.4-18.7-20.3-11.5-36.7
	c3.5-8.1,8.3-16.5,14.7-22.2c24.2-21.4,28.5-47.3,19.8-76.8c-7.9-26.7-10.4-54,4.7-78.3c8.7-14,23-24.8,35.5-36.2
	c6.1-5.5,14.9-8,21.1-13.4c11.6-10.1,11.2-23.7-2-31.5c-25.2-14.8-51.3-28-77.1-41.8c-11.2-6-21.6-1.7-25.8,8.1
	c-2.6,6.3,2.3,15.7,4,23.7c0.2,1,1.7,1.7,2.5,2.5c35.2,31.4,35.9,43.2,1.7,75.8c-10.6,10.1-23.8,17.8-36.6,25.4
	c-17.9,10.7-36.4,20.5-54.9,30.3c-13.5,7.1-27.3,11.1-38.3-4.4c-8.9-12.5-5.6-30.1,10-40.8c10.6-7.2,23.6-11,35.7-15.8
	c13.3-5.3,28.7-7.4,39.4-15.8c7-5.4,12-20.8,9.5-29.2c-3.5-11.7-17-13.4-29.1-8.5c-10.5,4.3-20.9,9-31.4,13.3
	c-24.5,10-43.6,4.5-60.5-16.1c-5.6-6.8-12.4-13.2-19.8-17.9c-21.5-13.8-39.3-11.7-52.4,10.1c-13.5,22.4-22.2,47.5-34.2,70.9
	C45,441.8,36.9,456,26.6,467.9c-6.8,7.8-16.9,11.4-26.6,7.2v81.3c4.9,6.5,5.1,15.4,3.6,24.7c-0.8,4.9-2,9.6-3.6,13.9v77.9
	c3.9,0.6,7.9,1.4,11.9,2.5c17.9,4.7,37.5,4.3,56.4,4.3c14.8,0,28.1,1.4,33.9,17.1c4.5,12.2-4.5,28.2-21.7,32.1
	c-15,3.4-31.5,1.1-47.3,0.4c-5.8-0.3-11.3-3.7-17.2-5c-5.9-1.3-11.2-2.4-16-3.1v37.7c4.8,0.9,9.3,3.3,13.6,7.3
	c11.6,11,6.4,23.4-2.7,33.4c-3.4,3.7-7,7.4-10.9,10.8V856c9.3-6.5,18.4-13.5,27.4-20.3c11-8.3,19-21.2,26.5-33.2
	c12.3-19.8,26-37.3,48.8-45.6c14-5.1,26.4-4.2,34.1,10c7.4,13.7,0.5,24.3-9.8,32.9c-5.4,4.6-12.1,7.7-18.1,11.6
	c-21.4,13.9-25.8,26.1-17,50.2c8.2,22.6,10.8,45.4,3.7,68.6c-2.4,7.9-6.1,15.6-10.7,22.5c-8.4,12.6-24.7,17-36.2,9.8
	c-14-8.7-12.6-22-7.9-35c2.6-7.2,9.2-13.6,10.1-20.8c1-7.7-0.2-18.2-5-23.4c-3-3.2-15.7-1.2-21.4,2.5C15.3,892,7.7,901,0,909.3
	c0,0,0,0,0,0v65.2c3,0.9,6.1,2.1,9.1,3.5c30.2,14.2,50.6,36.5,53.8,70.8c0.9,10,0.6,20.7-1.3,31.1h39.7c0-7.4-0.3-14.7-0.3-22.1
	c-9.6-43.7,13-79,30.4-115.6c6.5-13.6,16.3-21,31.7-14.2c12.5,5.5,19.2,25,13.5,38.8c-2.3,5.5-6.8,10.1-8.5,15.7
	c-6.8,23.3-14.8,46.5-18.8,70.3c-1.5,8.9-2.2,17.9-2.6,27h41.8c3.7-21.5,6.7-43,10.1-64.5c4.9-31,23.2-54.4,49.8-66.3
	c14.6-6.5,35.9-2.1,53.1,2.1c18.2,4.5,35,14.4,52.4,22.1c20.2,9,41.4,16.2,60,27.8c25.8,16,61.1,17.7,80.7-15.9
	c12.6-21.7,33.7-33.4,59.2-36.3c19.8-2.2,36.9-10.4,49.2-26.4c10.6-13.8,14.6-28.9,5.1-45.2c-9.7-16.6-26-18.4-38.1-3.5
	c-6.3,7.8-10.3,17.5-15.8,26c-9.6,14.9-25.5,19.4-38.6,11.2c-11.9-7.4-14.3-20.8-4.9-36.4c4.9-8.1,11.5-15.3,18.2-22
	c12.6-12.6,15-26.6,8.2-42.7c-0.2-0.6-0.5-1.1-0.7-1.7c-9-23.8-6.6-36.4,8.4-43.6c14.1-6.8,25.5,3,39.8,21.5
	c23.6,30.6,50.2,59.1,76.9,87.2c10.2,10.7,27.4,7,36.3-4.8c10.6-14.1,2.3-24.4-7.4-34.4c-29.7-30.4-60-60.3-88.4-91.8
	c-10.1-11.2-16.5-26.1-23.4-40c-17.2-34.6-41.2-63-73.6-84.3c-4-2.6-9.1-5-11.1-8.9c-4-7.4-9.8-16.6-8.1-23.3
	c1.8-7,10.6-14.3,18-17.3c15.7-6.3,37.6,3.5,50.5,19.7c16.1,20.1,33.2,39.3,48.4,60.1c8,10.9,12.2,24.4,19,36.3
	c8.2,14.3,15.8,29.5,26.6,41.7c21.8,24.5,45.7,47.2,68.6,70.8c10.4,10.7,20,22.4,30.9,32.6c13.5,12.6,14.9,26.2,6.8,42.1
	c-13.9,27-35.5,43.1-65.9,46.8c-24.2,2.9-42.9,12.4-52.3,37.2c-7.7,20.2-25.7,29.2-45.8,33.8c-7.6,1.7-15.3,2.6-23,3.8
	c-25.2,3.7-40.1,16-43.4,36c-2.3,14.1,4,35.8,13.1,50.7h39.5c-0.1-7.7-2.1-15.3-3.1-23c-2.4-19.7,7.8-29.6,27.5-26.7
	c43,6.4,43.2,6.5,60.1-34.2c7.7-18.5,19.6-32.9,37.6-41.8c12.5-6.3,25-6.4,33.9,5.8c8.4,11.5,2.2,21.6-6,30.5
	c-7.7,8.4-16.2,16.1-23.6,24.7c-14.7,17.1-13.3,31.8,4.2,46.4c6,5,13,8.6,18.7,13.9c1.6,1.5,3,3,4.2,4.5h95.8
	c17.9-8.7,37.6-14.6,58.7-18.5c23.6-4.4,44.7-13,62.3-29.6c10.4-9.9,22.5-15.7,35.5-6.6c13.4,9.3,13.7,23,6.6,36.8
	c-3.1,6.1-5.2,12.1-6.5,17.9h49.2c1-5.3,2.2-10.5,3.2-15.7c9.9-47.6-29.1-93.6-77.3-88.6c-10.4,1.1-22.1,7.3-29.6,14.8
	c-22.1,22.1-49.7,29.4-78.7,35.9c-18.2,4.1-35.1,13.5-52.4,21.1c-5.4,2.4-9.9,8.5-15.2,9.1c-9.8,1-22.3,2.7-29.2-2.3
	c-10.5-7.5-10.9-22-2.6-32.4c7.2-9.1,16.4-18.7,26.8-22.6c26.2-9.8,53.4-17.3,80.6-24.4c33-8.5,42.9-19.9,42.7-53.5
	c-0.1-37.7,1.6-75.4-14.2-111.3c-6.9-15.8,0.5-33.7,13-38.8c17.1-6.9,25.8,3.1,35.5,15.6c6.6,8.5,17.7,17.7,27.3,18.3
	c7.8,0.5,19.4-9.7,23.9-18c6.8-12.6,1.7-26.3-9-35.8c-22.3-19.8-48.1-31.3-78.7-28.3c-18.1,1.8-28.9,14.5-36.3,29.1
	c-7.6,14.9-12.7,31-18.8,46.5c-12.3,31.2-31.7,35.5-55.7,11.8c-23.9-23.5-47.6-46.4-60.4-79.4c-4.6-11.8-21.6-18.9-33.4-27.5
	c-8.1-5.9-18.4-9.4-24.9-16.5c-11.9-13-3.5-32.5,13.9-35.1c25.4-3.9,82.4,24.8,94.4,48.1c2.6,5.1,2.5,11.5,3.5,17.4
	c1.3,8.2,1.4,16.9,4,24.7c5.1,15.1,19,18.3,31.3,8.1c31.5-25.8,24.8-74.4-11.3-91.4c-20.5-9.6-40.1-21.6-58.8-34.4
	c-23.3-16-46.2-21.6-72.1-6.9c-17.9,10.2-34.4,5.9-49.9-6.4c-32.1-25.3-40.1-57.8-30.4-96.4c4.8-19,8.6-38.3,12.1-57.7
	c3.2-17.6,12.9-28.3,26.2-26.2c17,2.7,20.8,15.1,18.5,29.5c-3.5,21.8-9.5,43.3-12.1,65.2c-1.3,11.3,0.8,23.7,4.4,34.6
	c3.7,11.1,13.4,17.4,25.8,13.7c12.6-3.8,18-13.8,16.6-26.5c-1-8.9-4.1-17.5-5.5-26.3c-2.4-15.1-3.3-30.1,8.4-42.4
	c12.8-13.3,29.5-10.6,35.1,6.8c3,9.3,4.3,20.4,2.2,29.8c-5.3,24.4,3.4,42.7,21.8,56.8c17.6,13.5,36.2,25.6,55.1,37.3
	c15.2,9.5,30.2,7,36-5.7c6.8-14.9-0.9-25.3-13.5-32.7c-9.3-5.4-18.9-10.3-28.5-15.4c-32.8-17.5-44.3-54.9-26.9-87.6
	c1.7-3.2,3.6-6.3,5.7-9.2c9.4-12.9,12.5-26.8,1.6-39.7c-11.6-13.8-24.8-6.6-37.3,0.2c-7.4,4-14.7,8.1-22.3,11.6
	c-17.5,8.1-35.8,0.6-42.3-17.2c-5-13.5,6.4-33.2,22.8-37.5c9.8-2.6,21-1.2,29.9-5.2c7.6-3.4,17.1-11.4,17.9-18.2
	c0.8-6.9-7.3-15.7-13.4-21.9c-3.8-3.8-11-4.3-16.7-6.2c-33.4-11-49.1-42.3-37.7-75.6c11.2-32.6,44.5-56.1,78.6-59.9
	c34.3-3.8,68.3-11.2,102.4-17c30.3-0.1,56.9,7,80.9,26.2c23.2,18.5,57.4,12.6,75.1-10.9c2.5-3.3,5.1-6.7,7-10.4
	c7.4-14.1,18.8-20.8,34.1-15.4c16,5.7,19.2,20.5,15.3,34.3c-3.2,11.4-9.6,24.9-18.8,31c-42.1,28-91.5,47.6-140.7,8.9
	c-26.5-20.9-56.2-22.8-88.4-11.3c-18.2,6.5-38.4,7.6-57.7,11.2c-5.9,1.1-12,1.2-17.6,3.1c-12.6,4.2-23.5,10.9-22.2,26.4
	c1.3,15,13.7,16,25,18.2c31,5.9,39,14.1,37.4,46c-1.4,27,7.1,48,27.6,64.9c4.1,3.4,7.7,7.5,11.5,11.4c22.2,22.3,22.7,34,2.9,58.8
	c-6.3,8-14.6,15.5-17.6,24.6c-2.6,7.7-1.9,20.5,3,25.5c5.1,5.2,18.4,7.5,25.6,4.7c51-20.2,65.3-95.4,24.9-132
	c-30.6-27.8-47.5-59.5-39.7-101.7c3.4-18.5,19.3-32.4,36-30.5c19.2,2.1,29.3,17,24,36.2c-2.5,9.2-6.8,17.9-9.5,27.1
	c-4.2,14.2,3,30,15.6,34.1c16.6,5.4,20.6-7.6,25.3-18.5c2.8-6.6,4.2-13.8,6.7-20.5c5.3-14,14.9-21.7,30.5-19
	c14.1,2.4,25.8,15.8,21.4,30.2c-4.9,15.8-13.9,31.5-24.9,44c-11.1,12.6-17.7,25.1-17.5,41.6c0.2,16.2,0.4,32.4,0.1,48.6
	c-0.3,14.3,6.2,23.9,20.1,25.1c14.4,1.2,24.6-7.8,26.6-21.5c1.6-10.9-0.6-22.5-2.3-33.7c-4.5-30.1,14.4-50.9,44.9-51.4
	c24.3-0.3,48.6-3.3,73-5c14.9-1,29.9-3.1,44.7-2.5c20.2,0.9,36.1,10.4,47.3,28.3c9.8,15.6,20.8,30.6,32.6,44.7
	c9.7,11.6,16.1,22.8,6.6,37c-6.7,10.1-26.2,12.6-39.1,2.2c-10.8-8.7-18.8-21.1-26.9-32.6c-5.8-8.2-8.5-18.8-14.8-26.5
	c-8.3-10.1-20.2-13.7-32-5.7c-11,7.5-12.8,18.8-6,30.1c11,18.5,22.5,36.7,34.5,54.5c11.7,17.5,29.2,23.8,49.7,23.5
	c12.6-0.2,25.3-0.9,37.7,0.6c27.8,3.4,45.7,21.6,61.5,42.9c8.5,11.5,17.1,23.3,27.2,33.4c22.5,22.3,48.4,32.9,79.7,18.1
	c4.3-2,9.2-5,13.5-4.5c9,1,21.2,1.2,25.8,6.8c5.1,6.4,5.1,18.6,3.9,27.9c-0.9,7.1-7,13.6-11,20.3c-13.5,22.1-11.8,36,7.2,54.1
	c6.1,5.8,13,10.6,18.9,16.5c12.4,12.5,12.9,34.3,1.6,43.7c-10,8.3-28,3.9-39.3-8.6c-9.1-10.1-16.9-28.3-34.1-17.8
	c-16.8,10.3-7.7,26.1-1.9,40.1c6.5,15.8,3.4,31-6.1,44.3c-20.4,28.7-40,56.9-75.3,71.9c-36.5,15.5-45.9,83.9-18.7,113.1
	c18.7,20,22.2,33.9,10.5,51.5h48.8c20.3-22.4,44.1-41.2,68.1-59.9c16.1-12.5,30.6-9.8,41.2,6.4c8,12.3,4.1,26.9-12.5,35.8
	c-9.7,5.2-18.6,11.1-26.9,17.7h95.7c-5.6-3.2-10.8-7.8-15.5-13.9c-15.8-20.6-6.4-44,19.5-47.5c8.3-1.1,16.8-0.2,25.1-0.8
	c13.2-1,26.7-4.8,29.4-18.9c1.6-8.4-1.9-20.3-7.5-27c-8.9-10.8-22.1-16.7-37.1-10.4c-9.4,3.9-18.4,8.8-27.9,12.4
	c-39.7,14.9-77.6,4.2-102.1-29.6c-11-15.1-12.6-32.3-4.1-49.4c13.8-27.6,33-50.3,62.1-62.3c24.6-10.2,41.7-26.9,53.2-50.7
	c11.3-23.3,30-37.8,55.5-44.6c47.8-12.8,68-49.5,52.5-96.5c-5.5-16.8-15.1-32.5-23.7-48.2c-11.6-21.1-11.5-39,5.7-55.7
	c17.1-16.6,36.2-31.4,55.6-45.1c19.6-13.8,32.1-29.7,29.5-55.2c-0.8-8,1.3-16.9,4.2-24.5c4.7-12.5,13.3-22.6,28.3-19.7
	c14,2.7,20.6,13.4,21.8,27.3c4,45.3-21,90.7-61.3,111.7c-41.2,21.4-47.2,44.7-21.9,84.5c1.9,3,3.7,6.2,6,9
	c19.9,24.7,25,48.4,1.7,75.5c-15,17.4-5.8,33.3,18.3,37.4c11.6,1.9,23.9,2.7,34.6,7c12.9,5.2,19.1,16.6,15.5,30.8
	c-3.3,13.3-14.6,18-26.4,17.1c-12.8-1-26.5-3-37.6-8.7c-46.7-23.9-92.5-16.3-122.9,25.9c-23.9,33.3-50.2,61.5-88.1,79.4
	c-23.9,11.3-25.2,31.6-5.8,42.2c4.8,2.6,11.8,4.1,16.9,2.7c30.4-8.3,56.1-23.6,73.4-51.1c9.2-14.7,18.2-29.7,29.2-43.1
	c20.5-25,44.9-31.7,73.7-16.8c33.2,17.1,66.6,11.1,100.2,6.7c17.8-2.3,31.3-19.2,32.8-38.2c2.1-27.9-5.6-53.1-28.9-69.8
	c-22-15.8-28.9-35.2-22.4-60.8c4.6-17.8-3.5-31.5-15.9-43.2c-5.2-4.9-11.5-8.9-16-14.4c-9.7-11.8-8-30.2,3-38.8
	c12.4-9.8,31.5-8.4,39.4,5.7c18.5,33.1,45.9,46.2,83,46.2c11.9,0,27.6,6.4,34.9,15.3c15.8,19.2,28.1,41.5,40.3,63.4
	c6.5,11.7,3.9,24.4-9.1,30.8c-13.7,6.8-26,2.7-34-10.4c-6.2-10.2-9.9-22.4-17.5-31.3c-9.8-11.4-21.6-21.9-34.3-29.8
	c-4.8-2.9-16.9,0.5-21.8,5.2c-4,3.8-4.8,14.9-2.3,20.6c4.3,9.4,11.3,18.4,19.1,25.3c23.5,20.5,32.6,46,26.1,75.8
	c-5.6,25.5,2.5,44.5,21.6,60.4c3.2,2.7,6.4,5.4,9.7,8c29.3,23.5,50,31.2,74.9,24.1v-52.4c-5.4,6.7-14.1,11.3-23.1,11.1
	c-20.2-0.4-41.7-24.4-40.6-45.3c0.8-15.3,8.5-21.8,25-21.2c15.9,0.6,31,10.3,38.7,23V673c-2.6-2.3-5.1-5.2-7.5-8.9
	c-22.7-34-33-68.7-6.9-106.4c6.5-9.4,11-20.7,14.5-31.8V503c-3.3-5.6-10.1-9.1-20.3-10.9c-8.2-1.5-16.7-2.1-24.6-4.4
	c-17.6-5.2-24.1-23.8-10.7-35.8c9.2-8.2,25.2-16.6,35.6-14.1c6.9,1.6,13.5,4.3,20,7.4v-65c-3.5-4.2-6.7-8.5-9.6-13
	c-13.4-21.1-29.4-33-54.1-36.1c-36.7-4.6-58.6-40.6-44.4-74.4c3.9-9.3,15.9-20,25-20.9c7.6-0.7,17.2,11.5,24.5,19.2
	c3.3,3.5,2.1,10.9,5,15.1c5.3,7.7,10.8,17.9,18.5,20.7c11.8,4.3,20.1-4.5,27.1-15.1c2.5-3.8,5.1-7.4,7.9-11v-60.3
	c-12.4,8.8-25.4,9.9-41.3,2.9c-16.1-7.1-34.1-11-51.7-13.4c-26.6-3.6-53.6-4.6-80.4-6.8c-15-1.2-27.5-6-29.2-23.2
	c-1.6-16.1,10.7-30.3,28.2-30.9c13.6-0.5,27.4,1.5,40.9,3.7c30.1,5,59.9,12.4,90.1,15.6c12.7,1.3,27.2-3.5,39.3-9
	c1.4-0.6,2.7-1.3,4.1-2v-51C1890.5,107.7,1857,107.6,1821.8,99.6z M153.4,238c-3.6,4.4-10.5,6.3-12.3,7.3
	c-27.7-0.6-40.5-20.4-30.1-41.1c12.5-24.9,32-43.6,57.7-53.7c7-2.8,20.5,1.2,25.9,7c4.4,4.7,4.7,18.8,0.8,24.9
	C183,201.9,168.2,220,153.4,238z M300,183.7c-17.1,28.2-35.2,55.7-53,83.4c-1.3,2-2.8,3.9-4.5,5.6c-16.3,17.3-34.9,20.6-47.1,8.5
	c-10.6-10.5-8.3-29.2,8.5-44.2c24.7-22.2,41-47.4,42.6-81.8c0.9-18.4,18.7-32.8,33.7-31.2c15.7,1.6,24.9,14.7,26.6,36.2
	C304.6,168,304.1,176.9,300,183.7z M767.9,917.5c15-18.4,30.9-36.5,49-51.8c7-6,23.1-8.4,30.9-4.4c8.6,4.5,12.3,18.2,19,29.2
	c-6.7,12.6-10,25-18,32.5c-19.3,18.1-43,27.4-70.3,23.7C766.3,945.1,759.1,928.2,767.9,917.5z M444.4,283
	c-4.2-3.9-4.7-11.6-5.4-13.6c0.7-20.7,9.2-27.8,24.6-23.5c7.8,2.1,15.8,5.9,22,11c16.7,13.6,32.8,27.9,48.4,42.7
	c5.8,5.5,12.6,12.9,13.5,20.1c1,8.3-1.6,20.8-7.3,25.2c-5.6,4.2-20,3.9-25.7-0.6C490,325.2,467.1,304.2,444.4,283z M124.1,393.6
	c16.7,0.7,28.2,16.9,28.2,39.7c-0.1,21.4-14.3,39-31.7,39c-17.9,0.1-30-14.3-29.8-35.3C91.1,412,105.8,392.9,124.1,393.6z M59,644.4
	c-18.8,0.8-31.6-10-32.5-24.3c-1-15.1,11.1-27.4,30.5-28.6c10.6-0.7,21.4,2,32.2,2.3c10.1,0.2,21.5,1.9,30-2
	c8.4-3.9,13.9-14.1,20.6-21.5c-7.8-6.4-14.7-15.6-23.7-18.6c-9.7-3.2-21.3-0.7-32.1-0.7c0,0.3-0.1,0.5-0.1,0.8
	c-13-1.4-26.4-1.3-39-4.5c-14.6-3.7-24.2-13.5-21.5-30.4c2.8-17.2,15.3-23.7,30.2-21c34,6.2,67.6,15.2,101.5,22
	c22.7,4.6,45.7,7.9,68.7,10.9c16.2,2.1,29-5.2,38.9-18c3.7-4.7,7.2-10.6,12.2-13c7.4-3.5,17.5-7.8,23.7-5.1
	c6.3,2.7,13.2,13.7,12.6,20.4c-1.2,13.8-6.5,27.6-11.5,40.8c-7.9,20.6-19.6,40-24.9,61.1c-8.5,33.9,11.8,73.2,42.3,89.8
	c19,10.3,33.5,7.1,47.6-9.4c15.5-18.2,30.8-36.7,48-53.3c8.7-8.4,20.7-14.3,32.2-18.7c12.2-4.7,24.5-1.8,30.6,11.2
	c6.2,13.2,2.9,25.3-10.3,32.3c-26.3,14-48.6,32.1-67.1,55.8c-15.3,19.6-18.7,39.5-9.6,62.1c3.1,7.8,5.9,15.7,9.3,23.4
	c5.7,12.5,4.9,23.7-6.7,31.9c-12.6,8.9-26.2,4.5-33.8-5.7c-8.2-11-14.1-25.2-16.3-38.8c-4.1-25.1-16.8-39.6-39.5-50.9
	c-18.5-9.2-34.7-24.5-49.5-39.4c-9.4-9.5-13.7-23.8-21.3-35.2c-14.5-21.6-17.7-41.9,0-64.1c7.2-9,15.3-22.1,0.3-33
	c-11.2-8.1-32.2-4.8-39.5,9C162.4,635.9,111.6,642.2,59,644.4z M135,682.4c7.2-7.5,13.7-19.7,23.4-23.3c13.2-5,24.2,3.1,31.1,17
	c10.9,21.7,23.7,42.5,35.6,63.7c3.2,5.7,8.4,11.7,8.2,17.4c-0.4,8-2.7,19-8.3,22.9c-6.3,4.4-17.8,4.7-25.6,2.3
	c-7.1-2.2-13.6-9.7-18-16.5c-13.4-20.4-25.8-41.4-38.2-62.5C140.1,698.4,138.8,692.5,135,682.4z M230.1,915.8
	c-3.8,4.5-19.8,3.9-26.6-0.3c-20.7-12.9-40-28.1-58.9-43.6c-5.4-4.4-7.7-12.7-13.9-23.3c10.3-9.7,18.6-20.5,29.5-26.9
	c12.1-7.1,25.3-2.6,33.7,8.3c14.2,18.4,28.6,37.1,39.8,57.3C237.7,894.4,235.5,909.4,230.1,915.8z M471.8,950
	c-11.7,15-29.7,20.8-42.4,9.8c-23.7-20.6-51.6-28-81.2-33.9c-62.1-12.4-97.5-77.1-102.8-113.3c-1.3-16.8,5.1-28.1,20.3-30.7
	c15.7-2.7,26.3,5.7,31.2,20.8c1.8,5.7,3.1,11.6,4.6,17.4c10.2,39.8,34.8,60.3,75.8,65.3c20.1,2.5,40.2,6.5,59.7,11.8
	c10,2.7,19.8,8.7,28,15.3C479.6,924.3,481.4,937.8,471.8,950z M491.9,692.3c15.6-9.7,36.6-5.3,42.8,7.6c6.3,13-1.5,29.7-17.7,38
	c-5.3,2.7-10.7,5.2-15.9,8.1c-17.4,9.8-22.4,22.3-17.8,41.9c3,12.7,6.7,25.6,7.1,38.5c0.5,19.1-10.9,32.6-25.2,34
	c-15.1,1.4-25.6-9-29-30c-1.3-8.2-0.9-16.6-1.3-25c0.4,0,0.9,0,1.3-0.1c-0.3-6.6,0.4-13.3-1-19.6c-7.1-30.7,4.4-53.7,28.5-71.9
	C473,706.8,481.8,698.6,491.9,692.3z M569.5,424.2c-0.9,24.4-4.2,49-9.7,72.7c-6.1,26.1-16.9,33-43.3,34.5
	c-7.2,0.4-14.4,0.1-21.6,0.1c0,0.2,0,0.4,0,0.6c-9.6-0.5-19.3,0-28.6-1.6c-16.7-2.7-30.8-12.4-32.2-29.2c-0.9-10.6,5.5-24.8,13.5-32
	c5.2-4.7,19.3-0.8,29,1.3c5.4,1.1,9.8,8.3,15.1,9c7.7,1.1,17.8,1.5,23.2-2.7c5.2-4,8.2-14.2,7.9-21.6c-0.4-9.3-6.4-18.1-7.7-27.5
	c-1.5-11-3-23,0.1-33.2c2.1-6.8,11.7-15,18.7-15.7c7.8-0.8,19.7,3.9,24,10.2C564.6,399.2,569.9,412.5,569.5,424.2z M649.7,357.2
	c-0.6,8.8-4.8,19.7-11.1,25.2c-6.6,5.8-19.7,10.7-26.5,7.9c-7.7-3.2-12.6-15.1-16.5-24.2c-2.4-5.6-0.4-13-0.4-23.7
	c5.5-29.3-11.3-51.5-35.7-71.2c-15.7-12.7-28.4-29-43.8-42.2c-12.6-10.8-26.8-19.8-40.9-28.8c-10.9-6.9-18.9-14.8-17.1-28.8
	c1.8-13.9,12.7-17.3,23.9-20.9c44.5-14.1,76.6-40.8,88.9-87.7c1.7-6.3,4.6-12.3,6.6-18.6c3.8-12,11.9-18.2,24.4-15.9
	c12.4,2.3,21.9,9.9,20.2,23.4c-5.1,39.6-17.4,77.5-52.4,99.7c-37.9,24-37.1,36.8-5.2,66.3c15.4,14.2,31.9,27.2,47.5,41.2
	C640.8,285.1,652.2,318.8,649.7,357.2z M692.8,128.3c0.5,36.6-19.1,63.3-43.8,86.9c-10.2,9.8-32.2,7.2-41.2-2.7
	c-9.3-10.3-8.7-24.9,2.4-37.3c6.8-7.5,16.1-13.3,21.3-21.6c6.1-9.7,9-21.5,13.1-32.4c0.6-1.6,0.1-3.6,0.2-5.4
	c1.1-19.9,10.6-33.1,23.6-33c12.9,0.2,23.3,14.1,24.4,32.8C693,119.9,692.8,124.1,692.8,128.3z M758.3,153
	c-17,0.4-30.6-16.4-30.4-37.5c0.2-19.8,11.4-33.1,27.8-32.8c17.4,0.3,29.9,15.5,29.7,35.9C785.2,137.9,773.5,152.7,758.3,153z
	 M1372.4,986.8c-0.6,21.1-12.4,33.7-31.4,33.5c-20.2-0.2-32.6-16-32.3-41.2c0.2-18,13.3-32.2,29.5-32.1
	C1356,947.2,1373,967,1372.4,986.8z M1183.6,149.3c-5.7-23.7-10.3-47.8-13-72c-2-18.1,7.7-33.2,23.3-41.5c6.9-3.7,19.8-3.8,25.8,0.4
	c5.9,4.2,11,17.3,8.9,24.1c-14.7,46.7-7.6,90.9,11.2,134.6c13.6,31.7-2.1,51.1-36.3,48.5c-17.6-1.3-35.5,2.8-53.3,3.3
	c-10.5,0.3-21.3-0.5-31.5-2.8c-11-2.4-19.5-10.8-15.6-22.1c2.9-8.2,11.2-15.9,19-20.3c6.1-3.4,15.2-1.3,22.9-1.7
	C1184.8,200.3,1193.1,188.6,1183.6,149.3z M1122.1,114.2c15,0.4,23.4,9,23,23.6c-0.3,15.5-14.5,31.5-27,30.7
	c-12.3-0.9-24.5-15.4-24.2-29C1094.2,123.4,1105.1,113.7,1122.1,114.2z M1207.9,337c-24.3,0.5-48.9-3-73.1-6.9
	c-26.5-4.2-52.1-4.7-77.8,4.8c-21.8,8.1-41.8,2.4-47.4-11.7c-6.3-15.8,5.5-36.5,29.3-42.2c18.6-4.4,38.9-3.1,58.3-2
	c38.6,2.1,77.4,9.4,115.7,7.4c20.1-1.1,41.5-14.5,58.6-27.3c21.5-15.9,41.7-25.6,69.2-19.8c34.9,7.3,78.6-16.9,90.8-50.2
	c4.4-12.1,2.3-26.7,1.9-40.2c-0.2-7.6-5.5-15.8-3.9-22.6c1.9-8.3,7.2-19.3,13.9-22.1c6.5-2.7,19.2,1.1,24.8,6.6
	c15.4,15.2,18.4,35.7,17,57.9c3.7,27.1-8.8,48.6-28.5,67.3c-10.4,9.9-20.3,20.4-30.3,30.7c-18.1,18.9-39.4,26.9-65.1,19
	c-24.7-7.7-45.9-0.6-65.6,14.2C1269.7,319.7,1241.4,336.3,1207.9,337z M1300.7,506.8c-21.5-0.2-31.6-15.8-28.3-34.6
	c1.3-7,4.9-14,4.7-20.9c-0.4-14.9-8.8-24.8-21.6-32.7c-12.7-7.8-30.4-14.4-26.6-34.1c3.7-19.4,22.8-15.2,36.2-20.1
	c13.8-5.1,26.9-12.2,39.8-19.2c11.5-6.2,22-14.4,33.7-19.8c11-5.1,22.8-4.8,29.9,7.4c7.6,13.1,5.3,26.5-6.1,35.6
	c-8.6,6.8-19.8,10.7-30.3,14.8c-24.8,9.8-28.6,21.9-12.9,43.5c19,26.1,21.9,41,7.1,59.8C1319,496.2,1306.8,502.2,1300.7,506.8z
	 M1367.6,583.5c-18.6-0.4-40-21-40.5-38.9c-0.4-14.6,13.2-27.2,29.5-27.3c17.9-0.1,40.5,21.5,40.6,38.9
	C1397.3,570.7,1383.1,583.9,1367.6,583.5z M1678.8,235.8c-14.8,29.4-20.5,58.5-12.3,91.8c3.4,13.8-4,31.1-9,46
	c-6.1,18-15.9,34.8-22.1,52.8c-12.7,36.8-42,59-70.5,81.7c-12.1,9.7-26.3,16.7-38.9,25.9c-20.5,15-20.8,33.2-0.3,48.4
	c20.4,15.2,35.4,33.8,43.2,58c7.7,24,4.2,37.5-16.6,51.2c-14.8,9.8-30.9,18.2-47.4,24.8c-14.9,5.9-26.9,0-33-15.7
	c-6.2-16,2.4-24.9,15.2-31.6c2.1-1.1,4.3-2.5,6.6-2.9c29.4-4.8,33-27.6,7.5-46.3c-15.4-11.3-31-22.4-46.7-33.5
	c-27.3-19.4-26-38.6,3.5-53.2c6.4-3.2,12.6-6.8,18.6-10.8c13.1-8.9,18.6-20.8,10.6-35.5c-23-42.3-11.9-78.1,19.2-111.1
	c6-6.4,10.2-14.8,14-22.8c5-10.4,6.3-21.2-4.8-28.9c-11.6-8-25.6-6.8-32.3,3.8c-19.7,31.3-38.6,63.3-53.8,96.9
	c-4.7,10.3,2.3,26.6,5.5,39.8c5.4,22.7,2.9,34.4-10.1,38.8c-15,5.1-32.3-3.7-40.1-22.3c-5-11.9-7.5-24.9-11.1-37.3
	c0.7-0.2,1.5-0.5,2.2-0.7c0.3-4.8-0.7-10.1,1.1-14.3c23.1-52.4,42-107.7,88.4-145.6c24.6-20.2,51.1-18.8,79.1,1
	c24.3,17.2,34.3,42.2,23.9,70.9c-6.8,18.8-19.1,35.6-28.7,53.4c-6.4,12-14.4,23.7-17.8,36.5c-1.7,6.5,3.3,18.7,8.9,22.1
	c5.4,3.1,17.8,0.6,23.1-4.1c9.2-8,16.6-18.9,22.4-29.8c12.2-22.7,22.4-46.4,34.4-69.2c11.1-21,10-40.8-1-61.5
	c-15.4-29-13.3-35.3,10.9-56.7c6.3-5.6,12.2-13.7,14.2-21.7c4.1-16.8-10.1-30.2-26.7-24.9c-9.6,3.1-17.8,11.1-26,17.6
	c-9.3,7.3-16.9,17.4-27.1,22.8c-12.9,6.8-26.7,3.5-34.4-9.7c-7.3-12.6-6.4-27.4,6.3-35.4c25.7-16.2,52.5-30.9,79.8-44.4
	c6.8-3.4,18.3-1.9,25.8,1.5c12.3,5.7,23.8,13.8,34.2,22.6C1689.5,193.8,1692.5,208.3,1678.8,235.8z M1726.4,234
	c6.2-13.7,21-16.3,34.1-8.6c12.5,7.3,17.8,19,12.2,33.8c-0.6,1.7-1.2,3.4-1.8,5.1c-21.4,55.4,8.3,100.9,68.5,105.4
	c7,0.5,14.5,1.8,20.7,5c15.3,7.7,17.7,26.2,2.5,32.2c-41.6,16.3-47.9,53.1-57.5,88.7c-5.8,21.5,1.4,30.2,23.9,29.8c3,0,6-0.4,9-0.6
	c13.4-1.2,27.4-2.8,31.7,14.8c4.1,16.9-3.3,29.9-21.1,36.3c-29.5,10.7-53.9-1.5-76.4-19c-19.7-15.3-22-36.4-15.7-58.6
	c6.5-23,14.8-45.4,22.4-68.1c6.9-20.4-0.1-36.3-16.3-49c-4.2-3.3-8.4-7.2-13.2-9.3c-35.2-15.4-46.3-44.2-41.2-79.3
	C1711.1,272.7,1718,252.6,1726.4,234z"/>
<path class="st2" d="M432.8,1062.9c-7.7,4.7-14.7,10.6-21.3,17.1h80.3C477,1053.8,460,1046.3,432.8,1062.9z"/>
<path class="st2" d="M374.2,1054.3c10.7-8.8,5.9-28.1-6.8-28c-33.4,0.3-60.4-13-87.7-29.8c-13-8-28.6,1.8-34.4,16.5
	c-5.4,13.5,0.5,27.7,14.8,34c6.5,2.9,13.8,4,20.7,6c15.1,4.6,24.8,13.7,28.7,26.9H354C358.6,1070.6,365,1061.9,374.2,1054.3z"/>
<path class="st2" d="M1300.5,863.1c6.1-4.8,12.1-9.9,17.2-15.7c30.2-34.4,23.4-74.5-15.2-98.8c-18.2-11.4-36.5-23.4-51.9-38.2
	c-19-18.3-39.5-28.8-66.1-32c-43.8-5.4-79.5-54.4-66.2-91.7c10-28,1.6-47.1-17.8-65.6c-19.2-18.3-33.2-39.4-31.5-67.7
	c0.2-3.9-0.7-9.4-3.3-11.8c-7-6.3-15.7-16.3-22.7-15.5c-7.1,0.7-16.8,11.7-18.7,19.8c-8.3,35.8-4.9,68.4,33.6,86.7
	c2.1,1,3.9,2.8,5.8,4.3c14.2,11.3,18.5,24.5,10.4,35.5c-10.2,13.8-23.7,9.7-35.4,3.2c-13.5-7.5-26.8-16.2-38.2-26.5
	c-20.9-18.9-45.6-25.2-72.6-26.5c-31.7-1-51.4,17.4-50.9,44.5c0.4,23-0.9,46.2-4.2,69c-3.8,26,3.4,37.1,29.1,40.6
	c21.7,2.9,43.4,6.7,64.8,11.3c32.1,6.9,54,22.3,60.7,58.9c5.7,31.6,27,56.8,52.7,77.1c22,17.4,47.2,23.1,72.7,13.5
	c36.1-13.6,63.1-4.1,88.5,22.8C1262.5,882.7,1276.3,882.3,1300.5,863.1z M1041.6,661.3c-3.5,0.7-7.1,1-10.6,1.4
	c-0.4,1.1-0.9,2.2-1.3,3.2C998,654.2,966,643.4,935,630c-7.2-3.1-12.7-14.2-15.6-22.8c-4.4-12.8-4.4-27.3,8.7-35.4
	c12.7-7.9,25.7-3.7,35.6,7c20.2,21.7,44.3,33.5,74.4,33.2c21.6-0.2,32.1,7.5,33,22.2C1071.9,649.3,1063.3,657.2,1041.6,661.3z
	 M1206.7,773.5c-21.3,10.1-43.9,17.5-55.7,22.1c-57.4,0.8-99.6-56.2-85.5-99.6c5.6-17.2,17.9-25.2,33.7-22.2
	c15.1,2.9,23,16.1,20.7,34.5c-0.6,4.7-2,9.5-1.9,14.2c0.6,18.9,19,29.6,35.5,20.5c8.9-4.9,16.9-11.3,25.9-16.1
	c14.6-7.8,32.3-3.7,39.9,8.5C1226.8,747.3,1222,766.2,1206.7,773.5z M1238.4,801c-0.2-15.1,10.7-26.1,25.5-25.9
	c15.2,0.2,28.2,13.4,28.3,28.7c0,15.8-9.7,25.6-25.6,25.5C1250.7,829.2,1238.6,817.1,1238.4,801z"/>
<path class="st2" d="M1198.2,627.5c20.9,2,36.8,12.2,52.5,24.9c25.5,20.7,51.7,40.5,78,60.1c6.1,4.5,13.7,7.9,21.1,9.3
	c15.1,3,27.7-2.6,33.6-17.2c6.2-15.3-4.8-23.3-16.2-29.6c-5.1-2.8-11.5-3.1-16.9-5.5c-15.2-6.6-31.9-11.4-44.9-21
	c-16.6-12.3-30.5-28.5-45.1-43.4c-3.5-3.6-7.2-7.1-10.9-10.3c-16.2-14-34.5-24-57.1-26c-12.7-1.3-23.7,3.7-28,13.6
	c-0.6,1.4-1.1,2.9-1.4,4.5c-1.8,9.1,3.6,21.9,10,29.6C1178.2,622.9,1189.3,626.7,1198.2,627.5z"/>
<path class="st2" d="M1192.3,568.8c22.6,1.9,40.9,11.9,57.1,26C1233.2,580.7,1214.9,570.7,1192.3,568.8c-12.7-1.3-23.7,3.7-28,13.6
	C1168.6,572.5,1179.6,567.5,1192.3,568.8z"/>
<path class="st2" d="M1005.8,831.2c-14.4,7.1-28.3,15.4-42.6,22.5c-18.1,9-20.6,26.4-26.4,48.3c5.3,7,10.6,19.7,20,25
	c11.9,6.8,19.9-5.6,27.5-14.1c13.7-15.4,26.8-31.4,42-45.1c9.8-8.8,15.5-17,8.9-29C1028.5,826.5,1017.4,825.5,1005.8,831.2z"/>
<path class="st2" d="M1221.4,1050.6c-10.8,8.3-20.3,18.6-28.9,29.4h50.5c1.7-4.6,2.7-9.1,2.6-13
	C1245.3,1053.5,1231.5,1042.7,1221.4,1050.6z"/>
</svg>
